ISO-10303-21;
HEADER;
FILE_DESCRIPTION (( 'STEP AP214' ),
    '1' );
FILE_NAME ('Base.STEP',
    '2025-11-12T10:05:42',
    ( '' ),
    ( '' ),
    'SwSTEP 2.0',
    'SolidWorks 2025',
    '' );
FILE_SCHEMA (( 'AUTOMOTIVE_DESIGN' ));
ENDSEC;

DATA;
#1 = LINE ( 'NONE', #519, #188 ) ;
#2 = PLANE ( 'NONE',  #864 ) ;
#3 = VERTEX_POINT ( 'NONE', #642 ) ;
#4 = CARTESIAN_POINT ( 'NONE',  ( 23.00000000000001066, 0.8000000000000000444, -46.99999999999998579 ) ) ;
#5 = CARTESIAN_POINT ( 'NONE',  ( 9.184850993605149917E-16, 0.000000000000000000, -61.49999999999999289 ) ) ;
#6 = CARTESIAN_POINT ( 'NONE',  ( -23.00000000000001066, 0.000000000000000000, -25.99999999999999645 ) ) ;
#7 = DIRECTION ( 'NONE',  ( 0.000000000000000000, 0.000000000000000000, -1.000000000000000000 ) ) ;
#8 = CARTESIAN_POINT ( 'NONE',  ( -15.00000000000000711, 0.000000000000000000, -42.99999999999999289 ) ) ;
#9 = ORIENTED_EDGE ( 'NONE', *, *, #33, .F. ) ;
#10 = DIRECTION ( 'NONE',  ( -0.000000000000000000, 1.000000000000000000, -0.000000000000000000 ) ) ;
#11 = EDGE_CURVE ( 'NONE', #1341, #1041, #593, .T. ) ;
#12 = LINE ( 'NONE', #1184, #1081 ) ;
#13 = CARTESIAN_POINT ( 'NONE',  ( -25.00000000000001066, 0.8000000000000000444, -69.99999999999980105 ) ) ;
#14 = CARTESIAN_POINT ( 'NONE',  ( -24.57770876399968074, 0.8000000000000000444, -70.84458247200046799 ) ) ;
#15 = AXIS2_PLACEMENT_3D ( 'NONE', #13, #82, #498 ) ;
#16 = CARTESIAN_POINT ( 'NONE',  ( -23.00000000000001066, 0.8000000000000000444, -25.99999999999999645 ) ) ;
#17 = AXIS2_PLACEMENT_3D ( 'NONE', #1193, #1050, #874 ) ;
#18 = CARTESIAN_POINT ( 'NONE',  ( -16.10557280900006560, 0.8000000000000000444, -87.78885438199981195 ) ) ;
#19 = MECHANICAL_DESIGN_GEOMETRIC_PRESENTATION_REPRESENTATION (  '', ( #731 ), #733 ) ;
#20 = ORIENTED_EDGE ( 'NONE', *, *, #1070, .T. ) ;
#21 = VECTOR ( 'NONE', #132, 1000.000000000000000 ) ;
#22 = FACE_OUTER_BOUND ( 'NONE', #1017, .T. ) ;
#23 = DIRECTION ( 'NONE',  ( 0.000000000000000000, 0.000000000000000000, 1.000000000000000000 ) ) ;
#24 = ADVANCED_FACE ( 'NONE', ( #1160 ), #651, .F. ) ;
#25 = CYLINDRICAL_SURFACE ( 'NONE', #129, 2.000000000000001776 ) ;
#26 = ORIENTED_EDGE ( 'NONE', *, *, #1111, .F. ) ;
#27 = ORIENTED_EDGE ( 'NONE', *, *, #468, .T. ) ;
#28 = CARTESIAN_POINT ( 'NONE',  ( 25.00000000000001066, 0.8000000000000000444, -69.05572809000068446 ) ) ;
#29 = FACE_OUTER_BOUND ( 'NONE', #262, .T. ) ;
#30 = CARTESIAN_POINT ( 'NONE',  ( -25.00000000000000711, 0.8000000000000000444, -2.000000000000000000 ) ) ;
#31 = DIRECTION ( 'NONE',  ( -0.000000000000000000, 1.000000000000000000, -0.000000000000000000 ) ) ;
#32 = DIRECTION ( 'NONE',  ( 0.000000000000000000, 1.000000000000000000, 0.000000000000000000 ) ) ;
#33 = EDGE_CURVE ( 'NONE', #479, #809, #1046, .T. ) ;
#34 = VERTEX_POINT ( 'NONE', #109 ) ;
#35 = FACE_OUTER_BOUND ( 'NONE', #77, .T. ) ;
#36 = LINE ( 'NONE', #631, #455 ) ;
#37 = LINE ( 'NONE', #852, #730 ) ;
#38 = DIRECTION ( 'NONE',  ( 0.000000000000000000, 0.000000000000000000, 1.000000000000000000 ) ) ;
#39 = CARTESIAN_POINT ( 'NONE',  ( 12.52786404500041684, 0.000000000000000000, -89.99999999999998579 ) ) ;
#40 = EDGE_LOOP ( 'NONE', ( #192, #441, #849, #467 ) ) ;
#41 = VECTOR ( 'NONE', #851, 1000.000000000000000 ) ;
#42 = EDGE_CURVE ( 'NONE', #598, #114, #120, .T. ) ;
#43 = CARTESIAN_POINT ( 'NONE',  ( -25.00000000000001066, 0.8000000000000000444, -69.05572809000062762 ) ) ;
#44 = ORIENTED_EDGE ( 'NONE', *, *, #774, .F. ) ;
#45 = CIRCLE ( 'NONE', #212, 2.000000000000001776 ) ;
#46 = ORIENTED_EDGE ( 'NONE', *, *, #533, .T. ) ;
#47 = CARTESIAN_POINT ( 'NONE',  ( 12.52786404500041684, 0.8000000000000000444, -89.99999999999998579 ) ) ;
#48 = CARTESIAN_POINT ( 'NONE',  ( 3.149999999999991029, 3.252606517456513302E-16, -34.74999999999997868 ) ) ;
#49 = ORIENTED_EDGE ( 'NONE', *, *, #693, .T. ) ;
#50 = ORIENTED_EDGE ( 'NONE', *, *, #1247, .F. ) ;
#51 = DIRECTION ( 'NONE',  ( 0.000000000000000000, 0.000000000000000000, -1.000000000000000000 ) ) ;
#52 = FACE_OUTER_BOUND ( 'NONE', #1212, .T. ) ;
#53 = DIRECTION ( 'NONE',  ( 7.709882115452476934E-17, 0.000000000000000000, 1.000000000000000000 ) ) ;
#54 = ORIENTED_EDGE ( 'NONE', *, *, #489, .T. ) ;
#55 = EDGE_CURVE ( 'NONE', #145, #522, #1066, .T. ) ;
#56 = EDGE_CURVE ( 'NONE', #191, #788, #440, .T. ) ;
#57 = VECTOR ( 'NONE', #344, 1000.000000000000000 ) ;
#58 = EDGE_LOOP ( 'NONE', ( #556, #703, #672, #70 ) ) ;
#59 = UNCERTAINTY_MEASURE_WITH_UNIT (LENGTH_MEASURE( 1.000000000000000082E-05 ), #1269, 'distance_accuracy_value', 'NONE');
#60 = DIRECTION ( 'NONE',  ( 0.000000000000000000, 0.000000000000000000, -1.000000000000000000 ) ) ;
#61 = VECTOR ( 'NONE', #971, 1000.000000000000000 ) ;
#62 = VERTEX_POINT ( 'NONE', #848 ) ;
#63 = VECTOR ( 'NONE', #380, 1000.000000000000000 ) ;
#64 = FILL_AREA_STYLE_COLOUR ( '', #386 ) ;
#65 = VECTOR ( 'NONE', #78, 1000.000000000000000 ) ;
#66 = AXIS2_PLACEMENT_3D ( 'NONE', #1164, #254, #551 ) ;
#67 = ADVANCED_FACE ( 'NONE', ( #840 ), #1258, .T. ) ;
#68 = ORIENTED_EDGE ( 'NONE', *, *, #425, .T. ) ;
#69 = DIRECTION ( 'NONE',  ( 0.000000000000000000, 0.000000000000000000, -1.000000000000000000 ) ) ;
#70 = ORIENTED_EDGE ( 'NONE', *, *, #590, .F. ) ;
#71 = DIRECTION ( 'NONE',  ( 0.000000000000000000, 0.000000000000000000, -1.000000000000000000 ) ) ;
#72 = DIRECTION ( 'NONE',  ( 0.000000000000000000, -1.000000000000000000, 0.000000000000000000 ) ) ;
#73 = DIRECTION ( 'NONE',  ( 0.000000000000000000, 0.000000000000000000, 1.000000000000000000 ) ) ;
#74 = ADVANCED_FACE ( 'NONE', ( #323 ), #2, .F. ) ;
#75 = ORIENTED_EDGE ( 'NONE', *, *, #99, .T. ) ;
#76 = DIRECTION ( 'NONE',  ( 0.000000000000000000, -5.421010862427522170E-16, -1.000000000000000000 ) ) ;
#77 = EDGE_LOOP ( 'NONE', ( #1091, #1096, #1003, #738 ) ) ;
#78 = DIRECTION ( 'NONE',  ( -0.000000000000000000, 1.000000000000000000, -0.000000000000000000 ) ) ;
#79 = DIRECTION ( 'NONE',  ( 0.8944271909999169656, 0.000000000000000000, -0.4472135954999559848 ) ) ;
#80 = ORIENTED_EDGE ( 'NONE', *, *, #387, .T. ) ;
#81 = ORIENTED_EDGE ( 'NONE', *, *, #1222, .T. ) ;
#82 = DIRECTION ( 'NONE',  ( 0.8944271909999170767, 0.000000000000000000, 0.4472135954999555962 ) ) ;
#83 = EDGE_CURVE ( 'NONE', #561, #62, #263, .T. ) ;
#84 = FACE_OUTER_BOUND ( 'NONE', #458, .T. ) ;
#85 = AXIS2_PLACEMENT_3D ( 'NONE', #1276, #897, #268 ) ;
#86 = VECTOR ( 'NONE', #722, 1000.000000000000000 ) ;
#87 = AXIS2_PLACEMENT_3D ( 'NONE', #1291, #345, #53 ) ;
#88 = DIRECTION ( 'NONE',  ( 4.336808689942013792E-15, 0.000000000000000000, -1.000000000000000000 ) ) ;
#89 = CARTESIAN_POINT ( 'NONE',  ( 3.149999999999991029, 3.252606517456513302E-16, -34.74999999999997868 ) ) ;
#90 = EDGE_LOOP ( 'NONE', ( #982, #447, #1219, #1085 ) ) ;
#91 = APPLICATION_PROTOCOL_DEFINITION ( 'draft international standard', 'automotive_design', 1998, #331 ) ;
#92 = ORIENTED_EDGE ( 'NONE', *, *, #142, .T. ) ;
#93 = CARTESIAN_POINT ( 'NONE',  ( -25.00000000000000711, 0.000000000000000000, -1.999999999999999112 ) ) ;
#94 = LINE ( 'NONE', #996, #1217 ) ;
#95 = LINE ( 'NONE', #699, #930 ) ;
#96 = ORIENTED_EDGE ( 'NONE', *, *, #1116, .F. ) ;
#97 = ORIENTED_EDGE ( 'NONE', *, *, #287, .F. ) ;
#98 = DIRECTION ( 'NONE',  ( 0.000000000000000000, 0.000000000000000000, 1.000000000000000000 ) ) ;
#99 = EDGE_CURVE ( 'NONE', #545, #300, #789, .T. ) ;
#100 = EDGE_CURVE ( 'NONE', #1041, #1148, #973, .T. ) ;
#101 = DIRECTION ( 'NONE',  ( 0.000000000000000000, 1.000000000000000000, 0.000000000000000000 ) ) ;
#102 = VERTEX_POINT ( 'NONE', #758 ) ;
#103 = ORIENTED_EDGE ( 'NONE', *, *, #726, .F. ) ;
#104 = DIRECTION ( 'NONE',  ( 0.000000000000000000, 0.000000000000000000, -1.000000000000000000 ) ) ;
#105 = AXIS2_PLACEMENT_3D ( 'NONE', #1289, #76, #979 ) ;
#106 = CIRCLE ( 'NONE', #1123, 2.000000000000001776 ) ;
#107 = DIRECTION ( 'NONE',  ( 0.000000000000000000, -1.000000000000000000, 0.000000000000000000 ) ) ;
#108 = AXIS2_PLACEMENT_3D ( 'NONE', #504, #180, #1323 ) ;
#109 = CARTESIAN_POINT ( 'NONE',  ( 13.00000000000000711, 0.000000000000000000, -42.99999999999999289 ) ) ;
#110 = VECTOR ( 'NONE', #881, 1000.000000000000000 ) ;
#111 = ORIENTED_EDGE ( 'NONE', *, *, #836, .F. ) ;
#112 = SURFACE_SIDE_STYLE ('',( #1139 ) ) ;
#113 = CARTESIAN_POINT ( 'NONE',  ( -21.00000000000001066, 0.8000000000000000444, -69.05572809000064183 ) ) ;
#114 = VERTEX_POINT ( 'NONE', #873 ) ;
#115 = ADVANCED_FACE ( 'NONE', ( #899 ), #569, .T. ) ;
#116 = VERTEX_POINT ( 'NONE', #584 ) ;
#117 = CARTESIAN_POINT ( 'NONE',  ( -15.00000000000000711, 0.8000000000000000444, -42.99999999999999289 ) ) ;
#118 = CARTESIAN_POINT ( 'NONE',  ( -25.00000000000001066, 0.8000000000000000444, -89.99999999999998579 ) ) ;
#119 = CARTESIAN_POINT ( 'NONE',  ( 0.000000000000000000, 0.8000000000000000444, 0.000000000000000000 ) ) ;
#120 = LINE ( 'NONE', #18, #473 ) ;
#121 = ORIENTED_EDGE ( 'NONE', *, *, #1351, .F. ) ;
#122 = DIRECTION ( 'NONE',  ( -3.785471652766322976E-30, -1.000000000000000000, -5.421010862427522170E-16 ) ) ;
#123 = CARTESIAN_POINT ( 'NONE',  ( 0.000000000000000000, 0.000000000000000000, -46.49999999999997868 ) ) ;
#124 = ADVANCED_FACE ( 'NONE', ( #879 ), #790, .T. ) ;
#125 = DIRECTION ( 'NONE',  ( -1.000000000000000000, 0.000000000000000000, 0.000000000000000000 ) ) ;
#126 = DIRECTION ( 'NONE',  ( -0.000000000000000000, 1.000000000000000000, -0.000000000000000000 ) ) ;
#127 = DIRECTION ( 'NONE',  ( -1.000000000000000000, 0.000000000000000000, -7.709882115452476934E-17 ) ) ;
#128 = DIRECTION ( 'NONE',  ( -2.891205793294675368E-16, 0.000000000000000000, -1.000000000000000000 ) ) ;
#129 = AXIS2_PLACEMENT_3D ( 'NONE', #226, #781, #261 ) ;
#130 = ORIENTED_EDGE ( 'NONE', *, *, #557, .F. ) ;
#131 = AXIS2_PLACEMENT_3D ( 'NONE', #4, #532, #638 ) ;
#132 = DIRECTION ( 'NONE',  ( 1.000000000000000000, 0.000000000000000000, 5.782411586589356653E-16 ) ) ;
#133 = DIRECTION ( 'NONE',  ( 0.000000000000000000, -1.000000000000000000, 0.000000000000000000 ) ) ;
#134 = CARTESIAN_POINT ( 'NONE',  ( 15.00000000000000711, 0.000000000000000000, -42.99999999999999289 ) ) ;
#135 = FACE_OUTER_BOUND ( 'NONE', #1241, .T. ) ;
#136 = VERTEX_POINT ( 'NONE', #349 ) ;
#137 = EDGE_LOOP ( 'NONE', ( #1105, #1214, #673, #1300 ) ) ;
#138 = CARTESIAN_POINT ( 'NONE',  ( -3.149999999993744026, 0.8000000000000020428, -38.24999999999997158 ) ) ;
#139 = CARTESIAN_POINT ( 'NONE',  ( -13.00000000000000888, 0.8000000000000000444, -44.99999999999999289 ) ) ;
#140 = DIRECTION ( 'NONE',  ( 0.000000000000000000, 1.000000000000000000, 0.000000000000000000 ) ) ;
#141 = DIRECTION ( 'NONE',  ( 0.000000000000000000, -1.000000000000000000, 0.000000000000000000 ) ) ;
#142 = EDGE_CURVE ( 'NONE', #1113, #621, #1315, .T. ) ;
#143 = VERTEX_POINT ( 'NONE', #762 ) ;
#144 = CARTESIAN_POINT ( 'NONE',  ( -23.00000000000001066, 0.8000000000000000444, -2.000000000000000000 ) ) ;
#145 = VERTEX_POINT ( 'NONE', #375 ) ;
#146 = AXIS2_PLACEMENT_3D ( 'NONE', #682, #484, #1077 ) ;
#147 = EDGE_CURVE ( 'NONE', #270, #809, #405, .T. ) ;
#148 = AXIS2_PLACEMENT_3D ( 'NONE', #741, #128, #539 ) ;
#149 = VERTEX_POINT ( 'NONE', #662 ) ;
#150 = CARTESIAN_POINT ( 'NONE',  ( -24.57770876399968429, 0.000000000000000000, -70.84458247200046799 ) ) ;
#151 = AXIS2_PLACEMENT_3D ( 'NONE', #1093, #853, #860 ) ;
#152 = DIRECTION ( 'NONE',  ( -0.000000000000000000, 1.000000000000000000, -0.000000000000000000 ) ) ;
#153 = LINE ( 'NONE', #676, #534 ) ;
#154 = CIRCLE ( 'NONE', #1018, 1.999999999999998224 ) ;
#155 = ORIENTED_EDGE ( 'NONE', *, *, #1088, .T. ) ;
#156 = AXIS2_PLACEMENT_3D ( 'NONE', #744, #320, #630 ) ;
#157 = EDGE_LOOP ( 'NONE', ( #1338, #600, #310, #44 ) ) ;
#158 = CARTESIAN_POINT ( 'NONE',  ( 23.00000000000001066, 0.000000000000000000, 3.091269448861258096E-17 ) ) ;
#159 = EDGE_CURVE ( 'NONE', #613, #356, #1213, .T. ) ;
#160 = DIRECTION ( 'NONE',  ( 7.709882115452476934E-17, 0.000000000000000000, -1.000000000000000000 ) ) ;
#161 = VERTEX_POINT ( 'NONE', #1192 ) ;
#162 = VERTEX_POINT ( 'NONE', #1086 ) ;
#163 = DIRECTION ( 'NONE',  ( 0.000000000000000000, -1.000000000000000000, 0.000000000000000000 ) ) ;
#164 = ORIENTED_EDGE ( 'NONE', *, *, #1283, .F. ) ;
#165 = LINE ( 'NONE', #958, #844 ) ;
#166 = EDGE_LOOP ( 'NONE', ( #883, #550, #488, #552 ) ) ;
#167 = ORIENTED_EDGE ( 'NONE', *, *, #99, .F. ) ;
#168 = VECTOR ( 'NONE', #395, 1000.000000000000000 ) ;
#169 = CARTESIAN_POINT ( 'NONE',  ( 0.000000000000000000, 0.8000000000000000444, 0.000000000000000000 ) ) ;
#170 = VECTOR ( 'NONE', #921, 1000.000000000000000 ) ;
#171 = VECTOR ( 'NONE', #305, 1000.000000000000000 ) ;
#172 = ADVANCED_FACE ( 'NONE', ( #464 ), #1004, .T. ) ;
#173 = ORIENTED_EDGE ( 'NONE', *, *, #425, .F. ) ;
#174 = DIRECTION ( 'NONE',  ( 0.000000000000000000, 1.000000000000000000, 1.084202172485504434E-15 ) ) ;
#175 = ORIENTED_EDGE ( 'NONE', *, *, #674, .T. ) ;
#176 = CARTESIAN_POINT ( 'NONE',  ( 25.00000000000000711, 0.8000000000000000444, -25.99999999999999645 ) ) ;
#177 = EDGE_CURVE ( 'NONE', #476, #503, #989, .T. ) ;
#178 = ORIENTED_EDGE ( 'NONE', *, *, #674, .F. ) ;
#179 = EDGE_LOOP ( 'NONE', ( #1026, #923, #362, #678 ) ) ;
#180 = DIRECTION ( 'NONE',  ( -0.000000000000000000, 1.000000000000000000, -0.000000000000000000 ) ) ;
#181 = DIRECTION ( 'NONE',  ( -2.891205793294675368E-16, 0.000000000000000000, 1.000000000000000000 ) ) ;
#182 = EDGE_LOOP ( 'NONE', ( #68, #493 ) ) ;
#183 = CARTESIAN_POINT ( 'NONE',  ( -23.00000000000001066, 0.000000000000000000, -46.99999999999998579 ) ) ;
#184 = EDGE_CURVE ( 'NONE', #511, #1033, #477, .T. ) ;
#185 = ORIENTED_EDGE ( 'NONE', *, *, #767, .F. ) ;
#186 = DIRECTION ( 'NONE',  ( 0.000000000000000000, -1.000000000000000000, 0.000000000000000000 ) ) ;
#187 = AXIS2_PLACEMENT_3D ( 'NONE', #1349, #951, #1034 ) ;
#188 = VECTOR ( 'NONE', #595, 1000.000000000000000 ) ;
#189 = DIRECTION ( 'NONE',  ( 0.000000000000000000, 0.000000000000000000, -1.000000000000000000 ) ) ;
#190 = DIRECTION ( 'NONE',  ( -1.000000000000000000, 0.000000000000000000, -1.344030195157067909E-18 ) ) ;
#191 = VERTEX_POINT ( 'NONE', #158 ) ;
#192 = ORIENTED_EDGE ( 'NONE', *, *, #193, .T. ) ;
#193 = EDGE_CURVE ( 'NONE', #319, #621, #562, .T. ) ;
#194 = ADVANCED_FACE ( 'NONE', ( #1301 ), #363, .T. ) ;
#195 = CARTESIAN_POINT ( 'NONE',  ( 23.00000000000001066, 0.8000000000000000444, 3.091269448861258096E-17 ) ) ;
#196 = ORIENTED_EDGE ( 'NONE', *, *, #588, .T. ) ;
#197 = ORIENTED_EDGE ( 'NONE', *, *, #1208, .T. ) ;
#198 = LINE ( 'NONE', #830, #934 ) ;
#199 = EDGE_CURVE ( 'NONE', #356, #1298, #299, .T. ) ;
#200 = CARTESIAN_POINT ( 'NONE',  ( -3.149999999993720046, 2.059984127722458425E-15, -34.74999999999997868 ) ) ;
#201 = ORIENTED_EDGE ( 'NONE', *, *, #1346, .F. ) ;
#202 = CARTESIAN_POINT ( 'NONE',  ( -25.00000000000000711, 0.8000000000000000444, -25.99999999999999645 ) ) ;
#203 = ORIENTED_EDGE ( 'NONE', *, *, #1350, .F. ) ;
#204 = SURFACE_STYLE_USAGE ( .BOTH. , #112 ) ;
#205 = CYLINDRICAL_SURFACE ( 'NONE', #17, 4.000000000000003553 ) ;
#206 = EDGE_CURVE ( 'NONE', #915, #792, #474, .T. ) ;
#207 = VECTOR ( 'NONE', #867, 1000.000000000000114 ) ;
#208 = DIRECTION ( 'NONE',  ( -1.734723475976807094E-15, 0.000000000000000000, -1.000000000000000000 ) ) ;
#209 = VECTOR ( 'NONE', #186, 1000.000000000000000 ) ;
#210 = ORIENTED_EDGE ( 'NONE', *, *, #306, .T. ) ;
#211 = DIRECTION ( 'NONE',  ( -1.000000000000000000, 0.000000000000000000, -2.891205793294675368E-16 ) ) ;
#212 = AXIS2_PLACEMENT_3D ( 'NONE', #1078, #152, #448 ) ;
#213 = ORIENTED_EDGE ( 'NONE', *, *, #489, .F. ) ;
#214 = CARTESIAN_POINT ( 'NONE',  ( -3.149999999993720046, 2.059984127722458425E-15, -34.74999999999997868 ) ) ;
#215 = LINE ( 'NONE', #454, #953 ) ;
#216 = DIRECTION ( 'NONE',  ( 7.142979018728031938E-16, 0.000000000000000000, 1.000000000000000000 ) ) ;
#217 = ORIENTED_EDGE ( 'NONE', *, *, #184, .F. ) ;
#218 = EDGE_CURVE ( 'NONE', #657, #1293, #361, .T. ) ;
#219 = ORIENTED_EDGE ( 'NONE', *, *, #436, .F. ) ;
#220 = CARTESIAN_POINT ( 'NONE',  ( -14.99999999999999822, 0.8000000000000000444, -30.00000000000000355 ) ) ;
#221 = CARTESIAN_POINT ( 'NONE',  ( 16.10557280900007271, 0.000000000000000000, -87.78885438199984037 ) ) ;
#222 = CYLINDRICAL_SURFACE ( 'NONE', #151, 2.000000000000000000 ) ;
#223 = EDGE_LOOP ( 'NONE', ( #416, #1169, #526, #715 ) ) ;
#224 = ORIENTED_EDGE ( 'NONE', *, *, #817, .F. ) ;
#225 = CARTESIAN_POINT ( 'NONE',  ( 0.000000000000000000, 0.000000000000000000, -53.99999999999998579 ) ) ;
#226 = CARTESIAN_POINT ( 'NONE',  ( -23.00000000000001066, 0.8000000000000000444, -46.99999999999998579 ) ) ;
#227 = AXIS2_PLACEMENT_3D ( 'NONE', #893, #704, #71 ) ;
#228 = DIRECTION ( 'NONE',  ( 0.000000000000000000, 0.000000000000000000, 1.000000000000000000 ) ) ;
#229 = AXIS2_PLACEMENT_3D ( 'NONE', #1028, #101, #510 ) ;
#230 = ORIENTED_EDGE ( 'NONE', *, *, #896, .F. ) ;
#231 = DIRECTION ( 'NONE',  ( 0.000000000000000000, 1.000000000000000000, 0.000000000000000000 ) ) ;
#232 = EDGE_CURVE ( 'NONE', #319, #511, #560, .T. ) ;
#233 = EDGE_CURVE ( 'NONE', #463, #522, #1201, .T. ) ;
#234 = PLANE ( 'NONE',  #1147 ) ;
#235 = PLANE ( 'NONE',  #273 ) ;
#236 = LINE ( 'NONE', #735, #438 ) ;
#237 = LINE ( 'NONE', #1200, #1099 ) ;
#238 = CARTESIAN_POINT ( 'NONE',  ( -12.99999999999999645, 0.8000000000000000444, -28.00000000000000000 ) ) ;
#239 = VERTEX_POINT ( 'NONE', #5 ) ;
#240 = CARTESIAN_POINT ( 'NONE',  ( 0.000000000000000000, 0.000000000000000000, -46.49999999999997868 ) ) ;
#241 = LINE ( 'NONE', #1195, #251 ) ;
#242 = PLANE ( 'NONE',  #1036 ) ;
#243 = EDGE_CURVE ( 'NONE', #621, #1033, #36, .T. ) ;
#244 = ORIENTED_EDGE ( 'NONE', *, *, #717, .T. ) ;
#245 = DIRECTION ( 'NONE',  ( 0.000000000000000000, 0.000000000000000000, -1.000000000000000000 ) ) ;
#246 = DIRECTION ( 'NONE',  ( -0.000000000000000000, -1.000000000000000000, 0.000000000000000000 ) ) ;
#247 = LINE ( 'NONE', #1185, #518 ) ;
#248 = CARTESIAN_POINT ( 'NONE',  ( -16.10557280900006560, 0.8000000000000000444, -87.78885438199981195 ) ) ;
#249 = VERTEX_POINT ( 'NONE', #945 ) ;
#250 = EDGE_CURVE ( 'NONE', #372, #114, #1263, .T. ) ;
#251 = VECTOR ( 'NONE', #1204, 1000.000000000000000 ) ;
#252 = EDGE_LOOP ( 'NONE', ( #282, #224, #421, #959 ) ) ;
#253 = CARTESIAN_POINT ( 'NONE',  ( 2.349999999999990763, 0.8000000000000000444, 0.000000000000000000 ) ) ;
#254 = DIRECTION ( 'NONE',  ( 0.000000000000000000, 1.000000000000000000, 0.000000000000000000 ) ) ;
#255 = ORIENTED_EDGE ( 'NONE', *, *, #980, .F. ) ;
#256 = CARTESIAN_POINT ( 'NONE',  ( -3.149999999993720046, 0.8000000000000020428, -34.74999999999997868 ) ) ;
#257 = ORIENTED_EDGE ( 'NONE', *, *, #863, .F. ) ;
#258 = CARTESIAN_POINT ( 'NONE',  ( 25.00000000000000711, 0.000000000000000000, -3.360075487892671254E-17 ) ) ;
#259 = ADVANCED_FACE ( 'NONE', ( #29 ), #858, .F. ) ;
#260 = EDGE_LOOP ( 'NONE', ( #213, #952, #1186, #1320 ) ) ;
#261 = DIRECTION ( 'NONE',  ( 0.000000000000000000, 0.000000000000000000, -1.000000000000000000 ) ) ;
#262 = EDGE_LOOP ( 'NONE', ( #471, #178, #1260, #707 ) ) ;
#263 = LINE ( 'NONE', #258, #665 ) ;
#264 = VERTEX_POINT ( 'NONE', #286 ) ;
#265 = ADVANCED_FACE ( 'NONE', ( #281 ), #587, .T. ) ;
#266 = CARTESIAN_POINT ( 'NONE',  ( -14.99999999999999822, 0.000000000000000000, -30.00000000000000355 ) ) ;
#267 = LINE ( 'NONE', #1317, #752 ) ;
#268 = DIRECTION ( 'NONE',  ( 0.000000000000000000, 0.000000000000000000, -1.000000000000000000 ) ) ;
#269 = VECTOR ( 'NONE', #769, 1000.000000000000000 ) ;
#270 = VERTEX_POINT ( 'NONE', #582 ) ;
#271 = CARTESIAN_POINT ( 'NONE',  ( -25.00000000000000711, 0.8000000000000000444, -3.360075487892671254E-17 ) ) ;
#272 = VERTEX_POINT ( 'NONE', #402 ) ;
#273 = AXIS2_PLACEMENT_3D ( 'NONE', #659, #1074, #655 ) ;
#274 = DIRECTION ( 'NONE',  ( -0.000000000000000000, 1.000000000000000000, -0.000000000000000000 ) ) ;
#275 = VECTOR ( 'NONE', #910, 1000.000000000000000 ) ;
#276 = ADVANCED_FACE ( 'NONE', ( #1001 ), #487, .F. ) ;
#277 = ORIENTED_EDGE ( 'NONE', *, *, #774, .T. ) ;
#278 = ORIENTED_EDGE ( 'NONE', *, *, #1265, .T. ) ;
#279 = CARTESIAN_POINT ( 'NONE',  ( 2.349999999999990763, 3.252606517456513302E-16, -34.74999999999997868 ) ) ;
#280 = DIRECTION ( 'NONE',  ( -0.000000000000000000, 1.000000000000000000, -0.000000000000000000 ) ) ;
#281 = FACE_OUTER_BOUND ( 'NONE', #898, .T. ) ;
#282 = ORIENTED_EDGE ( 'NONE', *, *, #1208, .F. ) ;
#283 = ORIENTED_EDGE ( 'NONE', *, *, #1265, .F. ) ;
#284 = PLANE ( 'NONE',  #1324 ) ;
#285 = DIRECTION ( 'NONE',  ( -0.000000000000000000, 1.000000000000000000, -0.000000000000000000 ) ) ;
#286 = CARTESIAN_POINT ( 'NONE',  ( 25.00000000000000711, 0.8000000000000000444, -46.99999999999998579 ) ) ;
#287 = EDGE_CURVE ( 'NONE', #545, #463, #379, .T. ) ;
#288 = VERTEX_POINT ( 'NONE', #914 ) ;
#289 = EDGE_CURVE ( 'NONE', #264, #270, #1313, .T. ) ;
#290 = ORIENTED_EDGE ( 'NONE', *, *, #393, .T. ) ;
#291 = LINE ( 'NONE', #1022, #209 ) ;
#292 = CIRCLE ( 'NONE', #457, 4.000000000000003553 ) ;
#293 = CIRCLE ( 'NONE', #932, 1.999999999999998224 ) ;
#294 = AXIS2_PLACEMENT_3D ( 'NONE', #139, #856, #885 ) ;
#295 = DIRECTION ( 'NONE',  ( -0.000000000000000000, 1.000000000000000000, -0.000000000000000000 ) ) ;
#296 = CARTESIAN_POINT ( 'NONE',  ( 25.00000000000000711, 0.8000000000000000444, -27.99999999999999645 ) ) ;
#297 = CARTESIAN_POINT ( 'NONE',  ( 12.99999999999999645, 0.8000000000000000444, -28.00000000000000000 ) ) ;
#298 = ORIENTED_EDGE ( 'NONE', *, *, #55, .T. ) ;
#299 = LINE ( 'NONE', #202, #338 ) ;
#300 = VERTEX_POINT ( 'NONE', #1104 ) ;
#301 = DIRECTION ( 'NONE',  ( 0.000000000000000000, -1.084202172485504434E-15, 1.000000000000000000 ) ) ;
#302 = CARTESIAN_POINT ( 'NONE',  ( 23.00000000000001066, 0.8000000000000000444, -44.99999999999998579 ) ) ;
#303 = ORIENTED_EDGE ( 'NONE', *, *, #817, .T. ) ;
#304 = EDGE_LOOP ( 'NONE', ( #50, #309, #724, #702 ) ) ;
#305 = DIRECTION ( 'NONE',  ( 0.000000000000000000, -1.000000000000000000, 0.000000000000000000 ) ) ;
#306 = EDGE_CURVE ( 'NONE', #792, #1010, #237, .T. ) ;
#307 = CYLINDRICAL_SURFACE ( 'NONE', #516, 4.000000000000003553 ) ;
#308 = CARTESIAN_POINT ( 'NONE',  ( 23.00000000000001066, 0.000000000000000000, -44.99999999999998579 ) ) ;
#309 = ORIENTED_EDGE ( 'NONE', *, *, #836, .T. ) ;
#310 = ORIENTED_EDGE ( 'NONE', *, *, #1088, .F. ) ;
#311 = AXIS2_PLACEMENT_3D ( 'NONE', #689, #884, #357 ) ;
#312 = DIRECTION ( 'NONE',  ( -0.000000000000000000, 1.000000000000000000, -0.000000000000000000 ) ) ;
#313 = VECTOR ( 'NONE', #133, 1000.000000000000000 ) ;
#314 = AXIS2_PLACEMENT_3D ( 'NONE', #1024, #1131, #208 ) ;
#315 = ADVANCED_FACE ( 'NONE', ( #427 ), #632, .F. ) ;
#316 = CARTESIAN_POINT ( 'NONE',  ( -25.00000000000000711, 0.8000000000000000444, -46.99999999999998579 ) ) ;
#317 = AXIS2_PLACEMENT_3D ( 'NONE', #1353, #301, #1246 ) ;
#318 = VERTEX_POINT ( 'NONE', #398 ) ;
#319 = VERTEX_POINT ( 'NONE', #407 ) ;
#320 = DIRECTION ( 'NONE',  ( 1.000000000000000000, 0.000000000000000000, -6.982962677686266711E-15 ) ) ;
#321 = DIRECTION ( 'NONE',  ( 7.709882115452476934E-17, 0.000000000000000000, -1.000000000000000000 ) ) ;
#322 = EDGE_CURVE ( 'NONE', #1148, #1006, #622, .T. ) ;
#323 = FACE_OUTER_BOUND ( 'NONE', #397, .T. ) ;
#324 = PLANE ( 'NONE',  #148 ) ;
#325 = EDGE_LOOP ( 'NONE', ( #681, #121, #978, #771 ) ) ;
#326 = DIRECTION ( 'NONE',  ( 0.000000000000000000, -1.000000000000000000, -0.000000000000000000 ) ) ;
#327 = CARTESIAN_POINT ( 'NONE',  ( 15.00000000000000888, 0.000000000000000000, -44.99999999999999289 ) ) ;
#328 = FACE_OUTER_BOUND ( 'NONE', #1162, .T. ) ;
#329 = DIRECTION ( 'NONE',  ( -0.000000000000000000, 1.000000000000000000, -0.000000000000000000 ) ) ;
#330 = ADVANCED_FACE ( 'NONE', ( #52 ), #1264, .T. ) ;
#331 = APPLICATION_CONTEXT ( 'automotive_design' ) ;
#332 = VERTEX_POINT ( 'NONE', #221 ) ;
#333 = EDGE_CURVE ( 'NONE', #1298, #396, #866, .T. ) ;
#334 = CARTESIAN_POINT ( 'NONE',  ( -2.349999999993719335, 2.059984127722458425E-15, -34.74999999999998579 ) ) ;
#335 = VECTOR ( 'NONE', #122, 1000.000000000000000 ) ;
#336 = LINE ( 'NONE', #957, #384 ) ;
#337 = CARTESIAN_POINT ( 'NONE',  ( -14.99999999999999822, 0.8000000000000000444, -28.00000000000000000 ) ) ;
#338 = VECTOR ( 'NONE', #1133, 1000.000000000000000 ) ;
#339 = PLANE ( 'NONE',  #710 ) ;
#340 = CIRCLE ( 'NONE', #1100, 2.000000000000001776 ) ;
#341 = AXIS2_PLACEMENT_3D ( 'NONE', #169, #785, #895 ) ;
#342 = ORIENTED_EDGE ( 'NONE', *, *, #496, .F. ) ;
#343 = VECTOR ( 'NONE', #764, 1000.000000000000000 ) ;
#344 = DIRECTION ( 'NONE',  ( -0.000000000000000000, 1.000000000000000000, -0.000000000000000000 ) ) ;
#345 = DIRECTION ( 'NONE',  ( -1.000000000000000000, 0.000000000000000000, 7.709882115452476934E-17 ) ) ;
#346 = ADVANCED_FACE ( 'NONE', ( #639 ), #205, .T. ) ;
#347 = DIRECTION ( 'NONE',  ( 1.000000000000000000, -0.000000000000000000, -6.982962677686266711E-15 ) ) ;
#348 = ORIENTED_EDGE ( 'NONE', *, *, #446, .T. ) ;
#349 = CARTESIAN_POINT ( 'NONE',  ( 25.00000000000001066, 0.000000000000000000, -69.05572809000068446 ) ) ;
#350 = CARTESIAN_POINT ( 'NONE',  ( -25.00000000000000711, 0.8000000000000000444, -25.99999999999998934 ) ) ;
#351 = DIRECTION ( 'NONE',  ( 0.000000000000000000, 0.000000000000000000, 1.000000000000000000 ) ) ;
#352 = CARTESIAN_POINT ( 'NONE',  ( -25.00000000000000711, 0.8000000000000000444, -27.99999999999999645 ) ) ;
#353 = VERTEX_POINT ( 'NONE', #528 ) ;
#354 = DIRECTION ( 'NONE',  ( -0.000000000000000000, 1.000000000000000000, -0.000000000000000000 ) ) ;
#355 = ADVANCED_FACE ( 'NONE', ( #563 ), #1290, .F. ) ;
#356 = VERTEX_POINT ( 'NONE', #350 ) ;
#357 = DIRECTION ( 'NONE',  ( 0.000000000000000000, 0.000000000000000000, 1.000000000000000000 ) ) ;
#358 = LINE ( 'NONE', #663, #1060 ) ;
#359 = EDGE_LOOP ( 'NONE', ( #748, #255, #383, #855 ) ) ;
#360 = EDGE_CURVE ( 'NONE', #1268, #1010, #12, .T. ) ;
#361 = LINE ( 'NONE', #574, #434 ) ;
#362 = ORIENTED_EDGE ( 'NONE', *, *, #159, .T. ) ;
#363 = CYLINDRICAL_SURFACE ( 'NONE', #974, 4.000000000000003553 ) ;
#364 = AXIS2_PLACEMENT_3D ( 'NONE', #296, #181, #1040 ) ;
#365 = FACE_OUTER_BOUND ( 'NONE', #917, .T. ) ;
#366 = LINE ( 'NONE', #765, #1197 ) ;
#367 = CIRCLE ( 'NONE', #977, 2.000000000000001776 ) ;
#368 = EDGE_LOOP ( 'NONE', ( #1314, #894, #374, #768 ) ) ;
#369 = DIRECTION ( 'NONE',  ( 0.000000000000000000, -1.000000000000000000, 0.000000000000000000 ) ) ;
#370 = ORIENTED_EDGE ( 'NONE', *, *, #749, .T. ) ;
#371 = DIRECTION ( 'NONE',  ( 0.000000000000000000, -1.000000000000000000, 0.000000000000000000 ) ) ;
#372 = VERTEX_POINT ( 'NONE', #150 ) ;
#373 = CARTESIAN_POINT ( 'NONE',  ( 0.000000000000000000, 0.000000000000000000, 0.000000000000000000 ) ) ;
#374 = ORIENTED_EDGE ( 'NONE', *, *, #1223, .T. ) ;
#375 = CARTESIAN_POINT ( 'NONE',  ( -2.349999999993744204, 0.8000000000000020428, -38.24999999999997868 ) ) ;
#376 = VERTEX_POINT ( 'NONE', #426 ) ;
#377 = EDGE_CURVE ( 'NONE', #249, #3, #708, .T. ) ;
#378 = FACE_OUTER_BOUND ( 'NONE', #1225, .T. ) ;
#379 = LINE ( 'NONE', #1328, #597 ) ;
#380 = DIRECTION ( 'NONE',  ( 0.000000000000000000, 0.000000000000000000, -1.000000000000000000 ) ) ;
#381 = AXIS2_PLACEMENT_3D ( 'NONE', #118, #880, #763 ) ;
#382 = ORIENTED_EDGE ( 'NONE', *, *, #626, .T. ) ;
#383 = ORIENTED_EDGE ( 'NONE', *, *, #679, .T. ) ;
#384 = VECTOR ( 'NONE', #745, 1000.000000000000000 ) ;
#385 = FACE_BOUND ( 'NONE', #462, .T. ) ;
#386 = COLOUR_RGB ( '',0.7921568627450980005, 0.8196078431372548767, 0.9333333333333333481 ) ;
#387 = EDGE_CURVE ( 'NONE', #300, #657, #215, .T. ) ;
#388 = PRODUCT_DEFINITION_FORMATION_WITH_SPECIFIED_SOURCE ( 'ANY', '', #1035, .NOT_KNOWN. ) ;
#389 = LINE ( 'NONE', #807, #555 ) ;
#390 = VERTEX_POINT ( 'NONE', #337 ) ;
#391 = EDGE_LOOP ( 'NONE', ( #97, #1076, #298, #872 ) ) ;
#392 = DIRECTION ( 'NONE',  ( -6.982962677686266711E-15, -1.084202172485504434E-15, -1.000000000000000000 ) ) ;
#393 = EDGE_CURVE ( 'NONE', #479, #34, #888, .T. ) ;
#394 = CARTESIAN_POINT ( 'NONE',  ( -14.99999999999999822, 0.000000000000000000, -28.00000000000000000 ) ) ;
#395 = DIRECTION ( 'NONE',  ( -7.570943305532645951E-30, 1.000000000000000000, -1.084202172485504434E-15 ) ) ;
#396 = VERTEX_POINT ( 'NONE', #964 ) ;
#397 = EDGE_LOOP ( 'NONE', ( #278, #277, #1205, #652 ) ) ;
#398 = CARTESIAN_POINT ( 'NONE',  ( -12.99999999999999822, 0.000000000000000000, -30.00000000000000355 ) ) ;
#399 = FILL_AREA_STYLE ('',( #64 ) ) ;
#400 = DIRECTION ( 'NONE',  ( 0.000000000000000000, -1.000000000000000000, 0.000000000000000000 ) ) ;
#401 = CARTESIAN_POINT ( 'NONE',  ( -14.99999999999999822, 0.000000000000000000, -28.00000000000000000 ) ) ;
#402 = CARTESIAN_POINT ( 'NONE',  ( 9.184850993605149917E-16, 0.8000000000000000444, -61.49999999999999289 ) ) ;
#403 = EDGE_CURVE ( 'NONE', #1112, #1232, #543, .T. ) ;
#404 = ORIENTED_EDGE ( 'NONE', *, *, #573, .T. ) ;
#405 = CIRCLE ( 'NONE', #1190, 2.000000000000001776 ) ;
#406 = ORIENTED_EDGE ( 'NONE', *, *, #896, .T. ) ;
#407 = CARTESIAN_POINT ( 'NONE',  ( 3.149999999999991029, 0.8000000000000003775, -34.74999999999997868 ) ) ;
#408 = APPLICATION_CONTEXT ( 'automotive_design' ) ;
#409 = VECTOR ( 'NONE', #1188, 1000.000000000000000 ) ;
#410 = AXIS2_PLACEMENT_3D ( 'NONE', #119, #1154, #1256 ) ;
#411 = AXIS2_PLACEMENT_3D ( 'NONE', #225, #981, #644 ) ;
#412 = CARTESIAN_POINT ( 'NONE',  ( -23.00000000000001066, 0.8000000000000000444, -27.99999999999999645 ) ) ;
#413 = CARTESIAN_POINT ( 'NONE',  ( 13.00000000000000888, 0.000000000000000000, -44.99999999999999289 ) ) ;
#414 = LINE ( 'NONE', #828, #437 ) ;
#415 = ADVANCED_FACE ( 'NONE', ( #1069 ), #242, .F. ) ;
#416 = ORIENTED_EDGE ( 'NONE', *, *, #701, .F. ) ;
#417 = CARTESIAN_POINT ( 'NONE',  ( 3.149999999999991029, 3.252606517456513302E-16, -38.24999999999997158 ) ) ;
#418 = LINE ( 'NONE', #200, #168 ) ;
#419 = DIRECTION ( 'NONE',  ( -0.000000000000000000, 1.000000000000000000, -0.000000000000000000 ) ) ;
#420 = CARTESIAN_POINT ( 'NONE',  ( 25.00000000000000711, 0.000000000000000000, -1.999999999999999112 ) ) ;
#421 = ORIENTED_EDGE ( 'NONE', *, *, #147, .F. ) ;
#422 = CYLINDRICAL_SURFACE ( 'NONE', #870, 2.000000000000001776 ) ;
#423 = ADVANCED_FACE ( 'NONE', ( #1287 ), #235, .T. ) ;
#424 = DIRECTION ( 'NONE',  ( -1.000000000000000000, -0.000000000000000000, -0.000000000000000000 ) ) ;
#425 = EDGE_CURVE ( 'NONE', #1191, #239, #906, .T. ) ;
#426 = CARTESIAN_POINT ( 'NONE',  ( 0.000000000000000000, 0.8000000000000000444, -46.49999999999997868 ) ) ;
#427 = FACE_OUTER_BOUND ( 'NONE', #986, .T. ) ;
#428 = LINE ( 'NONE', #1229, #773 ) ;
#429 = LINE ( 'NONE', #1272, #1015 ) ;
#430 = DIRECTION ( 'NONE',  ( 0.000000000000000000, -1.000000000000000000, -0.000000000000000000 ) ) ;
#431 = CARTESIAN_POINT ( 'NONE',  ( 2.349999999999990763, 0.8000000000000003775, -34.74999999999997868 ) ) ;
#432 = ORIENTED_EDGE ( 'NONE', *, *, #436, .T. ) ;
#433 = DIRECTION ( 'NONE',  ( 0.000000000000000000, 0.000000000000000000, -1.000000000000000000 ) ) ;
#434 = VECTOR ( 'NONE', #1295, 1000.000000000000000 ) ;
#435 = CARTESIAN_POINT ( 'NONE',  ( 25.00000000000000711, 0.000000000000000000, -27.99999999999999645 ) ) ;
#436 = EDGE_CURVE ( 'NONE', #300, #1134, #37, .T. ) ;
#437 = VECTOR ( 'NONE', #211, 1000.000000000000000 ) ;
#438 = VECTOR ( 'NONE', #756, 1000.000000000000000 ) ;
#439 = DIRECTION ( 'NONE',  ( 0.000000000000000000, 0.000000000000000000, -1.000000000000000000 ) ) ;
#440 = LINE ( 'NONE', #737, #795 ) ;
#441 = ORIENTED_EDGE ( 'NONE', *, *, #142, .F. ) ;
#442 = CARTESIAN_POINT ( 'NONE',  ( 12.52786404500041684, 0.8000000000000000444, -89.99999999999998579 ) ) ;
#443 = EDGE_CURVE ( 'NONE', #513, #1311, #1062, .T. ) ;
#444 = DIRECTION ( 'NONE',  ( 0.000000000000000000, 0.000000000000000000, -1.000000000000000000 ) ) ;
#445 = VERTEX_POINT ( 'NONE', #963 ) ;
#446 = EDGE_CURVE ( 'NONE', #788, #116, #336, .T. ) ;
#447 = ORIENTED_EDGE ( 'NONE', *, *, #1002, .T. ) ;
#448 = DIRECTION ( 'NONE',  ( 0.000000000000000000, 0.000000000000000000, -1.000000000000000000 ) ) ;
#449 = DIRECTION ( 'NONE',  ( -0.000000000000000000, 1.000000000000000000, -0.000000000000000000 ) ) ;
#450 = DIRECTION ( 'NONE',  ( 0.000000000000000000, 0.000000000000000000, -1.000000000000000000 ) ) ;
#451 = LINE ( 'NONE', #1159, #1286 ) ;
#452 = ORIENTED_EDGE ( 'NONE', *, *, #468, .F. ) ;
#453 = CARTESIAN_POINT ( 'NONE',  ( 3.149999999999991029, 0.8000000000000003775, -34.74999999999997868 ) ) ;
#454 = CARTESIAN_POINT ( 'NONE',  ( -3.149999999993744026, 2.059984127722458425E-15, -38.24999999999997868 ) ) ;
#455 = VECTOR ( 'NONE', #424, 1000.000000000000000 ) ;
#456 = FACE_OUTER_BOUND ( 'NONE', #1352, .T. ) ;
#457 = AXIS2_PLACEMENT_3D ( 'NONE', #1326, #1124, #189 ) ;
#458 = EDGE_LOOP ( 'NONE', ( #201, #589, #583, #664 ) ) ;
#459 = EDGE_CURVE ( 'NONE', #1030, #613, #640, .T. ) ;
#460 = DIRECTION ( 'NONE',  ( 0.000000000000000000, 0.000000000000000000, -1.000000000000000000 ) ) ;
#461 = CARTESIAN_POINT ( 'NONE',  ( -12.52786404500039907, 0.000000000000000000, -89.99999999999998579 ) ) ;
#462 = EDGE_LOOP ( 'NONE', ( #1055, #695 ) ) ;
#463 = VERTEX_POINT ( 'NONE', #1175 ) ;
#464 = FACE_OUTER_BOUND ( 'NONE', #368, .T. ) ;
#465 = DIRECTION ( 'NONE',  ( 0.000000000000000000, -1.000000000000000000, 0.000000000000000000 ) ) ;
#466 = LINE ( 'NONE', #1285, #21 ) ;
#467 = ORIENTED_EDGE ( 'NONE', *, *, #1223, .F. ) ;
#468 = EDGE_CURVE ( 'NONE', #812, #598, #576, .T. ) ;
#469 = ORIENTED_EDGE ( 'NONE', *, *, #618, .T. ) ;
#470 = LINE ( 'NONE', #658, #997 ) ;
#471 = ORIENTED_EDGE ( 'NONE', *, *, #377, .F. ) ;
#472 = ADVANCED_FACE ( 'NONE', ( #753 ), #234, .F. ) ;
#473 = VECTOR ( 'NONE', #430, 1000.000000000000000 ) ;
#474 = CIRCLE ( 'NONE', #647, 2.000000000000001776 ) ;
#475 = AXIS2_PLACEMENT_3D ( 'NONE', #134, #31, #450 ) ;
#476 = VERTEX_POINT ( 'NONE', #442 ) ;
#477 = LINE ( 'NONE', #253, #1281 ) ;
#478 = CIRCLE ( 'NONE', #624, 2.000000000000001776 ) ;
#479 = VERTEX_POINT ( 'NONE', #327 ) ;
#480 = PLANE ( 'NONE',  #341 ) ;
#481 = EDGE_CURVE ( 'NONE', #390, #697, #912, .T. ) ;
#482 = EDGE_CURVE ( 'NONE', #162, #136, #292, .T. ) ;
#483 = ORIENTED_EDGE ( 'NONE', *, *, #184, .T. ) ;
#484 = DIRECTION ( 'NONE',  ( -1.000000000000000000, 0.000000000000000000, 0.000000000000000000 ) ) ;
#485 = ORIENTED_EDGE ( 'NONE', *, *, #1334, .T. ) ;
#486 = CARTESIAN_POINT ( 'NONE',  ( -3.149999999993720046, 2.059984127722458425E-15, -34.74999999999997868 ) ) ;
#487 = PLANE ( 'NONE',  #1216 ) ;
#488 = ORIENTED_EDGE ( 'NONE', *, *, #890, .T. ) ;
#489 = EDGE_CURVE ( 'NONE', #691, #356, #106, .T. ) ;
#490 =( LENGTH_UNIT ( ) NAMED_UNIT ( * ) SI_UNIT ( .MILLI., .METRE. ) );
#491 = ORIENTED_EDGE ( 'NONE', *, *, #443, .T. ) ;
#492 = PLANE ( 'NONE',  #1102 ) ;
#493 = ORIENTED_EDGE ( 'NONE', *, *, #793, .T. ) ;
#494 = AXIS2_PLACEMENT_3D ( 'NONE', #947, #940, #1253 ) ;
#495 = ORIENTED_EDGE ( 'NONE', *, *, #521, .T. ) ;
#496 = EDGE_CURVE ( 'NONE', #102, #1006, #926, .T. ) ;
#497 = AXIS2_PLACEMENT_3D ( 'NONE', #656, #1045, #7 ) ;
#498 = DIRECTION ( 'NONE',  ( 0.000000000000000000, -1.000000000000000000, 0.000000000000000000 ) ) ;
#499 = CARTESIAN_POINT ( 'NONE',  ( -25.00000000000000711, 0.8000000000000000444, -46.99999999999998579 ) ) ;
#500 = AXIS2_PLACEMENT_3D ( 'NONE', #144, #1171, #541 ) ;
#501 = DIRECTION ( 'NONE',  ( -0.000000000000000000, 1.000000000000000000, -0.000000000000000000 ) ) ;
#502 = ORIENTED_EDGE ( 'NONE', *, *, #993, .F. ) ;
#503 = VERTEX_POINT ( 'NONE', #39 ) ;
#504 = CARTESIAN_POINT ( 'NONE',  ( 21.00000000000001066, 0.8000000000000000444, -69.05572809000069867 ) ) ;
#505 = ADVANCED_FACE ( 'NONE', ( #628 ), #324, .T. ) ;
#506 = CARTESIAN_POINT ( 'NONE',  ( -23.00000000000001066, 0.8000000000000000444, -27.99999999999999645 ) ) ;
#507 = ORIENTED_EDGE ( 'NONE', *, *, #581, .T. ) ;
#508 = ORIENTED_EDGE ( 'NONE', *, *, #206, .F. ) ;
#509 = CYLINDRICAL_SURFACE ( 'NONE', #131, 2.000000000000001776 ) ;
#510 = DIRECTION ( 'NONE',  ( 0.000000000000000000, 0.000000000000000000, 1.000000000000000000 ) ) ;
#511 = VERTEX_POINT ( 'NONE', #431 ) ;
#512 = VECTOR ( 'NONE', #60, 1000.000000000000000 ) ;
#513 = VERTEX_POINT ( 'NONE', #1280 ) ;
#514 = CARTESIAN_POINT ( 'NONE',  ( -15.00000000000000711, 0.8000000000000000444, -42.99999999999999289 ) ) ;
#515 = CARTESIAN_POINT ( 'NONE',  ( 24.57770876399968074, 2.168404344971008868E-16, -70.84458247200052483 ) ) ;
#516 = AXIS2_PLACEMENT_3D ( 'NONE', #1141, #1255, #594 ) ;
#517 = CIRCLE ( 'NONE', #108, 4.000000000000003553 ) ;
#518 = VECTOR ( 'NONE', #1089, 1000.000000000000000 ) ;
#519 = CARTESIAN_POINT ( 'NONE',  ( 2.349999999999990763, 0.8000000000000003775, -34.74999999999997868 ) ) ;
#520 = DIRECTION ( 'NONE',  ( 1.000000000000000000, 0.000000000000000000, 5.782411586589356653E-16 ) ) ;
#521 = EDGE_CURVE ( 'NONE', #938, #1273, #666, .T. ) ;
#522 = VERTEX_POINT ( 'NONE', #1122 ) ;
#523 = FACE_OUTER_BOUND ( 'NONE', #252, .T. ) ;
#524 = LINE ( 'NONE', #927, #1126 ) ;
#525 = ORIENTED_EDGE ( 'NONE', *, *, #590, .T. ) ;
#526 = ORIENTED_EDGE ( 'NONE', *, *, #928, .T. ) ;
#527 = LINE ( 'NONE', #944, #171 ) ;
#528 = CARTESIAN_POINT ( 'NONE',  ( 23.00000000000001066, 0.8000000000000000444, -44.99999999999998579 ) ) ;
#529 = CARTESIAN_POINT ( 'NONE',  ( 0.000000000000000000, 0.8000000000000000444, -53.99999999999998579 ) ) ;
#530 = ORIENTED_EDGE ( 'NONE', *, *, #806, .T. ) ;
#531 = ORIENTED_EDGE ( 'NONE', *, *, #1031, .T. ) ;
#532 = DIRECTION ( 'NONE',  ( 0.000000000000000000, -1.000000000000000000, 0.000000000000000000 ) ) ;
#533 = EDGE_CURVE ( 'NONE', #1293, #522, #428, .T. ) ;
#534 = VECTOR ( 'NONE', #163, 1000.000000000000000 ) ;
#535 = EDGE_CURVE ( 'NONE', #1010, #372, #1056, .T. ) ;
#536 = CIRCLE ( 'NONE', #823, 4.000000000000003553 ) ;
#537 = CARTESIAN_POINT ( 'NONE',  ( 2.349999999999990763, 3.252606517456513302E-16, -38.24999999999997158 ) ) ;
#538 = DIRECTION ( 'NONE',  ( -7.709882115452476934E-17, 0.000000000000000000, 1.000000000000000000 ) ) ;
#539 = DIRECTION ( 'NONE',  ( -1.000000000000000000, 0.000000000000000000, 2.891205793294675368E-16 ) ) ;
#540 = ORIENTED_EDGE ( 'NONE', *, *, #1307, .F. ) ;
#541 = DIRECTION ( 'NONE',  ( 0.000000000000000000, 0.000000000000000000, -1.000000000000000000 ) ) ;
#542 = DIRECTION ( 'NONE',  ( 0.000000000000000000, 0.000000000000000000, -1.000000000000000000 ) ) ;
#543 = LINE ( 'NONE', #969, #207 ) ;
#544 = CARTESIAN_POINT ( 'NONE',  ( 15.00000000000000888, 0.000000000000000000, -44.99999999999999289 ) ) ;
#545 = VERTEX_POINT ( 'NONE', #1023 ) ;
#546 = CARTESIAN_POINT ( 'NONE',  ( 25.00000000000000711, 0.000000000000000000, -44.99999999999998579 ) ) ;
#547 = DIRECTION ( 'NONE',  ( 0.000000000000000000, 0.000000000000000000, 1.000000000000000000 ) ) ;
#548 = DIRECTION ( 'NONE',  ( 0.000000000000000000, 0.000000000000000000, 1.000000000000000000 ) ) ;
#549 = ADVANCED_FACE ( 'NONE', ( #831 ), #307, .T. ) ;
#550 = ORIENTED_EDGE ( 'NONE', *, *, #726, .T. ) ;
#551 = DIRECTION ( 'NONE',  ( 0.000000000000000000, 0.000000000000000000, 1.000000000000000000 ) ) ;
#552 = ORIENTED_EDGE ( 'NONE', *, *, #1222, .F. ) ;
#553 = VECTOR ( 'NONE', #645, 1000.000000000000114 ) ;
#554 = VECTOR ( 'NONE', #1178, 1000.000000000000000 ) ;
#555 = VECTOR ( 'NONE', #1166, 1000.000000000000000 ) ;
#556 = ORIENTED_EDGE ( 'NONE', *, *, #1322, .F. ) ;
#557 = EDGE_CURVE ( 'NONE', #318, #1341, #94, .T. ) ;
#558 = LINE ( 'NONE', #48, #110 ) ;
#559 = VERTEX_POINT ( 'NONE', #14 ) ;
#560 = LINE ( 'NONE', #776, #61 ) ;
#561 = VERTEX_POINT ( 'NONE', #420 ) ;
#562 = LINE ( 'NONE', #984, #992 ) ;
#563 = FACE_OUTER_BOUND ( 'NONE', #325, .T. ) ;
#564 = CARTESIAN_POINT ( 'NONE',  ( -23.00000000000001066, 0.8000000000000000444, -44.99999999999998579 ) ) ;
#565 = LINE ( 'NONE', #1079, #599 ) ;
#566 = ORIENTED_EDGE ( 'NONE', *, *, #403, .F. ) ;
#567 = DIRECTION ( 'NONE',  ( 1.000000000000000000, -0.000000000000000000, -6.982962677686266711E-15 ) ) ;
#568 = ORIENTED_EDGE ( 'NONE', *, *, #610, .F. ) ;
#569 = PLANE ( 'NONE',  #146 ) ;
#570 = EDGE_LOOP ( 'NONE', ( #370, #20, #530, #217 ) ) ;
#571 = DIRECTION ( 'NONE',  ( 0.000000000000000000, 0.000000000000000000, -1.000000000000000000 ) ) ;
#572 = ADVANCED_FACE ( 'NONE', ( #1250 ), #1259, .F. ) ;
#573 = EDGE_CURVE ( 'NONE', #513, #249, #414, .T. ) ;
#574 = CARTESIAN_POINT ( 'NONE',  ( -2.349999999993744204, 2.059984127722458425E-15, -38.24999999999997868 ) ) ;
#575 = DIRECTION ( 'NONE',  ( -7.142979018728031938E-16, 0.000000000000000000, 1.000000000000000000 ) ) ;
#576 = CIRCLE ( 'NONE', #1344, 4.000000000000003553 ) ;
#577 = ORIENTED_EDGE ( 'NONE', *, *, #1247, .T. ) ;
#578 = AXIS2_PLACEMENT_3D ( 'NONE', #1340, #285, #88 ) ;
#579 = ORIENTED_EDGE ( 'NONE', *, *, #56, .F. ) ;
#580 = FACE_BOUND ( 'NONE', #182, .T. ) ;
#581 = EDGE_CURVE ( 'NONE', #1311, #149, #1319, .T. ) ;
#582 = CARTESIAN_POINT ( 'NONE',  ( 25.00000000000000711, 0.000000000000000000, -46.99999999999998579 ) ) ;
#583 = ORIENTED_EDGE ( 'NONE', *, *, #693, .F. ) ;
#584 = CARTESIAN_POINT ( 'NONE',  ( -23.00000000000001066, 0.8000000000000000444, -3.091269448861258096E-17 ) ) ;
#585 = ORIENTED_EDGE ( 'NONE', *, *, #482, .T. ) ;
#586 = DIRECTION ( 'NONE',  ( -0.000000000000000000, 1.000000000000000000, -0.000000000000000000 ) ) ;
#587 = PLANE ( 'NONE',  #1168 ) ;
#588 = EDGE_CURVE ( 'NONE', #691, #390, #1292, .T. ) ;
#589 = ORIENTED_EDGE ( 'NONE', *, *, #1075, .F. ) ;
#590 = EDGE_CURVE ( 'NONE', #116, #143, #366, .T. ) ;
#591 = EDGE_LOOP ( 'NONE', ( #983, #1119, #46, #827 ) ) ;
#592 = FACE_BOUND ( 'NONE', #743, .T. ) ;
#593 = CIRCLE ( 'NONE', #949, 2.000000000000001776 ) ;
#594 = DIRECTION ( 'NONE',  ( 0.000000000000000000, 0.000000000000000000, -1.000000000000000000 ) ) ;
#595 = DIRECTION ( 'NONE',  ( 0.000000000000000000, -1.000000000000000000, 5.421010862427522170E-16 ) ) ;
#596 = DIRECTION ( 'NONE',  ( 6.982962677686266711E-15, 0.000000000000000000, 1.000000000000000000 ) ) ;
#597 = VECTOR ( 'NONE', #596, 1000.000000000000000 ) ;
#598 = VERTEX_POINT ( 'NONE', #248 ) ;
#599 = VECTOR ( 'NONE', #857, 1000.000000000000000 ) ;
#600 = ORIENTED_EDGE ( 'NONE', *, *, #1129, .F. ) ;
#601 = VECTOR ( 'NONE', #501, 1000.000000000000000 ) ;
#602 = EDGE_CURVE ( 'NONE', #396, #697, #565, .T. ) ;
#603 = CYLINDRICAL_SURFACE ( 'NONE', #1238, 2.000000000000001776 ) ;
#604 = CARTESIAN_POINT ( 'NONE',  ( -21.00000000000001066, 0.000000000000000000, -69.05572809000064183 ) ) ;
#605 = LINE ( 'NONE', #1248, #170 ) ;
#606 = DIRECTION ( 'NONE',  ( 0.000000000000000000, 1.000000000000000000, 0.000000000000000000 ) ) ;
#607 = ORIENTED_EDGE ( 'NONE', *, *, #742, .T. ) ;
#608 = ORIENTED_EDGE ( 'NONE', *, *, #243, .T. ) ;
#609 = DIRECTION ( 'NONE',  ( 0.000000000000000000, 1.000000000000000000, 0.000000000000000000 ) ) ;
#610 = EDGE_CURVE ( 'NONE', #1273, #915, #153, .T. ) ;
#611 = CARTESIAN_POINT ( 'NONE',  ( -25.00000000000000711, 0.000000000000000000, -46.99999999999998579 ) ) ;
#612 = ORIENTED_EDGE ( 'NONE', *, *, #1070, .F. ) ;
#613 = VERTEX_POINT ( 'NONE', #962 ) ;
#614 = CARTESIAN_POINT ( 'NONE',  ( 14.99999999999999822, 0.8000000000000000444, -30.00000000000000355 ) ) ;
#615 = PLANE ( 'NONE',  #317 ) ;
#616 = PRODUCT_DEFINITION_SHAPE ( 'NONE', 'NONE',  #617 ) ;
#617 = PRODUCT_DEFINITION ( 'UNKNOWN', '', #388, #1330 ) ;
#618 = EDGE_CURVE ( 'NONE', #143, #1030, #1170, .T. ) ;
#619 = CARTESIAN_POINT ( 'NONE',  ( 12.52786404500041684, 0.000000000000000000, -85.99999999999998579 ) ) ;
#620 = DIRECTION ( 'NONE',  ( 7.142979018728031938E-16, 0.000000000000000000, -1.000000000000000000 ) ) ;
#621 = VERTEX_POINT ( 'NONE', #687 ) ;
#622 = CIRCLE ( 'NONE', #772, 2.000000000000001776 ) ;
#623 = VECTOR ( 'NONE', #721, 1000.000000000000000 ) ;
#624 = AXIS2_PLACEMENT_3D ( 'NONE', #905, #1215, #1007 ) ;
#625 = DIRECTION ( 'NONE',  ( 0.000000000000000000, -1.000000000000000000, 0.000000000000000000 ) ) ;
#626 = EDGE_CURVE ( 'NONE', #1090, #1113, #1016, .T. ) ;
#627 = ORIENTED_EDGE ( 'NONE', *, *, #719, .F. ) ;
#628 = FACE_OUTER_BOUND ( 'NONE', #766, .T. ) ;
#629 = ORIENTED_EDGE ( 'NONE', *, *, #685, .F. ) ;
#630 = DIRECTION ( 'NONE',  ( -6.982962677686266711E-15, 0.000000000000000000, -1.000000000000000000 ) ) ;
#631 = CARTESIAN_POINT ( 'NONE',  ( 3.149999999999991029, 0.8000000000000003775, -38.24999999999997158 ) ) ;
#632 = PLANE ( 'NONE',  #15 ) ;
#633 = DIRECTION ( 'NONE',  ( -7.142979018728031938E-16, 0.000000000000000000, -1.000000000000000000 ) ) ;
#634 = DIRECTION ( 'NONE',  ( -1.000000000000000000, 0.000000000000000000, 7.142979018728031938E-16 ) ) ;
#635 = ORIENTED_EDGE ( 'NONE', *, *, #1173, .T. ) ;
#636 = EDGE_CURVE ( 'NONE', #598, #559, #799, .T. ) ;
#637 = ORIENTED_EDGE ( 'NONE', *, *, #193, .F. ) ;
#638 = DIRECTION ( 'NONE',  ( 0.000000000000000000, 0.000000000000000000, -1.000000000000000000 ) ) ;
#639 = FACE_OUTER_BOUND ( 'NONE', #643, .T. ) ;
#640 = LINE ( 'NONE', #30, #842 ) ;
#641 = FACE_OUTER_BOUND ( 'NONE', #58, .T. ) ;
#642 = CARTESIAN_POINT ( 'NONE',  ( 12.99999999999999822, 0.8000000000000000444, -30.00000000000000355 ) ) ;
#643 = EDGE_LOOP ( 'NONE', ( #998, #778, #452, #257 ) ) ;
#644 = DIRECTION ( 'NONE',  ( 0.000000000000000000, 0.000000000000000000, 1.000000000000000000 ) ) ;
#645 = DIRECTION ( 'NONE',  ( 0.4472135954999555407, -0.000000000000000000, -0.8944271909999169656 ) ) ;
#646 = EDGE_CURVE ( 'NONE', #1245, #34, #241, .T. ) ;
#647 = AXIS2_PLACEMENT_3D ( 'NONE', #183, #916, #786 ) ;
#648 = AXIS2_PLACEMENT_3D ( 'NONE', #6, #465, #460 ) ;
#649 = DIRECTION ( 'NONE',  ( 6.982962677686266711E-15, 0.000000000000000000, 1.000000000000000000 ) ) ;
#650 = DIRECTION ( 'NONE',  ( -1.000000000000000000, 0.000000000000000000, 5.782411586589356653E-16 ) ) ;
#651 = CYLINDRICAL_SURFACE ( 'NONE', #1254, 7.500000000000007105 ) ;
#652 = ORIENTED_EDGE ( 'NONE', *, *, #289, .T. ) ;
#653 = DIRECTION ( 'NONE',  ( -0.000000000000000000, 1.000000000000000000, -0.000000000000000000 ) ) ;
#654 = EDGE_CURVE ( 'NONE', #114, #1282, #820, .T. ) ;
#655 = DIRECTION ( 'NONE',  ( 3.785471652766322976E-30, 1.000000000000000000, 5.421010862427522170E-16 ) ) ;
#656 = CARTESIAN_POINT ( 'NONE',  ( 14.99999999999999822, 0.000000000000000000, -30.00000000000000355 ) ) ;
#657 = VERTEX_POINT ( 'NONE', #784 ) ;
#658 = CARTESIAN_POINT ( 'NONE',  ( -2.349999999993744204, 0.8000000000000020428, -38.24999999999997868 ) ) ;
#659 = CARTESIAN_POINT ( 'NONE',  ( -3.149999999993744026, 0.8000000000000020428, -38.24999999999997158 ) ) ;
#660 = EDGE_CURVE ( 'NONE', #1282, #503, #712, .T. ) ;
#661 = ORIENTED_EDGE ( 'NONE', *, *, #177, .T. ) ;
#662 = CARTESIAN_POINT ( 'NONE',  ( 14.99999999999999822, 0.000000000000000000, -28.00000000000000000 ) ) ;
#663 = CARTESIAN_POINT ( 'NONE',  ( -24.57770876399968074, 0.8000000000000000444, -70.84458247200046799 ) ) ;
#664 = ORIENTED_EDGE ( 'NONE', *, *, #443, .F. ) ;
#665 = VECTOR ( 'NONE', #245, 1000.000000000000000 ) ;
#666 = CIRCLE ( 'NONE', #1257, 2.000000000000001776 ) ;
#667 = AXIS2_PLACEMENT_3D ( 'NONE', #16, #141, #439 ) ;
#668 = VECTOR ( 'NONE', #924, 1000.000000000000000 ) ;
#669 = ORIENTED_EDGE ( 'NONE', *, *, #232, .T. ) ;
#670 = DIRECTION ( 'NONE',  ( 0.000000000000000000, 0.000000000000000000, -1.000000000000000000 ) ) ;
#671 = CYLINDRICAL_SURFACE ( 'NONE', #66, 1.999999999999998224 ) ;
#672 = ORIENTED_EDGE ( 'NONE', *, *, #618, .F. ) ;
#673 = ORIENTED_EDGE ( 'NONE', *, *, #535, .F. ) ;
#674 = EDGE_CURVE ( 'NONE', #149, #249, #871, .T. ) ;
#675 = CARTESIAN_POINT ( 'NONE',  ( 0.000000000000000000, 0.000000000000000000, 0.000000000000000000 ) ) ;
#676 = CARTESIAN_POINT ( 'NONE',  ( -23.00000000000001066, 0.8000000000000000444, -44.99999999999998579 ) ) ;
#677 = EDGE_CURVE ( 'NONE', #3, #1179, #267, .T. ) ;
#678 = ORIENTED_EDGE ( 'NONE', *, *, #199, .T. ) ;
#679 = EDGE_CURVE ( 'NONE', #1134, #463, #418, .T. ) ;
#680 = PLANE ( 'NONE',  #755 ) ;
#681 = ORIENTED_EDGE ( 'NONE', *, *, #1058, .F. ) ;
#682 = CARTESIAN_POINT ( 'NONE',  ( 3.149999999999991029, 0.8000000000000003775, -32.49999999999997158 ) ) ;
#683 = ORIENTED_EDGE ( 'NONE', *, *, #1322, .T. ) ;
#684 = CARTESIAN_POINT ( 'NONE',  ( -25.00000000000001066, 0.000000000000000000, -69.05572809000062762 ) ) ;
#685 = EDGE_CURVE ( 'NONE', #545, #145, #95, .T. ) ;
#686 = VECTOR ( 'NONE', #913, 1000.000000000000000 ) ;
#687 = CARTESIAN_POINT ( 'NONE',  ( 3.149999999999991029, 0.8000000000000003775, -38.24999999999997158 ) ) ;
#688 = ORIENTED_EDGE ( 'NONE', *, *, #1294, .T. ) ;
#689 = CARTESIAN_POINT ( 'NONE',  ( 23.00000000000001066, 0.8000000000000000444, -2.000000000000000000 ) ) ;
#690 = AXIS2_PLACEMENT_3D ( 'NONE', #373, #72, #1211 ) ;
#691 = VERTEX_POINT ( 'NONE', #412 ) ;
#692 = LINE ( 'NONE', #279, #801 ) ;
#693 = EDGE_CURVE ( 'NONE', #1311, #62, #340, .T. ) ;
#694 = CARTESIAN_POINT ( 'NONE',  ( -25.00000000000001066, 0.8000000000000000444, -69.99999999999980105 ) ) ;
#695 = ORIENTED_EDGE ( 'NONE', *, *, #890, .F. ) ;
#696 = UNCERTAINTY_MEASURE_WITH_UNIT (LENGTH_MEASURE( 1.000000000000000082E-05 ), #490, 'distance_accuracy_value', 'NONE');
#697 = VERTEX_POINT ( 'NONE', #401 ) ;
#698 = LINE ( 'NONE', #176, #65 ) ;
#699 = CARTESIAN_POINT ( 'NONE',  ( -3.149999999993744026, 0.8000000000000020428, -38.24999999999997158 ) ) ;
#700 = CARTESIAN_POINT ( 'NONE',  ( 15.00000000000000355, 0.8000000000000000444, -89.99999999999998579 ) ) ;
#701 = EDGE_CURVE ( 'NONE', #1041, #915, #1115, .T. ) ;
#702 = ORIENTED_EDGE ( 'NONE', *, *, #1075, .T. ) ;
#703 = ORIENTED_EDGE ( 'NONE', *, *, #459, .F. ) ;
#704 = DIRECTION ( 'NONE',  ( 0.000000000000000000, -1.000000000000000000, 0.000000000000000000 ) ) ;
#705 = CARTESIAN_POINT ( 'NONE',  ( -2.349999999993759747, 0.8000000000000020428, -40.49999999999997868 ) ) ;
#706 = DIRECTION ( 'NONE',  ( 1.000000000000000000, 0.000000000000000000, 0.000000000000000000 ) ) ;
#707 = ORIENTED_EDGE ( 'NONE', *, *, #1002, .F. ) ;
#708 = CIRCLE ( 'NONE', #1304, 1.999999999999998224 ) ;
#709 = EDGE_LOOP ( 'NONE', ( #1329, #1183, #829, #1020 ) ) ;
#710 = AXIS2_PLACEMENT_3D ( 'NONE', #1177, #634, #216 ) ;
#711 = CARTESIAN_POINT ( 'NONE',  ( 2.349999999999990763, 0.8000000000000000444, -38.24999999999997158 ) ) ;
#712 = LINE ( 'NONE', #720, #994 ) ;
#713 = DIRECTION ( 'NONE',  ( 0.000000000000000000, 0.000000000000000000, -1.000000000000000000 ) ) ;
#714 = CARTESIAN_POINT ( 'NONE',  ( 9.184850993605153861E-16, 0.000000000000000000, -61.49999999999999289 ) ) ;
#715 = ORIENTED_EDGE ( 'NONE', *, *, #610, .T. ) ;
#716 = ORIENTED_EDGE ( 'NONE', *, *, #760, .F. ) ;
#717 = EDGE_CURVE ( 'NONE', #396, #691, #1224, .T. ) ;
#718 = CARTESIAN_POINT ( 'NONE',  ( 13.00000000000000711, 0.8000000000000000444, -42.99999999999999289 ) ) ;
#719 = EDGE_CURVE ( 'NONE', #1232, #476, #1172, .T. ) ;
#720 = CARTESIAN_POINT ( 'NONE',  ( -25.00000000000001066, 0.000000000000000000, -89.99999999999998579 ) ) ;
#721 = DIRECTION ( 'NONE',  ( 0.000000000000000000, -1.000000000000000000, 0.000000000000000000 ) ) ;
#722 = DIRECTION ( 'NONE',  ( -0.000000000000000000, 1.000000000000000000, -0.000000000000000000 ) ) ;
#723 = DIRECTION ( 'NONE',  ( 6.982962677686266711E-15, 0.000000000000000000, 1.000000000000000000 ) ) ;
#724 = ORIENTED_EDGE ( 'NONE', *, *, #83, .T. ) ;
#725 = CARTESIAN_POINT ( 'NONE',  ( 23.00000000000001066, 0.8000000000000000444, -46.99999999999998579 ) ) ;
#726 = EDGE_CURVE ( 'NONE', #239, #272, #816, .T. ) ;
#727 = CARTESIAN_POINT ( 'NONE',  ( -25.00000000000001066, 0.8000000000000000444, -89.99999999999998579 ) ) ;
#728 = ORIENTED_EDGE ( 'NONE', *, *, #636, .T. ) ;
#729 = ORIENTED_EDGE ( 'NONE', *, *, #677, .T. ) ;
#730 = VECTOR ( 'NONE', #649, 1000.000000000000000 ) ;
#731 = STYLED_ITEM ( 'NONE', ( #1158 ), #1110 ) ;
#732 = VECTOR ( 'NONE', #941, 1000.000000000000000 ) ;
#733 =( GEOMETRIC_REPRESENTATION_CONTEXT ( 3 ) GLOBAL_UNCERTAINTY_ASSIGNED_CONTEXT ( ( #59 ) ) GLOBAL_UNIT_ASSIGNED_CONTEXT ( ( #1269, #1262, #954 ) ) REPRESENTATION_CONTEXT ( 'NONE', 'WORKASPACE' ) );
#734 = ADVANCED_FACE ( 'NONE', ( #1237 ), #811, .F. ) ;
#735 = CARTESIAN_POINT ( 'NONE',  ( -3.149999999993720046, 2.059984127722458425E-15, -34.74999999999997868 ) ) ;
#736 = PRODUCT_RELATED_PRODUCT_CATEGORY ( 'part', '', ( #1035 ) ) ;
#737 = CARTESIAN_POINT ( 'NONE',  ( 23.00000000000001066, 0.8000000000000000444, 3.091269448861258096E-17 ) ) ;
#738 = ORIENTED_EDGE ( 'NONE', *, *, #1098, .T. ) ;
#739 = FACE_OUTER_BOUND ( 'NONE', #179, .T. ) ;
#740 = CARTESIAN_POINT ( 'NONE',  ( -2.349999999993477307, 0.8000000000000000444, 1.640996229251717794E-14 ) ) ;
#741 = CARTESIAN_POINT ( 'NONE',  ( -25.00000000000000711, 0.8000000000000000444, -27.99999999999999645 ) ) ;
#742 = EDGE_CURVE ( 'NONE', #559, #1268, #536, .T. ) ;
#743 = EDGE_LOOP ( 'NONE', ( #1025, #432, #1080, #1196 ) ) ;
#744 = CARTESIAN_POINT ( 'NONE',  ( -3.149999999993759570, 0.8000000000000020428, -40.49999999999997158 ) ) ;
#745 = DIRECTION ( 'NONE',  ( -1.000000000000000000, 0.000000000000000000, -1.344030195157067909E-18 ) ) ;
#746 = LINE ( 'NONE', #869, #1038 ) ;
#747 = ORIENTED_EDGE ( 'NONE', *, *, #581, .F. ) ;
#748 = ORIENTED_EDGE ( 'NONE', *, *, #533, .F. ) ;
#749 = EDGE_CURVE ( 'NONE', #511, #161, #1, .T. ) ;
#750 = LINE ( 'NONE', #546, #956 ) ;
#751 = VECTOR ( 'NONE', #1336, 1000.000000000000000 ) ;
#752 = VECTOR ( 'NONE', #620, 1000.000000000000000 ) ;
#753 = FACE_OUTER_BOUND ( 'NONE', #570, .T. ) ;
#754 = CARTESIAN_POINT ( 'NONE',  ( 25.00000000000000711, 0.8000000000000000444, -3.360075487892671254E-17 ) ) ;
#755 = AXIS2_PLACEMENT_3D ( 'NONE', #1206, #1305, #548 ) ;
#756 = DIRECTION ( 'NONE',  ( 1.000000000000000000, -0.000000000000000000, -6.982962677686266711E-15 ) ) ;
#757 = ORIENTED_EDGE ( 'NONE', *, *, #333, .T. ) ;
#758 = CARTESIAN_POINT ( 'NONE',  ( -12.99999999999999822, 0.8000000000000000444, -30.00000000000000355 ) ) ;
#759 = CYLINDRICAL_SURFACE ( 'NONE', #411, 7.500000000000007105 ) ;
#760 = EDGE_CURVE ( 'NONE', #812, #476, #832, .T. ) ;
#761 = ORIENTED_EDGE ( 'NONE', *, *, #993, .T. ) ;
#762 = CARTESIAN_POINT ( 'NONE',  ( -23.00000000000001066, 0.000000000000000000, -3.091269448861258096E-17 ) ) ;
#763 = DIRECTION ( 'NONE',  ( -1.000000000000000000, 0.000000000000000000, -0.000000000000000000 ) ) ;
#764 = DIRECTION ( 'NONE',  ( 0.000000000000000000, -1.000000000000000000, 5.421010862427522170E-16 ) ) ;
#765 = CARTESIAN_POINT ( 'NONE',  ( -23.00000000000001066, 0.8000000000000000444, -3.091269448861258096E-17 ) ) ;
#766 = EDGE_LOOP ( 'NONE', ( #196, #990, #780, #244 ) ) ;
#767 = EDGE_CURVE ( 'NONE', #191, #143, #1136, .T. ) ;
#768 = ORIENTED_EDGE ( 'NONE', *, *, #1350, .T. ) ;
#769 = DIRECTION ( 'NONE',  ( 0.000000000000000000, -1.000000000000000000, 0.000000000000000000 ) ) ;
#770 = CARTESIAN_POINT ( 'NONE',  ( 13.00000000000000711, 0.8000000000000000444, -42.99999999999999289 ) ) ;
#771 = ORIENTED_EDGE ( 'NONE', *, *, #966, .F. ) ;
#772 = AXIS2_PLACEMENT_3D ( 'NONE', #514, #933, #1087 ) ;
#773 = VECTOR ( 'NONE', #838, 1000.000000000000000 ) ;
#774 = EDGE_CURVE ( 'NONE', #136, #1337, #605, .T. ) ;
#775 = CIRCLE ( 'NONE', #314, 2.000000000000000000 ) ;
#776 = CARTESIAN_POINT ( 'NONE',  ( 3.149999999999991029, 0.8000000000000003775, -34.74999999999997868 ) ) ;
#777 = EDGE_CURVE ( 'NONE', #788, #1167, #775, .T. ) ;
#778 = ORIENTED_EDGE ( 'NONE', *, *, #42, .F. ) ;
#779 = DIRECTION ( 'NONE',  ( 0.000000000000000000, -1.000000000000000000, 0.000000000000000000 ) ) ;
#780 = ORIENTED_EDGE ( 'NONE', *, *, #602, .F. ) ;
#781 = DIRECTION ( 'NONE',  ( 0.000000000000000000, -1.000000000000000000, 0.000000000000000000 ) ) ;
#782 = ORIENTED_EDGE ( 'NONE', *, *, #904, .T. ) ;
#783 = ORIENTED_EDGE ( 'NONE', *, *, #806, .F. ) ;
#784 = CARTESIAN_POINT ( 'NONE',  ( -2.349999999993744204, 0.000000000000000000, -38.24999999999997868 ) ) ;
#785 = DIRECTION ( 'NONE',  ( 0.000000000000000000, -1.000000000000000000, 0.000000000000000000 ) ) ;
#786 = DIRECTION ( 'NONE',  ( 0.000000000000000000, 0.000000000000000000, -1.000000000000000000 ) ) ;
#787 = CARTESIAN_POINT ( 'NONE',  ( 25.00000000000000711, 0.8000000000000000444, -46.99999999999998579 ) ) ;
#788 = VERTEX_POINT ( 'NONE', #195 ) ;
#789 = LINE ( 'NONE', #138, #335 ) ;
#790 = CYLINDRICAL_SURFACE ( 'NONE', #311, 2.000000000000000000 ) ;
#791 = SHAPE_DEFINITION_REPRESENTATION ( #616, #1084 ) ;
#792 = VERTEX_POINT ( 'NONE', #611 ) ;
#793 = EDGE_CURVE ( 'NONE', #239, #1191, #907, .T. ) ;
#794 = PLANE ( 'NONE',  #690 ) ;
#795 = VECTOR ( 'NONE', #419, 1000.000000000000000 ) ;
#796 = VECTOR ( 'NONE', #723, 1000.000000000000000 ) ;
#797 = DIRECTION ( 'NONE',  ( -1.000000000000000000, 0.000000000000000000, -7.142979018728031938E-16 ) ) ;
#798 = AXIS2_PLACEMENT_3D ( 'NONE', #1063, #140, #547 ) ;
#799 = LINE ( 'NONE', #694, #1013 ) ;
#800 = ORIENTED_EDGE ( 'NONE', *, *, #1111, .T. ) ;
#801 = VECTOR ( 'NONE', #1109, 1000.000000000000000 ) ;
#802 = DIRECTION ( 'NONE',  ( 1.000000000000000000, 0.000000000000000000, 0.000000000000000000 ) ) ;
#803 = AXIS2_PLACEMENT_3D ( 'NONE', #975, #231, #351 ) ;
#804 = ORIENTED_EDGE ( 'NONE', *, *, #679, .F. ) ;
#805 = CARTESIAN_POINT ( 'NONE',  ( -15.00000000000000888, 0.000000000000000000, -44.99999999999999289 ) ) ;
#806 = EDGE_CURVE ( 'NONE', #943, #1033, #524, .T. ) ;
#807 = CARTESIAN_POINT ( 'NONE',  ( 25.00000000000000711, 0.000000000000000000, -2.000000000000000000 ) ) ;
#808 = ORIENTED_EDGE ( 'NONE', *, *, #719, .T. ) ;
#809 = VERTEX_POINT ( 'NONE', #308 ) ;
#810 = FACE_OUTER_BOUND ( 'NONE', #591, .T. ) ;
#811 = PLANE ( 'NONE',  #364 ) ;
#812 = VERTEX_POINT ( 'NONE', #826 ) ;
#813 = ORIENTED_EDGE ( 'NONE', *, *, #243, .F. ) ;
#814 = CARTESIAN_POINT ( 'NONE',  ( 23.00000000000001066, 0.8000000000000000444, -25.99999999999999645 ) ) ;
#815 = VECTOR ( 'NONE', #174, 1000.000000000000000 ) ;
#816 = LINE ( 'NONE', #714, #601 ) ;
#817 = EDGE_CURVE ( 'NONE', #809, #353, #1243, .T. ) ;
#818 = VECTOR ( 'NONE', #567, 1000.000000000000000 ) ;
#819 = ORIENTED_EDGE ( 'NONE', *, *, #1098, .F. ) ;
#820 = CIRCLE ( 'NONE', #227, 4.000000000000003553 ) ;
#821 = EDGE_CURVE ( 'NONE', #503, #332, #889, .T. ) ;
#822 = ORIENTED_EDGE ( 'NONE', *, *, #1116, .T. ) ;
#823 = AXIS2_PLACEMENT_3D ( 'NONE', #113, #280, #935 ) ;
#824 = FACE_OUTER_BOUND ( 'NONE', #709, .T. ) ;
#825 = CIRCLE ( 'NONE', #500, 2.000000000000000000 ) ;
#826 = CARTESIAN_POINT ( 'NONE',  ( -12.52786404500039907, 0.8000000000000000444, -89.99999999999998579 ) ) ;
#827 = ORIENTED_EDGE ( 'NONE', *, *, #55, .F. ) ;
#828 = CARTESIAN_POINT ( 'NONE',  ( 25.00000000000000711, 0.8000000000000000444, -27.99999999999999645 ) ) ;
#829 = ORIENTED_EDGE ( 'NONE', *, *, #11, .F. ) ;
#830 = CARTESIAN_POINT ( 'NONE',  ( 47.99999999999990052, 0.000000000000000000, -23.99999999999981526 ) ) ;
#831 = FACE_OUTER_BOUND ( 'NONE', #157, .T. ) ;
#832 = LINE ( 'NONE', #727, #1149 ) ;
#833 = ORIENTED_EDGE ( 'NONE', *, *, #377, .T. ) ;
#834 = EDGE_LOOP ( 'NONE', ( #1094, #804, #219, #167 ) ) ;
#835 = CARTESIAN_POINT ( 'NONE',  ( 25.00000000000000711, 0.8000000000000000444, -1.999999999999999112 ) ) ;
#836 = EDGE_CURVE ( 'NONE', #1167, #561, #389, .T. ) ;
#837 = DIRECTION ( 'NONE',  ( 0.000000000000000000, -1.000000000000000000, 0.000000000000000000 ) ) ;
#838 = DIRECTION ( 'NONE',  ( -7.570943305532645951E-30, 1.000000000000000000, -1.084202172485504434E-15 ) ) ;
#839 = PLANE ( 'NONE',  #410 ) ;
#840 = FACE_OUTER_BOUND ( 'NONE', #137, .T. ) ;
#841 = ORIENTED_EDGE ( 'NONE', *, *, #1283, .T. ) ;
#842 = VECTOR ( 'NONE', #449, 1000.000000000000000 ) ;
#843 = LINE ( 'NONE', #515, #1261 ) ;
#844 = VECTOR ( 'NONE', #1064, 1000.000000000000000 ) ;
#845 = CIRCLE ( 'NONE', #803, 7.500000000000007105 ) ;
#846 = ADVANCED_FACE ( 'NONE', ( #135 ), #839, .T. ) ;
#847 = CARTESIAN_POINT ( 'NONE',  ( -12.52786404500039907, 0.8000000000000000444, -89.99999999999998579 ) ) ;
#848 = CARTESIAN_POINT ( 'NONE',  ( 25.00000000000000711, 0.000000000000000000, -25.99999999999998934 ) ) ;
#849 = ORIENTED_EDGE ( 'NONE', *, *, #626, .F. ) ;
#850 = FACE_OUTER_BOUND ( 'NONE', #834, .T. ) ;
#851 = DIRECTION ( 'NONE',  ( -1.000000000000000000, 0.000000000000000000, -2.891205793294675368E-16 ) ) ;
#852 = CARTESIAN_POINT ( 'NONE',  ( -3.149999999993744026, 2.059984127722458425E-15, -38.24999999999997868 ) ) ;
#853 = DIRECTION ( 'NONE',  ( 0.000000000000000000, -1.000000000000000000, 0.000000000000000000 ) ) ;
#854 = ORIENTED_EDGE ( 'NONE', *, *, #446, .F. ) ;
#855 = ORIENTED_EDGE ( 'NONE', *, *, #233, .T. ) ;
#856 = DIRECTION ( 'NONE',  ( 5.782411586589356653E-16, -0.000000000000000000, 1.000000000000000000 ) ) ;
#857 = DIRECTION ( 'NONE',  ( 1.000000000000000000, 0.000000000000000000, -2.891205793294675368E-16 ) ) ;
#858 = CYLINDRICAL_SURFACE ( 'NONE', #1143, 1.999999999999998224 ) ;
#859 = DIRECTION ( 'NONE',  ( 0.000000000000000000, 0.000000000000000000, -1.000000000000000000 ) ) ;
#860 = DIRECTION ( 'NONE',  ( 0.000000000000000000, 0.000000000000000000, -1.000000000000000000 ) ) ;
#861 = EDGE_CURVE ( 'NONE', #938, #1268, #429, .T. ) ;
#862 = ORIENTED_EDGE ( 'NONE', *, *, #966, .T. ) ;
#863 = EDGE_CURVE ( 'NONE', #1282, #812, #1053, .T. ) ;
#864 = AXIS2_PLACEMENT_3D ( 'NONE', #1054, #127, #538 ) ;
#865 = FACE_OUTER_BOUND ( 'NONE', #900, .T. ) ;
#866 = CIRCLE ( 'NONE', #648, 2.000000000000001776 ) ;
#867 = DIRECTION ( 'NONE',  ( -0.4472135954999558738, 0.000000000000000000, -0.8944271909999167436 ) ) ;
#868 = AXIS2_PLACEMENT_3D ( 'NONE', #529, #32, #38 ) ;
#869 = CARTESIAN_POINT ( 'NONE',  ( 25.00000000000000711, 0.8000000000000000444, -44.99999999999998579 ) ) ;
#870 = AXIS2_PLACEMENT_3D ( 'NONE', #117, #609, #98 ) ;
#871 = LINE ( 'NONE', #1187, #409 ) ;
#872 = ORIENTED_EDGE ( 'NONE', *, *, #233, .F. ) ;
#873 = CARTESIAN_POINT ( 'NONE',  ( -16.10557280900007271, 0.000000000000000000, -87.78885438199982616 ) ) ;
#874 = DIRECTION ( 'NONE',  ( 0.000000000000000000, 0.000000000000000000, -1.000000000000000000 ) ) ;
#875 = CARTESIAN_POINT ( 'NONE',  ( -25.00000000000000711, 0.000000000000000000, -25.99999999999998934 ) ) ;
#876 = EDGE_LOOP ( 'NONE', ( #203, #382, #635, #612 ) ) ;
#877 = EDGE_CURVE ( 'NONE', #1245, #149, #1347, .T. ) ;
#878 = ORIENTED_EDGE ( 'NONE', *, *, #946, .T. ) ;
#879 = FACE_OUTER_BOUND ( 'NONE', #988, .T. ) ;
#880 = DIRECTION ( 'NONE',  ( 0.000000000000000000, 0.000000000000000000, -1.000000000000000000 ) ) ;
#881 = DIRECTION ( 'NONE',  ( -1.000000000000000000, -0.000000000000000000, -0.000000000000000000 ) ) ;
#882 = ORIENTED_EDGE ( 'NONE', *, *, #1189, .T. ) ;
#883 = ORIENTED_EDGE ( 'NONE', *, *, #793, .F. ) ;
#884 = DIRECTION ( 'NONE',  ( 0.000000000000000000, 1.000000000000000000, 0.000000000000000000 ) ) ;
#885 = DIRECTION ( 'NONE',  ( 1.000000000000000000, 0.000000000000000000, -5.782411586589356653E-16 ) ) ;
#886 = DIRECTION ( 'NONE',  ( 1.000000000000000000, 0.000000000000000000, -2.891205793294675368E-16 ) ) ;
#887 = ORIENTED_EDGE ( 'NONE', *, *, #206, .T. ) ;
#888 = CIRCLE ( 'NONE', #475, 2.000000000000001776 ) ;
#889 = CIRCLE ( 'NONE', #995, 4.000000000000003553 ) ;
#890 = EDGE_CURVE ( 'NONE', #272, #376, #1325, .T. ) ;
#891 = ORIENTED_EDGE ( 'NONE', *, *, #250, .T. ) ;
#892 = CARTESIAN_POINT ( 'NONE',  ( 3.149999999999991029, 3.252606517456513302E-16, -38.24999999999997158 ) ) ;
#893 = CARTESIAN_POINT ( 'NONE',  ( -12.52786404500039907, 0.000000000000000000, -85.99999999999998579 ) ) ;
#894 = ORIENTED_EDGE ( 'NONE', *, *, #232, .F. ) ;
#895 = DIRECTION ( 'NONE',  ( 0.000000000000000000, -0.000000000000000000, -1.000000000000000000 ) ) ;
#896 = EDGE_CURVE ( 'NONE', #561, #191, #955, .T. ) ;
#897 = DIRECTION ( 'NONE',  ( 0.000000000000000000, -1.000000000000000000, 0.000000000000000000 ) ) ;
#898 = EDGE_LOOP ( 'NONE', ( #566, #1332, #1288, #531 ) ) ;
#899 = FACE_OUTER_BOUND ( 'NONE', #40, .T. ) ;
#900 = EDGE_LOOP ( 'NONE', ( #96, #26, #502, #999 ) ) ;
#901 = CARTESIAN_POINT ( 'NONE',  ( -13.00000000000000711, 0.8000000000000000444, -42.99999999999999289 ) ) ;
#902 = ORIENTED_EDGE ( 'NONE', *, *, #646, .F. ) ;
#903 = ORIENTED_EDGE ( 'NONE', *, *, #535, .T. ) ;
#904 = EDGE_CURVE ( 'NONE', #264, #1337, #746, .T. ) ;
#905 = CARTESIAN_POINT ( 'NONE',  ( 15.00000000000000711, 0.8000000000000000444, -42.99999999999999289 ) ) ;
#906 = CIRCLE ( 'NONE', #798, 7.500000000000007105 ) ;
#907 = CIRCLE ( 'NONE', #229, 7.500000000000007105 ) ;
#908 = ORIENTED_EDGE ( 'NONE', *, *, #602, .T. ) ;
#909 = ORIENTED_EDGE ( 'NONE', *, *, #322, .T. ) ;
#910 = DIRECTION ( 'NONE',  ( -0.000000000000000000, 1.000000000000000000, -0.000000000000000000 ) ) ;
#911 = ADVANCED_FACE ( 'NONE', ( #739 ), #680, .T. ) ;
#912 = LINE ( 'NONE', #394, #623 ) ;
#913 = DIRECTION ( 'NONE',  ( -0.000000000000000000, 1.000000000000000000, -0.000000000000000000 ) ) ;
#914 = CARTESIAN_POINT ( 'NONE',  ( 15.00000000000000888, 0.8000000000000000444, -44.99999999999999289 ) ) ;
#915 = VERTEX_POINT ( 'NONE', #970 ) ;
#916 = DIRECTION ( 'NONE',  ( 0.000000000000000000, -1.000000000000000000, 0.000000000000000000 ) ) ;
#917 = EDGE_LOOP ( 'NONE', ( #103, #173, #81, #485 ) ) ;
#918 = DIRECTION ( 'NONE',  ( -6.982962677686266711E-15, 0.000000000000000000, -1.000000000000000000 ) ) ;
#919 = ADVANCED_FACE ( 'NONE', ( #328 ), #339, .T. ) ;
#920 = ADVANCED_FACE ( 'NONE', ( #456 ), #25, .T. ) ;
#921 = DIRECTION ( 'NONE',  ( 0.000000000000000000, 1.000000000000000000, 0.000000000000000000 ) ) ;
#922 = ORIENTED_EDGE ( 'NONE', *, *, #863, .T. ) ;
#923 = ORIENTED_EDGE ( 'NONE', *, *, #459, .T. ) ;
#924 = DIRECTION ( 'NONE',  ( -1.000000000000000000, -0.000000000000000000, -0.000000000000000000 ) ) ;
#925 = CLOSED_SHELL ( 'NONE', ( #24, #1021, #1042, #330, #1299, #1210, #919, #505, #911, #846, #415, #734, #276, #572, #74, #937, #124, #259, #355, #1161, #1231, #1155, #920, #1061, #987, #315, #265, #549, #194, #346, #67, #1308, #115, #472, #172, #1163, #1142, #1101, #423, #1048 ) ) ;
#926 = LINE ( 'NONE', #238, #554 ) ;
#927 = CARTESIAN_POINT ( 'NONE',  ( 2.349999999999990763, 3.252606517456513302E-16, -38.24999999999997158 ) ) ;
#928 = EDGE_CURVE ( 'NONE', #1148, #1273, #451, .T. ) ;
#929 = CARTESIAN_POINT ( 'NONE',  ( 0.000000000000000000, 0.000000000000000000, -53.99999999999998579 ) ) ;
#930 = VECTOR ( 'NONE', #1125, 1000.000000000000000 ) ;
#931 = ORIENTED_EDGE ( 'NONE', *, *, #56, .T. ) ;
#932 = AXIS2_PLACEMENT_3D ( 'NONE', #266, #274, #1000 ) ;
#933 = DIRECTION ( 'NONE',  ( 0.000000000000000000, -1.000000000000000000, 0.000000000000000000 ) ) ;
#934 = VECTOR ( 'NONE', #1044, 1000.000000000000114 ) ;
#935 = DIRECTION ( 'NONE',  ( -8.673617379884027583E-16, 0.000000000000000000, -1.000000000000000000 ) ) ;
#936 = DIRECTION ( 'NONE',  ( 0.000000000000000000, 1.000000000000000000, -0.000000000000000000 ) ) ;
#937 = ADVANCED_FACE ( 'NONE', ( #641 ), #222, .T. ) ;
#938 = VERTEX_POINT ( 'NONE', #316 ) ;
#939 = DIRECTION ( 'NONE',  ( 0.000000000000000000, -1.000000000000000000, 0.000000000000000000 ) ) ;
#940 = DIRECTION ( 'NONE',  ( 0.000000000000000000, 1.000000000000000000, 0.000000000000000000 ) ) ;
#941 = DIRECTION ( 'NONE',  ( 0.000000000000000000, -1.000000000000000000, 0.000000000000000000 ) ) ;
#942 = EDGE_LOOP ( 'NONE', ( #627, #950, #1226, #1008 ) ) ;
#943 = VERTEX_POINT ( 'NONE', #537 ) ;
#944 = CARTESIAN_POINT ( 'NONE',  ( -13.00000000000000711, 0.000000000000000000, -42.99999999999999289 ) ) ;
#945 = CARTESIAN_POINT ( 'NONE',  ( 14.99999999999999822, 0.8000000000000000444, -28.00000000000000000 ) ) ;
#946 = EDGE_CURVE ( 'NONE', #1030, #1298, #165, .T. ) ;
#947 = CARTESIAN_POINT ( 'NONE',  ( 15.00000000000000711, 0.8000000000000000444, -42.99999999999999289 ) ) ;
#948 = CYLINDRICAL_SURFACE ( 'NONE', #667, 2.000000000000001776 ) ;
#949 = AXIS2_PLACEMENT_3D ( 'NONE', #8, #1348, #1244 ) ;
#950 = ORIENTED_EDGE ( 'NONE', *, *, #1031, .F. ) ;
#951 = DIRECTION ( 'NONE',  ( 5.782411586589356653E-16, 0.000000000000000000, -1.000000000000000000 ) ) ;
#952 = ORIENTED_EDGE ( 'NONE', *, *, #717, .F. ) ;
#953 = VECTOR ( 'NONE', #347, 1000.000000000000000 ) ;
#954 =( NAMED_UNIT ( * ) SI_UNIT ( $, .STERADIAN. ) SOLID_ANGLE_UNIT ( ) );
#955 = CIRCLE ( 'NONE', #1306, 2.000000000000000000 ) ;
#956 = VECTOR ( 'NONE', #160, 1000.000000000000000 ) ;
#957 = CARTESIAN_POINT ( 'NONE',  ( 0.000000000000000000, 0.8000000000000000444, 0.000000000000000000 ) ) ;
#958 = CARTESIAN_POINT ( 'NONE',  ( -25.00000000000000711, 0.000000000000000000, -3.360075487892671254E-17 ) ) ;
#959 = ORIENTED_EDGE ( 'NONE', *, *, #289, .F. ) ;
#960 = ORIENTED_EDGE ( 'NONE', *, *, #11, .T. ) ;
#961 = CARTESIAN_POINT ( 'NONE',  ( -13.00000000000000711, 0.000000000000000000, -42.99999999999999289 ) ) ;
#962 = CARTESIAN_POINT ( 'NONE',  ( -25.00000000000000711, 0.8000000000000000444, -1.999999999999999112 ) ) ;
#963 = CARTESIAN_POINT ( 'NONE',  ( 25.00000000000000711, 0.8000000000000000444, -25.99999999999998934 ) ) ;
#964 = CARTESIAN_POINT ( 'NONE',  ( -23.00000000000001066, 0.000000000000000000, -27.99999999999999645 ) ) ;
#965 = DIRECTION ( 'NONE',  ( -7.709882115452476934E-17, 0.000000000000000000, -1.000000000000000000 ) ) ;
#966 = EDGE_CURVE ( 'NONE', #288, #479, #1279, .T. ) ;
#967 = ORIENTED_EDGE ( 'NONE', *, *, #928, .F. ) ;
#968 = DIRECTION ( 'NONE',  ( -0.000000000000000000, 1.000000000000000000, -0.000000000000000000 ) ) ;
#969 = CARTESIAN_POINT ( 'NONE',  ( 15.00000000000000355, 0.8000000000000000444, -89.99999999999998579 ) ) ;
#970 = CARTESIAN_POINT ( 'NONE',  ( -23.00000000000001066, 0.000000000000000000, -44.99999999999998579 ) ) ;
#971 = DIRECTION ( 'NONE',  ( -1.000000000000000000, -0.000000000000000000, -0.000000000000000000 ) ) ;
#972 = ORIENTED_EDGE ( 'NONE', *, *, #147, .T. ) ;
#973 = LINE ( 'NONE', #1252, #57 ) ;
#974 = AXIS2_PLACEMENT_3D ( 'NONE', #1203, #371, #1118 ) ;
#975 = CARTESIAN_POINT ( 'NONE',  ( 0.000000000000000000, 0.8000000000000000444, -53.99999999999998579 ) ) ;
#976 = ORIENTED_EDGE ( 'NONE', *, *, #1058, .T. ) ;
#977 = AXIS2_PLACEMENT_3D ( 'NONE', #725, #10, #433 ) ;
#978 = ORIENTED_EDGE ( 'NONE', *, *, #393, .F. ) ;
#979 = DIRECTION ( 'NONE',  ( 0.000000000000000000, 1.000000000000000000, -5.421010862427522170E-16 ) ) ;
#980 = EDGE_CURVE ( 'NONE', #1134, #1293, #236, .T. ) ;
#981 = DIRECTION ( 'NONE',  ( -0.000000000000000000, 1.000000000000000000, -0.000000000000000000 ) ) ;
#982 = ORIENTED_EDGE ( 'NONE', *, *, #677, .F. ) ;
#983 = ORIENTED_EDGE ( 'NONE', *, *, #1307, .T. ) ;
#984 = CARTESIAN_POINT ( 'NONE',  ( 3.149999999999991029, 0.8000000000000000444, 0.000000000000000000 ) ) ;
#985 = PLANE ( 'NONE',  #87 ) ;
#986 = EDGE_LOOP ( 'NONE', ( #1316, #1251, #1132, #688 ) ) ;
#987 = ADVANCED_FACE ( 'NONE', ( #1071 ), #948, .T. ) ;
#988 = EDGE_LOOP ( 'NONE', ( #1303, #579, #230, #111 ) ) ;
#989 = LINE ( 'NONE', #47, #269 ) ;
#990 = ORIENTED_EDGE ( 'NONE', *, *, #481, .T. ) ;
#991 = CARTESIAN_POINT ( 'NONE',  ( 3.149999999999991029, 3.252606517456513302E-16, -34.74999999999997868 ) ) ;
#992 = VECTOR ( 'NONE', #51, 1000.000000000000000 ) ;
#993 = EDGE_CURVE ( 'NONE', #697, #318, #293, .T. ) ;
#994 = VECTOR ( 'NONE', #1277, 1000.000000000000000 ) ;
#995 = AXIS2_PLACEMENT_3D ( 'NONE', #619, #107, #1327 ) ;
#996 = CARTESIAN_POINT ( 'NONE',  ( -12.99999999999999645, 0.000000000000000000, -28.00000000000000000 ) ) ;
#997 = VECTOR ( 'NONE', #1302, 1000.000000000000000 ) ;
#998 = ORIENTED_EDGE ( 'NONE', *, *, #654, .F. ) ;
#999 = ORIENTED_EDGE ( 'NONE', *, *, #481, .F. ) ;
#1000 = DIRECTION ( 'NONE',  ( 0.000000000000000000, 0.000000000000000000, -1.000000000000000000 ) ) ;
#1001 = FACE_OUTER_BOUND ( 'NONE', #90, .T. ) ;
#1002 = EDGE_CURVE ( 'NONE', #3, #1245, #291, .T. ) ;
#1003 = ORIENTED_EDGE ( 'NONE', *, *, #306, .F. ) ;
#1004 = PLANE ( 'NONE',  #105 ) ;
#1005 = APPLICATION_PROTOCOL_DEFINITION ( 'draft international standard', 'automotive_design', 1998, #408 ) ;
#1006 = VERTEX_POINT ( 'NONE', #901 ) ;
#1007 = DIRECTION ( 'NONE',  ( 0.000000000000000000, 0.000000000000000000, -1.000000000000000000 ) ) ;
#1008 = ORIENTED_EDGE ( 'NONE', *, *, #177, .F. ) ;
#1009 = PRODUCT_CONTEXT ( 'NONE', #331, 'mechanical' ) ;
#1010 = VERTEX_POINT ( 'NONE', #684 ) ;
#1011 = LINE ( 'NONE', #499, #275 ) ;
#1012 = AXIS2_PLACEMENT_3D ( 'NONE', #1156, #936, #1267 ) ;
#1013 = VECTOR ( 'NONE', #1151, 1000.000000000000114 ) ;
#1014 = DIRECTION ( 'NONE',  ( -1.000000000000000000, 0.000000000000000000, 5.782411586589356653E-16 ) ) ;
#1015 = VECTOR ( 'NONE', #965, 1000.000000000000000 ) ;
#1016 = LINE ( 'NONE', #89, #63 ) ;
#1017 = EDGE_LOOP ( 'NONE', ( #783, #1233, #92, #608 ) ) ;
#1018 = AXIS2_PLACEMENT_3D ( 'NONE', #220, #939, #104 ) ;
#1019 =( NAMED_UNIT ( * ) PLANE_ANGLE_UNIT ( ) SI_UNIT ( $, .RADIAN. ) );
#1020 = ORIENTED_EDGE ( 'NONE', *, *, #1189, .F. ) ;
#1021 = ADVANCED_FACE ( 'NONE', ( #1097, #1221, #385, #1114 ), #480, .F. ) ;
#1022 = CARTESIAN_POINT ( 'NONE',  ( 12.99999999999999822, 0.000000000000000000, -30.00000000000000355 ) ) ;
#1023 = CARTESIAN_POINT ( 'NONE',  ( -3.149999999993744026, 0.8000000000000020428, -38.24999999999997158 ) ) ;
#1024 = CARTESIAN_POINT ( 'NONE',  ( 23.00000000000001066, 0.8000000000000000444, -2.000000000000000000 ) ) ;
#1025 = ORIENTED_EDGE ( 'NONE', *, *, #387, .F. ) ;
#1026 = ORIENTED_EDGE ( 'NONE', *, *, #946, .F. ) ;
#1027 = CARTESIAN_POINT ( 'NONE',  ( -15.00000000000000888, 0.8000000000000000444, -44.99999999999999289 ) ) ;
#1028 = CARTESIAN_POINT ( 'NONE',  ( 0.000000000000000000, 0.000000000000000000, -53.99999999999998579 ) ) ;
#1029 = ORIENTED_EDGE ( 'NONE', *, *, #1346, .T. ) ;
#1030 = VERTEX_POINT ( 'NONE', #93 ) ;
#1031 = EDGE_CURVE ( 'NONE', #332, #1232, #1234, .T. ) ;
#1032 = CARTESIAN_POINT ( 'NONE',  ( 23.00000000000001066, 0.000000000000000000, -25.99999999999999645 ) ) ;
#1033 = VERTEX_POINT ( 'NONE', #711 ) ;
#1034 = DIRECTION ( 'NONE',  ( -1.000000000000000000, 0.000000000000000000, -5.782411586589356653E-16 ) ) ;
#1035 = PRODUCT ( 'Base', 'Base', '', ( #1009 ) ) ;
#1036 = AXIS2_PLACEMENT_3D ( 'NONE', #754, #1176, #1182 ) ;
#1037 = ORIENTED_EDGE ( 'NONE', *, *, #33, .T. ) ;
#1038 = VECTOR ( 'NONE', #321, 1000.000000000000000 ) ;
#1039 = FACE_OUTER_BOUND ( 'NONE', #223, .T. ) ;
#1040 = DIRECTION ( 'NONE',  ( 1.000000000000000000, 0.000000000000000000, 2.891205793294675368E-16 ) ) ;
#1041 = VERTEX_POINT ( 'NONE', #805 ) ;
#1042 = ADVANCED_FACE ( 'NONE', ( #580, #378, #1312, #592 ), #794, .T. ) ;
#1043 = EDGE_LOOP ( 'NONE', ( #164, #862, #1037, #303 ) ) ;
#1044 = DIRECTION ( 'NONE',  ( 0.4472135954999558738, 0.000000000000000000, 0.8944271909999167436 ) ) ;
#1045 = DIRECTION ( 'NONE',  ( -0.000000000000000000, 1.000000000000000000, -0.000000000000000000 ) ) ;
#1046 = LINE ( 'NONE', #413, #1120 ) ;
#1047 = EDGE_LOOP ( 'NONE', ( #540, #629, #75, #80 ) ) ;
#1048 = ADVANCED_FACE ( 'NONE', ( #1333 ), #492, .T. ) ;
#1049 = LINE ( 'NONE', #417, #668 ) ;
#1050 = DIRECTION ( 'NONE',  ( 0.000000000000000000, -1.000000000000000000, 0.000000000000000000 ) ) ;
#1051 = CARTESIAN_POINT ( 'NONE',  ( -23.00000000000001066, 0.8000000000000000444, -46.99999999999998579 ) ) ;
#1052 = CARTESIAN_POINT ( 'NONE',  ( 2.349999999999990763, 0.8000000000000003775, -32.49999999999997158 ) ) ;
#1053 = LINE ( 'NONE', #847, #1082 ) ;
#1054 = CARTESIAN_POINT ( 'NONE',  ( 25.00000000000000711, 0.8000000000000000444, -44.99999999999998579 ) ) ;
#1055 = ORIENTED_EDGE ( 'NONE', *, *, #1334, .F. ) ;
#1056 = CIRCLE ( 'NONE', #1235, 4.000000000000003553 ) ;
#1057 = CARTESIAN_POINT ( 'NONE',  ( 16.10557280900008337, 0.8000000000000000444, -87.78885438199981195 ) ) ;
#1058 = EDGE_CURVE ( 'NONE', #1179, #288, #478, .T. ) ;
#1059 = VECTOR ( 'NONE', #586, 1000.000000000000000 ) ;
#1060 = VECTOR ( 'NONE', #968, 1000.000000000000000 ) ;
#1061 = ADVANCED_FACE ( 'NONE', ( #84 ), #603, .T. ) ;
#1062 = LINE ( 'NONE', #1278, #313 ) ;
#1063 = CARTESIAN_POINT ( 'NONE',  ( 0.000000000000000000, 0.000000000000000000, -53.99999999999998579 ) ) ;
#1064 = DIRECTION ( 'NONE',  ( 0.000000000000000000, 0.000000000000000000, -1.000000000000000000 ) ) ;
#1065 = DIRECTION ( 'NONE',  ( -7.709882115452476934E-17, 0.000000000000000000, -1.000000000000000000 ) ) ;
#1066 = LINE ( 'NONE', #740, #796 ) ;
#1067 = ORIENTED_EDGE ( 'NONE', *, *, #573, .F. ) ;
#1068 = CARTESIAN_POINT ( 'NONE',  ( 12.99999999999999822, 0.000000000000000000, -30.00000000000000355 ) ) ;
#1069 = FACE_OUTER_BOUND ( 'NONE', #304, .T. ) ;
#1070 = EDGE_CURVE ( 'NONE', #161, #943, #692, .T. ) ;
#1071 = FACE_OUTER_BOUND ( 'NONE', #260, .T. ) ;
#1072 = ORIENTED_EDGE ( 'NONE', *, *, #654, .T. ) ;
#1073 = CARTESIAN_POINT ( 'NONE',  ( 23.00000000000001066, 0.000000000000000000, -27.99999999999999645 ) ) ;
#1074 = DIRECTION ( 'NONE',  ( 6.982962677686266711E-15, -5.421010862427522170E-16, 1.000000000000000000 ) ) ;
#1075 = EDGE_CURVE ( 'NONE', #62, #445, #698, .T. ) ;
#1076 = ORIENTED_EDGE ( 'NONE', *, *, #685, .T. ) ;
#1077 = DIRECTION ( 'NONE',  ( 0.000000000000000000, 0.000000000000000000, 1.000000000000000000 ) ) ;
#1078 = CARTESIAN_POINT ( 'NONE',  ( 23.00000000000001066, 0.8000000000000000444, -25.99999999999999645 ) ) ;
#1079 = CARTESIAN_POINT ( 'NONE',  ( -25.00000000000000711, 0.000000000000000000, -27.99999999999999645 ) ) ;
#1080 = ORIENTED_EDGE ( 'NONE', *, *, #980, .T. ) ;
#1081 = VECTOR ( 'NONE', #246, 1000.000000000000000 ) ;
#1082 = VECTOR ( 'NONE', #126, 1000.000000000000000 ) ;
#1083 = VECTOR ( 'NONE', #653, 1000.000000000000000 ) ;
#1084 = ADVANCED_BREP_SHAPE_REPRESENTATION ( 'Base', ( #1110, #1174 ), #1199 ) ;
#1085 = ORIENTED_EDGE ( 'NONE', *, *, #1351, .T. ) ;
#1086 = CARTESIAN_POINT ( 'NONE',  ( 24.57770876399966653, 0.000000000000000000, -70.84458247200055325 ) ) ;
#1087 = DIRECTION ( 'NONE',  ( 0.000000000000000000, 0.000000000000000000, -1.000000000000000000 ) ) ;
#1088 = EDGE_CURVE ( 'NONE', #1337, #1112, #517, .T. ) ;
#1089 = DIRECTION ( 'NONE',  ( 0.000000000000000000, 0.000000000000000000, -1.000000000000000000 ) ) ;
#1090 = VERTEX_POINT ( 'NONE', #991 ) ;
#1091 = ORIENTED_EDGE ( 'NONE', *, *, #861, .T. ) ;
#1092 = ORIENTED_EDGE ( 'NONE', *, *, #777, .T. ) ;
#1093 = CARTESIAN_POINT ( 'NONE',  ( -23.00000000000001066, 0.8000000000000000444, -2.000000000000000000 ) ) ;
#1094 = ORIENTED_EDGE ( 'NONE', *, *, #287, .T. ) ;
#1095 = DIRECTION ( 'NONE',  ( -0.000000000000000000, 1.000000000000000000, -0.000000000000000000 ) ) ;
#1096 = ORIENTED_EDGE ( 'NONE', *, *, #360, .T. ) ;
#1097 = FACE_BOUND ( 'NONE', #391, .T. ) ;
#1098 = EDGE_CURVE ( 'NONE', #792, #938, #1011, .T. ) ;
#1099 = VECTOR ( 'NONE', #1065, 1000.000000000000000 ) ;
#1100 = AXIS2_PLACEMENT_3D ( 'NONE', #1032, #625, #1335 ) ;
#1101 = ADVANCED_FACE ( 'NONE', ( #810 ), #284, .F. ) ;
#1102 = AXIS2_PLACEMENT_3D ( 'NONE', #486, #392, #1228 ) ;
#1103 = VECTOR ( 'NONE', #312, 1000.000000000000000 ) ;
#1104 = CARTESIAN_POINT ( 'NONE',  ( -3.149999999993744026, 2.059984127722458425E-15, -38.24999999999997868 ) ) ;
#1105 = ORIENTED_EDGE ( 'NONE', *, *, #742, .F. ) ;
#1106 = DIRECTION ( 'NONE',  ( 0.000000000000000000, -1.000000000000000000, 0.000000000000000000 ) ) ;
#1107 = DIRECTION ( 'NONE',  ( 0.000000000000000000, 0.000000000000000000, 1.000000000000000000 ) ) ;
#1108 = ORIENTED_EDGE ( 'NONE', *, *, #701, .T. ) ;
#1109 = DIRECTION ( 'NONE',  ( 0.000000000000000000, 0.000000000000000000, -1.000000000000000000 ) ) ;
#1110 = MANIFOLD_SOLID_BREP ( 'Cavidade1', #925 ) ;
#1111 = EDGE_CURVE ( 'NONE', #318, #102, #1343, .T. ) ;
#1112 = VERTEX_POINT ( 'NONE', #1339 ) ;
#1113 = VERTEX_POINT ( 'NONE', #1150 ) ;
#1114 = FACE_OUTER_BOUND ( 'NONE', #1128, .T. ) ;
#1115 = LINE ( 'NONE', #1144, #1284 ) ;
#1116 = EDGE_CURVE ( 'NONE', #102, #390, #154, .T. ) ;
#1117 = EDGE_LOOP ( 'NONE', ( #507, #175, #1067, #491 ) ) ;
#1118 = DIRECTION ( 'NONE',  ( 0.000000000000000000, 0.000000000000000000, -1.000000000000000000 ) ) ;
#1119 = ORIENTED_EDGE ( 'NONE', *, *, #218, .T. ) ;
#1120 = VECTOR ( 'NONE', #520, 1000.000000000000000 ) ;
#1121 = DIRECTION ( 'NONE',  ( 1.000000000000000000, 0.000000000000000000, -6.982962677686266711E-15 ) ) ;
#1122 = CARTESIAN_POINT ( 'NONE',  ( -2.349999999993719779, 0.8000000000000000444, -34.74999999999998579 ) ) ;
#1123 = AXIS2_PLACEMENT_3D ( 'NONE', #1236, #295, #713 ) ;
#1124 = DIRECTION ( 'NONE',  ( 0.000000000000000000, -1.000000000000000000, 0.000000000000000000 ) ) ;
#1125 = DIRECTION ( 'NONE',  ( 1.000000000000000000, -0.000000000000000000, -6.982962677686266711E-15 ) ) ;
#1126 = VECTOR ( 'NONE', #1345, 1000.000000000000000 ) ;
#1127 = ORIENTED_EDGE ( 'NONE', *, *, #83, .F. ) ;
#1128 = EDGE_LOOP ( 'NONE', ( #782, #155, #1249, #808, #716, #27, #728, #607, #1239, #495, #967, #909, #342, #822, #1202, #54, #1157, #683, #854, #1092, #577, #1029, #404, #833, #729, #976, #841, #197 ) ) ;
#1129 = EDGE_CURVE ( 'NONE', #1112, #162, #843, .T. ) ;
#1130 = DIRECTION ( 'NONE',  ( 0.000000000000000000, -1.000000000000000000, 0.000000000000000000 ) ) ;
#1131 = DIRECTION ( 'NONE',  ( -0.000000000000000000, 1.000000000000000000, -0.000000000000000000 ) ) ;
#1132 = ORIENTED_EDGE ( 'NONE', *, *, #250, .F. ) ;
#1133 = DIRECTION ( 'NONE',  ( 0.000000000000000000, -1.000000000000000000, 0.000000000000000000 ) ) ;
#1134 = VERTEX_POINT ( 'NONE', #214 ) ;
#1135 = PLANE ( 'NONE',  #156 ) ;
#1136 = LINE ( 'NONE', #1230, #1218 ) ;
#1137 = ORIENTED_EDGE ( 'NONE', *, *, #496, .T. ) ;
#1138 = ORIENTED_EDGE ( 'NONE', *, *, #1181, .T. ) ;
#1139 = SURFACE_STYLE_FILL_AREA ( #399 ) ;
#1140 = CARTESIAN_POINT ( 'NONE',  ( 14.99999999999999822, 0.8000000000000000444, -30.00000000000000355 ) ) ;
#1141 = CARTESIAN_POINT ( 'NONE',  ( 21.00000000000001066, 0.8000000000000000444, -69.05572809000069867 ) ) ;
#1142 = ADVANCED_FACE ( 'NONE', ( #850 ), #1135, .T. ) ;
#1143 = AXIS2_PLACEMENT_3D ( 'NONE', #614, #1227, #73 ) ;
#1144 = CARTESIAN_POINT ( 'NONE',  ( -13.00000000000000888, 0.000000000000000000, -44.99999999999999289 ) ) ;
#1145 = VECTOR ( 'NONE', #886, 1000.000000000000000 ) ;
#1146 = ORIENTED_EDGE ( 'NONE', *, *, #660, .T. ) ;
#1147 = AXIS2_PLACEMENT_3D ( 'NONE', #1052, #125, #23 ) ;
#1148 = VERTEX_POINT ( 'NONE', #1027 ) ;
#1149 = VECTOR ( 'NONE', #706, 1000.000000000000000 ) ;
#1150 = CARTESIAN_POINT ( 'NONE',  ( 3.149999999999991029, 3.252606517456513302E-16, -38.24999999999997158 ) ) ;
#1151 = DIRECTION ( 'NONE',  ( -0.4472135954999555407, -0.000000000000000000, 0.8944271909999169656 ) ) ;
#1152 = DIRECTION ( 'NONE',  ( 0.000000000000000000, 0.000000000000000000, -1.000000000000000000 ) ) ;
#1153 = DIRECTION ( 'NONE',  ( 0.000000000000000000, 0.000000000000000000, -1.000000000000000000 ) ) ;
#1154 = DIRECTION ( 'NONE',  ( -1.344030195157067909E-18, 0.000000000000000000, 1.000000000000000000 ) ) ;
#1155 = ADVANCED_FACE ( 'NONE', ( #523 ), #509, .T. ) ;
#1156 = CARTESIAN_POINT ( 'NONE',  ( -21.00000000000001066, 0.8000000000000000444, -69.05572809000064183 ) ) ;
#1157 = ORIENTED_EDGE ( 'NONE', *, *, #159, .F. ) ;
#1158 = PRESENTATION_STYLE_ASSIGNMENT (( #204 ) ) ;
#1159 = CARTESIAN_POINT ( 'NONE',  ( -13.00000000000000888, 0.8000000000000000444, -44.99999999999999289 ) ) ;
#1160 = FACE_OUTER_BOUND ( 'NONE', #166, .T. ) ;
#1161 = ADVANCED_FACE ( 'NONE', ( #824 ), #422, .F. ) ;
#1162 = EDGE_LOOP ( 'NONE', ( #1137, #882, #130, #800 ) ) ;
#1163 = ADVANCED_FACE ( 'NONE', ( #22 ), #615, .T. ) ;
#1164 = CARTESIAN_POINT ( 'NONE',  ( -14.99999999999999822, 0.8000000000000000444, -30.00000000000000355 ) ) ;
#1165 = CARTESIAN_POINT ( 'NONE',  ( -12.52786404500039907, 0.8000000000000000444, -85.99999999999998579 ) ) ;
#1166 = DIRECTION ( 'NONE',  ( 0.000000000000000000, -1.000000000000000000, 0.000000000000000000 ) ) ;
#1167 = VERTEX_POINT ( 'NONE', #835 ) ;
#1168 = AXIS2_PLACEMENT_3D ( 'NONE', #700, #79, #606 ) ;
#1169 = ORIENTED_EDGE ( 'NONE', *, *, #100, .T. ) ;
#1170 = CIRCLE ( 'NONE', #85, 2.000000000000000000 ) ;
#1171 = DIRECTION ( 'NONE',  ( -0.000000000000000000, 1.000000000000000000, -0.000000000000000000 ) ) ;
#1172 = CIRCLE ( 'NONE', #578, 4.000000000000003553 ) ;
#1173 = EDGE_CURVE ( 'NONE', #1113, #943, #1049, .T. ) ;
#1174 = AXIS2_PLACEMENT_3D ( 'NONE', #675, #1107, #802 ) ;
#1175 = CARTESIAN_POINT ( 'NONE',  ( -3.149999999993720046, 0.8000000000000020428, -34.74999999999997868 ) ) ;
#1176 = DIRECTION ( 'NONE',  ( -1.000000000000000000, 0.000000000000000000, 0.000000000000000000 ) ) ;
#1177 = CARTESIAN_POINT ( 'NONE',  ( -12.99999999999999645, 0.8000000000000000444, -28.00000000000000000 ) ) ;
#1178 = DIRECTION ( 'NONE',  ( -7.142979018728031938E-16, 0.000000000000000000, -1.000000000000000000 ) ) ;
#1179 = VERTEX_POINT ( 'NONE', #718 ) ;
#1180 = PLANE ( 'NONE',  #294 ) ;
#1181 = EDGE_CURVE ( 'NONE', #332, #162, #198, .T. ) ;
#1182 = DIRECTION ( 'NONE',  ( 0.000000000000000000, 0.000000000000000000, 1.000000000000000000 ) ) ;
#1183 = ORIENTED_EDGE ( 'NONE', *, *, #100, .F. ) ;
#1184 = CARTESIAN_POINT ( 'NONE',  ( -25.00000000000001066, 0.8000000000000000444, -69.05572809000064183 ) ) ;
#1185 = CARTESIAN_POINT ( 'NONE',  ( 25.00000000000000711, 0.8000000000000000444, -3.360075487892671254E-17 ) ) ;
#1186 = ORIENTED_EDGE ( 'NONE', *, *, #333, .F. ) ;
#1187 = CARTESIAN_POINT ( 'NONE',  ( 14.99999999999999822, 0.8000000000000000444, -28.00000000000000000 ) ) ;
#1188 = DIRECTION ( 'NONE',  ( -0.000000000000000000, 1.000000000000000000, -0.000000000000000000 ) ) ;
#1189 = EDGE_CURVE ( 'NONE', #1006, #1341, #527, .T. ) ;
#1190 = AXIS2_PLACEMENT_3D ( 'NONE', #1310, #1106, #69 ) ;
#1191 = VERTEX_POINT ( 'NONE', #123 ) ;
#1192 = CARTESIAN_POINT ( 'NONE',  ( 2.349999999999990763, 0.000000000000000000, -34.74999999999997868 ) ) ;
#1193 = CARTESIAN_POINT ( 'NONE',  ( -12.52786404500039907, 0.8000000000000000444, -85.99999999999998579 ) ) ;
#1194 = LINE ( 'NONE', #240, #1083 ) ;
#1195 = CARTESIAN_POINT ( 'NONE',  ( 12.99999999999999645, 0.000000000000000000, -28.00000000000000000 ) ) ;
#1196 = ORIENTED_EDGE ( 'NONE', *, *, #218, .F. ) ;
#1197 = VECTOR ( 'NONE', #779, 1000.000000000000000 ) ;
#1198 = PRESENTATION_LAYER_ASSIGNMENT (  '', '', ( #731 ) ) ;
#1199 =( GEOMETRIC_REPRESENTATION_CONTEXT ( 3 ) GLOBAL_UNCERTAINTY_ASSIGNED_CONTEXT ( ( #696 ) ) GLOBAL_UNIT_ASSIGNED_CONTEXT ( ( #490, #1019, #1331 ) ) REPRESENTATION_CONTEXT ( 'NONE', 'WORKASPACE' ) );
#1200 = CARTESIAN_POINT ( 'NONE',  ( -25.00000000000000711, 0.000000000000000000, -44.99999999999998579 ) ) ;
#1201 = LINE ( 'NONE', #256, #818 ) ;
#1202 = ORIENTED_EDGE ( 'NONE', *, *, #588, .F. ) ;
#1203 = CARTESIAN_POINT ( 'NONE',  ( 12.52786404500041684, 0.8000000000000000444, -85.99999999999998579 ) ) ;
#1204 = DIRECTION ( 'NONE',  ( 7.142979018728031938E-16, 0.000000000000000000, -1.000000000000000000 ) ) ;
#1205 = ORIENTED_EDGE ( 'NONE', *, *, #904, .F. ) ;
#1206 = CARTESIAN_POINT ( 'NONE',  ( -25.00000000000000711, 0.8000000000000000444, -3.360075487892671254E-17 ) ) ;
#1207 = ORIENTED_EDGE ( 'NONE', *, *, #877, .T. ) ;
#1208 = EDGE_CURVE ( 'NONE', #353, #264, #367, .T. ) ;
#1209 = EDGE_LOOP ( 'NONE', ( #637, #669, #483, #813 ) ) ;
#1210 = ADVANCED_FACE ( 'NONE', ( #1039 ), #1180, .T. ) ;
#1211 = DIRECTION ( 'NONE',  ( 0.000000000000000000, -0.000000000000000000, -1.000000000000000000 ) ) ;
#1212 = EDGE_LOOP ( 'NONE', ( #1321, #661, #1274, #922 ) ) ;
#1213 = LINE ( 'NONE', #271, #512 ) ;
#1214 = ORIENTED_EDGE ( 'NONE', *, *, #1294, .F. ) ;
#1215 = DIRECTION ( 'NONE',  ( 0.000000000000000000, -1.000000000000000000, 0.000000000000000000 ) ) ;
#1216 = AXIS2_PLACEMENT_3D ( 'NONE', #297, #797, #575 ) ;
#1217 = VECTOR ( 'NONE', #633, 1000.000000000000000 ) ;
#1218 = VECTOR ( 'NONE', #190, 1000.000000000000000 ) ;
#1219 = ORIENTED_EDGE ( 'NONE', *, *, #646, .T. ) ;
#1220 = ORIENTED_EDGE ( 'NONE', *, *, #821, .T. ) ;
#1221 = FACE_BOUND ( 'NONE', #1209, .T. ) ;
#1222 = EDGE_CURVE ( 'NONE', #1191, #376, #1194, .T. ) ;
#1223 = EDGE_CURVE ( 'NONE', #319, #1090, #1275, .T. ) ;
#1224 = LINE ( 'NONE', #506, #686 ) ;
#1225 = EDGE_LOOP ( 'NONE', ( #1138, #585, #283, #972, #9, #290, #902, #1207, #747, #49, #1127, #406, #1342, #469, #878, #757, #908, #761, #1309, #960, #1108, #887, #210, #903, #891, #1072, #1146, #1220 ) ) ;
#1226 = ORIENTED_EDGE ( 'NONE', *, *, #821, .F. ) ;
#1227 = DIRECTION ( 'NONE',  ( 0.000000000000000000, 1.000000000000000000, 0.000000000000000000 ) ) ;
#1228 = DIRECTION ( 'NONE',  ( 7.570943305532645951E-30, -1.000000000000000000, 1.084202172485504434E-15 ) ) ;
#1229 = CARTESIAN_POINT ( 'NONE',  ( -2.349999999993719335, 2.059984127722458425E-15, -34.74999999999998579 ) ) ;
#1230 = CARTESIAN_POINT ( 'NONE',  ( 0.000000000000000000, 0.000000000000000000, 0.000000000000000000 ) ) ;
#1231 = ADVANCED_FACE ( 'NONE', ( #865 ), #671, .F. ) ;
#1232 = VERTEX_POINT ( 'NONE', #1057 ) ;
#1233 = ORIENTED_EDGE ( 'NONE', *, *, #1173, .F. ) ;
#1234 = LINE ( 'NONE', #1318, #1059 ) ;
#1235 = AXIS2_PLACEMENT_3D ( 'NONE', #604, #400, #1153 ) ;
#1236 = CARTESIAN_POINT ( 'NONE',  ( -23.00000000000001066, 0.8000000000000000444, -25.99999999999999645 ) ) ;
#1237 = FACE_OUTER_BOUND ( 'NONE', #1117, .T. ) ;
#1238 = AXIS2_PLACEMENT_3D ( 'NONE', #814, #1130, #571 ) ;
#1239 = ORIENTED_EDGE ( 'NONE', *, *, #861, .F. ) ;
#1240 = VECTOR ( 'NONE', #1095, 1000.000000000000000 ) ;
#1241 = EDGE_LOOP ( 'NONE', ( #348, #525, #185, #931 ) ) ;
#1242 = CARTESIAN_POINT ( 'NONE',  ( -12.99999999999999822, 0.8000000000000000444, -30.00000000000000355 ) ) ;
#1243 = LINE ( 'NONE', #302, #86 ) ;
#1244 = DIRECTION ( 'NONE',  ( 2.602085213965208275E-15, 0.000000000000000000, -1.000000000000000000 ) ) ;
#1245 = VERTEX_POINT ( 'NONE', #1068 ) ;
#1246 = DIRECTION ( 'NONE',  ( 0.000000000000000000, -1.000000000000000000, -1.084202172485504434E-15 ) ) ;
#1247 = EDGE_CURVE ( 'NONE', #1167, #445, #247, .T. ) ;
#1248 = CARTESIAN_POINT ( 'NONE',  ( 25.00000000000001066, 0.8000000000000000444, -69.05572809000069867 ) ) ;
#1249 = ORIENTED_EDGE ( 'NONE', *, *, #403, .T. ) ;
#1250 = FACE_OUTER_BOUND ( 'NONE', #1043, .T. ) ;
#1251 = ORIENTED_EDGE ( 'NONE', *, *, #42, .T. ) ;
#1252 = CARTESIAN_POINT ( 'NONE',  ( -15.00000000000000888, 0.8000000000000000444, -44.99999999999999289 ) ) ;
#1253 = DIRECTION ( 'NONE',  ( 0.000000000000000000, 0.000000000000000000, 1.000000000000000000 ) ) ;
#1254 = AXIS2_PLACEMENT_3D ( 'NONE', #929, #329, #228 ) ;
#1255 = DIRECTION ( 'NONE',  ( 0.000000000000000000, -1.000000000000000000, 0.000000000000000000 ) ) ;
#1256 = DIRECTION ( 'NONE',  ( 1.000000000000000000, 0.000000000000000000, 1.344030195157067909E-18 ) ) ;
#1257 = AXIS2_PLACEMENT_3D ( 'NONE', #1051, #354, #542 ) ;
#1258 = CYLINDRICAL_SURFACE ( 'NONE', #1012, 4.000000000000003553 ) ;
#1259 = PLANE ( 'NONE',  #187 ) ;
#1260 = ORIENTED_EDGE ( 'NONE', *, *, #877, .F. ) ;
#1261 = VECTOR ( 'NONE', #326, 1000.000000000000000 ) ;
#1262 =( NAMED_UNIT ( * ) PLANE_ANGLE_UNIT ( ) SI_UNIT ( $, .RADIAN. ) );
#1263 = LINE ( 'NONE', #1270, #553 ) ;
#1264 = PLANE ( 'NONE',  #381 ) ;
#1265 = EDGE_CURVE ( 'NONE', #270, #136, #750, .T. ) ;
#1266 = CARTESIAN_POINT ( 'NONE',  ( 23.00000000000001066, 0.000000000000000000, -2.000000000000000000 ) ) ;
#1267 = DIRECTION ( 'NONE',  ( 0.000000000000000000, 0.000000000000000000, 1.000000000000000000 ) ) ;
#1268 = VERTEX_POINT ( 'NONE', #43 ) ;
#1269 =( LENGTH_UNIT ( ) NAMED_UNIT ( * ) SI_UNIT ( .MILLI., .METRE. ) );
#1270 = CARTESIAN_POINT ( 'NONE',  ( -47.99999999999987921, 0.000000000000000000, -23.99999999999977973 ) ) ;
#1271 = DIRECTION ( 'NONE',  ( -0.000000000000000000, 1.000000000000000000, -0.000000000000000000 ) ) ;
#1272 = CARTESIAN_POINT ( 'NONE',  ( -25.00000000000000711, 0.8000000000000000444, -44.99999999999998579 ) ) ;
#1273 = VERTEX_POINT ( 'NONE', #564 ) ;
#1274 = ORIENTED_EDGE ( 'NONE', *, *, #660, .F. ) ;
#1275 = LINE ( 'NONE', #453, #343 ) ;
#1276 = CARTESIAN_POINT ( 'NONE',  ( -23.00000000000001066, 0.000000000000000000, -2.000000000000000000 ) ) ;
#1277 = DIRECTION ( 'NONE',  ( 1.000000000000000000, 0.000000000000000000, 0.000000000000000000 ) ) ;
#1278 = CARTESIAN_POINT ( 'NONE',  ( 23.00000000000001066, 0.8000000000000000444, -27.99999999999999645 ) ) ;
#1279 = LINE ( 'NONE', #544, #732 ) ;
#1280 = CARTESIAN_POINT ( 'NONE',  ( 23.00000000000001066, 0.8000000000000000444, -27.99999999999999645 ) ) ;
#1281 = VECTOR ( 'NONE', #670, 1000.000000000000000 ) ;
#1282 = VERTEX_POINT ( 'NONE', #461 ) ;
#1283 = EDGE_CURVE ( 'NONE', #288, #353, #466, .T. ) ;
#1284 = VECTOR ( 'NONE', #1014, 1000.000000000000000 ) ;
#1285 = CARTESIAN_POINT ( 'NONE',  ( 13.00000000000000888, 0.8000000000000000444, -44.99999999999999289 ) ) ;
#1286 = VECTOR ( 'NONE', #650, 1000.000000000000000 ) ;
#1287 = FACE_OUTER_BOUND ( 'NONE', #1047, .T. ) ;
#1288 = ORIENTED_EDGE ( 'NONE', *, *, #1181, .F. ) ;
#1289 = CARTESIAN_POINT ( 'NONE',  ( 3.149999999999991029, 0.8000000000000003775, -34.74999999999997868 ) ) ;
#1290 = CYLINDRICAL_SURFACE ( 'NONE', #494, 2.000000000000001776 ) ;
#1291 = CARTESIAN_POINT ( 'NONE',  ( -25.00000000000000711, 0.8000000000000000444, -44.99999999999998579 ) ) ;
#1292 = LINE ( 'NONE', #352, #1145 ) ;
#1293 = VERTEX_POINT ( 'NONE', #334 ) ;
#1294 = EDGE_CURVE ( 'NONE', #372, #559, #358, .T. ) ;
#1295 = DIRECTION ( 'NONE',  ( 6.982962677686266711E-15, 0.000000000000000000, 1.000000000000000000 ) ) ;
#1296 = ORIENTED_EDGE ( 'NONE', *, *, #521, .F. ) ;
#1297 = LINE ( 'NONE', #770, #1240 ) ;
#1298 = VERTEX_POINT ( 'NONE', #875 ) ;
#1299 = ADVANCED_FACE ( 'NONE', ( #35 ), #985, .T. ) ;
#1300 = ORIENTED_EDGE ( 'NONE', *, *, #360, .F. ) ;
#1301 = FACE_OUTER_BOUND ( 'NONE', #942, .T. ) ;
#1302 = DIRECTION ( 'NONE',  ( -3.785471652766322976E-30, -1.000000000000000000, -5.421010862427522170E-16 ) ) ;
#1303 = ORIENTED_EDGE ( 'NONE', *, *, #777, .F. ) ;
#1304 = AXIS2_PLACEMENT_3D ( 'NONE', #1140, #837, #1152 ) ;
#1305 = DIRECTION ( 'NONE',  ( -1.000000000000000000, 0.000000000000000000, 0.000000000000000000 ) ) ;
#1306 = AXIS2_PLACEMENT_3D ( 'NONE', #1266, #369, #444 ) ;
#1307 = EDGE_CURVE ( 'NONE', #145, #657, #470, .T. ) ;
#1308 = ADVANCED_FACE ( 'NONE', ( #365 ), #759, .F. ) ;
#1309 = ORIENTED_EDGE ( 'NONE', *, *, #557, .T. ) ;
#1310 = CARTESIAN_POINT ( 'NONE',  ( 23.00000000000001066, 0.000000000000000000, -46.99999999999998579 ) ) ;
#1311 = VERTEX_POINT ( 'NONE', #1073 ) ;
#1312 = FACE_BOUND ( 'NONE', #876, .T. ) ;
#1313 = LINE ( 'NONE', #787, #751 ) ;
#1314 = ORIENTED_EDGE ( 'NONE', *, *, #749, .F. ) ;
#1315 = LINE ( 'NONE', #892, #815 ) ;
#1316 = ORIENTED_EDGE ( 'NONE', *, *, #636, .F. ) ;
#1317 = CARTESIAN_POINT ( 'NONE',  ( 12.99999999999999645, 0.8000000000000000444, -28.00000000000000000 ) ) ;
#1318 = CARTESIAN_POINT ( 'NONE',  ( 16.10557280900008337, 0.8000000000000000444, -87.78885438199981195 ) ) ;
#1319 = LINE ( 'NONE', #435, #41 ) ;
#1320 = ORIENTED_EDGE ( 'NONE', *, *, #199, .F. ) ;
#1321 = ORIENTED_EDGE ( 'NONE', *, *, #760, .T. ) ;
#1322 = EDGE_CURVE ( 'NONE', #613, #116, #825, .T. ) ;
#1323 = DIRECTION ( 'NONE',  ( 2.602085213965208275E-15, 0.000000000000000000, -1.000000000000000000 ) ) ;
#1324 = AXIS2_PLACEMENT_3D ( 'NONE', #705, #1121, #918 ) ;
#1325 = CIRCLE ( 'NONE', #868, 7.500000000000007105 ) ;
#1326 = CARTESIAN_POINT ( 'NONE',  ( 21.00000000000001066, 0.000000000000000000, -69.05572809000069867 ) ) ;
#1327 = DIRECTION ( 'NONE',  ( 0.000000000000000000, 0.000000000000000000, -1.000000000000000000 ) ) ;
#1328 = CARTESIAN_POINT ( 'NONE',  ( -3.149999999993477129, 0.8000000000000000444, 2.199633243466618815E-14 ) ) ;
#1329 = ORIENTED_EDGE ( 'NONE', *, *, #322, .F. ) ;
#1330 = PRODUCT_DEFINITION_CONTEXT ( 'detailed design', #408, 'design' ) ;
#1331 =( NAMED_UNIT ( * ) SI_UNIT ( $, .STERADIAN. ) SOLID_ANGLE_UNIT ( ) );
#1332 = ORIENTED_EDGE ( 'NONE', *, *, #1129, .T. ) ;
#1333 = FACE_OUTER_BOUND ( 'NONE', #359, .T. ) ;
#1334 = EDGE_CURVE ( 'NONE', #376, #272, #845, .T. ) ;
#1335 = DIRECTION ( 'NONE',  ( 0.000000000000000000, 0.000000000000000000, -1.000000000000000000 ) ) ;
#1336 = DIRECTION ( 'NONE',  ( 0.000000000000000000, -1.000000000000000000, 0.000000000000000000 ) ) ;
#1337 = VERTEX_POINT ( 'NONE', #28 ) ;
#1338 = ORIENTED_EDGE ( 'NONE', *, *, #482, .F. ) ;
#1339 = CARTESIAN_POINT ( 'NONE',  ( 24.57770876399968429, 0.8000000000000000444, -70.84458247200051062 ) ) ;
#1340 = CARTESIAN_POINT ( 'NONE',  ( 12.52786404500041684, 0.8000000000000000444, -85.99999999999998579 ) ) ;
#1341 = VERTEX_POINT ( 'NONE', #961 ) ;
#1342 = ORIENTED_EDGE ( 'NONE', *, *, #767, .T. ) ;
#1343 = LINE ( 'NONE', #1242, #1103 ) ;
#1344 = AXIS2_PLACEMENT_3D ( 'NONE', #1165, #1271, #859 ) ;
#1345 = DIRECTION ( 'NONE',  ( 0.000000000000000000, 1.000000000000000000, 1.084202172485504434E-15 ) ) ;
#1346 = EDGE_CURVE ( 'NONE', #445, #513, #45, .T. ) ;
#1347 = CIRCLE ( 'NONE', #497, 1.999999999999998224 ) ;
#1348 = DIRECTION ( 'NONE',  ( -0.000000000000000000, 1.000000000000000000, -0.000000000000000000 ) ) ;
#1349 = CARTESIAN_POINT ( 'NONE',  ( 13.00000000000000888, 0.8000000000000000444, -44.99999999999999289 ) ) ;
#1350 = EDGE_CURVE ( 'NONE', #1090, #161, #558, .T. ) ;
#1351 = EDGE_CURVE ( 'NONE', #34, #1179, #1297, .T. ) ;
#1352 = EDGE_LOOP ( 'NONE', ( #1296, #819, #508, #568 ) ) ;
#1353 = CARTESIAN_POINT ( 'NONE',  ( 3.149999999999991029, 3.252606517456513302E-16, -38.24999999999997158 ) ) ;
ENDSEC;
END-ISO-10303-21;
