ISO-10303-21;
HEADER;
FILE_DESCRIPTION (( 'STEP AP214' ),
    '1' );
FILE_NAME ('EncoderBoard~2.STEP',
    '2025-11-18T21:34:37',
    ( '' ),
    ( '' ),
    'SwSTEP 2.0',
    'SolidWorks 2025',
    '' );
FILE_SCHEMA (( 'AUTOMOTIVE_DESIGN' ));
ENDSEC;

DATA;
#1 = UNCERTAINTY_MEASURE_WITH_UNIT (LENGTH_MEASURE( 1.000000000000000082E-05 ), #80, 'distance_accuracy_value', 'NONE');
#2 = CARTESIAN_POINT ( 'NONE',  ( 0.8000000000000000444, -0.8000000000000000444, -1.500000000000000000 ) ) ;
#3 = DIRECTION ( 'NONE',  ( -1.000000000000000000, -0.000000000000000000, -0.000000000000000000 ) ) ;
#4 = EDGE_CURVE ( 'NONE', #274, #196, #60, .T. ) ;
#5 = ORIENTED_EDGE ( 'NONE', *, *, #261, .T. ) ;
#6 = CARTESIAN_POINT ( 'NONE',  ( 2.000000000000000000, 11.70000000000000107, -0.7999999999999994893 ) ) ;
#7 = AXIS2_PLACEMENT_3D ( 'NONE', #188, #433, #219 ) ;
#8 = DIRECTION ( 'NONE',  ( -1.000000000000000000, 0.000000000000000000, 0.000000000000000000 ) ) ;
#9 = ORIENTED_EDGE ( 'NONE', *, *, #385, .F. ) ;
#10 = DIRECTION ( 'NONE',  ( 0.000000000000000000, 0.000000000000000000, -1.000000000000000000 ) ) ;
#11 = CARTESIAN_POINT ( 'NONE',  ( 0.000000000000000000, 0.000000000000000000, -1.500000000000000000 ) ) ;
#12 = DIRECTION ( 'NONE',  ( 0.000000000000000000, 0.000000000000000000, -1.000000000000000000 ) ) ;
#13 = CARTESIAN_POINT ( 'NONE',  ( 0.8000000000000000444, -0.8000000000000000444, -1.500000000000000000 ) ) ;
#14 = AXIS2_PLACEMENT_3D ( 'NONE', #194, #12, #158 ) ;
#15 = ORIENTED_EDGE ( 'NONE', *, *, #96, .T. ) ;
#16 = ORIENTED_EDGE ( 'NONE', *, *, #385, .T. ) ;
#17 = EDGE_CURVE ( 'NONE', #401, #196, #65, .T. ) ;
#18 = VECTOR ( 'NONE', #112, 1000.000000000000000 ) ;
#19 = ORIENTED_EDGE ( 'NONE', *, *, #4, .T. ) ;
#20 = VERTEX_POINT ( 'NONE', #143 ) ;
#21 = LINE ( 'NONE', #417, #370 ) ;
#22 = CARTESIAN_POINT ( 'NONE',  ( 0.8000000000000000444, 12.50000000000000000, 0.000000000000000000 ) ) ;
#23 = DIRECTION ( 'NONE',  ( -1.000000000000000000, -0.000000000000000000, -0.000000000000000000 ) ) ;
#24 =( GEOMETRIC_REPRESENTATION_CONTEXT ( 3 ) GLOBAL_UNCERTAINTY_ASSIGNED_CONTEXT ( ( #1 ) ) GLOBAL_UNIT_ASSIGNED_CONTEXT ( ( #80, #191, #76 ) ) REPRESENTATION_CONTEXT ( 'NONE', 'WORKASPACE' ) );
#25 = ORIENTED_EDGE ( 'NONE', *, *, #359, .F. ) ;
#26 = PLANE ( 'NONE',  #203 ) ;
#27 = FACE_OUTER_BOUND ( 'NONE', #91, .T. ) ;
#28 = EDGE_LOOP ( 'NONE', ( #198, #418, #100, #201 ) ) ;
#29 = CARTESIAN_POINT ( 'NONE',  ( 0.8000000000000000444, 0.000000000000000000, -6.500000000000000888 ) ) ;
#30 = ORIENTED_EDGE ( 'NONE', *, *, #419, .F. ) ;
#31 = DIRECTION ( 'NONE',  ( 0.000000000000000000, 0.000000000000000000, 1.000000000000000000 ) ) ;
#32 = VECTOR ( 'NONE', #429, 1000.000000000000000 ) ;
#33 = ORIENTED_EDGE ( 'NONE', *, *, #44, .T. ) ;
#34 = CARTESIAN_POINT ( 'NONE',  ( 0.000000000000000000, 0.000000000000000000, -6.500000000000000888 ) ) ;
#35 = LINE ( 'NONE', #315, #149 ) ;
#36 = EDGE_CURVE ( 'NONE', #89, #270, #281, .T. ) ;
#37 = CARTESIAN_POINT ( 'NONE',  ( 0.8000000000000000444, 0.000000000000000000, 0.000000000000000000 ) ) ;
#38 = DIRECTION ( 'NONE',  ( 0.000000000000000000, -1.000000000000000000, -1.734723475976807094E-16 ) ) ;
#39 = VERTEX_POINT ( 'NONE', #351 ) ;
#40 = DIRECTION ( 'NONE',  ( 0.000000000000000000, 0.000000000000000000, -1.000000000000000000 ) ) ;
#41 = CARTESIAN_POINT ( 'NONE',  ( 0.000000000000000000, 0.000000000000000000, -1.500000000000000000 ) ) ;
#42 = CARTESIAN_POINT ( 'NONE',  ( 2.000000000000000000, 11.70000000000000107, -0.7999999999999994893 ) ) ;
#43 = DIRECTION ( 'NONE',  ( 0.000000000000000000, 0.000000000000000000, 1.000000000000000000 ) ) ;
#44 = EDGE_CURVE ( 'NONE', #39, #263, #461, .T. ) ;
#45 = CARTESIAN_POINT ( 'NONE',  ( 0.8000000000000000444, -0.8000000000000000444, -6.499999999999999112 ) ) ;
#46 = EDGE_LOOP ( 'NONE', ( #33, #30, #168, #348 ) ) ;
#47 = AXIS2_PLACEMENT_3D ( 'NONE', #224, #8, #116 ) ;
#48 = ORIENTED_EDGE ( 'NONE', *, *, #277, .T. ) ;
#49 =( LENGTH_UNIT ( ) NAMED_UNIT ( * ) SI_UNIT ( .MILLI., .METRE. ) );
#50 = ORIENTED_EDGE ( 'NONE', *, *, #108, .F. ) ;
#51 = EDGE_LOOP ( 'NONE', ( #125, #449, #151, #207 ) ) ;
#52 = LINE ( 'NONE', #311, #165 ) ;
#53 = CARTESIAN_POINT ( 'NONE',  ( 0.000000000000000000, 12.50000000000000000, 0.000000000000000000 ) ) ;
#54 = ORIENTED_EDGE ( 'NONE', *, *, #166, .F. ) ;
#55 = VECTOR ( 'NONE', #230, 1000.000000000000000 ) ;
#56 = EDGE_CURVE ( 'NONE', #134, #401, #170, .T. ) ;
#57 = ORIENTED_EDGE ( 'NONE', *, *, #333, .F. ) ;
#58 = DIRECTION ( 'NONE',  ( 0.000000000000000000, 1.000000000000000000, 0.000000000000000000 ) ) ;
#59 = DIRECTION ( 'NONE',  ( 0.000000000000000000, -1.000000000000000000, 0.000000000000000000 ) ) ;
#60 = LINE ( 'NONE', #357, #308 ) ;
#61 = EDGE_LOOP ( 'NONE', ( #318, #332, #430, #343, #5, #16, #386, #197 ) ) ;
#62 = DIRECTION ( 'NONE',  ( 0.000000000000000000, -1.000000000000000000, 0.000000000000000000 ) ) ;
#63 = VECTOR ( 'NONE', #93, 1000.000000000000000 ) ;
#64 = ORIENTED_EDGE ( 'NONE', *, *, #277, .F. ) ;
#65 = LINE ( 'NONE', #34, #147 ) ;
#66 = FACE_OUTER_BOUND ( 'NONE', #338, .T. ) ;
#67 = DIRECTION ( 'NONE',  ( -1.000000000000000000, -0.000000000000000000, -0.000000000000000000 ) ) ;
#68 = PRODUCT ( 'EncoderBoard~2', 'EncoderBoard~2', '', ( #73 ) ) ;
#69 = EDGE_LOOP ( 'NONE', ( #231, #410, #376, #162, #178, #353, #159, #282 ) ) ;
#70 = DIRECTION ( 'NONE',  ( -0.000000000000000000, 1.000000000000000000, 0.000000000000000000 ) ) ;
#71 = ADVANCED_FACE ( 'NONE', ( #27 ), #174, .F. ) ;
#72 = PLANE ( 'NONE',  #279 ) ;
#73 = PRODUCT_CONTEXT ( 'NONE', #177, 'mechanical' ) ;
#74 = PRESENTATION_LAYER_ASSIGNMENT (  '', '', ( #422 ) ) ;
#75 = LINE ( 'NONE', #330, #377 ) ;
#76 =( NAMED_UNIT ( * ) SI_UNIT ( $, .STERADIAN. ) SOLID_ANGLE_UNIT ( ) );
#77 = DIRECTION ( 'NONE',  ( 0.000000000000000000, -1.000000000000000000, 0.000000000000000000 ) ) ;
#78 = ORIENTED_EDGE ( 'NONE', *, *, #448, .F. ) ;
#79 = DIRECTION ( 'NONE',  ( -1.000000000000000000, -0.000000000000000000, -0.000000000000000000 ) ) ;
#80 =( LENGTH_UNIT ( ) NAMED_UNIT ( * ) SI_UNIT ( .MILLI., .METRE. ) );
#81 = LINE ( 'NONE', #367, #18 ) ;
#82 = DIRECTION ( 'NONE',  ( 0.000000000000000000, -0.000000000000000000, 1.000000000000000000 ) ) ;
#83 = FACE_BOUND ( 'NONE', #296, .T. ) ;
#84 = FACE_OUTER_BOUND ( 'NONE', #204, .T. ) ;
#85 = PLANE ( 'NONE',  #358 ) ;
#86 = CARTESIAN_POINT ( 'NONE',  ( 0.8000000000000000444, 0.000000000000000000, 0.000000000000000000 ) ) ;
#87 = ORIENTED_EDGE ( 'NONE', *, *, #375, .T. ) ;
#88 = ADVANCED_FACE ( 'NONE', ( #221 ), #284, .F. ) ;
#89 = VERTEX_POINT ( 'NONE', #106 ) ;
#90 = AXIS2_PLACEMENT_3D ( 'NONE', #363, #139, #406 ) ;
#91 = EDGE_LOOP ( 'NONE', ( #305, #440, #9, #381 ) ) ;
#92 = DIRECTION ( 'NONE',  ( 0.000000000000000000, 0.000000000000000000, -1.000000000000000000 ) ) ;
#93 = DIRECTION ( 'NONE',  ( 0.000000000000000000, 1.000000000000000000, -2.168404344971008868E-15 ) ) ;
#94 = ORIENTED_EDGE ( 'NONE', *, *, #96, .F. ) ;
#95 = DIRECTION ( 'NONE',  ( 0.000000000000000000, -1.000000000000000000, 0.000000000000000000 ) ) ;
#96 = EDGE_CURVE ( 'NONE', #457, #356, #384, .T. ) ;
#97 =( NAMED_UNIT ( * ) PLANE_ANGLE_UNIT ( ) SI_UNIT ( $, .RADIAN. ) );
#98 = VECTOR ( 'NONE', #3, 1000.000000000000000 ) ;
#99 = FACE_OUTER_BOUND ( 'NONE', #46, .T. ) ;
#100 = ORIENTED_EDGE ( 'NONE', *, *, #200, .F. ) ;
#101 = CARTESIAN_POINT ( 'NONE',  ( 2.000000000000000000, 6.700000000000000178, -0.8000000000000000444 ) ) ;
#102 = LINE ( 'NONE', #215, #414 ) ;
#103 = EDGE_CURVE ( 'NONE', #291, #401, #252, .T. ) ;
#104 = DIRECTION ( 'NONE',  ( 0.000000000000000000, -0.000000000000000000, 1.000000000000000000 ) ) ;
#105 = VECTOR ( 'NONE', #314, 1000.000000000000000 ) ;
#106 = CARTESIAN_POINT ( 'NONE',  ( 0.8000000000000000444, 12.50000000000000000, -8.000000000000000000 ) ) ;
#107 = DIRECTION ( 'NONE',  ( -0.000000000000000000, -0.000000000000000000, 1.000000000000000000 ) ) ;
#108 = EDGE_CURVE ( 'NONE', #271, #160, #102, .T. ) ;
#109 = LINE ( 'NONE', #228, #98 ) ;
#110 = PRODUCT_RELATED_PRODUCT_CATEGORY ( 'part', '', ( #68 ) ) ;
#111 = VECTOR ( 'NONE', #383, 1000.000000000000000 ) ;
#112 = DIRECTION ( 'NONE',  ( 0.000000000000000000, 0.000000000000000000, -1.000000000000000000 ) ) ;
#113 = ORIENTED_EDGE ( 'NONE', *, *, #411, .F. ) ;
#114 = CARTESIAN_POINT ( 'NONE',  ( 0.8000000000000000444, -0.8000000000000000444, -6.499999999999999112 ) ) ;
#115 = DIRECTION ( 'NONE',  ( 0.000000000000000000, -1.000000000000000000, -1.084202172485504434E-16 ) ) ;
#116 = DIRECTION ( 'NONE',  ( 0.000000000000000000, 0.000000000000000000, 1.000000000000000000 ) ) ;
#117 = DIRECTION ( 'NONE',  ( 0.000000000000000000, -0.000000000000000000, 1.000000000000000000 ) ) ;
#118 = EDGE_CURVE ( 'NONE', #274, #89, #255, .T. ) ;
#119 = ADVANCED_FACE ( 'NONE', ( #459 ), #136, .F. ) ;
#120 = FACE_OUTER_BOUND ( 'NONE', #405, .T. ) ;
#121 = VECTOR ( 'NONE', #409, 1000.000000000000000 ) ;
#122 = DIRECTION ( 'NONE',  ( 1.000000000000000000, 0.000000000000000000, -0.000000000000000000 ) ) ;
#123 = ADVANCED_FACE ( 'NONE', ( #179 ), #316, .F. ) ;
#124 = PLANE ( 'NONE',  #388 ) ;
#125 = ORIENTED_EDGE ( 'NONE', *, *, #369, .T. ) ;
#126 = VECTOR ( 'NONE', #280, 1000.000000000000000 ) ;
#127 = VECTOR ( 'NONE', #189, 1000.000000000000000 ) ;
#128 = ORIENTED_EDGE ( 'NONE', *, *, #166, .T. ) ;
#129 = APPLICATION_CONTEXT ( 'automotive_design' ) ;
#130 = VERTEX_POINT ( 'NONE', #292 ) ;
#131 = CARTESIAN_POINT ( 'NONE',  ( 0.000000000000000000, 0.000000000000000000, -8.000000000000000000 ) ) ;
#132 = ADVANCED_FACE ( 'NONE', ( #66 ), #218, .F. ) ;
#133 = CARTESIAN_POINT ( 'NONE',  ( 0.000000000000000000, -0.8000000000000000444, -6.499999999999999112 ) ) ;
#134 = VERTEX_POINT ( 'NONE', #434 ) ;
#135 = FACE_OUTER_BOUND ( 'NONE', #229, .T. ) ;
#136 = PLANE ( 'NONE',  #195 ) ;
#137 = EDGE_CURVE ( 'NONE', #263, #285, #302, .T. ) ;
#138 = ORIENTED_EDGE ( 'NONE', *, *, #176, .T. ) ;
#139 = DIRECTION ( 'NONE',  ( 0.000000000000000000, 0.000000000000000000, 1.000000000000000000 ) ) ;
#140 = VERTEX_POINT ( 'NONE', #2 ) ;
#141 = CARTESIAN_POINT ( 'NONE',  ( 0.8000000000000000444, 0.000000000000000000, -1.500000000000000000 ) ) ;
#142 = ORIENTED_EDGE ( 'NONE', *, *, #193, .F. ) ;
#143 = CARTESIAN_POINT ( 'NONE',  ( 0.8000000000000000444, -0.8000000000000000444, -6.499999999999999112 ) ) ;
#144 = DIRECTION ( 'NONE',  ( -0.000000000000000000, 1.000000000000000000, 1.734723475976807094E-16 ) ) ;
#145 = CARTESIAN_POINT ( 'NONE',  ( 2.000000000000000000, 6.700000000000000178, -0.8000000000000000444 ) ) ;
#146 = CARTESIAN_POINT ( 'NONE',  ( 0.000000000000000000, 0.000000000000000000, -8.000000000000000000 ) ) ;
#147 = VECTOR ( 'NONE', #345, 1000.000000000000000 ) ;
#148 = CARTESIAN_POINT ( 'NONE',  ( 0.8000000000000000444, 0.000000000000000000, -1.500000000000000000 ) ) ;
#149 = VECTOR ( 'NONE', #115, 1000.000000000000000 ) ;
#150 = DIRECTION ( 'NONE',  ( -0.000000000000000000, -0.000000000000000000, 1.000000000000000000 ) ) ;
#151 = ORIENTED_EDGE ( 'NONE', *, *, #216, .F. ) ;
#152 = EDGE_CURVE ( 'NONE', #140, #20, #75, .T. ) ;
#153 = LINE ( 'NONE', #283, #309 ) ;
#154 = DIRECTION ( 'NONE',  ( 0.000000000000000000, 0.000000000000000000, -1.000000000000000000 ) ) ;
#155 = DIRECTION ( 'NONE',  ( -1.000000000000000000, -0.000000000000000000, -0.000000000000000000 ) ) ;
#156 = COLOUR_RGB ( '',0.7921568627450980005, 0.8196078431372548767, 0.9333333333333333481 ) ;
#157 = ADVANCED_FACE ( 'NONE', ( #120 ), #435, .F. ) ;
#158 = DIRECTION ( 'NONE',  ( -1.000000000000000000, 0.000000000000000000, -0.000000000000000000 ) ) ;
#159 = ORIENTED_EDGE ( 'NONE', *, *, #249, .F. ) ;
#160 = VERTEX_POINT ( 'NONE', #298 ) ;
#161 = FACE_OUTER_BOUND ( 'NONE', #420, .T. ) ;
#162 = ORIENTED_EDGE ( 'NONE', *, *, #17, .F. ) ;
#163 = VECTOR ( 'NONE', #190, 1000.000000000000000 ) ;
#164 = PRESENTATION_STYLE_ASSIGNMENT (( #379 ) ) ;
#165 = VECTOR ( 'NONE', #276, 1000.000000000000000 ) ;
#166 = EDGE_CURVE ( 'NONE', #340, #167, #184, .T. ) ;
#167 = VERTEX_POINT ( 'NONE', #404 ) ;
#168 = ORIENTED_EDGE ( 'NONE', *, *, #36, .F. ) ;
#169 = FILL_AREA_STYLE ('',( #382 ) ) ;
#170 = LINE ( 'NONE', #29, #331 ) ;
#171 = VECTOR ( 'NONE', #150, 1000.000000000000000 ) ;
#172 = ADVANCED_FACE ( 'NONE', ( #323 ), #303, .T. ) ;
#173 = ORIENTED_EDGE ( 'NONE', *, *, #428, .F. ) ;
#174 = PLANE ( 'NONE',  #232 ) ;
#175 = DIRECTION ( 'NONE',  ( 0.000000000000000000, -1.000000000000000000, 2.168404344971008868E-15 ) ) ;
#176 = EDGE_CURVE ( 'NONE', #356, #260, #109, .T. ) ;
#177 = APPLICATION_CONTEXT ( 'automotive_design' ) ;
#178 = ORIENTED_EDGE ( 'NONE', *, *, #103, .F. ) ;
#179 = FACE_OUTER_BOUND ( 'NONE', #458, .T. ) ;
#180 = VECTOR ( 'NONE', #155, 1000.000000000000000 ) ;
#181 = VERTEX_POINT ( 'NONE', #397 ) ;
#182 = LINE ( 'NONE', #360, #163 ) ;
#183 = DIRECTION ( 'NONE',  ( -1.000000000000000000, -0.000000000000000000, -0.000000000000000000 ) ) ;
#184 = LINE ( 'NONE', #407, #290 ) ;
#185 = DIRECTION ( 'NONE',  ( -0.000000000000000000, 1.000000000000000000, 0.000000000000000000 ) ) ;
#186 = EDGE_CURVE ( 'NONE', #160, #167, #192, .T. ) ;
#187 = VECTOR ( 'NONE', #339, 1000.000000000000000 ) ;
#188 = CARTESIAN_POINT ( 'NONE',  ( 2.000000000000000000, 11.70000000000000107, -0.7999999999999994893 ) ) ;
#189 = DIRECTION ( 'NONE',  ( -1.000000000000000000, -0.000000000000000000, -0.000000000000000000 ) ) ;
#190 = DIRECTION ( 'NONE',  ( 0.000000000000000000, 0.000000000000000000, -1.000000000000000000 ) ) ;
#191 =( NAMED_UNIT ( * ) PLANE_ANGLE_UNIT ( ) SI_UNIT ( $, .RADIAN. ) );
#192 = LINE ( 'NONE', #268, #55 ) ;
#193 = EDGE_CURVE ( 'NONE', #140, #275, #325, .T. ) ;
#194 = CARTESIAN_POINT ( 'NONE',  ( 0.8000000000000000444, 0.000000000000000000, 0.000000000000000000 ) ) ;
#195 = AXIS2_PLACEMENT_3D ( 'NONE', #387, #62, #211 ) ;
#196 = VERTEX_POINT ( 'NONE', #146 ) ;
#197 = ORIENTED_EDGE ( 'NONE', *, *, #36, .T. ) ;
#198 = ORIENTED_EDGE ( 'NONE', *, *, #333, .T. ) ;
#199 = DIRECTION ( 'NONE',  ( 0.000000000000000000, -0.000000000000000000, -1.000000000000000000 ) ) ;
#200 = EDGE_CURVE ( 'NONE', #160, #457, #364, .T. ) ;
#201 = ORIENTED_EDGE ( 'NONE', *, *, #186, .T. ) ;
#202 = VECTOR ( 'NONE', #40, 1000.000000000000000 ) ;
#203 = AXIS2_PLACEMENT_3D ( 'NONE', #101, #226, #82 ) ;
#204 = EDGE_LOOP ( 'NONE', ( #312, #220, #450, #257 ) ) ;
#205 = LINE ( 'NONE', #421, #111 ) ;
#206 = EDGE_CURVE ( 'NONE', #270, #130, #264, .T. ) ;
#207 = ORIENTED_EDGE ( 'NONE', *, *, #294, .T. ) ;
#208 = CARTESIAN_POINT ( 'NONE',  ( 0.000000000000000000, 0.000000000000000000, 0.000000000000000000 ) ) ;
#209 = ORIENTED_EDGE ( 'NONE', *, *, #294, .F. ) ;
#210 = ORIENTED_EDGE ( 'NONE', *, *, #176, .F. ) ;
#211 = DIRECTION ( 'NONE',  ( 0.000000000000000000, -0.000000000000000000, -1.000000000000000000 ) ) ;
#212 = AXIS2_PLACEMENT_3D ( 'NONE', #439, #443, #43 ) ;
#213 = PRODUCT_DEFINITION_FORMATION_WITH_SPECIFIED_SOURCE ( 'ANY', '', #68, .NOT_KNOWN. ) ;
#214 = ORIENTED_EDGE ( 'NONE', *, *, #349, .T. ) ;
#215 = CARTESIAN_POINT ( 'NONE',  ( 2.000000000000000000, 11.70000000000000107, -7.200000000000000178 ) ) ;
#216 = EDGE_CURVE ( 'NONE', #130, #266, #182, .T. ) ;
#217 = CARTESIAN_POINT ( 'NONE',  ( 0.8000000000000000444, 11.70000000000000107, -0.7999999999999994893 ) ) ;
#218 = PLANE ( 'NONE',  #272 ) ;
#219 = DIRECTION ( 'NONE',  ( 0.000000000000000000, 1.000000000000000000, 1.084202172485504434E-16 ) ) ;
#220 = ORIENTED_EDGE ( 'NONE', *, *, #349, .F. ) ;
#221 = FACE_OUTER_BOUND ( 'NONE', #347, .T. ) ;
#222 = AXIS2_PLACEMENT_3D ( 'NONE', #322, #185, #236 ) ;
#223 = DIRECTION ( 'NONE',  ( -0.000000000000000000, -0.000000000000000000, 1.000000000000000000 ) ) ;
#224 = CARTESIAN_POINT ( 'NONE',  ( 0.8000000000000000444, 0.000000000000000000, 0.000000000000000000 ) ) ;
#225 = ORIENTED_EDGE ( 'NONE', *, *, #108, .T. ) ;
#226 = DIRECTION ( 'NONE',  ( -0.000000000000000000, 1.000000000000000000, 0.000000000000000000 ) ) ;
#227 = ADVANCED_FACE ( 'NONE', ( #84 ), #328, .F. ) ;
#228 = CARTESIAN_POINT ( 'NONE',  ( 2.000000000000000000, 6.700000000000000178, -0.8000000000000000444 ) ) ;
#229 = EDGE_LOOP ( 'NONE', ( #48, #113, #173, #138 ) ) ;
#230 = DIRECTION ( 'NONE',  ( -1.000000000000000000, -0.000000000000000000, -0.000000000000000000 ) ) ;
#231 = ORIENTED_EDGE ( 'NONE', *, *, #137, .F. ) ;
#232 = AXIS2_PLACEMENT_3D ( 'NONE', #317, #70, #104 ) ;
#233 =( GEOMETRIC_REPRESENTATION_CONTEXT ( 3 ) GLOBAL_UNCERTAINTY_ASSIGNED_CONTEXT ( ( #431 ) ) GLOBAL_UNIT_ASSIGNED_CONTEXT ( ( #49, #97, #341 ) ) REPRESENTATION_CONTEXT ( 'NONE', 'WORKASPACE' ) );
#234 = CARTESIAN_POINT ( 'NONE',  ( 0.8000000000000000444, 6.700000000000000178, -0.8000000000000000444 ) ) ;
#235 = ADVANCED_FACE ( 'NONE', ( #258, #83 ), #293, .F. ) ;
#236 = DIRECTION ( 'NONE',  ( 0.000000000000000000, -0.000000000000000000, 1.000000000000000000 ) ) ;
#237 = CARTESIAN_POINT ( 'NONE',  ( 0.000000000000000000, 0.000000000000000000, 0.000000000000000000 ) ) ;
#238 = DIRECTION ( 'NONE',  ( -0.000000000000000000, 1.000000000000000000, 0.000000000000000000 ) ) ;
#239 = ORIENTED_EDGE ( 'NONE', *, *, #419, .T. ) ;
#240 = SURFACE_STYLE_FILL_AREA ( #169 ) ;
#241 = EDGE_CURVE ( 'NONE', #275, #291, #81, .T. ) ;
#242 = CARTESIAN_POINT ( 'NONE',  ( 0.000000000000000000, 0.000000000000000000, -6.500000000000000888 ) ) ;
#243 = ORIENTED_EDGE ( 'NONE', *, *, #261, .F. ) ;
#244 = LINE ( 'NONE', #131, #247 ) ;
#245 = CARTESIAN_POINT ( 'NONE',  ( 0.8000000000000000444, 0.000000000000000000, -1.500000000000000000 ) ) ;
#246 = ORIENTED_EDGE ( 'NONE', *, *, #56, .F. ) ;
#247 = VECTOR ( 'NONE', #58, 1000.000000000000000 ) ;
#248 = CARTESIAN_POINT ( 'NONE',  ( 2.000000000000000000, 6.700000000000000178, -0.8000000000000000444 ) ) ;
#249 = EDGE_CURVE ( 'NONE', #320, #275, #400, .T. ) ;
#250 = DIRECTION ( 'NONE',  ( -0.000000000000000000, 2.168404344971008868E-15, 1.000000000000000000 ) ) ;
#251 = CARTESIAN_POINT ( 'NONE',  ( 2.000000000000000000, 6.700000000000000178, -7.200000000000001066 ) ) ;
#252 = LINE ( 'NONE', #133, #105 ) ;
#253 = PRODUCT_DEFINITION_SHAPE ( 'NONE', 'NONE',  #403 ) ;
#254 = DIRECTION ( 'NONE',  ( -0.000000000000000000, 1.000000000000000000, 1.734723475976807094E-16 ) ) ;
#255 = LINE ( 'NONE', #423, #455 ) ;
#256 = PRODUCT_DEFINITION_CONTEXT ( 'detailed design', #129, 'design' ) ;
#257 = ORIENTED_EDGE ( 'NONE', *, *, #193, .T. ) ;
#258 = FACE_OUTER_BOUND ( 'NONE', #61, .T. ) ;
#259 = VECTOR ( 'NONE', #67, 1000.000000000000000 ) ;
#260 = VERTEX_POINT ( 'NONE', #234 ) ;
#261 = EDGE_CURVE ( 'NONE', #20, #134, #371, .T. ) ;
#262 = DIRECTION ( 'NONE',  ( 0.000000000000000000, -1.734723475976807094E-16, 1.000000000000000000 ) ) ;
#263 = VERTEX_POINT ( 'NONE', #53 ) ;
#264 = LINE ( 'NONE', #37, #121 ) ;
#265 = FACE_OUTER_BOUND ( 'NONE', #51, .T. ) ;
#266 = VERTEX_POINT ( 'NONE', #245 ) ;
#267 = APPLICATION_PROTOCOL_DEFINITION ( 'draft international standard', 'automotive_design', 1998, #129 ) ;
#268 = CARTESIAN_POINT ( 'NONE',  ( 2.000000000000000000, 11.70000000000000107, -7.200000000000000178 ) ) ;
#269 = CARTESIAN_POINT ( 'NONE',  ( 2.000000000000000000, 11.70000000000000107, -0.7999999999999994893 ) ) ;
#270 = VERTEX_POINT ( 'NONE', #342 ) ;
#271 = VERTEX_POINT ( 'NONE', #251 ) ;
#272 = AXIS2_PLACEMENT_3D ( 'NONE', #352, #31, #122 ) ;
#273 = ADVANCED_FACE ( 'NONE', ( #265 ), #85, .F. ) ;
#274 = VERTEX_POINT ( 'NONE', #372 ) ;
#275 = VERTEX_POINT ( 'NONE', #415 ) ;
#276 = DIRECTION ( 'NONE',  ( -1.000000000000000000, -0.000000000000000000, -0.000000000000000000 ) ) ;
#277 = EDGE_CURVE ( 'NONE', #260, #340, #366, .T. ) ;
#278 = ORIENTED_EDGE ( 'NONE', *, *, #306, .T. ) ;
#279 = AXIS2_PLACEMENT_3D ( 'NONE', #355, #327, #10 ) ;
#280 = DIRECTION ( 'NONE',  ( -1.000000000000000000, -0.000000000000000000, -0.000000000000000000 ) ) ;
#281 = LINE ( 'NONE', #395, #32 ) ;
#282 = ORIENTED_EDGE ( 'NONE', *, *, #369, .F. ) ;
#283 = CARTESIAN_POINT ( 'NONE',  ( 0.8000000000000000444, 12.50000000000000000, -8.000000000000000000 ) ) ;
#284 = PLANE ( 'NONE',  #398 ) ;
#285 = VERTEX_POINT ( 'NONE', #237 ) ;
#286 = SHAPE_DEFINITION_REPRESENTATION ( #253, #324 ) ;
#287 = CARTESIAN_POINT ( 'NONE',  ( 0.000000000000000000, 12.50000000000000000, 0.000000000000000000 ) ) ;
#288 = ADVANCED_FACE ( 'NONE', ( #161 ), #374, .F. ) ;
#289 = DIRECTION ( 'NONE',  ( 0.000000000000000000, 0.000000000000000000, -1.000000000000000000 ) ) ;
#290 = VECTOR ( 'NONE', #144, 1000.000000000000000 ) ;
#291 = VERTEX_POINT ( 'NONE', #445 ) ;
#292 = CARTESIAN_POINT ( 'NONE',  ( 0.8000000000000000444, 0.000000000000000000, 0.000000000000000000 ) ) ;
#293 = PLANE ( 'NONE',  #47 ) ;
#294 = EDGE_CURVE ( 'NONE', #130, #285, #412, .T. ) ;
#295 = DIRECTION ( 'NONE',  ( -0.000000000000000000, -1.000000000000000000, -0.000000000000000000 ) ) ;
#296 = EDGE_LOOP ( 'NONE', ( #336, #57, #54, #64 ) ) ;
#297 = LINE ( 'NONE', #217, #326 ) ;
#298 = CARTESIAN_POINT ( 'NONE',  ( 2.000000000000000000, 11.70000000000000107, -7.200000000000000178 ) ) ;
#299 = EDGE_LOOP ( 'NONE', ( #365, #210, #94, #350 ) ) ;
#300 = CARTESIAN_POINT ( 'NONE',  ( 0.8000000000000000444, 6.700000000000000178, -0.8000000000000000444 ) ) ;
#301 = APPLICATION_PROTOCOL_DEFINITION ( 'draft international standard', 'automotive_design', 1998, #177 ) ;
#302 = LINE ( 'NONE', #442, #368 ) ;
#303 = PLANE ( 'NONE',  #212 ) ;
#304 = VECTOR ( 'NONE', #426, 1000.000000000000000 ) ;
#305 = ORIENTED_EDGE ( 'NONE', *, *, #17, .T. ) ;
#306 = EDGE_CURVE ( 'NONE', #266, #320, #460, .T. ) ;
#307 = ORIENTED_EDGE ( 'NONE', *, *, #103, .T. ) ;
#308 = VECTOR ( 'NONE', #427, 1000.000000000000000 ) ;
#309 = VECTOR ( 'NONE', #183, 1000.000000000000000 ) ;
#310 = ORIENTED_EDGE ( 'NONE', *, *, #137, .T. ) ;
#311 = CARTESIAN_POINT ( 'NONE',  ( 2.000000000000000000, 6.700000000000000178, -7.200000000000001066 ) ) ;
#312 = ORIENTED_EDGE ( 'NONE', *, *, #241, .T. ) ;
#313 = VECTOR ( 'NONE', #79, 1000.000000000000000 ) ;
#314 = DIRECTION ( 'NONE',  ( 0.000000000000000000, 1.000000000000000000, -2.168404344971008868E-15 ) ) ;
#315 = CARTESIAN_POINT ( 'NONE',  ( 0.8000000000000000444, 11.70000000000000107, -0.7999999999999994893 ) ) ;
#316 = PLANE ( 'NONE',  #346 ) ;
#317 = CARTESIAN_POINT ( 'NONE',  ( 0.8000000000000000444, 0.000000000000000000, -6.500000000000000888 ) ) ;
#318 = ORIENTED_EDGE ( 'NONE', *, *, #206, .T. ) ;
#319 = CLOSED_SHELL ( 'NONE', ( #235, #288, #273, #123, #227, #88, #71, #132, #354, #172, #321, #424, #157, #119, #329 ) ) ;
#320 = VERTEX_POINT ( 'NONE', #41 ) ;
#321 = ADVANCED_FACE ( 'NONE', ( #394 ), #391, .F. ) ;
#322 = CARTESIAN_POINT ( 'NONE',  ( 0.8000000000000000444, -0.8000000000000000444, -1.500000000000000000 ) ) ;
#323 = FACE_OUTER_BOUND ( 'NONE', #69, .T. ) ;
#324 = ADVANCED_BREP_SHAPE_REPRESENTATION ( 'EncoderBoard~2', ( #380, #90 ), #24 ) ;
#325 = LINE ( 'NONE', #13, #180 ) ;
#326 = VECTOR ( 'NONE', #223, 1000.000000000000000 ) ;
#327 = DIRECTION ( 'NONE',  ( 1.000000000000000000, 0.000000000000000000, 0.000000000000000000 ) ) ;
#328 = PLANE ( 'NONE',  #222 ) ;
#329 = ADVANCED_FACE ( 'NONE', ( #396 ), #72, .T. ) ;
#330 = CARTESIAN_POINT ( 'NONE',  ( 0.8000000000000000444, -0.8000000000000000444, -1.500000000000000000 ) ) ;
#331 = VECTOR ( 'NONE', #23, 1000.000000000000000 ) ;
#332 = ORIENTED_EDGE ( 'NONE', *, *, #216, .T. ) ;
#333 = EDGE_CURVE ( 'NONE', #167, #181, #297, .T. ) ;
#334 = CARTESIAN_POINT ( 'NONE',  ( 0.8000000000000000444, 0.000000000000000000, 0.000000000000000000 ) ) ;
#335 = CARTESIAN_POINT ( 'NONE',  ( 0.8000000000000000444, 0.000000000000000000, -1.500000000000000000 ) ) ;
#336 = ORIENTED_EDGE ( 'NONE', *, *, #437, .F. ) ;
#337 = VECTOR ( 'NONE', #107, 1000.000000000000000 ) ;
#338 = EDGE_LOOP ( 'NONE', ( #87, #78, #416, #19 ) ) ;
#339 = DIRECTION ( 'NONE',  ( 0.000000000000000000, 0.000000000000000000, -1.000000000000000000 ) ) ;
#340 = VERTEX_POINT ( 'NONE', #362 ) ;
#341 =( NAMED_UNIT ( * ) SI_UNIT ( $, .STERADIAN. ) SOLID_ANGLE_UNIT ( ) );
#342 = CARTESIAN_POINT ( 'NONE',  ( 0.8000000000000000444, 12.50000000000000000, 0.000000000000000000 ) ) ;
#343 = ORIENTED_EDGE ( 'NONE', *, *, #152, .T. ) ;
#344 = LINE ( 'NONE', #208, #187 ) ;
#345 = DIRECTION ( 'NONE',  ( 0.000000000000000000, 0.000000000000000000, -1.000000000000000000 ) ) ;
#346 = AXIS2_PLACEMENT_3D ( 'NONE', #141, #289, #393 ) ;
#347 = EDGE_LOOP ( 'NONE', ( #307, #246, #243, #214 ) ) ;
#348 = ORIENTED_EDGE ( 'NONE', *, *, #448, .T. ) ;
#349 = EDGE_CURVE ( 'NONE', #20, #291, #438, .T. ) ;
#350 = ORIENTED_EDGE ( 'NONE', *, *, #453, .T. ) ;
#351 = CARTESIAN_POINT ( 'NONE',  ( 0.000000000000000000, 12.50000000000000000, -8.000000000000000000 ) ) ;
#352 = CARTESIAN_POINT ( 'NONE',  ( 0.8000000000000000444, 0.000000000000000000, -8.000000000000000000 ) ) ;
#353 = ORIENTED_EDGE ( 'NONE', *, *, #241, .F. ) ;
#354 = ADVANCED_FACE ( 'NONE', ( #99 ), #124, .F. ) ;
#355 = CARTESIAN_POINT ( 'NONE',  ( 2.000000000000000000, 0.000000000000000000, 0.000000000000000000 ) ) ;
#356 = VERTEX_POINT ( 'NONE', #248 ) ;
#357 = CARTESIAN_POINT ( 'NONE',  ( 0.8000000000000000444, 0.000000000000000000, -8.000000000000000000 ) ) ;
#358 = AXIS2_PLACEMENT_3D ( 'NONE', #86, #238, #117 ) ;
#359 = EDGE_CURVE ( 'NONE', #266, #140, #451, .T. ) ;
#360 = CARTESIAN_POINT ( 'NONE',  ( 0.8000000000000000444, 0.000000000000000000, 0.000000000000000000 ) ) ;
#361 = EDGE_LOOP ( 'NONE', ( #15, #399, #225, #392 ) ) ;
#362 = CARTESIAN_POINT ( 'NONE',  ( 0.8000000000000000444, 6.700000000000000178, -7.200000000000001066 ) ) ;
#363 = CARTESIAN_POINT ( 'NONE',  ( 0.000000000000000000, 0.000000000000000000, 0.000000000000000000 ) ) ;
#364 = LINE ( 'NONE', #269, #171 ) ;
#365 = ORIENTED_EDGE ( 'NONE', *, *, #437, .T. ) ;
#366 = LINE ( 'NONE', #300, #202 ) ;
#367 = CARTESIAN_POINT ( 'NONE',  ( 0.000000000000000000, -0.8000000000000000444, -1.500000000000000000 ) ) ;
#368 = VECTOR ( 'NONE', #295, 1000.000000000000000 ) ;
#369 = EDGE_CURVE ( 'NONE', #285, #320, #344, .T. ) ;
#370 = VECTOR ( 'NONE', #92, 1000.000000000000000 ) ;
#371 = LINE ( 'NONE', #45, #63 ) ;
#372 = CARTESIAN_POINT ( 'NONE',  ( 0.8000000000000000444, 0.000000000000000000, -8.000000000000000000 ) ) ;
#373 = CARTESIAN_POINT ( 'NONE',  ( 2.000000000000000000, 11.70000000000000107, -7.200000000000000178 ) ) ;
#374 = PLANE ( 'NONE',  #14 ) ;
#375 = EDGE_CURVE ( 'NONE', #196, #39, #244, .T. ) ;
#376 = ORIENTED_EDGE ( 'NONE', *, *, #375, .F. ) ;
#377 = VECTOR ( 'NONE', #154, 1000.000000000000000 ) ;
#378 = VECTOR ( 'NONE', #402, 1000.000000000000000 ) ;
#379 = SURFACE_STYLE_USAGE ( .BOTH. , #447 ) ;
#380 = MANIFOLD_SOLID_BREP ( 'Ressalto-extrus\X2\00e3\X0\o2', #319 ) ;
#381 = ORIENTED_EDGE ( 'NONE', *, *, #56, .T. ) ;
#382 = FILL_AREA_STYLE_COLOUR ( '', #156 ) ;
#383 = DIRECTION ( 'NONE',  ( -1.000000000000000000, -0.000000000000000000, -0.000000000000000000 ) ) ;
#384 = LINE ( 'NONE', #456, #304 ) ;
#385 = EDGE_CURVE ( 'NONE', #134, #274, #21, .T. ) ;
#386 = ORIENTED_EDGE ( 'NONE', *, *, #118, .T. ) ;
#387 = CARTESIAN_POINT ( 'NONE',  ( 2.000000000000000000, 11.70000000000000107, -0.7999999999999994893 ) ) ;
#388 = AXIS2_PLACEMENT_3D ( 'NONE', #22, #59, #199 ) ;
#389 = MECHANICAL_DESIGN_GEOMETRIC_PRESENTATION_REPRESENTATION (  '', ( #422 ), #233 ) ;
#390 = DIRECTION ( 'NONE',  ( 0.000000000000000000, 1.000000000000000000, 0.000000000000000000 ) ) ;
#391 = PLANE ( 'NONE',  #7 ) ;
#392 = ORIENTED_EDGE ( 'NONE', *, *, #200, .T. ) ;
#393 = DIRECTION ( 'NONE',  ( -1.000000000000000000, 0.000000000000000000, -0.000000000000000000 ) ) ;
#394 = FACE_OUTER_BOUND ( 'NONE', #299, .T. ) ;
#395 = CARTESIAN_POINT ( 'NONE',  ( 0.8000000000000000444, 12.50000000000000000, 0.000000000000000000 ) ) ;
#396 = FACE_OUTER_BOUND ( 'NONE', #361, .T. ) ;
#397 = CARTESIAN_POINT ( 'NONE',  ( 0.8000000000000000444, 11.70000000000000107, -0.7999999999999994893 ) ) ;
#398 = AXIS2_PLACEMENT_3D ( 'NONE', #452, #250, #175 ) ;
#399 = ORIENTED_EDGE ( 'NONE', *, *, #428, .T. ) ;
#400 = LINE ( 'NONE', #11, #408 ) ;
#401 = VERTEX_POINT ( 'NONE', #242 ) ;
#402 = DIRECTION ( 'NONE',  ( 0.000000000000000000, 0.000000000000000000, -1.000000000000000000 ) ) ;
#403 = PRODUCT_DEFINITION ( 'UNKNOWN', '', #213, #256 ) ;
#404 = CARTESIAN_POINT ( 'NONE',  ( 0.8000000000000000444, 11.70000000000000107, -7.200000000000000178 ) ) ;
#405 = EDGE_LOOP ( 'NONE', ( #128, #432, #50, #446 ) ) ;
#406 = DIRECTION ( 'NONE',  ( 1.000000000000000000, 0.000000000000000000, 0.000000000000000000 ) ) ;
#407 = CARTESIAN_POINT ( 'NONE',  ( 0.8000000000000000444, 11.70000000000000107, -7.200000000000000178 ) ) ;
#408 = VECTOR ( 'NONE', #77, 1000.000000000000000 ) ;
#409 = DIRECTION ( 'NONE',  ( -0.000000000000000000, -1.000000000000000000, -0.000000000000000000 ) ) ;
#410 = ORIENTED_EDGE ( 'NONE', *, *, #44, .F. ) ;
#411 = EDGE_CURVE ( 'NONE', #271, #340, #52, .T. ) ;
#412 = LINE ( 'NONE', #334, #259 ) ;
#413 = ORIENTED_EDGE ( 'NONE', *, *, #206, .F. ) ;
#414 = VECTOR ( 'NONE', #254, 1000.000000000000000 ) ;
#415 = CARTESIAN_POINT ( 'NONE',  ( 0.000000000000000000, -0.8000000000000000444, -1.500000000000000000 ) ) ;
#416 = ORIENTED_EDGE ( 'NONE', *, *, #118, .F. ) ;
#417 = CARTESIAN_POINT ( 'NONE',  ( 0.8000000000000000444, 0.000000000000000000, -6.500000000000000888 ) ) ;
#418 = ORIENTED_EDGE ( 'NONE', *, *, #453, .F. ) ;
#419 = EDGE_CURVE ( 'NONE', #270, #263, #205, .T. ) ;
#420 = EDGE_LOOP ( 'NONE', ( #310, #209, #413, #239 ) ) ;
#421 = CARTESIAN_POINT ( 'NONE',  ( 0.8000000000000000444, 12.50000000000000000, 0.000000000000000000 ) ) ;
#422 = STYLED_ITEM ( 'NONE', ( #164 ), #380 ) ;
#423 = CARTESIAN_POINT ( 'NONE',  ( 0.8000000000000000444, 0.000000000000000000, -8.000000000000000000 ) ) ;
#424 = ADVANCED_FACE ( 'NONE', ( #135 ), #26, .F. ) ;
#425 = LINE ( 'NONE', #42, #127 ) ;
#426 = DIRECTION ( 'NONE',  ( 0.000000000000000000, -1.000000000000000000, -1.084202172485504434E-16 ) ) ;
#427 = DIRECTION ( 'NONE',  ( -1.000000000000000000, -0.000000000000000000, -0.000000000000000000 ) ) ;
#428 = EDGE_CURVE ( 'NONE', #356, #271, #441, .T. ) ;
#429 = DIRECTION ( 'NONE',  ( -0.000000000000000000, -0.000000000000000000, 1.000000000000000000 ) ) ;
#430 = ORIENTED_EDGE ( 'NONE', *, *, #359, .T. ) ;
#431 = UNCERTAINTY_MEASURE_WITH_UNIT (LENGTH_MEASURE( 1.000000000000000082E-05 ), #49, 'distance_accuracy_value', 'NONE');
#432 = ORIENTED_EDGE ( 'NONE', *, *, #186, .F. ) ;
#433 = DIRECTION ( 'NONE',  ( 0.000000000000000000, 1.084202172485504434E-16, -1.000000000000000000 ) ) ;
#434 = CARTESIAN_POINT ( 'NONE',  ( 0.8000000000000000444, 0.000000000000000000, -6.500000000000000888 ) ) ;
#435 = PLANE ( 'NONE',  #454 ) ;
#436 = ORIENTED_EDGE ( 'NONE', *, *, #249, .T. ) ;
#437 = EDGE_CURVE ( 'NONE', #181, #260, #35, .T. ) ;
#438 = LINE ( 'NONE', #114, #126 ) ;
#439 = CARTESIAN_POINT ( 'NONE',  ( 0.000000000000000000, 0.000000000000000000, 0.000000000000000000 ) ) ;
#440 = ORIENTED_EDGE ( 'NONE', *, *, #4, .F. ) ;
#441 = LINE ( 'NONE', #145, #378 ) ;
#442 = CARTESIAN_POINT ( 'NONE',  ( 0.000000000000000000, 0.000000000000000000, 0.000000000000000000 ) ) ;
#443 = DIRECTION ( 'NONE',  ( -1.000000000000000000, 0.000000000000000000, 0.000000000000000000 ) ) ;
#444 = VECTOR ( 'NONE', #95, 1000.000000000000000 ) ;
#445 = CARTESIAN_POINT ( 'NONE',  ( 0.000000000000000000, -0.8000000000000000444, -6.499999999999999112 ) ) ;
#446 = ORIENTED_EDGE ( 'NONE', *, *, #411, .T. ) ;
#447 = SURFACE_SIDE_STYLE ('',( #240 ) ) ;
#448 = EDGE_CURVE ( 'NONE', #89, #39, #153, .T. ) ;
#449 = ORIENTED_EDGE ( 'NONE', *, *, #306, .F. ) ;
#450 = ORIENTED_EDGE ( 'NONE', *, *, #152, .F. ) ;
#451 = LINE ( 'NONE', #335, #444 ) ;
#452 = CARTESIAN_POINT ( 'NONE',  ( 0.8000000000000000444, -0.8000000000000000444, -6.499999999999999112 ) ) ;
#453 = EDGE_CURVE ( 'NONE', #457, #181, #425, .T. ) ;
#454 = AXIS2_PLACEMENT_3D ( 'NONE', #373, #262, #38 ) ;
#455 = VECTOR ( 'NONE', #390, 1000.000000000000000 ) ;
#456 = CARTESIAN_POINT ( 'NONE',  ( 2.000000000000000000, 11.70000000000000107, -0.7999999999999994893 ) ) ;
#457 = VERTEX_POINT ( 'NONE', #6 ) ;
#458 = EDGE_LOOP ( 'NONE', ( #436, #142, #25, #278 ) ) ;
#459 = FACE_OUTER_BOUND ( 'NONE', #28, .T. ) ;
#460 = LINE ( 'NONE', #148, #313 ) ;
#461 = LINE ( 'NONE', #287, #337 ) ;
ENDSEC;
END-ISO-10303-21;
