ISO-10303-21;
HEADER;
FILE_DESCRIPTION (( 'STEP AP214' ),
    '1' );
FILE_NAME ('EncoderBoard.STEP',
    '2025-11-18T20:15:22',
    ( '' ),
    ( '' ),
    'SwSTEP 2.0',
    'SolidWorks 2025',
    '' );
FILE_SCHEMA (( 'AUTOMOTIVE_DESIGN' ));
ENDSEC;

DATA;
#1 = VECTOR ( 'NONE', #308, 1000.000000000000000 ) ;
#2 = SURFACE_STYLE_USAGE ( .BOTH. , #293 ) ;
#3 = LINE ( 'NONE', #107, #1 ) ;
#4 = PRODUCT_CONTEXT ( 'NONE', #69, 'mechanical' ) ;
#5 = ORIENTED_EDGE ( 'NONE', *, *, #315, .F. ) ;
#6 = ORIENTED_EDGE ( 'NONE', *, *, #119, .T. ) ;
#7 = CARTESIAN_POINT ( 'NONE',  ( 0.8000000000000000444, 0.000000000000000000, -6.500000000000000888 ) ) ;
#8 = ORIENTED_EDGE ( 'NONE', *, *, #119, .F. ) ;
#9 = EDGE_CURVE ( 'NONE', #16, #178, #266, .T. ) ;
#10 = AXIS2_PLACEMENT_3D ( 'NONE', #102, #200, #75 ) ;
#11 = ORIENTED_EDGE ( 'NONE', *, *, #289, .F. ) ;
#12 = CARTESIAN_POINT ( 'NONE',  ( 0.000000000000000000, 0.000000000000000000, 0.000000000000000000 ) ) ;
#13 = ADVANCED_FACE ( 'NONE', ( #241 ), #44, .T. ) ;
#14 = LINE ( 'NONE', #287, #276 ) ;
#15 = COLOUR_RGB ( '',0.7921568627450980005, 0.8196078431372548767, 0.9333333333333333481 ) ;
#16 = VERTEX_POINT ( 'NONE', #288 ) ;
#17 = CARTESIAN_POINT ( 'NONE',  ( 0.8000000000000000444, 0.000000000000000000, -8.000000000000000000 ) ) ;
#18 = CARTESIAN_POINT ( 'NONE',  ( 0.8000000000000000444, -0.8000000000000000444, -1.500000000000000000 ) ) ;
#19 = UNCERTAINTY_MEASURE_WITH_UNIT (LENGTH_MEASURE( 1.000000000000000082E-05 ), #296, 'distance_accuracy_value', 'NONE');
#20 = VECTOR ( 'NONE', #22, 1000.000000000000000 ) ;
#21 = DIRECTION ( 'NONE',  ( 0.000000000000000000, 0.000000000000000000, -1.000000000000000000 ) ) ;
#22 = DIRECTION ( 'NONE',  ( -1.000000000000000000, -0.000000000000000000, -0.000000000000000000 ) ) ;
#23 = CARTESIAN_POINT ( 'NONE',  ( 0.8000000000000000444, 0.000000000000000000, -8.000000000000000000 ) ) ;
#24 = ADVANCED_FACE ( 'NONE', ( #188 ), #220, .F. ) ;
#25 = LINE ( 'NONE', #125, #139 ) ;
#26 = AXIS2_PLACEMENT_3D ( 'NONE', #147, #294, #71 ) ;
#27 = FACE_OUTER_BOUND ( 'NONE', #180, .T. ) ;
#28 = EDGE_CURVE ( 'NONE', #88, #256, #14, .T. ) ;
#29 = CARTESIAN_POINT ( 'NONE',  ( 0.8000000000000000444, 12.50000000000000000, -8.000000000000000000 ) ) ;
#30 = VERTEX_POINT ( 'NONE', #290 ) ;
#31 = LINE ( 'NONE', #136, #73 ) ;
#32 = VERTEX_POINT ( 'NONE', #144 ) ;
#33 = CARTESIAN_POINT ( 'NONE',  ( 0.000000000000000000, 0.000000000000000000, 0.000000000000000000 ) ) ;
#34 = ORIENTED_EDGE ( 'NONE', *, *, #128, .T. ) ;
#35 = LINE ( 'NONE', #29, #267 ) ;
#36 = EDGE_LOOP ( 'NONE', ( #60, #8, #282, #285 ) ) ;
#37 = ORIENTED_EDGE ( 'NONE', *, *, #289, .T. ) ;
#38 = PRODUCT_DEFINITION_FORMATION_WITH_SPECIFIED_SOURCE ( 'ANY', '', #126, .NOT_KNOWN. ) ;
#39 = PLANE ( 'NONE',  #151 ) ;
#40 = ADVANCED_FACE ( 'NONE', ( #192 ), #92, .F. ) ;
#41 = LINE ( 'NONE', #162, #244 ) ;
#42 = FACE_OUTER_BOUND ( 'NONE', #36, .T. ) ;
#43 = VECTOR ( 'NONE', #283, 1000.000000000000000 ) ;
#44 = PLANE ( 'NONE',  #62 ) ;
#45 = DIRECTION ( 'NONE',  ( 0.000000000000000000, 0.000000000000000000, 1.000000000000000000 ) ) ;
#46 = EDGE_CURVE ( 'NONE', #30, #210, #41, .T. ) ;
#47 = CARTESIAN_POINT ( 'NONE',  ( 0.8000000000000000444, 0.000000000000000000, -6.500000000000000888 ) ) ;
#48 = CARTESIAN_POINT ( 'NONE',  ( 0.8000000000000000444, 0.000000000000000000, 0.000000000000000000 ) ) ;
#49 = EDGE_CURVE ( 'NONE', #54, #32, #117, .T. ) ;
#50 = LINE ( 'NONE', #47, #229 ) ;
#51 = CARTESIAN_POINT ( 'NONE',  ( 0.8000000000000000444, 0.000000000000000000, -8.000000000000000000 ) ) ;
#52 = CARTESIAN_POINT ( 'NONE',  ( 0.000000000000000000, 0.000000000000000000, 0.000000000000000000 ) ) ;
#53 = DIRECTION ( 'NONE',  ( -1.000000000000000000, 0.000000000000000000, -0.000000000000000000 ) ) ;
#54 = VERTEX_POINT ( 'NONE', #311 ) ;
#55 = CARTESIAN_POINT ( 'NONE',  ( 0.8000000000000000444, 0.000000000000000000, -8.000000000000000000 ) ) ;
#56 = EDGE_LOOP ( 'NONE', ( #110, #11, #219, #138 ) ) ;
#57 = APPLICATION_PROTOCOL_DEFINITION ( 'draft international standard', 'automotive_design', 1998, #116 ) ;
#58 = ORIENTED_EDGE ( 'NONE', *, *, #165, .T. ) ;
#59 = ORIENTED_EDGE ( 'NONE', *, *, #226, .F. ) ;
#60 = ORIENTED_EDGE ( 'NONE', *, *, #49, .T. ) ;
#61 = DIRECTION ( 'NONE',  ( 0.000000000000000000, -0.000000000000000000, 1.000000000000000000 ) ) ;
#62 = AXIS2_PLACEMENT_3D ( 'NONE', #12, #189, #118 ) ;
#63 = DIRECTION ( 'NONE',  ( 0.000000000000000000, 1.000000000000000000, 0.000000000000000000 ) ) ;
#64 = DIRECTION ( 'NONE',  ( -0.000000000000000000, 1.000000000000000000, 0.000000000000000000 ) ) ;
#65 = DIRECTION ( 'NONE',  ( 0.000000000000000000, -1.000000000000000000, 0.000000000000000000 ) ) ;
#66 = VECTOR ( 'NONE', #120, 1000.000000000000000 ) ;
#67 = ADVANCED_FACE ( 'NONE', ( #42 ), #39, .F. ) ;
#68 = CARTESIAN_POINT ( 'NONE',  ( 0.8000000000000000444, 0.000000000000000000, 0.000000000000000000 ) ) ;
#69 = APPLICATION_CONTEXT ( 'automotive_design' ) ;
#70 = DIRECTION ( 'NONE',  ( -1.000000000000000000, -0.000000000000000000, -0.000000000000000000 ) ) ;
#71 = DIRECTION ( 'NONE',  ( 0.000000000000000000, -1.000000000000000000, 2.168404344971008868E-15 ) ) ;
#72 = EDGE_CURVE ( 'NONE', #187, #54, #217, .T. ) ;
#73 = VECTOR ( 'NONE', #233, 1000.000000000000000 ) ;
#74 = LINE ( 'NONE', #250, #20 ) ;
#75 = DIRECTION ( 'NONE',  ( -1.000000000000000000, 0.000000000000000000, -0.000000000000000000 ) ) ;
#76 = CARTESIAN_POINT ( 'NONE',  ( 0.8000000000000000444, 0.000000000000000000, -6.500000000000000888 ) ) ;
#77 = LINE ( 'NONE', #112, #199 ) ;
#78 = VERTEX_POINT ( 'NONE', #167 ) ;
#79 = SHAPE_DEFINITION_REPRESENTATION ( #227, #181 ) ;
#80 = EDGE_LOOP ( 'NONE', ( #158, #245, #155, #234, #304, #106, #259, #262 ) ) ;
#81 = CARTESIAN_POINT ( 'NONE',  ( 0.8000000000000000444, -0.8000000000000000444, -6.499999999999999112 ) ) ;
#82 = ORIENTED_EDGE ( 'NONE', *, *, #9, .T. ) ;
#83 =( NAMED_UNIT ( * ) SI_UNIT ( $, .STERADIAN. ) SOLID_ANGLE_UNIT ( ) );
#84 = VERTEX_POINT ( 'NONE', #292 ) ;
#85 = VECTOR ( 'NONE', #247, 1000.000000000000000 ) ;
#86 = VECTOR ( 'NONE', #186, 1000.000000000000000 ) ;
#87 = LINE ( 'NONE', #55, #313 ) ;
#88 = VERTEX_POINT ( 'NONE', #68 ) ;
#89 = FACE_OUTER_BOUND ( 'NONE', #312, .T. ) ;
#90 = DIRECTION ( 'NONE',  ( 0.000000000000000000, 1.000000000000000000, -2.168404344971008868E-15 ) ) ;
#91 = CLOSED_SHELL ( 'NONE', ( #232, #297, #196, #40, #215, #257, #24, #67, #104, #13 ) ) ;
#92 = PLANE ( 'NONE',  #230 ) ;
#93 = DIRECTION ( 'NONE',  ( 0.000000000000000000, 0.000000000000000000, 1.000000000000000000 ) ) ;
#94 = ORIENTED_EDGE ( 'NONE', *, *, #150, .T. ) ;
#95 = AXIS2_PLACEMENT_3D ( 'NONE', #7, #152, #305 ) ;
#96 = DIRECTION ( 'NONE',  ( 0.000000000000000000, 0.000000000000000000, -1.000000000000000000 ) ) ;
#97 = PRODUCT_DEFINITION_CONTEXT ( 'detailed design', #116, 'design' ) ;
#98 = CARTESIAN_POINT ( 'NONE',  ( 0.8000000000000000444, 12.50000000000000000, 0.000000000000000000 ) ) ;
#99 = EDGE_CURVE ( 'NONE', #178, #187, #268, .T. ) ;
#100 = CARTESIAN_POINT ( 'NONE',  ( 0.000000000000000000, 0.000000000000000000, -1.500000000000000000 ) ) ;
#101 = AXIS2_PLACEMENT_3D ( 'NONE', #168, #164, #45 ) ;
#102 = CARTESIAN_POINT ( 'NONE',  ( 0.8000000000000000444, 0.000000000000000000, -1.500000000000000000 ) ) ;
#103 = CARTESIAN_POINT ( 'NONE',  ( 0.000000000000000000, 0.000000000000000000, 0.000000000000000000 ) ) ;
#104 = ADVANCED_FACE ( 'NONE', ( #89 ), #317, .F. ) ;
#105 = CARTESIAN_POINT ( 'NONE',  ( 0.8000000000000000444, 0.000000000000000000, 0.000000000000000000 ) ) ;
#106 = ORIENTED_EDGE ( 'NONE', *, *, #109, .F. ) ;
#107 = CARTESIAN_POINT ( 'NONE',  ( 0.000000000000000000, 0.000000000000000000, -1.500000000000000000 ) ) ;
#108 = ORIENTED_EDGE ( 'NONE', *, *, #280, .F. ) ;
#109 = EDGE_CURVE ( 'NONE', #78, #16, #145, .T. ) ;
#110 = ORIENTED_EDGE ( 'NONE', *, *, #172, .T. ) ;
#111 = ORIENTED_EDGE ( 'NONE', *, *, #270, .F. ) ;
#112 = CARTESIAN_POINT ( 'NONE',  ( 0.8000000000000000444, 0.000000000000000000, -1.500000000000000000 ) ) ;
#113 = VERTEX_POINT ( 'NONE', #100 ) ;
#114 = DIRECTION ( 'NONE',  ( 1.000000000000000000, 0.000000000000000000, -0.000000000000000000 ) ) ;
#115 = DIRECTION ( 'NONE',  ( -0.000000000000000000, -0.000000000000000000, 1.000000000000000000 ) ) ;
#116 = APPLICATION_CONTEXT ( 'automotive_design' ) ;
#117 = LINE ( 'NONE', #269, #171 ) ;
#118 = DIRECTION ( 'NONE',  ( 0.000000000000000000, 0.000000000000000000, 1.000000000000000000 ) ) ;
#119 = EDGE_CURVE ( 'NONE', #210, #32, #121, .T. ) ;
#120 = DIRECTION ( 'NONE',  ( 0.000000000000000000, 0.000000000000000000, -1.000000000000000000 ) ) ;
#121 = LINE ( 'NONE', #146, #218 ) ;
#122 = VECTOR ( 'NONE', #90, 1000.000000000000000 ) ;
#123 = PRODUCT_RELATED_PRODUCT_CATEGORY ( 'part', '', ( #126 ) ) ;
#124 =( NAMED_UNIT ( * ) SI_UNIT ( $, .STERADIAN. ) SOLID_ANGLE_UNIT ( ) );
#125 = CARTESIAN_POINT ( 'NONE',  ( 0.8000000000000000444, -0.8000000000000000444, -6.499999999999999112 ) ) ;
#126 = PRODUCT ( 'EncoderBoard', 'EncoderBoard', '', ( #4 ) ) ;
#127 = LINE ( 'NONE', #173, #163 ) ;
#128 = EDGE_CURVE ( 'NONE', #213, #160, #50, .T. ) ;
#129 = LINE ( 'NONE', #81, #291 ) ;
#130 = ORIENTED_EDGE ( 'NONE', *, *, #28, .T. ) ;
#131 = EDGE_CURVE ( 'NONE', #142, #279, #127, .T. ) ;
#132 =( NAMED_UNIT ( * ) PLANE_ANGLE_UNIT ( ) SI_UNIT ( $, .RADIAN. ) );
#133 = ORIENTED_EDGE ( 'NONE', *, *, #177, .F. ) ;
#134 = DIRECTION ( 'NONE',  ( 1.000000000000000000, 0.000000000000000000, 0.000000000000000000 ) ) ;
#135 = EDGE_LOOP ( 'NONE', ( #140, #309, #284, #137 ) ) ;
#136 = CARTESIAN_POINT ( 'NONE',  ( 0.8000000000000000444, -0.8000000000000000444, -1.500000000000000000 ) ) ;
#137 = ORIENTED_EDGE ( 'NONE', *, *, #280, .T. ) ;
#138 = ORIENTED_EDGE ( 'NONE', *, *, #310, .T. ) ;
#139 = VECTOR ( 'NONE', #224, 1000.000000000000000 ) ;
#140 = ORIENTED_EDGE ( 'NONE', *, *, #109, .T. ) ;
#141 = DIRECTION ( 'NONE',  ( 0.000000000000000000, 0.000000000000000000, -1.000000000000000000 ) ) ;
#142 = VERTEX_POINT ( 'NONE', #18 ) ;
#143 = PRESENTATION_LAYER_ASSIGNMENT (  '', '', ( #195 ) ) ;
#144 = CARTESIAN_POINT ( 'NONE',  ( 0.000000000000000000, 12.50000000000000000, 0.000000000000000000 ) ) ;
#145 = LINE ( 'NONE', #265, #301 ) ;
#146 = CARTESIAN_POINT ( 'NONE',  ( 0.8000000000000000444, 12.50000000000000000, 0.000000000000000000 ) ) ;
#147 = CARTESIAN_POINT ( 'NONE',  ( 0.8000000000000000444, -0.8000000000000000444, -6.499999999999999112 ) ) ;
#148 = DIRECTION ( 'NONE',  ( 0.000000000000000000, 0.000000000000000000, -1.000000000000000000 ) ) ;
#149 = LINE ( 'NONE', #52, #272 ) ;
#150 = EDGE_CURVE ( 'NONE', #256, #142, #221, .T. ) ;
#151 = AXIS2_PLACEMENT_3D ( 'NONE', #193, #65, #214 ) ;
#152 = DIRECTION ( 'NONE',  ( -0.000000000000000000, 1.000000000000000000, 0.000000000000000000 ) ) ;
#153 = EDGE_LOOP ( 'NONE', ( #191, #108, #206, #37 ) ) ;
#154 = DIRECTION ( 'NONE',  ( -1.000000000000000000, -0.000000000000000000, -0.000000000000000000 ) ) ;
#155 = ORIENTED_EDGE ( 'NONE', *, *, #72, .F. ) ;
#156 = CARTESIAN_POINT ( 'NONE',  ( 0.8000000000000000444, 0.000000000000000000, -1.500000000000000000 ) ) ;
#157 = VECTOR ( 'NONE', #21, 1000.000000000000000 ) ;
#158 = ORIENTED_EDGE ( 'NONE', *, *, #202, .F. ) ;
#159 = FACE_OUTER_BOUND ( 'NONE', #56, .T. ) ;
#160 = VERTEX_POINT ( 'NONE', #51 ) ;
#161 = ORIENTED_EDGE ( 'NONE', *, *, #275, .T. ) ;
#162 = CARTESIAN_POINT ( 'NONE',  ( 0.8000000000000000444, 12.50000000000000000, 0.000000000000000000 ) ) ;
#163 = VECTOR ( 'NONE', #96, 1000.000000000000000 ) ;
#164 = DIRECTION ( 'NONE',  ( -1.000000000000000000, 0.000000000000000000, 0.000000000000000000 ) ) ;
#165 = EDGE_CURVE ( 'NONE', #213, #178, #74, .T. ) ;
#166 = DIRECTION ( 'NONE',  ( -0.000000000000000000, -0.000000000000000000, 1.000000000000000000 ) ) ;
#167 = CARTESIAN_POINT ( 'NONE',  ( 0.000000000000000000, -0.8000000000000000444, -1.500000000000000000 ) ) ;
#168 = CARTESIAN_POINT ( 'NONE',  ( 0.8000000000000000444, 0.000000000000000000, 0.000000000000000000 ) ) ;
#169 = LINE ( 'NONE', #103, #157 ) ;
#170 = LINE ( 'NONE', #48, #43 ) ;
#171 = VECTOR ( 'NONE', #166, 1000.000000000000000 ) ;
#172 = EDGE_CURVE ( 'NONE', #84, #113, #169, .T. ) ;
#173 = CARTESIAN_POINT ( 'NONE',  ( 0.8000000000000000444, -0.8000000000000000444, -1.500000000000000000 ) ) ;
#174 = FACE_OUTER_BOUND ( 'NONE', #300, .T. ) ;
#175 = AXIS2_PLACEMENT_3D ( 'NONE', #33, #207, #134 ) ;
#176 = DIRECTION ( 'NONE',  ( 0.000000000000000000, 0.000000000000000000, -1.000000000000000000 ) ) ;
#177 = EDGE_CURVE ( 'NONE', #160, #30, #274, .T. ) ;
#178 = VERTEX_POINT ( 'NONE', #273 ) ;
#179 =( LENGTH_UNIT ( ) NAMED_UNIT ( * ) SI_UNIT ( .MILLI., .METRE. ) );
#180 = EDGE_LOOP ( 'NONE', ( #261, #111, #278, #58 ) ) ;
#181 = ADVANCED_BREP_SHAPE_REPRESENTATION ( 'EncoderBoard', ( #194, #175 ), #238 ) ;
#182 = PLANE ( 'NONE',  #184 ) ;
#183 = ORIENTED_EDGE ( 'NONE', *, *, #190, .F. ) ;
#184 = AXIS2_PLACEMENT_3D ( 'NONE', #105, #260, #277 ) ;
#185 = ORIENTED_EDGE ( 'NONE', *, *, #270, .T. ) ;
#186 = DIRECTION ( 'NONE',  ( -1.000000000000000000, -0.000000000000000000, -0.000000000000000000 ) ) ;
#187 = VERTEX_POINT ( 'NONE', #271 ) ;
#188 = FACE_OUTER_BOUND ( 'NONE', #316, .T. ) ;
#189 = DIRECTION ( 'NONE',  ( -1.000000000000000000, 0.000000000000000000, 0.000000000000000000 ) ) ;
#190 = EDGE_CURVE ( 'NONE', #279, #213, #25, .T. ) ;
#191 = ORIENTED_EDGE ( 'NONE', *, *, #263, .T. ) ;
#192 = FACE_OUTER_BOUND ( 'NONE', #135, .T. ) ;
#193 = CARTESIAN_POINT ( 'NONE',  ( 0.8000000000000000444, 12.50000000000000000, 0.000000000000000000 ) ) ;
#194 = MANIFOLD_SOLID_BREP ( 'Ressalto-extrus\X2\00e3\X0\o1', #91 ) ;
#195 = STYLED_ITEM ( 'NONE', ( #319 ), #194 ) ;
#196 = ADVANCED_FACE ( 'NONE', ( #201 ), #246, .F. ) ;
#197 = DIRECTION ( 'NONE',  ( 0.000000000000000000, 1.000000000000000000, 0.000000000000000000 ) ) ;
#198 = PLANE ( 'NONE',  #26 ) ;
#199 = VECTOR ( 'NONE', #253, 1000.000000000000000 ) ;
#200 = DIRECTION ( 'NONE',  ( 0.000000000000000000, 0.000000000000000000, -1.000000000000000000 ) ) ;
#201 = FACE_OUTER_BOUND ( 'NONE', #153, .T. ) ;
#202 = EDGE_CURVE ( 'NONE', #32, #84, #149, .T. ) ;
#203 = DIRECTION ( 'NONE',  ( -1.000000000000000000, -0.000000000000000000, -0.000000000000000000 ) ) ;
#204 = ORIENTED_EDGE ( 'NONE', *, *, #190, .T. ) ;
#205 = CARTESIAN_POINT ( 'NONE',  ( 0.8000000000000000444, 0.000000000000000000, 0.000000000000000000 ) ) ;
#206 = ORIENTED_EDGE ( 'NONE', *, *, #150, .F. ) ;
#207 = DIRECTION ( 'NONE',  ( 0.000000000000000000, 0.000000000000000000, 1.000000000000000000 ) ) ;
#208 = ORIENTED_EDGE ( 'NONE', *, *, #202, .T. ) ;
#209 = PLANE ( 'NONE',  #95 ) ;
#210 = VERTEX_POINT ( 'NONE', #98 ) ;
#211 = PLANE ( 'NONE',  #295 ) ;
#212 = AXIS2_PLACEMENT_3D ( 'NONE', #17, #93, #114 ) ;
#213 = VERTEX_POINT ( 'NONE', #76 ) ;
#214 = DIRECTION ( 'NONE',  ( 0.000000000000000000, -0.000000000000000000, -1.000000000000000000 ) ) ;
#215 = ADVANCED_FACE ( 'NONE', ( #174 ), #198, .F. ) ;
#216 = CARTESIAN_POINT ( 'NONE',  ( 0.000000000000000000, 0.000000000000000000, -6.500000000000000888 ) ) ;
#217 = LINE ( 'NONE', #314, #248 ) ;
#218 = VECTOR ( 'NONE', #70, 1000.000000000000000 ) ;
#219 = ORIENTED_EDGE ( 'NONE', *, *, #28, .F. ) ;
#220 = PLANE ( 'NONE',  #212 ) ;
#221 = LINE ( 'NONE', #249, #85 ) ;
#222 = MECHANICAL_DESIGN_GEOMETRIC_PRESENTATION_REPRESENTATION (  '', ( #195 ), #251 ) ;
#223 = UNCERTAINTY_MEASURE_WITH_UNIT (LENGTH_MEASURE( 1.000000000000000082E-05 ), #179, 'distance_accuracy_value', 'NONE');
#224 = DIRECTION ( 'NONE',  ( 0.000000000000000000, 1.000000000000000000, -2.168404344971008868E-15 ) ) ;
#225 = FILL_AREA_STYLE ('',( #228 ) ) ;
#226 = EDGE_CURVE ( 'NONE', #210, #88, #170, .T. ) ;
#227 = PRODUCT_DEFINITION_SHAPE ( 'NONE', 'NONE',  #240 ) ;
#228 = FILL_AREA_STYLE_COLOUR ( '', #15 ) ;
#229 = VECTOR ( 'NONE', #148, 1000.000000000000000 ) ;
#230 = AXIS2_PLACEMENT_3D ( 'NONE', #264, #64, #61 ) ;
#231 =( NAMED_UNIT ( * ) PLANE_ANGLE_UNIT ( ) SI_UNIT ( $, .RADIAN. ) );
#232 = ADVANCED_FACE ( 'NONE', ( #252 ), #211, .F. ) ;
#233 = DIRECTION ( 'NONE',  ( -1.000000000000000000, -0.000000000000000000, -0.000000000000000000 ) ) ;
#234 = ORIENTED_EDGE ( 'NONE', *, *, #99, .F. ) ;
#235 = ORIENTED_EDGE ( 'NONE', *, *, #131, .T. ) ;
#236 = ORIENTED_EDGE ( 'NONE', *, *, #165, .F. ) ;
#237 = ORIENTED_EDGE ( 'NONE', *, *, #177, .T. ) ;
#238 =( GEOMETRIC_REPRESENTATION_CONTEXT ( 3 ) GLOBAL_UNCERTAINTY_ASSIGNED_CONTEXT ( ( #223 ) ) GLOBAL_UNIT_ASSIGNED_CONTEXT ( ( #179, #132, #83 ) ) REPRESENTATION_CONTEXT ( 'NONE', 'WORKASPACE' ) );
#239 = ORIENTED_EDGE ( 'NONE', *, *, #226, .T. ) ;
#240 = PRODUCT_DEFINITION ( 'UNKNOWN', '', #38, #97 ) ;
#241 = FACE_OUTER_BOUND ( 'NONE', #80, .T. ) ;
#242 = CARTESIAN_POINT ( 'NONE',  ( 0.000000000000000000, -0.8000000000000000444, -6.499999999999999112 ) ) ;
#243 = ORIENTED_EDGE ( 'NONE', *, *, #46, .T. ) ;
#244 = VECTOR ( 'NONE', #115, 1000.000000000000000 ) ;
#245 = ORIENTED_EDGE ( 'NONE', *, *, #49, .F. ) ;
#246 = PLANE ( 'NONE',  #10 ) ;
#247 = DIRECTION ( 'NONE',  ( 0.000000000000000000, -1.000000000000000000, 0.000000000000000000 ) ) ;
#248 = VECTOR ( 'NONE', #63, 1000.000000000000000 ) ;
#249 = CARTESIAN_POINT ( 'NONE',  ( 0.8000000000000000444, 0.000000000000000000, -1.500000000000000000 ) ) ;
#250 = CARTESIAN_POINT ( 'NONE',  ( 0.8000000000000000444, 0.000000000000000000, -6.500000000000000888 ) ) ;
#251 =( GEOMETRIC_REPRESENTATION_CONTEXT ( 3 ) GLOBAL_UNCERTAINTY_ASSIGNED_CONTEXT ( ( #19 ) ) GLOBAL_UNIT_ASSIGNED_CONTEXT ( ( #296, #231, #124 ) ) REPRESENTATION_CONTEXT ( 'NONE', 'WORKASPACE' ) );
#252 = FACE_OUTER_BOUND ( 'NONE', #303, .T. ) ;
#253 = DIRECTION ( 'NONE',  ( -1.000000000000000000, -0.000000000000000000, -0.000000000000000000 ) ) ;
#254 = ORIENTED_EDGE ( 'NONE', *, *, #310, .F. ) ;
#255 = CARTESIAN_POINT ( 'NONE',  ( 0.8000000000000000444, 0.000000000000000000, 0.000000000000000000 ) ) ;
#256 = VERTEX_POINT ( 'NONE', #156 ) ;
#257 = ADVANCED_FACE ( 'NONE', ( #27 ), #209, .F. ) ;
#258 = DIRECTION ( 'NONE',  ( -1.000000000000000000, -0.000000000000000000, -0.000000000000000000 ) ) ;
#259 = ORIENTED_EDGE ( 'NONE', *, *, #263, .F. ) ;
#260 = DIRECTION ( 'NONE',  ( -0.000000000000000000, 1.000000000000000000, 0.000000000000000000 ) ) ;
#261 = ORIENTED_EDGE ( 'NONE', *, *, #99, .T. ) ;
#262 = ORIENTED_EDGE ( 'NONE', *, *, #172, .F. ) ;
#263 = EDGE_CURVE ( 'NONE', #113, #78, #3, .T. ) ;
#264 = CARTESIAN_POINT ( 'NONE',  ( 0.8000000000000000444, -0.8000000000000000444, -1.500000000000000000 ) ) ;
#265 = CARTESIAN_POINT ( 'NONE',  ( 0.000000000000000000, -0.8000000000000000444, -1.500000000000000000 ) ) ;
#266 = LINE ( 'NONE', #242, #122 ) ;
#267 = VECTOR ( 'NONE', #258, 1000.000000000000000 ) ;
#268 = LINE ( 'NONE', #216, #66 ) ;
#269 = CARTESIAN_POINT ( 'NONE',  ( 0.000000000000000000, 12.50000000000000000, 0.000000000000000000 ) ) ;
#270 = EDGE_CURVE ( 'NONE', #160, #187, #87, .T. ) ;
#271 = CARTESIAN_POINT ( 'NONE',  ( 0.000000000000000000, 0.000000000000000000, -8.000000000000000000 ) ) ;
#272 = VECTOR ( 'NONE', #298, 1000.000000000000000 ) ;
#273 = CARTESIAN_POINT ( 'NONE',  ( 0.000000000000000000, 0.000000000000000000, -6.500000000000000888 ) ) ;
#274 = LINE ( 'NONE', #23, #307 ) ;
#275 = EDGE_CURVE ( 'NONE', #279, #16, #129, .T. ) ;
#276 = VECTOR ( 'NONE', #286, 1000.000000000000000 ) ;
#277 = DIRECTION ( 'NONE',  ( 0.000000000000000000, -0.000000000000000000, 1.000000000000000000 ) ) ;
#278 = ORIENTED_EDGE ( 'NONE', *, *, #128, .F. ) ;
#279 = VERTEX_POINT ( 'NONE', #302 ) ;
#280 = EDGE_CURVE ( 'NONE', #142, #78, #31, .T. ) ;
#281 = APPLICATION_PROTOCOL_DEFINITION ( 'draft international standard', 'automotive_design', 1998, #69 ) ;
#282 = ORIENTED_EDGE ( 'NONE', *, *, #46, .F. ) ;
#283 = DIRECTION ( 'NONE',  ( -0.000000000000000000, -1.000000000000000000, -0.000000000000000000 ) ) ;
#284 = ORIENTED_EDGE ( 'NONE', *, *, #131, .F. ) ;
#285 = ORIENTED_EDGE ( 'NONE', *, *, #315, .T. ) ;
#286 = DIRECTION ( 'NONE',  ( 0.000000000000000000, 0.000000000000000000, -1.000000000000000000 ) ) ;
#287 = CARTESIAN_POINT ( 'NONE',  ( 0.8000000000000000444, 0.000000000000000000, 0.000000000000000000 ) ) ;
#288 = CARTESIAN_POINT ( 'NONE',  ( 0.000000000000000000, -0.8000000000000000444, -6.499999999999999112 ) ) ;
#289 = EDGE_CURVE ( 'NONE', #256, #113, #77, .T. ) ;
#290 = CARTESIAN_POINT ( 'NONE',  ( 0.8000000000000000444, 12.50000000000000000, -8.000000000000000000 ) ) ;
#291 = VECTOR ( 'NONE', #154, 1000.000000000000000 ) ;
#292 = CARTESIAN_POINT ( 'NONE',  ( 0.000000000000000000, 0.000000000000000000, 0.000000000000000000 ) ) ;
#293 = SURFACE_SIDE_STYLE ('',( #318 ) ) ;
#294 = DIRECTION ( 'NONE',  ( -0.000000000000000000, 2.168404344971008868E-15, 1.000000000000000000 ) ) ;
#295 = AXIS2_PLACEMENT_3D ( 'NONE', #255, #176, #53 ) ;
#296 =( LENGTH_UNIT ( ) NAMED_UNIT ( * ) SI_UNIT ( .MILLI., .METRE. ) );
#297 = ADVANCED_FACE ( 'NONE', ( #159 ), #182, .F. ) ;
#298 = DIRECTION ( 'NONE',  ( -0.000000000000000000, -1.000000000000000000, -0.000000000000000000 ) ) ;
#299 = LINE ( 'NONE', #205, #86 ) ;
#300 = EDGE_LOOP ( 'NONE', ( #82, #236, #183, #161 ) ) ;
#301 = VECTOR ( 'NONE', #141, 1000.000000000000000 ) ;
#302 = CARTESIAN_POINT ( 'NONE',  ( 0.8000000000000000444, -0.8000000000000000444, -6.499999999999999112 ) ) ;
#303 = EDGE_LOOP ( 'NONE', ( #208, #254, #59, #6 ) ) ;
#304 = ORIENTED_EDGE ( 'NONE', *, *, #9, .F. ) ;
#305 = DIRECTION ( 'NONE',  ( 0.000000000000000000, -0.000000000000000000, 1.000000000000000000 ) ) ;
#306 = ORIENTED_EDGE ( 'NONE', *, *, #72, .T. ) ;
#307 = VECTOR ( 'NONE', #197, 1000.000000000000000 ) ;
#308 = DIRECTION ( 'NONE',  ( 0.000000000000000000, -1.000000000000000000, 0.000000000000000000 ) ) ;
#309 = ORIENTED_EDGE ( 'NONE', *, *, #275, .F. ) ;
#310 = EDGE_CURVE ( 'NONE', #88, #84, #299, .T. ) ;
#311 = CARTESIAN_POINT ( 'NONE',  ( 0.000000000000000000, 12.50000000000000000, -8.000000000000000000 ) ) ;
#312 = EDGE_LOOP ( 'NONE', ( #239, #130, #94, #235, #204, #34, #237, #243 ) ) ;
#313 = VECTOR ( 'NONE', #203, 1000.000000000000000 ) ;
#314 = CARTESIAN_POINT ( 'NONE',  ( 0.000000000000000000, 0.000000000000000000, -8.000000000000000000 ) ) ;
#315 = EDGE_CURVE ( 'NONE', #30, #54, #35, .T. ) ;
#316 = EDGE_LOOP ( 'NONE', ( #306, #5, #133, #185 ) ) ;
#317 = PLANE ( 'NONE',  #101 ) ;
#318 = SURFACE_STYLE_FILL_AREA ( #225 ) ;
#319 = PRESENTATION_STYLE_ASSIGNMENT (( #2 ) ) ;
ENDSEC;
END-ISO-10303-21;
