ISO-10303-21;
HEADER;
FILE_DESCRIPTION (( 'STEP AP214' ),
    '1' );
FILE_NAME ('EncoderBoard2.STEP',
    '2025-11-18T23:01:42',
    ( '' ),
    ( '' ),
    'SwSTEP 2.0',
    'SolidWorks 2025',
    '' );
FILE_SCHEMA (( 'AUTOMOTIVE_DESIGN' ));
ENDSEC;

DATA;
#1 = DIRECTION ( 'NONE',  ( -1.000000000000000000, 0.000000000000000000, 0.000000000000000000 ) ) ;
#2 = LINE ( 'NONE', #558, #361 ) ;
#3 = CARTESIAN_POINT ( 'NONE',  ( 0.8000000000000000444, 13.00000000000000000, -0.1999999999999996503 ) ) ;
#4 = PLANE ( 'NONE',  #440 ) ;
#5 = DIRECTION ( 'NONE',  ( -0.000000000000000000, 1.000000000000000000, 0.000000000000000000 ) ) ;
#6 = VERTEX_POINT ( 'NONE', #26 ) ;
#7 = CARTESIAN_POINT ( 'NONE',  ( 0.000000000000000000, 0.000000000000000000, -6.500000000000000888 ) ) ;
#8 = CARTESIAN_POINT ( 'NONE',  ( 0.2533333333333331883, -1.084202172485504434E-16, 0.000000000000000000 ) ) ;
#9 = ORIENTED_EDGE ( 'NONE', *, *, #236, .T. ) ;
#10 = PLANE ( 'NONE',  #408 ) ;
#11 = VECTOR ( 'NONE', #378, 1000.000000000000000 ) ;
#12 = CARTESIAN_POINT ( 'NONE',  ( 0.8000000000000000444, 4.800000000000000711, -8.800000000000000711 ) ) ;
#13 = VERTEX_POINT ( 'NONE', #121 ) ;
#14 = LINE ( 'NONE', #531, #62 ) ;
#15 = CARTESIAN_POINT ( 'NONE',  ( 0.000000000000000000, 13.00000000000000000, 0.8000000000000003775 ) ) ;
#16 = VERTEX_POINT ( 'NONE', #321 ) ;
#17 = B_SPLINE_CURVE_WITH_KNOTS ( 'NONE', 3,
 ( #94, #283, #47, #189 ),
 .UNSPECIFIED., .F., .F.,
 ( 4, 4 ),
 ( 0.000000000000000000, 1.000000000000000000 ),
 .UNSPECIFIED. ) ;
#18 = DIRECTION ( 'NONE',  ( 1.000000000000000000, 0.000000000000000000, -0.000000000000000000 ) ) ;
#19 = CARTESIAN_POINT ( 'NONE',  ( 0.7999999999999999334, 2.502472446648563498, -8.220312057518146531 ) ) ;
#20 = VERTEX_POINT ( 'NONE', #501 ) ;
#21 = CARTESIAN_POINT ( 'NONE',  ( 0.000000000000000000, -0.8000000000000000444, -6.499999999999999112 ) ) ;
#22 = CARTESIAN_POINT ( 'NONE',  ( 0.8000000000000000444, 2.914431260497823750, 0.3019858194276106578 ) ) ;
#23 = EDGE_CURVE ( 'NONE', #366, #20, #90, .T. ) ;
#24 = CARTESIAN_POINT ( 'NONE',  ( 0.000000000000000000, 6.411765446391989087, -8.800000000000014921 ) ) ;
#25 = LINE ( 'NONE', #160, #493 ) ;
#26 = CARTESIAN_POINT ( 'NONE',  ( 0.8000000000000000444, 12.00000000000000000, -8.800000000000000711 ) ) ;
#27 = CARTESIAN_POINT ( 'NONE',  ( 0.000000000000000000, 0.6980264520999140965, 0.03016745047656703774 ) ) ;
#28 = LINE ( 'NONE', #15, #289 ) ;
#29 = LINE ( 'NONE', #585, #543 ) ;
#30 = CARTESIAN_POINT ( 'NONE',  ( 0.2533333333333331328, 2.449026246833683196, -8.105842518997986801 ) ) ;
#31 = VECTOR ( 'NONE', #552, 1000.000000000000000 ) ;
#32 = EDGE_CURVE ( 'NONE', #178, #71, #404, .T. ) ;
#33 = CARTESIAN_POINT ( 'NONE',  ( 0.8400000000000000799, 3.030877444744467297, 0.3256506264911023241 ) ) ;
#34 = DIRECTION ( 'NONE',  ( -0.000000000000000000, 2.168404344971008868E-15, 1.000000000000000000 ) ) ;
#35 = ORIENTED_EDGE ( 'NONE', *, *, #196, .F. ) ;
#36 = ORIENTED_EDGE ( 'NONE', *, *, #186, .F. ) ;
#37 = EDGE_CURVE ( 'NONE', #444, #154, #412, .T. ) ;
#38 = VECTOR ( 'NONE', #274, 1000.000000000000000 ) ;
#39 = CARTESIAN_POINT ( 'NONE',  ( 0.2533333333333331883, -1.810617628050792405E-14, -8.000000000000419220 ) ) ;
#40 = ORIENTED_EDGE ( 'NONE', *, *, #176, .T. ) ;
#41 = ORIENTED_EDGE ( 'NONE', *, *, #513, .T. ) ;
#42 = CARTESIAN_POINT ( 'NONE',  ( 0.000000000000000000, 12.00000000000000000, -0.1999999999999996503 ) ) ;
#43 = AXIS2_PLACEMENT_3D ( 'NONE', #496, #226, #223 ) ;
#44 = FACE_OUTER_BOUND ( 'NONE', #411, .T. ) ;
#45 = VERTEX_POINT ( 'NONE', #184 ) ;
#46 =( BOUNDED_SURFACE ( )  B_SPLINE_SURFACE ( 2, 3, ( 
 ( #290, #198, #468, #509 ),
 ( #98, #142, #150, #235 ),
 ( #137, #8, #376, #293 ) ),
 .UNSPECIFIED., .F., .F., .F. ) 
 B_SPLINE_SURFACE_WITH_KNOTS ( ( 3, 3 ),
 ( 4, 4 ),
 ( 0.000000000000000000, 1.000000000000000000 ),
 ( -0.0008400000000000000348, 4.000000000000000327E-05 ),
 .UNSPECIFIED. ) 
 GEOMETRIC_REPRESENTATION_ITEM ( )  RATIONAL_B_SPLINE_SURFACE ( (
 ( 1.000000000000000000, 1.000000000000000000, 1.000000000000000000, 1.000000000000000000),
 ( 1.857142857142854542, 1.857142857142854542, 1.857142857142854542, 1.857142857142854542),
 ( 1.000000000000000000, 1.000000000000000000, 1.000000000000000000, 1.000000000000000000) ) ) 
 REPRESENTATION_ITEM ( '' )  SURFACE ( )  );
#47 = CARTESIAN_POINT ( 'NONE',  ( 0.2666666666666665519, -1.810617628050792405E-14, -8.000000000000419220 ) ) ;
#48 = CARTESIAN_POINT ( 'NONE',  ( 0.8000000000000000444, 7.360885252149911295, -8.800000000000000711 ) ) ;
#49 = SHAPE_DEFINITION_REPRESENTATION ( #52, #423 ) ;
#50 = SURFACE_SIDE_STYLE ('',( #197 ) ) ;
#51 = EDGE_CURVE ( 'NONE', #131, #245, #578, .T. ) ;
#52 = PRODUCT_DEFINITION_SHAPE ( 'NONE', 'NONE',  #82 ) ;
#53 = PLANE ( 'NONE',  #466 ) ;
#54 = LINE ( 'NONE', #7, #11 ) ;
#55 = LINE ( 'NONE', #95, #128 ) ;
#56 = ORIENTED_EDGE ( 'NONE', *, *, #69, .F. ) ;
#57 =( NAMED_UNIT ( * ) SI_UNIT ( $, .STERADIAN. ) SOLID_ANGLE_UNIT ( ) );
#58 = LINE ( 'NONE', #426, #172 ) ;
#59 = ORIENTED_EDGE ( 'NONE', *, *, #340, .T. ) ;
#60 = EDGE_CURVE ( 'NONE', #505, #178, #146, .T. ) ;
#61 = DIRECTION ( 'NONE',  ( 0.000000000000000000, -0.000000000000000000, -1.000000000000000000 ) ) ;
#62 = VECTOR ( 'NONE', #114, 1000.000000000000000 ) ;
#63 = CARTESIAN_POINT ( 'NONE',  ( 0.7999999999999999334, 3.030595256301548357, -8.326871961510313724 ) ) ;
#64 = EDGE_LOOP ( 'NONE', ( #151, #229, #36, #341 ) ) ;
#65 = CARTESIAN_POINT ( 'NONE',  ( -0.000000000000000000, 1.582435490084767027, 0.09082195974225247548 ) ) ;
#66 = CARTESIAN_POINT ( 'NONE',  ( 0.8000000000000001554, 0.6980264520995256294, -8.030167450476984214 ) ) ;
#67 = ORIENTED_EDGE ( 'NONE', *, *, #348, .T. ) ;
#68 = CARTESIAN_POINT ( 'NONE',  ( -0.000000000000000000, 2.222898567822093163, 0.1745814693341903312 ) ) ;
#69 = EDGE_CURVE ( 'NONE', #199, #505, #336, .T. ) ;
#70 = CARTESIAN_POINT ( 'NONE',  ( 0.8000000000000003775, 2.914458006511665644, -8.301989763094576702 ) ) ;
#71 = VERTEX_POINT ( 'NONE', #383 ) ;
#72 = CARTESIAN_POINT ( 'NONE',  ( 0.8000000000000000444, 7.360885252149911295, -8.800000000000000711 ) ) ;
#73 = CARTESIAN_POINT ( 'NONE',  ( 0.8000000000000000444, 0.000000000000000000, -8.000000000000000000 ) ) ;
#74 = VECTOR ( 'NONE', #400, 1000.000000000000000 ) ;
#75 = ORIENTED_EDGE ( 'NONE', *, *, #481, .F. ) ;
#76 = CARTESIAN_POINT ( 'NONE',  ( 0.8000000000000000444, 0.000000000000000000, -6.500000000000000888 ) ) ;
#77 = DIRECTION ( 'NONE',  ( 1.000000000000000000, 0.000000000000000000, 0.000000000000000000 ) ) ;
#78 =( BOUNDED_SURFACE ( )  B_SPLINE_SURFACE ( 2, 3, ( 
 ( #319, #39, #83, #80 ),
 ( #175, #30, #225, #130 ),
 ( #231, #586, #588, #458 ) ),
 .UNSPECIFIED., .F., .F., .F. ) 
 B_SPLINE_SURFACE_WITH_KNOTS ( ( 3, 3 ),
 ( 4, 4 ),
 ( 0.000000000000000000, 1.000000000000000000 ),
 ( -0.0008400000000000000348, 4.000000000000000327E-05 ),
 .UNSPECIFIED. ) 
 GEOMETRIC_REPRESENTATION_ITEM ( )  RATIONAL_B_SPLINE_SURFACE ( (
 ( 1.000000000000000000, 1.000000000000000000, 1.000000000000000000, 1.000000000000000000),
 ( 1.857142857142854542, 1.857142857142854542, 1.857142857142854542, 1.857142857142854542),
 ( 1.000000000000000000, 1.000000000000000000, 1.000000000000000000, 1.000000000000000000) ) ) 
 REPRESENTATION_ITEM ( '' )  SURFACE ( )  );
#79 = CARTESIAN_POINT ( 'NONE',  ( 0.5333333333333318826, 7.360885252151900815, -8.800000000000000711 ) ) ;
#80 = CARTESIAN_POINT ( 'NONE',  ( 0.8399999999999999689, -1.810617628050792405E-14, -8.000000000000419220 ) ) ;
#81 = ADVANCED_FACE ( 'NONE', ( #375 ), #4, .F. ) ;
#82 = PRODUCT_DEFINITION ( 'UNKNOWN', '', #462, #595 ) ;
#83 = CARTESIAN_POINT ( 'NONE',  ( 0.5466666666666666341, -1.810617628050792405E-14, -8.000000000000419220 ) ) ;
#84 = ORIENTED_EDGE ( 'NONE', *, *, #495, .F. ) ;
#85 = CARTESIAN_POINT ( 'NONE',  ( 0.5466666666666684105, 7.360885252138233525, 0.8000000000000090372 ) ) ;
#86 = ORIENTED_EDGE ( 'NONE', *, *, #138, .T. ) ;
#87 = EDGE_CURVE ( 'NONE', #591, #281, #457, .T. ) ;
#88 = ORIENTED_EDGE ( 'NONE', *, *, #331, .F. ) ;
#89 = CARTESIAN_POINT ( 'NONE',  ( -0.03999999999999999389, 7.360885252151687652, 0.8000000000000055955 ) ) ;
#90 = LINE ( 'NONE', #459, #38 ) ;
#91 = ORIENTED_EDGE ( 'NONE', *, *, #340, .F. ) ;
#92 = EDGE_LOOP ( 'NONE', ( #516, #40, #338, #294 ) ) ;
#93 = CARTESIAN_POINT ( 'NONE',  ( 0.8000000000000001554, 4.674049985668734308, -8.661639061007130991 ) ) ;
#94 = CARTESIAN_POINT ( 'NONE',  ( 0.8000000000000000444, 0.000000000000000000, -8.000000000000000000 ) ) ;
#95 = CARTESIAN_POINT ( 'NONE',  ( 0.8000000000000000444, -0.8000000000000000444, -1.500000000000000000 ) ) ;
#96 = EDGE_CURVE ( 'NONE', #301, #154, #193, .T. ) ;
#97 = SURFACE_STYLE_USAGE ( .BOTH. , #50 ) ;
#98 = CARTESIAN_POINT ( 'NONE',  ( -0.04000000000000000083, 2.449026246833758691, 0.1058425189975394781 ) ) ;
#99 = VECTOR ( 'NONE', #311, 1000.000000000000000 ) ;
#100 = CARTESIAN_POINT ( 'NONE',  ( -0.000000000000000000, 0.6980012759111755560, -8.030166362407305414 ) ) ;
#101 = EDGE_LOOP ( 'NONE', ( #191, #35, #91, #512 ) ) ;
#102 = CARTESIAN_POINT ( 'NONE',  ( 0.7999999999999999334, 3.030595256301548357, -8.326871961510313724 ) ) ;
#103 = DIRECTION ( 'NONE',  ( 0.000000000000000000, 0.000000000000000000, -1.000000000000000000 ) ) ;
#104 = ORIENTED_EDGE ( 'NONE', *, *, #491, .T. ) ;
#105 = CARTESIAN_POINT ( 'NONE',  ( 0.8000000000000000444, 0.000000000000000000, -6.500000000000000888 ) ) ;
#106 = ORIENTED_EDGE ( 'NONE', *, *, #37, .T. ) ;
#107 = CARTESIAN_POINT ( 'NONE',  ( 0.2533333333332752901, 3.030877444762571038, -8.325650626495555429 ) ) ;
#108 = COLOUR_RGB ( '',0.7921568627450980005, 0.8196078431372548767, 0.9333333333333333481 ) ;
#109 = PLANE ( 'NONE',  #328 ) ;
#110 = VERTEX_POINT ( 'NONE', #413 ) ;
#111 = CARTESIAN_POINT ( 'NONE',  ( 0.8000000000000000444, 7.360885252149911295, -8.800000000000000711 ) ) ;
#112 = CYLINDRICAL_SURFACE ( 'NONE', #183, 1.000000000000000000 ) ;
#113 = ORIENTED_EDGE ( 'NONE', *, *, #286, .F. ) ;
#114 = DIRECTION ( 'NONE',  ( 0.000000000000000000, 1.000000000000000000, -2.168404344971008868E-15 ) ) ;
#115 = DIRECTION ( 'NONE',  ( -0.000000000000000000, -1.000000000000000000, -0.000000000000000000 ) ) ;
#116 =( BOUNDED_SURFACE ( )  B_SPLINE_SURFACE ( 2, 3, ( 
 ( #89, #270, #85, #320 ),
 ( #452, #497, #358, #315 ),
 ( #541, #542, #276, #33 ) ),
 .UNSPECIFIED., .F., .F., .F. ) 
 B_SPLINE_SURFACE_WITH_KNOTS ( ( 3, 3 ),
 ( 4, 4 ),
 ( 0.000000000000000000, 1.000000000000000000 ),
 ( -0.0004399999999999995820, 0.0004400000000000050572 ),
 .UNSPECIFIED. ) 
 GEOMETRIC_REPRESENTATION_ITEM ( )  RATIONAL_B_SPLINE_SURFACE ( (
 ( 1.000000000000000000, 1.000000000000000000, 1.000000000000000000, 1.000000000000000000),
 ( 1.857142857142854542, 1.857142857142854542, 1.857142857142854542, 1.857142857142854542),
 ( 1.000000000000000000, 1.000000000000000000, 1.000000000000000000, 1.000000000000000000) ) ) 
 REPRESENTATION_ITEM ( '' )  SURFACE ( )  );
#117 = CARTESIAN_POINT ( 'NONE',  ( 0.7999999999999999334, 6.411765446444409378, 0.8000000000000091482 ) ) ;
#118 = CARTESIAN_POINT ( 'NONE',  ( -0.000000000000000000, 2.804793369196552977, 0.2786881543083907231 ) ) ;
#119 = FACE_OUTER_BOUND ( 'NONE', #487, .T. ) ;
#120 = VECTOR ( 'NONE', #103, 1000.000000000000000 ) ;
#121 = CARTESIAN_POINT ( 'NONE',  ( 0.000000000000000000, 13.00000000000000000, -0.1999999999999996503 ) ) ;
#122 = FACE_OUTER_BOUND ( 'NONE', #101, .T. ) ;
#123 = EDGE_CURVE ( 'NONE', #301, #16, #2, .T. ) ;
#124 = FACE_OUTER_BOUND ( 'NONE', #377, .T. ) ;
#125 = PRODUCT_RELATED_PRODUCT_CATEGORY ( 'part', '', ( #143 ) ) ;
#126 = MANIFOLD_SOLID_BREP ( 'Filete7', #476 ) ;
#127 = CARTESIAN_POINT ( 'NONE',  ( 0.8000000000000000444, -0.8000000000000000444, -6.499999999999999112 ) ) ;
#128 = VECTOR ( 'NONE', #563, 1000.000000000000000 ) ;
#129 = EDGE_CURVE ( 'NONE', #20, #428, #54, .T. ) ;
#130 = CARTESIAN_POINT ( 'NONE',  ( 0.8399999999999998579, 2.449026246833683196, -8.105842518997986801 ) ) ;
#131 = VERTEX_POINT ( 'NONE', #508 ) ;
#132 = ORIENTED_EDGE ( 'NONE', *, *, #469, .T. ) ;
#133 = ORIENTED_EDGE ( 'NONE', *, *, #87, .F. ) ;
#134 = UNCERTAINTY_MEASURE_WITH_UNIT (LENGTH_MEASURE( 1.000000000000000082E-05 ), #240, 'distance_accuracy_value', 'NONE');
#135 = AXIS2_PLACEMENT_3D ( 'NONE', #105, #437, #581 ) ;
#136 = CARTESIAN_POINT ( 'NONE',  ( 0.8000000000000001554, 5.683942977259563101, 0.7722721427835480545 ) ) ;
#137 = CARTESIAN_POINT ( 'NONE',  ( -0.03999999999999999389, -1.084202172485504434E-16, 0.000000000000000000 ) ) ;
#138 = EDGE_CURVE ( 'NONE', #45, #13, #310, .T. ) ;
#139 = ORIENTED_EDGE ( 'NONE', *, *, #96, .T. ) ;
#140 =( NAMED_UNIT ( * ) PLANE_ANGLE_UNIT ( ) SI_UNIT ( $, .RADIAN. ) );
#141 = AXIS2_PLACEMENT_3D ( 'NONE', #540, #269, #450 ) ;
#142 = CARTESIAN_POINT ( 'NONE',  ( 0.2533333333333331328, 2.449026246833758691, 0.1058425189975394781 ) ) ;
#143 = PRODUCT ( 'EncoderBoard2', 'EncoderBoard2', '', ( #285 ) ) ;
#144 = DIRECTION ( 'NONE',  ( 0.000000000000000000, 0.000000000000000000, -1.000000000000000000 ) ) ;
#145 = CARTESIAN_POINT ( 'NONE',  ( 0.5333333333333333259, 7.360885252151396330, 0.8000000000000003775 ) ) ;
#146 = B_SPLINE_CURVE_WITH_KNOTS ( 'NONE', 3,
 ( #533, #117, #136, #417, #420, #287 ),
 .UNSPECIFIED., .F., .F.,
 ( 4, 2, 4 ),
 ( 0.000000000000000000, 0.5000000000000000000, 1.000000000000000000 ),
 .UNSPECIFIED. ) ;
#147 = EDGE_LOOP ( 'NONE', ( #132, #574, #521, #217 ) ) ;
#148 = EDGE_CURVE ( 'NONE', #182, #490, #522, .T. ) ;
#149 = CARTESIAN_POINT ( 'NONE',  ( 0.5333333333333345472, 3.030877444746087335, -8.325650626491899686 ) ) ;
#150 = CARTESIAN_POINT ( 'NONE',  ( 0.5466666666666666341, 2.449026246833758691, 0.1058425189975394781 ) ) ;
#151 = ORIENTED_EDGE ( 'NONE', *, *, #424, .F. ) ;
#152 = FILL_AREA_STYLE ('',( #237 ) ) ;
#153 = CARTESIAN_POINT ( 'NONE',  ( 0.8000000000000000444, 13.00000000000000000, -7.799999999999999822 ) ) ;
#154 = VERTEX_POINT ( 'NONE', #555 ) ;
#155 = CARTESIAN_POINT ( 'NONE',  ( 0.8000000000000000444, 13.00000000000000000, 0.8000000000000003775 ) ) ;
#156 = B_SPLINE_CURVE_WITH_KNOTS ( 'NONE', 3,
 ( #261, #24, #208, #436, #299, #251 ),
 .UNSPECIFIED., .F., .F.,
 ( 4, 2, 4 ),
 ( 0.000000000000000000, 0.5000000000000000000, 1.000000000000000000 ),
 .UNSPECIFIED. ) ;
#157 = DIRECTION ( 'NONE',  ( -0.000000000000000000, 1.000000000000000000, 0.000000000000000000 ) ) ;
#158 = ORIENTED_EDGE ( 'NONE', *, *, #286, .T. ) ;
#159 = CARTESIAN_POINT ( 'NONE',  ( 0.000000000000000000, 0.000000000000000000, 0.000000000000000000 ) ) ;
#160 = CARTESIAN_POINT ( 'NONE',  ( 0.000000000000000000, 4.800000000000000711, 0.8000000000000003775 ) ) ;
#161 = ORIENTED_EDGE ( 'NONE', *, *, #592, .F. ) ;
#162 = ADVANCED_FACE ( 'NONE', ( #292 ), #10, .T. ) ;
#163 = CARTESIAN_POINT ( 'NONE',  ( 0.8400000000000000799, 7.360885252149713232, -8.799999999999995381 ) ) ;
#164 = CARTESIAN_POINT ( 'NONE',  ( -6.541675134731314586E-17, 3.030595256303063589, 0.3268719615102163578 ) ) ;
#165 = DIRECTION ( 'NONE',  ( 0.000000000000000000, 0.000000000000000000, -1.000000000000000000 ) ) ;
#166 = CARTESIAN_POINT ( 'NONE',  ( 0.000000000000000000, 2.597866555071745243, 0.2376936552200346331 ) ) ;
#167 = CARTESIAN_POINT ( 'NONE',  ( 0.8000000000000000444, 2.804741730823311130, 0.2786791642419017001 ) ) ;
#168 = EDGE_LOOP ( 'NONE', ( #253, #385, #313, #326 ) ) ;
#169 = CARTESIAN_POINT ( 'NONE',  ( 0.8400000000000000799, 5.169899024839441637, -8.800000000000022027 ) ) ;
#170 = EDGE_CURVE ( 'NONE', #589, #428, #17, .T. ) ;
#171 = DIRECTION ( 'NONE',  ( -1.000000000000000000, 0.000000000000000000, 0.000000000000000000 ) ) ;
#172 = VECTOR ( 'NONE', #202, 1000.000000000000000 ) ;
#173 = DIRECTION ( 'NONE',  ( 0.000000000000000000, -1.000000000000000000, 0.000000000000000000 ) ) ;
#174 = CARTESIAN_POINT ( 'NONE',  ( 0.000000000000000000, -0.8000000000000000444, -6.499999999999999112 ) ) ;
#175 = CARTESIAN_POINT ( 'NONE',  ( -0.04000000000000000083, 2.449026246833683196, -8.105842518997986801 ) ) ;
#176 = EDGE_CURVE ( 'NONE', #281, #6, #369, .T. ) ;
#177 = LINE ( 'NONE', #174, #316 ) ;
#178 = VERTEX_POINT ( 'NONE', #212 ) ;
#179 = AXIS2_PLACEMENT_3D ( 'NONE', #446, #474, #61 ) ;
#180 = EDGE_LOOP ( 'NONE', ( #363, #86, #388, #406, #484, #398, #211, #537, #324, #297, #113, #422, #9, #203 ) ) ;
#181 = B_SPLINE_CURVE_WITH_KNOTS ( 'NONE', 3,
 ( #73, #66, #434, #262, #19, #303, #483, #70, #405 ),
 .UNSPECIFIED., .F., .F.,
 ( 4, 1, 2, 2, 4 ),
 ( 0.000000000000000000, 0.3288546784034143133, 0.4932820176051215255, 0.5754956872059749928, 0.6577093568068285157 ),
 .UNSPECIFIED. ) ;
#182 = VERTEX_POINT ( 'NONE', #482 ) ;
#183 = AXIS2_PLACEMENT_3D ( 'NONE', #308, #171, #216 ) ;
#184 = CARTESIAN_POINT ( 'NONE',  ( 0.000000000000000000, 12.00000000000000000, 0.8000000000000003775 ) ) ;
#185 = CARTESIAN_POINT ( 'NONE',  ( 0.8000000000000000444, 0.000000000000000000, 0.000000000000000000 ) ) ;
#186 = EDGE_CURVE ( 'NONE', #554, #182, #156, .T. ) ;
#187 = DIRECTION ( 'NONE',  ( -1.000000000000000000, 0.000000000000000000, -0.000000000000000000 ) ) ;
#188 = CIRCLE ( 'NONE', #402, 1.000000000000000000 ) ;
#189 = CARTESIAN_POINT ( 'NONE',  ( 0.000000000000000000, 0.000000000000000000, -8.000000000000000000 ) ) ;
#190 = DIRECTION ( 'NONE',  ( 1.000000000000000000, -0.000000000000000000, -0.000000000000000000 ) ) ;
#191 = ORIENTED_EDGE ( 'NONE', *, *, #51, .T. ) ;
#192 = B_SPLINE_CURVE_WITH_KNOTS ( 'NONE', 3,
 ( #327, #337, #333, #472, #418, #556, #467, #100, #421 ),
 .UNSPECIFIED., .F., .F.,
 ( 4, 2, 2, 1, 4 ),
 ( 0.3422467468838129023, 0.4244659035233363520, 0.5066850601628598572, 0.6711233734419064234, 1.000000000000000000 ),
 .UNSPECIFIED. ) ;
#193 = LINE ( 'NONE', #465, #278 ) ;
#194 = CARTESIAN_POINT ( 'NONE',  ( 0.8000000000000000444, 13.00000000000000000, -7.799999999999999822 ) ) ;
#195 = ORIENTED_EDGE ( 'NONE', *, *, #23, .T. ) ;
#196 = EDGE_CURVE ( 'NONE', #110, #245, #386, .T. ) ;
#197 = SURFACE_STYLE_FILL_AREA ( #152 ) ;
#198 = CARTESIAN_POINT ( 'NONE',  ( 0.2533333333333331883, 4.800000000000002487, 0.7999999999999986011 ) ) ;
#199 = VERTEX_POINT ( 'NONE', #568 ) ;
#200 = VECTOR ( 'NONE', #576, 1000.000000000000000 ) ;
#201 = DIRECTION ( 'NONE',  ( 0.000000000000000000, 0.000000000000000000, -1.000000000000000000 ) ) ;
#202 = DIRECTION ( 'NONE',  ( 0.000000000000000000, 1.000000000000000000, 0.000000000000000000 ) ) ;
#203 = ORIENTED_EDGE ( 'NONE', *, *, #455, .T. ) ;
#204 = CARTESIAN_POINT ( 'NONE',  ( 0.8000000000000000444, -0.8000000000000000444, -1.500000000000000000 ) ) ;
#205 = CARTESIAN_POINT ( 'NONE',  ( 0.000000000000000000, 7.360885252153885006, 0.8000000000000003775 ) ) ;
#206 = AXIS2_PLACEMENT_3D ( 'NONE', #127, #34, #409 ) ;
#207 = ORIENTED_EDGE ( 'NONE', *, *, #254, .T. ) ;
#208 = CARTESIAN_POINT ( 'NONE',  ( -0.000000000000000000, 5.683942977266444707, -8.772272142792999716 ) ) ;
#209 = CARTESIAN_POINT ( 'NONE',  ( 0.7999999999999999334, 3.030595041910717491, 0.3268729302983355289 ) ) ;
#210 = ADVANCED_FACE ( 'NONE', ( #349 ), #215, .F. ) ;
#211 = ORIENTED_EDGE ( 'NONE', *, *, #364, .T. ) ;
#212 = CARTESIAN_POINT ( 'NONE',  ( 0.7999999999999999334, 3.030595041910717491, 0.3268729302983355289 ) ) ;
#213 = CARTESIAN_POINT ( 'NONE',  ( 0.8000000000000000444, 0.000000000000000000, 0.000000000000000000 ) ) ;
#214 = CARTESIAN_POINT ( 'NONE',  ( 0.2666666666666662189, 3.030877444743830029, 0.3256506264909628245 ) ) ;
#215 = PLANE ( 'NONE',  #451 ) ;
#216 = DIRECTION ( 'NONE',  ( 0.000000000000000000, 0.000000000000000000, 1.000000000000000000 ) ) ;
#217 = ORIENTED_EDGE ( 'NONE', *, *, #359, .T. ) ;
#218 = EDGE_CURVE ( 'NONE', #322, #518, #523, .T. ) ;
#219 = CARTESIAN_POINT ( 'NONE',  ( 0.8000000000000000444, 0.000000000000000000, 0.000000000000000000 ) ) ;
#220 = DIRECTION ( 'NONE',  ( -1.000000000000000000, 0.000000000000000000, 0.000000000000000000 ) ) ;
#221 = APPLICATION_CONTEXT ( 'automotive_design' ) ;
#222 = CARTESIAN_POINT ( 'NONE',  ( 0.000000000000000000, 7.360885252155884295, -8.800000000000000711 ) ) ;
#223 = DIRECTION ( 'NONE',  ( 0.000000000000000000, 0.000000000000000000, -1.000000000000000000 ) ) ;
#224 =( GEOMETRIC_REPRESENTATION_CONTEXT ( 3 ) GLOBAL_UNCERTAINTY_ASSIGNED_CONTEXT ( ( #134 ) ) GLOBAL_UNIT_ASSIGNED_CONTEXT ( ( #240, #140, #57 ) ) REPRESENTATION_CONTEXT ( 'NONE', 'WORKASPACE' ) );
#225 = CARTESIAN_POINT ( 'NONE',  ( 0.5466666666666666341, 2.449026246833683196, -8.105842518997986801 ) ) ;
#226 = DIRECTION ( 'NONE',  ( 1.000000000000000000, 0.000000000000000000, 0.000000000000000000 ) ) ;
#227 = ORIENTED_EDGE ( 'NONE', *, *, #196, .T. ) ;
#228 = ADVANCED_FACE ( 'NONE', ( #539 ), #445, .T. ) ;
#229 = ORIENTED_EDGE ( 'NONE', *, *, #148, .F. ) ;
#230 = AXIS2_PLACEMENT_3D ( 'NONE', #464, #519, #247 ) ;
#231 = CARTESIAN_POINT ( 'NONE',  ( -0.03999999999999999389, 4.799999999999890576, -8.800000000000370193 ) ) ;
#232 = CARTESIAN_POINT ( 'NONE',  ( 0.5333333333333333259, 3.030877444743830917, 0.3256506264909628245 ) ) ;
#233 = CIRCLE ( 'NONE', #43, 0.9999999999999991118 ) ;
#234 = CARTESIAN_POINT ( 'NONE',  ( 0.2666666666666695495, 3.030877444746087335, -8.325650626491899686 ) ) ;
#235 = CARTESIAN_POINT ( 'NONE',  ( 0.8399999999999998579, 2.449026246833758691, 0.1058425189975394781 ) ) ;
#236 = EDGE_CURVE ( 'NONE', #444, #71, #399, .T. ) ;
#237 = FILL_AREA_STYLE_COLOUR ( '', #108 ) ;
#238 = CARTESIAN_POINT ( 'NONE',  ( 0.000000000000000000, 0.000000000000000000, -8.000000000000000000 ) ) ;
#239 = VERTEX_POINT ( 'NONE', #111 ) ;
#240 =( LENGTH_UNIT ( ) NAMED_UNIT ( * ) SI_UNIT ( .MILLI., .METRE. ) );
#241 = DIRECTION ( 'NONE',  ( 0.000000000000000000, 0.000000000000000000, -1.000000000000000000 ) ) ;
#242 = EDGE_CURVE ( 'NONE', #16, #131, #258, .T. ) ;
#243 = DIRECTION ( 'NONE',  ( -1.000000000000000000, -0.000000000000000000, -0.000000000000000000 ) ) ;
#244 = CARTESIAN_POINT ( 'NONE',  ( 0.8000000000000000444, 0.000000000000000000, -6.500000000000000888 ) ) ;
#245 = VERTEX_POINT ( 'NONE', #21 ) ;
#246 = B_SPLINE_CURVE_WITH_KNOTS ( 'NONE', 3,
 ( #284, #339, #93, #461, #282, #48 ),
 .UNSPECIFIED., .F., .F.,
 ( 4, 2, 4 ),
 ( 0.000000000000000000, 0.5000000000000000000, 1.000000000000000000 ),
 .UNSPECIFIED. ) ;
#247 = DIRECTION ( 'NONE',  ( 0.000000000000000000, 0.000000000000000000, -1.000000000000000000 ) ) ;
#248 = CARTESIAN_POINT ( 'NONE',  ( 0.8000000000000000444, -0.8000000000000000444, -1.500000000000000000 ) ) ;
#249 = ORIENTED_EDGE ( 'NONE', *, *, #570, .T. ) ;
#250 = VECTOR ( 'NONE', #475, 1000.000000000000000 ) ;
#251 = CARTESIAN_POINT ( 'NONE',  ( -6.503012966055418282E-17, 3.030597607489591283, -8.326873512001803590 ) ) ;
#252 = FACE_OUTER_BOUND ( 'NONE', #180, .T. ) ;
#253 = ORIENTED_EDGE ( 'NONE', *, *, #364, .F. ) ;
#254 = EDGE_CURVE ( 'NONE', #366, #589, #393, .T. ) ;
#255 = DIRECTION ( 'NONE',  ( 0.000000000000000000, 0.000000000000000000, 1.000000000000000000 ) ) ;
#256 = CARTESIAN_POINT ( 'NONE',  ( 0.000000000000000000, 6.411150658456014284, 0.8000000000000055955 ) ) ;
#257 = ORIENTED_EDGE ( 'NONE', *, *, #264, .T. ) ;
#258 = LINE ( 'NONE', #204, #562 ) ;
#259 = CARTESIAN_POINT ( 'NONE',  ( 0.7999999999999999334, 2.222781359551388558, 0.1745636778841836156 ) ) ;
#260 = EDGE_LOOP ( 'NONE', ( #106, #548, #546, #104 ) ) ;
#261 = CARTESIAN_POINT ( 'NONE',  ( 0.000000000000000000, 7.360885252155884295, -8.800000000000000711 ) ) ;
#262 = CARTESIAN_POINT ( 'NONE',  ( 0.8000000000000001554, 2.222898567821181004, -8.174581469334508910 ) ) ;
#263 = EDGE_LOOP ( 'NONE', ( #473, #88, #477, #304 ) ) ;
#264 = EDGE_CURVE ( 'NONE', #110, #366, #14, .T. ) ;
#265 = FACE_OUTER_BOUND ( 'NONE', #147, .T. ) ;
#266 = CARTESIAN_POINT ( 'NONE',  ( 0.7999999999999998224, 1.582366960333629669, 0.09081536203257171980 ) ) ;
#267 = AXIS2_PLACEMENT_3D ( 'NONE', #569, #220, #573 ) ;
#268 = CARTESIAN_POINT ( 'NONE',  ( 0.8000000000000000444, 0.000000000000000000, -1.500000000000000000 ) ) ;
#269 = DIRECTION ( 'NONE',  ( 0.000000000000000000, 0.000000000000000000, 1.000000000000000000 ) ) ;
#270 = CARTESIAN_POINT ( 'NONE',  ( 0.2533333333333467885, 7.360885252170006332, 0.8000000000000055955 ) ) ;
#271 = ADVANCED_FACE ( 'NONE', ( #265 ), #306, .F. ) ;
#272 = FACE_OUTER_BOUND ( 'NONE', #263, .T. ) ;
#273 = ORIENTED_EDGE ( 'NONE', *, *, #170, .F. ) ;
#274 = DIRECTION ( 'NONE',  ( -1.000000000000000000, -0.000000000000000000, -0.000000000000000000 ) ) ;
#275 = VERTEX_POINT ( 'NONE', #219 ) ;
#276 = CARTESIAN_POINT ( 'NONE',  ( 0.5466666666666668561, 3.030877444739011217, 0.3256506264898923475 ) ) ;
#277 = CARTESIAN_POINT ( 'NONE',  ( 0.7999999999999999334, 3.030595041910717935, 0.3268729302983355289 ) ) ;
#278 = VECTOR ( 'NONE', #243, 1000.000000000000000 ) ;
#279 = EDGE_CURVE ( 'NONE', #239, #554, #502, .T. ) ;
#280 = APPLICATION_CONTEXT ( 'automotive_design' ) ;
#281 = VERTEX_POINT ( 'NONE', #485 ) ;
#282 = CARTESIAN_POINT ( 'NONE',  ( 0.8000000000000000444, 6.411150658462282159, -8.799999999999995381 ) ) ;
#283 = CARTESIAN_POINT ( 'NONE',  ( 0.5333333333333333259, -1.810617628050792405E-14, -8.000000000000419220 ) ) ;
#284 = CARTESIAN_POINT ( 'NONE',  ( 0.7999999999999999334, 3.030595256301548357, -8.326871961510313724 ) ) ;
#285 = PRODUCT_CONTEXT ( 'NONE', #221, 'mechanical' ) ;
#286 = EDGE_CURVE ( 'NONE', #154, #131, #29, .T. ) ;
#287 = CARTESIAN_POINT ( 'NONE',  ( 0.7999999999999999334, 3.030595041910717491, 0.3268729302983355289 ) ) ;
#288 = LINE ( 'NONE', #153, #298 ) ;
#289 = VECTOR ( 'NONE', #394, 1000.000000000000000 ) ;
#290 = CARTESIAN_POINT ( 'NONE',  ( -0.03999999999999999389, 4.800000000000002487, 0.7999999999999986011 ) ) ;
#291 = ORIENTED_EDGE ( 'NONE', *, *, #424, .T. ) ;
#292 = FACE_OUTER_BOUND ( 'NONE', #435, .T. ) ;
#293 = CARTESIAN_POINT ( 'NONE',  ( 0.8399999999999999689, -1.084202172485504434E-16, 0.000000000000000000 ) ) ;
#294 = ORIENTED_EDGE ( 'NONE', *, *, #279, .T. ) ;
#295 = DIRECTION ( 'NONE',  ( 0.000000000000000000, 0.000000000000000000, -1.000000000000000000 ) ) ;
#296 = CARTESIAN_POINT ( 'NONE',  ( 0.5333333333333333259, 0.000000000000000000, 0.000000000000000000 ) ) ;
#297 = ORIENTED_EDGE ( 'NONE', *, *, #51, .F. ) ;
#298 = VECTOR ( 'NONE', #1, 1000.000000000000000 ) ;
#299 = CARTESIAN_POINT ( 'NONE',  ( 0.000000000000000000, 3.958086737956372669, -8.531268536775671762 ) ) ;
#300 = CARTESIAN_POINT ( 'NONE',  ( 0.8000000000000000444, 13.00000000000000000, -0.1999999999999996503 ) ) ;
#301 = VERTEX_POINT ( 'NONE', #268 ) ;
#302 = DIRECTION ( 'NONE',  ( -1.000000000000000000, -0.000000000000000000, -0.000000000000000000 ) ) ;
#303 = CARTESIAN_POINT ( 'NONE',  ( 0.8000000000000003775, 2.597866555070654115, -8.237693655220274636 ) ) ;
#304 = ORIENTED_EDGE ( 'NONE', *, *, #32, .F. ) ;
#305 = B_SPLINE_CURVE_WITH_KNOTS ( 'NONE', 3,
 ( #209, #22, #167, #346, #524, #259, #266, #387, #528 ),
 .UNSPECIFIED., .F., .F.,
 ( 4, 2, 2, 1, 4 ),
 ( 0.3422473537420451795, 0.4244664345242896708, 0.5066855153065341621, 0.6711236768710228118, 1.000000000000000000 ),
 .UNSPECIFIED. ) ;
#306 = PLANE ( 'NONE',  #179 ) ;
#307 = EDGE_CURVE ( 'NONE', #518, #199, #188, .T. ) ;
#308 = CARTESIAN_POINT ( 'NONE',  ( 0.8000000000000000444, 12.00000000000000000, -7.799999999999999822 ) ) ;
#309 = ORIENTED_EDGE ( 'NONE', *, *, #176, .F. ) ;
#310 = CIRCLE ( 'NONE', #590, 1.000000000000000000 ) ;
#311 = DIRECTION ( 'NONE',  ( -1.000000000000000000, -0.000000000000000000, -0.000000000000000000 ) ) ;
#312 = CARTESIAN_POINT ( 'NONE',  ( 0.000000000000000000, 3.957486531214221337, 0.5311354349408665687 ) ) ;
#313 = ORIENTED_EDGE ( 'NONE', *, *, #550, .F. ) ;
#314 = DIRECTION ( 'NONE',  ( 1.000000000000000000, 0.000000000000000000, 0.000000000000000000 ) ) ;
#315 = CARTESIAN_POINT ( 'NONE',  ( 0.8400000000000000799, 5.169899024840814761, 0.8000000000000402345 ) ) ;
#316 = VECTOR ( 'NONE', #453, 1000.000000000000000 ) ;
#317 = CARTESIAN_POINT ( 'NONE',  ( 0.8000000000000000444, 0.000000000000000000, -8.000000000000000000 ) ) ;
#318 = ADVANCED_FACE ( 'NONE', ( #122 ), #492, .F. ) ;
#319 = CARTESIAN_POINT ( 'NONE',  ( -0.03999999999999999389, -1.810617628050792405E-14, -8.000000000000419220 ) ) ;
#320 = CARTESIAN_POINT ( 'NONE',  ( 0.8400000000000000799, 7.360885252151717850, 0.8000000000000090372 ) ) ;
#321 = CARTESIAN_POINT ( 'NONE',  ( 0.8000000000000000444, -0.8000000000000000444, -1.500000000000000000 ) ) ;
#322 = VERTEX_POINT ( 'NONE', #194 ) ;
#323 = ADVANCED_FACE ( 'NONE', ( #44 ), #46, .T. ) ;
#324 = ORIENTED_EDGE ( 'NONE', *, *, #570, .F. ) ;
#325 = ORIENTED_EDGE ( 'NONE', *, *, #438, .F. ) ;
#326 = ORIENTED_EDGE ( 'NONE', *, *, #170, .T. ) ;
#327 = CARTESIAN_POINT ( 'NONE',  ( -6.503012966055418282E-17, 3.030597607489591283, -8.326873512001803590 ) ) ;
#328 = AXIS2_PLACEMENT_3D ( 'NONE', #213, #157, #390 ) ;
#329 = CARTESIAN_POINT ( 'NONE',  ( 0.8000000000000000444, 4.800000000000000711, 0.8000000000000003775 ) ) ;
#330 = DIRECTION ( 'NONE',  ( 0.000000000000000000, 1.000000000000000000, 0.000000000000000000 ) ) ;
#331 = EDGE_CURVE ( 'NONE', #391, #505, #443, .T. ) ;
#332 = PRESENTATION_STYLE_ASSIGNMENT (( #97 ) ) ;
#333 = CARTESIAN_POINT ( 'NONE',  ( 0.000000000000000000, 2.804743911490039210, -8.278679616609631253 ) ) ;
#334 = VECTOR ( 'NONE', #594, 1000.000000000000000 ) ;
#335 = ORIENTED_EDGE ( 'NONE', *, *, #481, .T. ) ;
#336 = LINE ( 'NONE', #329, #31 ) ;
#337 = CARTESIAN_POINT ( 'NONE',  ( -0.000000000000000000, 2.914433628207547144, -8.301986332120726786 ) ) ;
#338 = ORIENTED_EDGE ( 'NONE', *, *, #348, .F. ) ;
#339 = CARTESIAN_POINT ( 'NONE',  ( 0.7999999999999999334, 3.957486531216681591, -8.531135434941615969 ) ) ;
#340 = EDGE_CURVE ( 'NONE', #16, #110, #55, .T. ) ;
#341 = ORIENTED_EDGE ( 'NONE', *, *, #279, .F. ) ;
#342 = CARTESIAN_POINT ( 'NONE',  ( 0.8000000000000000444, 4.800000000000000711, -8.800000000000000711 ) ) ;
#343 = LINE ( 'NONE', #520, #250 ) ;
#344 = ORIENTED_EDGE ( 'NONE', *, *, #138, .F. ) ;
#345 = CARTESIAN_POINT ( 'NONE',  ( -0.000000000000000000, 2.502472446649500970, 0.2203120575178679763 ) ) ;
#346 = CARTESIAN_POINT ( 'NONE',  ( 0.7999999999999999334, 2.597767980894785556, 0.2376762417833726548 ) ) ;
#347 = ORIENTED_EDGE ( 'NONE', *, *, #307, .F. ) ;
#348 = EDGE_CURVE ( 'NONE', #239, #6, #515, .T. ) ;
#349 = FACE_OUTER_BOUND ( 'NONE', #92, .T. ) ;
#350 = CYLINDRICAL_SURFACE ( 'NONE', #267, 1.000000000000000000 ) ;
#351 = ORIENTED_EDGE ( 'NONE', *, *, #32, .T. ) ;
#352 = CARTESIAN_POINT ( 'NONE',  ( 0.8000000000000000444, 12.00000000000000000, -8.800000000000000711 ) ) ;
#353 = FACE_OUTER_BOUND ( 'NONE', #564, .T. ) ;
#354 = CARTESIAN_POINT ( 'NONE',  ( 0.000000000000000000, 0.000000000000000000, 0.000000000000000000 ) ) ;
#355 = AXIS2_PLACEMENT_3D ( 'NONE', #248, #5, #511 ) ;
#356 = CARTESIAN_POINT ( 'NONE',  ( 0.5466666666666932795, 7.360885252148950286, -8.799999999999995381 ) ) ;
#357 = CARTESIAN_POINT ( 'NONE',  ( 0.2666666666666742125, 7.360885252153892111, -8.800000000000000711 ) ) ;
#358 = CARTESIAN_POINT ( 'NONE',  ( 0.5466666666666674113, 5.169899024822496969, 0.7999999999504271431 ) ) ;
#359 = EDGE_CURVE ( 'NONE', #322, #591, #288, .T. ) ;
#360 = PLANE ( 'NONE',  #206 ) ;
#361 = VECTOR ( 'NONE', #471, 1000.000000000000000 ) ;
#362 = ORIENTED_EDGE ( 'NONE', *, *, #236, .F. ) ;
#363 = ORIENTED_EDGE ( 'NONE', *, *, #513, .F. ) ;
#364 = EDGE_CURVE ( 'NONE', #182, #428, #192, .T. ) ;
#365 = APPLICATION_PROTOCOL_DEFINITION ( 'draft international standard', 'automotive_design', 1998, #221 ) ;
#366 = VERTEX_POINT ( 'NONE', #244 ) ;
#367 = ORIENTED_EDGE ( 'NONE', *, *, #264, .F. ) ;
#368 = CARTESIAN_POINT ( 'NONE',  ( 0.000000000000000000, -0.8000000000000000444, -1.500000000000000000 ) ) ;
#369 = LINE ( 'NONE', #352, #74 ) ;
#370 = CARTESIAN_POINT ( 'NONE',  ( 0.8000000000000000444, 0.000000000000000000, 0.000000000000000000 ) ) ;
#371 = VECTOR ( 'NONE', #165, 1000.000000000000000 ) ;
#372 = CARTESIAN_POINT ( 'NONE',  ( 0.8000000000000000444, 0.000000000000000000, -1.500000000000000000 ) ) ;
#373 = CARTESIAN_POINT ( 'NONE',  ( 0.000000000000000000, 0.000000000000000000, 0.000000000000000000 ) ) ;
#374 = ADVANCED_FACE ( 'NONE', ( #517 ), #53, .F. ) ;
#375 = FACE_OUTER_BOUND ( 'NONE', #503, .T. ) ;
#376 = CARTESIAN_POINT ( 'NONE',  ( 0.5466666666666666341, -1.084202172485504434E-16, 0.000000000000000000 ) ) ;
#377 = EDGE_LOOP ( 'NONE', ( #249, #419, #367, #227 ) ) ;
#378 = DIRECTION ( 'NONE',  ( 0.000000000000000000, 0.000000000000000000, -1.000000000000000000 ) ) ;
#379 = CARTESIAN_POINT ( 'NONE',  ( 0.000000000000000000, 7.360885252153885006, 0.8000000000000003775 ) ) ;
#380 = VECTOR ( 'NONE', #330, 1000.000000000000000 ) ;
#381 = ORIENTED_EDGE ( 'NONE', *, *, #592, .T. ) ;
#382 = EDGE_CURVE ( 'NONE', #275, #301, #566, .T. ) ;
#383 = CARTESIAN_POINT ( 'NONE',  ( -6.541675134731314586E-17, 3.030595256303063589, 0.3268719615102163578 ) ) ;
#384 = CARTESIAN_POINT ( 'NONE',  ( 0.8000000000000000444, 4.800000000000000711, 0.8000000000000003775 ) ) ;
#385 = ORIENTED_EDGE ( 'NONE', *, *, #148, .T. ) ;
#386 = LINE ( 'NONE', #441, #99 ) ;
#387 = CARTESIAN_POINT ( 'NONE',  ( 0.8000000000000001554, 0.6980006319192237907, 0.03016633457469834745 ) ) ;
#388 = ORIENTED_EDGE ( 'NONE', *, *, #469, .F. ) ;
#389 = CARTESIAN_POINT ( 'NONE',  ( 0.8400000000000000799, 3.030877444743736326, -8.325650626491379214 ) ) ;
#390 = DIRECTION ( 'NONE',  ( 0.000000000000000000, -0.000000000000000000, 1.000000000000000000 ) ) ;
#391 = VERTEX_POINT ( 'NONE', #553 ) ;
#392 = STYLED_ITEM ( 'NONE', ( #332 ), #126 ) ;
#393 = LINE ( 'NONE', #76, #538 ) ;
#394 = DIRECTION ( 'NONE',  ( -0.000000000000000000, -0.000000000000000000, 1.000000000000000000 ) ) ;
#395 = ORIENTED_EDGE ( 'NONE', *, *, #495, .T. ) ;
#396 = CARTESIAN_POINT ( 'NONE',  ( -0.04000000000000000083, 3.030877444743750981, -8.325650626491380990 ) ) ;
#397 = CARTESIAN_POINT ( 'NONE',  ( 0.8000000000000000444, 7.360885252150151103, 0.8000000000000003775 ) ) ;
#398 = ORIENTED_EDGE ( 'NONE', *, *, #186, .T. ) ;
#399 = B_SPLINE_CURVE_WITH_KNOTS ( 'NONE', 3,
 ( #159, #27, #65, #68, #345, #166, #118, #429, #527 ),
 .UNSPECIFIED., .F., .F.,
 ( 4, 1, 2, 2, 4 ),
 ( 0.000000000000000000, 0.3288546784035845105, 0.4932820176053765437, 0.5754956872062724216, 0.6577093568071682439 ),
 .UNSPECIFIED. ) ;
#400 = DIRECTION ( 'NONE',  ( 1.000000000000000000, -0.000000000000000000, -0.000000000000000000 ) ) ;
#401 = CARTESIAN_POINT ( 'NONE',  ( -0.000000000000000000, 5.683836686421824602, 0.7723278122016395963 ) ) ;
#402 = AXIS2_PLACEMENT_3D ( 'NONE', #449, #314, #403 ) ;
#403 = DIRECTION ( 'NONE',  ( 0.000000000000000000, 0.000000000000000000, -1.000000000000000000 ) ) ;
#404 =( BOUNDED_CURVE ( )  B_SPLINE_CURVE ( 3, ( #277, #232, #214, #456 ),
 .UNSPECIFIED., .F., .F. ) 
 B_SPLINE_CURVE_WITH_KNOTS ( ( 4, 4 ),
 ( 0.000000000000000000, 1.000000000000000000 ),
 .UNSPECIFIED. ) 
 CURVE ( )  GEOMETRIC_REPRESENTATION_ITEM ( )  RATIONAL_B_SPLINE_CURVE ( ( 1.377448841562239235, 1.377448841562239235, 1.377448841562239235, 1.377448841562239235 ) ) 
 REPRESENTATION_ITEM ( '' )  );
#405 = CARTESIAN_POINT ( 'NONE',  ( 0.7999999999999999334, 3.030595256301548357, -8.326871961510313724 ) ) ;
#406 = ORIENTED_EDGE ( 'NONE', *, *, #87, .T. ) ;
#407 = EDGE_CURVE ( 'NONE', #554, #281, #58, .T. ) ;
#408 = AXIS2_PLACEMENT_3D ( 'NONE', #185, #415, #201 ) ;
#409 = DIRECTION ( 'NONE',  ( 0.000000000000000000, -1.000000000000000000, 2.168404344971008868E-15 ) ) ;
#410 = EDGE_LOOP ( 'NONE', ( #56, #335, #41, #431 ) ) ;
#411 = EDGE_LOOP ( 'NONE', ( #84, #351, #362, #549 ) ) ;
#412 = LINE ( 'NONE', #354, #334 ) ;
#413 = CARTESIAN_POINT ( 'NONE',  ( 0.8000000000000000444, -0.8000000000000000444, -6.499999999999999112 ) ) ;
#414 = CARTESIAN_POINT ( 'NONE',  ( 0.2666666666666659968, 7.360885252152639779, 0.8000000000000003775 ) ) ;
#415 = DIRECTION ( 'NONE',  ( 1.000000000000000000, 0.000000000000000000, 0.000000000000000000 ) ) ;
#416 = LINE ( 'NONE', #3, #504 ) ;
#417 = CARTESIAN_POINT ( 'NONE',  ( 0.8000000000000000444, 4.674141703103020795, 0.6617164220849302003 ) ) ;
#418 = CARTESIAN_POINT ( 'NONE',  ( 0.000000000000000000, 2.502331462749621593, -8.220287991491966650 ) ) ;
#419 = ORIENTED_EDGE ( 'NONE', *, *, #23, .F. ) ;
#420 = CARTESIAN_POINT ( 'NONE',  ( 0.8000000000000000444, 3.958086737957200896, 0.5312685367705044515 ) ) ;
#421 = CARTESIAN_POINT ( 'NONE',  ( 0.000000000000000000, 0.000000000000000000, -8.000000000000000000 ) ) ;
#422 = ORIENTED_EDGE ( 'NONE', *, *, #37, .F. ) ;
#423 = ADVANCED_BREP_SHAPE_REPRESENTATION ( 'EncoderBoard2', ( #126, #141 ), #432 ) ;
#424 = EDGE_CURVE ( 'NONE', #490, #239, #246, .T. ) ;
#425 = DIRECTION ( 'NONE',  ( -1.000000000000000000, -0.000000000000000000, -0.000000000000000000 ) ) ;
#426 = CARTESIAN_POINT ( 'NONE',  ( 0.000000000000000000, 4.800000000000000711, -8.800000000000000711 ) ) ;
#427 = PRESENTATION_LAYER_ASSIGNMENT (  '', '', ( #392 ) ) ;
#428 = VERTEX_POINT ( 'NONE', #238 ) ;
#429 = CARTESIAN_POINT ( 'NONE',  ( -0.000000000000000000, 2.914458006513064969, 0.3019897630944357036 ) ) ;
#430 = DIRECTION ( 'NONE',  ( 0.000000000000000000, 0.000000000000000000, -1.000000000000000000 ) ) ;
#431 = ORIENTED_EDGE ( 'NONE', *, *, #331, .T. ) ;
#433 = CARTESIAN_POINT ( 'NONE',  ( 0.5466666666666412100, 3.030877444743251381, -8.325650626491272632 ) ) ;
#432 =( GEOMETRIC_REPRESENTATION_CONTEXT ( 3 ) GLOBAL_UNCERTAINTY_ASSIGNED_CONTEXT ( ( #506 ) ) GLOBAL_UNIT_ASSIGNED_CONTEXT ( ( #498, #593, #494 ) ) REPRESENTATION_CONTEXT ( 'NONE', 'WORKASPACE' ) );
#434 = CARTESIAN_POINT ( 'NONE',  ( 0.8000000000000001554, 1.582435490083990759, -8.090821959742632075 ) ) ;
#435 = EDGE_LOOP ( 'NONE', ( #480, #560, #499, #470, #395, #567, #529, #59, #257, #207, #460, #291, #67, #381 ) ) ;
#436 = CARTESIAN_POINT ( 'NONE',  ( -0.000000000000000000, 4.674141703102500323, -8.661716422092645473 ) ) ;
#437 = DIRECTION ( 'NONE',  ( -0.000000000000000000, 1.000000000000000000, 0.000000000000000000 ) ) ;
#438 = EDGE_CURVE ( 'NONE', #13, #518, #416, .T. ) ;
#439 = EDGE_LOOP ( 'NONE', ( #161, #309, #133, #551 ) ) ;
#440 = AXIS2_PLACEMENT_3D ( 'NONE', #372, #510, #565 ) ;
#441 = CARTESIAN_POINT ( 'NONE',  ( 0.8000000000000000444, -0.8000000000000000444, -6.499999999999999112 ) ) ;
#442 = CARTESIAN_POINT ( 'NONE',  ( -0.000000000000000000, 4.674049985680820640, 0.6616390610081768209 ) ) ;
#443 = B_SPLINE_CURVE_WITH_KNOTS ( 'NONE', 3,
 ( #379, #414, #145, #559 ),
 .UNSPECIFIED., .F., .F.,
 ( 4, 4 ),
 ( 0.000000000000000000, 1.000000000000000000 ),
 .UNSPECIFIED. ) ;
#444 = VERTEX_POINT ( 'NONE', #373 ) ;
#445 =( BOUNDED_SURFACE ( )  B_SPLINE_SURFACE ( 2, 3, ( 
 ( #396, #107, #433, #389 ),
 ( #583, #478, #572, #169 ),
 ( #534, #580, #356, #163 ) ),
 .UNSPECIFIED., .F., .F., .F. ) 
 B_SPLINE_SURFACE_WITH_KNOTS ( ( 3, 3 ),
 ( 4, 4 ),
 ( 0.000000000000000000, 1.000000000000000000 ),
 ( -0.0004400000000000165497, 0.0004400000000000246813 ),
 .UNSPECIFIED. ) 
 GEOMETRIC_REPRESENTATION_ITEM ( )  RATIONAL_B_SPLINE_SURFACE ( (
 ( 1.000000000000000000, 1.000000000000000000, 1.000000000000000000, 1.000000000000000000),
 ( 1.857142857142854542, 1.857142857142854542, 1.857142857142854542, 1.857142857142854542),
 ( 1.000000000000000000, 1.000000000000000000, 1.000000000000000000, 1.000000000000000000) ) ) 
 REPRESENTATION_ITEM ( '' )  SURFACE ( )  );
#446 = CARTESIAN_POINT ( 'NONE',  ( 0.8000000000000000444, 13.00000000000000000, 0.8000000000000003775 ) ) ;
#447 = PLANE ( 'NONE',  #135 ) ;
#448 = ADVANCED_FACE ( 'NONE', ( #119 ), #447, .F. ) ;
#449 = CARTESIAN_POINT ( 'NONE',  ( 0.8000000000000000444, 12.00000000000000000, -0.1999999999999996503 ) ) ;
#450 = DIRECTION ( 'NONE',  ( 1.000000000000000000, 0.000000000000000000, 0.000000000000000000 ) ) ;
#451 = AXIS2_PLACEMENT_3D ( 'NONE', #342, #255, #18 ) ;
#452 = CARTESIAN_POINT ( 'NONE',  ( -0.04000000000000000777, 5.169899024840795221, 0.8000000000000351275 ) ) ;
#453 = DIRECTION ( 'NONE',  ( 0.000000000000000000, 1.000000000000000000, -2.168404344971008868E-15 ) ) ;
#454 = ORIENTED_EDGE ( 'NONE', *, *, #129, .T. ) ;
#455 = EDGE_CURVE ( 'NONE', #71, #391, #488, .T. ) ;
#456 = CARTESIAN_POINT ( 'NONE',  ( -6.541675134731314586E-17, 3.030595256303063589, 0.3268719615102163578 ) ) ;
#457 = CIRCLE ( 'NONE', #230, 0.9999999999999991118 ) ;
#458 = CARTESIAN_POINT ( 'NONE',  ( 0.8399999999999999689, 4.799999999999890576, -8.800000000000370193 ) ) ;
#459 = CARTESIAN_POINT ( 'NONE',  ( 0.8000000000000000444, 0.000000000000000000, -6.500000000000000888 ) ) ;
#460 = ORIENTED_EDGE ( 'NONE', *, *, #550, .T. ) ;
#461 = CARTESIAN_POINT ( 'NONE',  ( 0.8000000000000000444, 5.683836686428516138, -8.772327812201421438 ) ) ;
#462 = PRODUCT_DEFINITION_FORMATION_WITH_SPECIFIED_SOURCE ( 'ANY', '', #143, .NOT_KNOWN. ) ;
#463 = APPLICATION_PROTOCOL_DEFINITION ( 'draft international standard', 'automotive_design', 1998, #280 ) ;
#464 = CARTESIAN_POINT ( 'NONE',  ( 0.000000000000000000, 12.00000000000000000, -7.799999999999999822 ) ) ;
#465 = CARTESIAN_POINT ( 'NONE',  ( 0.8000000000000000444, 0.000000000000000000, -1.500000000000000000 ) ) ;
#466 = AXIS2_PLACEMENT_3D ( 'NONE', #384, #241, #187 ) ;
#467 = CARTESIAN_POINT ( 'NONE',  ( -0.000000000000000000, 1.582368270212259009, -8.090815460029396888 ) ) ;
#468 = CARTESIAN_POINT ( 'NONE',  ( 0.5466666666666666341, 4.800000000000002487, 0.7999999999999986011 ) ) ;
#469 = EDGE_CURVE ( 'NONE', #591, #13, #28, .T. ) ;
#470 = ORIENTED_EDGE ( 'NONE', *, *, #60, .T. ) ;
#471 = DIRECTION ( 'NONE',  ( 0.000000000000000000, -1.000000000000000000, 0.000000000000000000 ) ) ;
#472 = CARTESIAN_POINT ( 'NONE',  ( -0.000000000000000000, 2.597769810366400201, -8.237676583852884704 ) ) ;
#473 = ORIENTED_EDGE ( 'NONE', *, *, #60, .F. ) ;
#474 = DIRECTION ( 'NONE',  ( 0.000000000000000000, -1.000000000000000000, 0.000000000000000000 ) ) ;
#475 = DIRECTION ( 'NONE',  ( -1.000000000000000000, 0.000000000000000000, 0.000000000000000000 ) ) ;
#476 = CLOSED_SHELL ( 'NONE', ( #526, #81, #318, #587, #448, #210, #271, #374, #162, #535, #323, #579, #557, #228, #507, #544 ) ) ;
#477 = ORIENTED_EDGE ( 'NONE', *, *, #455, .F. ) ;
#478 = CARTESIAN_POINT ( 'NONE',  ( 0.2533333333332368764, 5.169899024896024819, -8.800000000060503424 ) ) ;
#479 = PLANE ( 'NONE',  #530 ) ;
#480 = ORIENTED_EDGE ( 'NONE', *, *, #218, .T. ) ;
#481 = EDGE_CURVE ( 'NONE', #199, #45, #343, .T. ) ;
#482 = CARTESIAN_POINT ( 'NONE',  ( -6.503012966055418282E-17, 3.030597607489591283, -8.326873512001803590 ) ) ;
#483 = CARTESIAN_POINT ( 'NONE',  ( 0.8000000000000000444, 2.804793369195259789, -8.278688154308564862 ) ) ;
#484 = ORIENTED_EDGE ( 'NONE', *, *, #407, .F. ) ;
#485 = CARTESIAN_POINT ( 'NONE',  ( 0.000000000000000000, 12.00000000000000000, -8.800000000000000711 ) ) ;
#486 = FACE_OUTER_BOUND ( 'NONE', #260, .T. ) ;
#487 = EDGE_LOOP ( 'NONE', ( #454, #273, #582, #195 ) ) ;
#488 = B_SPLINE_CURVE_WITH_KNOTS ( 'NONE', 3,
 ( #164, #312, #442, #401, #256, #205 ),
 .UNSPECIFIED., .F., .F.,
 ( 4, 2, 4 ),
 ( 0.000000000000000000, 0.5000000000000000000, 1.000000000000000000 ),
 .UNSPECIFIED. ) ;
#489 = CARTESIAN_POINT ( 'NONE',  ( 0.000000000000000000, 0.000000000000000000, 0.000000000000000000 ) ) ;
#490 = VERTEX_POINT ( 'NONE', #63 ) ;
#491 = EDGE_CURVE ( 'NONE', #275, #444, #575, .T. ) ;
#492 = PLANE ( 'NONE',  #355 ) ;
#493 = VECTOR ( 'NONE', #115, 1000.000000000000000 ) ;
#494 =( NAMED_UNIT ( * ) SI_UNIT ( $, .STERADIAN. ) SOLID_ANGLE_UNIT ( ) );
#495 = EDGE_CURVE ( 'NONE', #178, #275, #305, .T. ) ;
#496 = CARTESIAN_POINT ( 'NONE',  ( 0.8000000000000000444, 12.00000000000000000, -7.799999999999999822 ) ) ;
#497 = CARTESIAN_POINT ( 'NONE',  ( 0.2533333333333434023, 5.169899024866237092, 0.8000000000198803640 ) ) ;
#498 =( LENGTH_UNIT ( ) NAMED_UNIT ( * ) SI_UNIT ( .MILLI., .METRE. ) );
#499 = ORIENTED_EDGE ( 'NONE', *, *, #69, .T. ) ;
#500 = CARTESIAN_POINT ( 'NONE',  ( 0.000000000000000000, 7.360885252155884295, -8.800000000000000711 ) ) ;
#501 = CARTESIAN_POINT ( 'NONE',  ( 0.000000000000000000, 0.000000000000000000, -6.500000000000000888 ) ) ;
#502 = B_SPLINE_CURVE_WITH_KNOTS ( 'NONE', 3,
 ( #72, #79, #357, #222 ),
 .UNSPECIFIED., .F., .F.,
 ( 4, 4 ),
 ( 0.000000000000000000, 1.000000000000000000 ),
 .UNSPECIFIED. ) ;
#503 = EDGE_LOOP ( 'NONE', ( #158, #525, #571, #139 ) ) ;
#504 = VECTOR ( 'NONE', #190, 1000.000000000000000 ) ;
#505 = VERTEX_POINT ( 'NONE', #397 ) ;
#506 = UNCERTAINTY_MEASURE_WITH_UNIT (LENGTH_MEASURE( 1.000000000000000082E-05 ), #498, 'distance_accuracy_value', 'NONE');
#507 = ADVANCED_FACE ( 'NONE', ( #353 ), #350, .T. ) ;
#508 = CARTESIAN_POINT ( 'NONE',  ( 0.000000000000000000, -0.8000000000000000444, -1.500000000000000000 ) ) ;
#509 = CARTESIAN_POINT ( 'NONE',  ( 0.8399999999999999689, 4.800000000000002487, 0.7999999999999986011 ) ) ;
#510 = DIRECTION ( 'NONE',  ( 0.000000000000000000, 0.000000000000000000, -1.000000000000000000 ) ) ;
#511 = DIRECTION ( 'NONE',  ( 0.000000000000000000, -0.000000000000000000, 1.000000000000000000 ) ) ;
#512 = ORIENTED_EDGE ( 'NONE', *, *, #242, .T. ) ;
#513 = EDGE_CURVE ( 'NONE', #45, #391, #25, .T. ) ;
#514 = MECHANICAL_DESIGN_GEOMETRIC_PRESENTATION_REPRESENTATION (  '', ( #392 ), #224 ) ;
#515 = LINE ( 'NONE', #12, #380 ) ;
#516 = ORIENTED_EDGE ( 'NONE', *, *, #407, .T. ) ;
#517 = FACE_OUTER_BOUND ( 'NONE', #410, .T. ) ;
#518 = VERTEX_POINT ( 'NONE', #300 ) ;
#519 = DIRECTION ( 'NONE',  ( -1.000000000000000000, -0.000000000000000000, -0.000000000000000000 ) ) ;
#520 = CARTESIAN_POINT ( 'NONE',  ( 0.8000000000000000444, 12.00000000000000000, 0.8000000000000003775 ) ) ;
#521 = ORIENTED_EDGE ( 'NONE', *, *, #218, .F. ) ;
#522 =( BOUNDED_CURVE ( )  B_SPLINE_CURVE ( 3, ( #561, #234, #149, #102 ),
 .UNSPECIFIED., .F., .F. ) 
 B_SPLINE_CURVE_WITH_KNOTS ( ( 4, 4 ),
 ( 0.000000000000000000, 1.000000000000000000 ),
 .UNSPECIFIED. ) 
 CURVE ( )  GEOMETRIC_REPRESENTATION_ITEM ( )  RATIONAL_B_SPLINE_CURVE ( ( 1.377448841561866422, 1.377448841561866422, 1.377448841561866422, 1.377448841561866200 ) ) 
 REPRESENTATION_ITEM ( '' )  );
#523 = LINE ( 'NONE', #155, #200 ) ;
#524 = CARTESIAN_POINT ( 'NONE',  ( 0.8000000000000001554, 2.502329904294161356, 0.2202877172089460212 ) ) ;
#525 = ORIENTED_EDGE ( 'NONE', *, *, #242, .F. ) ;
#526 = ADVANCED_FACE ( 'NONE', ( #486 ), #109, .F. ) ;
#527 = CARTESIAN_POINT ( 'NONE',  ( -6.541675134731314586E-17, 3.030595256303063589, 0.3268719615102163578 ) ) ;
#528 = CARTESIAN_POINT ( 'NONE',  ( 0.8000000000000000444, 0.000000000000000000, 0.000000000000000000 ) ) ;
#529 = ORIENTED_EDGE ( 'NONE', *, *, #123, .T. ) ;
#531 = CARTESIAN_POINT ( 'NONE',  ( 0.8000000000000000444, -0.8000000000000000444, -6.499999999999999112 ) ) ;
#530 = AXIS2_PLACEMENT_3D ( 'NONE', #489, #77, #430 ) ;
#532 = CARTESIAN_POINT ( 'NONE',  ( 0.000000000000000000, 0.000000000000000000, 0.000000000000000000 ) ) ;
#533 = CARTESIAN_POINT ( 'NONE',  ( 0.8000000000000000444, 7.360885252150151103, 0.8000000000000003775 ) ) ;
#534 = CARTESIAN_POINT ( 'NONE',  ( -0.03999999999999999389, 7.360885252149754976, -8.800000000000014921 ) ) ;
#535 = ADVANCED_FACE ( 'NONE', ( #252 ), #479, .F. ) ;
#536 = CARTESIAN_POINT ( 'NONE',  ( 0.2666666666666666630, 0.000000000000000000, 0.000000000000000000 ) ) ;
#537 = ORIENTED_EDGE ( 'NONE', *, *, #129, .F. ) ;
#538 = VECTOR ( 'NONE', #295, 1000.000000000000000 ) ;
#539 = FACE_OUTER_BOUND ( 'NONE', #64, .T. ) ;
#540 = CARTESIAN_POINT ( 'NONE',  ( 0.000000000000000000, 0.000000000000000000, 0.000000000000000000 ) ) ;
#541 = CARTESIAN_POINT ( 'NONE',  ( -0.04000000000000000083, 3.030877444744455307, 0.3256506264911057658 ) ) ;
#542 = CARTESIAN_POINT ( 'NONE',  ( 0.2533333333333399606, 3.030877444751528760, 0.3256506264926743999 ) ) ;
#543 = VECTOR ( 'NONE', #173, 1000.000000000000000 ) ;
#544 = ADVANCED_FACE ( 'NONE', ( #584 ), #112, .T. ) ;
#545 = FACE_OUTER_BOUND ( 'NONE', #168, .T. ) ;
#546 = ORIENTED_EDGE ( 'NONE', *, *, #382, .F. ) ;
#547 = CARTESIAN_POINT ( 'NONE',  ( 0.000000000000000000, 13.00000000000000000, -7.799999999999999822 ) ) ;
#548 = ORIENTED_EDGE ( 'NONE', *, *, #96, .F. ) ;
#549 = ORIENTED_EDGE ( 'NONE', *, *, #491, .F. ) ;
#550 = EDGE_CURVE ( 'NONE', #589, #490, #181, .T. ) ;
#551 = ORIENTED_EDGE ( 'NONE', *, *, #359, .F. ) ;
#552 = DIRECTION ( 'NONE',  ( -0.000000000000000000, -1.000000000000000000, -0.000000000000000000 ) ) ;
#553 = CARTESIAN_POINT ( 'NONE',  ( 0.000000000000000000, 7.360885252153885006, 0.8000000000000003775 ) ) ;
#554 = VERTEX_POINT ( 'NONE', #500 ) ;
#555 = CARTESIAN_POINT ( 'NONE',  ( 0.000000000000000000, 0.000000000000000000, -1.500000000000000000 ) ) ;
#556 = CARTESIAN_POINT ( 'NONE',  ( 0.000000000000000000, 2.222782885164785061, -8.174563888669151623 ) ) ;
#557 = ADVANCED_FACE ( 'NONE', ( #272 ), #116, .T. ) ;
#558 = CARTESIAN_POINT ( 'NONE',  ( 0.8000000000000000444, 0.000000000000000000, -1.500000000000000000 ) ) ;
#559 = CARTESIAN_POINT ( 'NONE',  ( 0.8000000000000000444, 7.360885252150151103, 0.8000000000000003775 ) ) ;
#560 = ORIENTED_EDGE ( 'NONE', *, *, #307, .T. ) ;
#561 = CARTESIAN_POINT ( 'NONE',  ( -6.503012966055418282E-17, 3.030597607489591283, -8.326873512001803590 ) ) ;
#562 = VECTOR ( 'NONE', #302, 1000.000000000000000 ) ;
#563 = DIRECTION ( 'NONE',  ( 0.000000000000000000, 0.000000000000000000, -1.000000000000000000 ) ) ;
#564 = EDGE_LOOP ( 'NONE', ( #347, #325, #344, #75 ) ) ;
#565 = DIRECTION ( 'NONE',  ( -1.000000000000000000, 0.000000000000000000, -0.000000000000000000 ) ) ;
#566 = LINE ( 'NONE', #370, #120 ) ;
#567 = ORIENTED_EDGE ( 'NONE', *, *, #382, .T. ) ;
#568 = CARTESIAN_POINT ( 'NONE',  ( 0.8000000000000000444, 12.00000000000000000, 0.8000000000000003775 ) ) ;
#569 = CARTESIAN_POINT ( 'NONE',  ( 0.8000000000000000444, 12.00000000000000000, -0.1999999999999996503 ) ) ;
#570 = EDGE_CURVE ( 'NONE', #245, #20, #177, .T. ) ;
#571 = ORIENTED_EDGE ( 'NONE', *, *, #123, .F. ) ;
#572 = CARTESIAN_POINT ( 'NONE',  ( 0.5466666666666664121, 5.169899024828882972, -8.800000000004345679 ) ) ;
#573 = DIRECTION ( 'NONE',  ( 0.000000000000000000, 0.000000000000000000, 1.000000000000000000 ) ) ;
#574 = ORIENTED_EDGE ( 'NONE', *, *, #438, .T. ) ;
#575 = B_SPLINE_CURVE_WITH_KNOTS ( 'NONE', 3,
 ( #577, #296, #536, #532 ),
 .UNSPECIFIED., .F., .F.,
 ( 4, 4 ),
 ( 0.000000000000000000, 1.000000000000000000 ),
 .UNSPECIFIED. ) ;
#576 = DIRECTION ( 'NONE',  ( -0.000000000000000000, -0.000000000000000000, 1.000000000000000000 ) ) ;
#577 = CARTESIAN_POINT ( 'NONE',  ( 0.8000000000000000444, 0.000000000000000000, 0.000000000000000000 ) ) ;
#578 = LINE ( 'NONE', #368, #371 ) ;
#579 = ADVANCED_FACE ( 'NONE', ( #545 ), #78, .T. ) ;
#580 = CARTESIAN_POINT ( 'NONE',  ( 0.2533333333331967419, 7.360885252199114603, -8.800000000000014921 ) ) ;
#581 = DIRECTION ( 'NONE',  ( 0.000000000000000000, -0.000000000000000000, 1.000000000000000000 ) ) ;
#582 = ORIENTED_EDGE ( 'NONE', *, *, #254, .F. ) ;
#583 = CARTESIAN_POINT ( 'NONE',  ( -0.04000000000000016043, 5.169899024839542001, -8.799999999999949196 ) ) ;
#584 = FACE_OUTER_BOUND ( 'NONE', #439, .T. ) ;
#585 = CARTESIAN_POINT ( 'NONE',  ( 0.000000000000000000, 0.000000000000000000, -1.500000000000000000 ) ) ;
#586 = CARTESIAN_POINT ( 'NONE',  ( 0.2533333333333331883, 4.799999999999890576, -8.800000000000370193 ) ) ;
#587 = ADVANCED_FACE ( 'NONE', ( #124 ), #360, .F. ) ;
#588 = CARTESIAN_POINT ( 'NONE',  ( 0.5466666666666666341, 4.799999999999890576, -8.800000000000370193 ) ) ;
#589 = VERTEX_POINT ( 'NONE', #317 ) ;
#590 = AXIS2_PLACEMENT_3D ( 'NONE', #42, #425, #144 ) ;
#591 = VERTEX_POINT ( 'NONE', #547 ) ;
#592 = EDGE_CURVE ( 'NONE', #6, #322, #233, .T. ) ;
#593 =( NAMED_UNIT ( * ) PLANE_ANGLE_UNIT ( ) SI_UNIT ( $, .RADIAN. ) );
#594 = DIRECTION ( 'NONE',  ( 0.000000000000000000, 0.000000000000000000, -1.000000000000000000 ) ) ;
#595 = PRODUCT_DEFINITION_CONTEXT ( 'detailed design', #280, 'design' ) ;
ENDSEC;
END-ISO-10303-21;
