ISO-10303-21;
HEADER;
FILE_DESCRIPTION (( 'STEP AP214' ),
    '1' );
FILE_NAME ('ModuloBLE.STEP',
    '2025-11-19T11:22:12',
    ( '' ),
    ( '' ),
    'SwSTEP 2.0',
    'SolidWorks 2025',
    '' );
FILE_SCHEMA (( 'AUTOMOTIVE_DESIGN' ));
ENDSEC;

DATA;
#1 = CARTESIAN_POINT ( 'NONE',  ( 7.000000000000001776, 20.00000000000000000, 0.8000000000000000444 ) ) ;
#2 = ADVANCED_FACE ( 'NONE', ( #269 ), #650, .F. ) ;
#3 = DIRECTION ( 'NONE',  ( -1.000000000000000000, 3.097720492815727166E-16, 0.000000000000000000 ) ) ;
#4 = EDGE_LOOP ( 'NONE', ( #503, #345, #313, #483 ) ) ;
#5 = PLANE ( 'NONE',  #89 ) ;
#6 = DIRECTION ( 'NONE',  ( 1.000000000000000000, 3.336006684570784088E-16, -0.000000000000000000 ) ) ;
#7 = VECTOR ( 'NONE', #492, 1000.000000000000000 ) ;
#8 = ORIENTED_EDGE ( 'NONE', *, *, #218, .F. ) ;
#9 = AXIS2_PLACEMENT_3D ( 'NONE', #243, #500, #704 ) ;
#10 =( LENGTH_UNIT ( ) NAMED_UNIT ( * ) SI_UNIT ( .MILLI., .METRE. ) );
#11 = ORIENTED_EDGE ( 'NONE', *, *, #687, .F. ) ;
#12 = DIRECTION ( 'NONE',  ( -0.000000000000000000, -0.000000000000000000, -1.000000000000000000 ) ) ;
#13 = ORIENTED_EDGE ( 'NONE', *, *, #757, .T. ) ;
#14 = EDGE_CURVE ( 'NONE', #256, #175, #781, .T. ) ;
#15 = LINE ( 'NONE', #132, #593 ) ;
#16 = ORIENTED_EDGE ( 'NONE', *, *, #225, .F. ) ;
#17 = CARTESIAN_POINT ( 'NONE',  ( -4.124999999999999112, 0.4249999999999996003, 8.839999999999999858 ) ) ;
#18 = PLANE ( 'NONE',  #456 ) ;
#19 = ADVANCED_FACE ( 'NONE', ( #464 ), #18, .F. ) ;
#20 = DIRECTION ( 'NONE',  ( -0.000000000000000000, -0.000000000000000000, -1.000000000000000000 ) ) ;
#21 = ORIENTED_EDGE ( 'NONE', *, *, #524, .T. ) ;
#22 = ORIENTED_EDGE ( 'NONE', *, *, #274, .F. ) ;
#23 = CIRCLE ( 'NONE', #180, 1.199999999999999956 ) ;
#24 = CARTESIAN_POINT ( 'NONE',  ( -3.899999999999999911, 0.5249999999999994671, 1.800000000000000044 ) ) ;
#25 = ORIENTED_EDGE ( 'NONE', *, *, #97, .T. ) ;
#26 = ORIENTED_EDGE ( 'NONE', *, *, #382, .F. ) ;
#27 = DIRECTION ( 'NONE',  ( -0.000000000000000000, -0.000000000000000000, 1.000000000000000000 ) ) ;
#28 = ORIENTED_EDGE ( 'NONE', *, *, #363, .T. ) ;
#29 = EDGE_CURVE ( 'NONE', #120, #756, #715, .T. ) ;
#30 = ORIENTED_EDGE ( 'NONE', *, *, #514, .T. ) ;
#31 = LINE ( 'NONE', #85, #575 ) ;
#32 = DIRECTION ( 'NONE',  ( 1.000000000000000000, 0.000000000000000000, 0.000000000000000000 ) ) ;
#33 = CIRCLE ( 'NONE', #360, 0.2999999999999999334 ) ;
#34 = DIRECTION ( 'NONE',  ( -5.782411586589357392E-17, 1.000000000000000000, 0.000000000000000000 ) ) ;
#35 = CIRCLE ( 'NONE', #459, 1.199999999999999734 ) ;
#36 = CARTESIAN_POINT ( 'NONE',  ( -7.000000000000000000, 20.00000000000000000, 0.000000000000000000 ) ) ;
#37 = ADVANCED_FACE ( 'NONE', ( #87 ), #528, .T. ) ;
#38 = LINE ( 'NONE', #222, #658 ) ;
#39 = DIRECTION ( 'NONE',  ( 0.000000000000000000, -1.000000000000000000, 0.000000000000000000 ) ) ;
#40 = ORIENTED_EDGE ( 'NONE', *, *, #463, .F. ) ;
#41 = DIRECTION ( 'NONE',  ( -0.000000000000000000, -0.000000000000000000, 1.000000000000000000 ) ) ;
#42 = CARTESIAN_POINT ( 'NONE',  ( -4.200000000000000178, 0.5249999999999994671, 0.8000000000000000444 ) ) ;
#43 = ORIENTED_EDGE ( 'NONE', *, *, #780, .F. ) ;
#44 = PLANE ( 'NONE',  #534 ) ;
#45 = EDGE_CURVE ( 'NONE', #145, #246, #302, .T. ) ;
#46 = VECTOR ( 'NONE', #415, 1000.000000000000000 ) ;
#47 = CARTESIAN_POINT ( 'NONE',  ( 3.900000000000001688, 3.024999999999999467, 0.8000000000000000444 ) ) ;
#48 = VERTEX_POINT ( 'NONE', #597 ) ;
#49 = LINE ( 'NONE', #179, #408 ) ;
#50 = EDGE_CURVE ( 'NONE', #185, #676, #215, .T. ) ;
#51 = DIRECTION ( 'NONE',  ( 1.000000000000000000, 3.336006684570784088E-16, -0.000000000000000000 ) ) ;
#52 = ORIENTED_EDGE ( 'NONE', *, *, #792, .T. ) ;
#53 = CARTESIAN_POINT ( 'NONE',  ( 4.200000000000001066, 2.724999999999999645, 1.800000000000000044 ) ) ;
#54 = ORIENTED_EDGE ( 'NONE', *, *, #451, .F. ) ;
#55 = DIRECTION ( 'NONE',  ( 1.000000000000000000, 0.000000000000000000, 0.000000000000000000 ) ) ;
#56 = FACE_OUTER_BOUND ( 'NONE', #530, .T. ) ;
#57 = VECTOR ( 'NONE', #400, 1000.000000000000000 ) ;
#58 = CARTESIAN_POINT ( 'NONE',  ( -3.899999999999999911, 0.2249999999999995060, 0.8000000000000000444 ) ) ;
#59 = ORIENTED_EDGE ( 'NONE', *, *, #626, .F. ) ;
#60 = CARTESIAN_POINT ( 'NONE',  ( -4.400000000000001243, 5.000000000000000000, 0.000000000000000000 ) ) ;
#61 = EDGE_CURVE ( 'NONE', #172, #586, #489, .T. ) ;
#62 = FILL_AREA_STYLE_COLOUR ( '', #678 ) ;
#63 = DIRECTION ( 'NONE',  ( 0.000000000000000000, -1.000000000000000000, 0.000000000000000000 ) ) ;
#64 = VERTEX_POINT ( 'NONE', #229 ) ;
#65 = DIRECTION ( 'NONE',  ( -1.156482317317871478E-16, -1.000000000000000000, 0.000000000000000000 ) ) ;
#66 = CARTESIAN_POINT ( 'NONE',  ( -3.899999999999999911, 2.724999999999999645, 1.800000000000000044 ) ) ;
#67 = CARTESIAN_POINT ( 'NONE',  ( 2.925000000000001599, 0.4249999999999996003, 1.800000000000000044 ) ) ;
#68 = ORIENTED_EDGE ( 'NONE', *, *, #238, .F. ) ;
#69 = FACE_BOUND ( 'NONE', #581, .T. ) ;
#70 = VERTEX_POINT ( 'NONE', #223 ) ;
#71 = CIRCLE ( 'NONE', #533, 0.2999999999999999334 ) ;
#72 = EDGE_CURVE ( 'NONE', #600, #776, #347, .T. ) ;
#73 = CARTESIAN_POINT ( 'NONE',  ( -2.924999999999999822, 2.824999999999999289, 1.800000000000000044 ) ) ;
#74 = APPLICATION_CONTEXT ( 'automotive_design' ) ;
#75 = VERTEX_POINT ( 'NONE', #473 ) ;
#76 = CARTESIAN_POINT ( 'NONE',  ( -4.200000000000000178, 0.2249999999999995060, 1.800000000000000044 ) ) ;
#77 = ORIENTED_EDGE ( 'NONE', *, *, #274, .T. ) ;
#78 = DIRECTION ( 'NONE',  ( 0.000000000000000000, -0.000000000000000000, -1.000000000000000000 ) ) ;
#79 = ADVANCED_FACE ( 'NONE', ( #729 ), #539, .F. ) ;
#80 = ORIENTED_EDGE ( 'NONE', *, *, #310, .F. ) ;
#81 = CARTESIAN_POINT ( 'NONE',  ( -7.000000000000000000, 20.00000000000000000, 0.8000000000000000444 ) ) ;
#82 = CARTESIAN_POINT ( 'NONE',  ( -4.400000000000000355, -2.694222958124176020E-16, 0.8000000000000000444 ) ) ;
#83 = EDGE_LOOP ( 'NONE', ( #200, #570, #134, #298 ) ) ;
#84 = EDGE_CURVE ( 'NONE', #308, #756, #732, .T. ) ;
#85 = CARTESIAN_POINT ( 'NONE',  ( -4.124999999999999112, 2.824999999999999289, 8.839999999999999858 ) ) ;
#86 = VERTEX_POINT ( 'NONE', #110 ) ;
#87 = FACE_OUTER_BOUND ( 'NONE', #290, .T. ) ;
#88 = VECTOR ( 'NONE', #245, 1000.000000000000000 ) ;
#89 = AXIS2_PLACEMENT_3D ( 'NONE', #76, #447, #305 ) ;
#90 = EDGE_CURVE ( 'NONE', #738, #111, #798, .T. ) ;
#91 = FACE_OUTER_BOUND ( 'NONE', #352, .T. ) ;
#92 = ORIENTED_EDGE ( 'NONE', *, *, #84, .F. ) ;
#93 = VERTEX_POINT ( 'NONE', #480 ) ;
#94 = LINE ( 'NONE', #270, #100 ) ;
#95 = CARTESIAN_POINT ( 'NONE',  ( 3.900000000000001688, 2.724999999999999645, 0.7999999999999999334 ) ) ;
#96 = DIRECTION ( 'NONE',  ( -0.000000000000000000, -0.000000000000000000, -1.000000000000000000 ) ) ;
#97 = EDGE_CURVE ( 'NONE', #399, #516, #737, .T. ) ;
#98 = FACE_OUTER_BOUND ( 'NONE', #642, .T. ) ;
#99 = AXIS2_PLACEMENT_3D ( 'NONE', #417, #622, #793 ) ;
#100 = VECTOR ( 'NONE', #711, 1000.000000000000000 ) ;
#101 = CARTESIAN_POINT ( 'NONE',  ( 3.899999999999999911, 0.2249999999999995892, 0.8000000000000000444 ) ) ;
#102 = CARTESIAN_POINT ( 'NONE',  ( -3.899999999999999911, 3.024999999999999467, 0.8000000000000000444 ) ) ;
#103 = ADVANCED_FACE ( 'NONE', ( #98 ), #288, .T. ) ;
#104 = ORIENTED_EDGE ( 'NONE', *, *, #721, .F. ) ;
#105 = DIRECTION ( 'NONE',  ( 1.734723475976807094E-16, 1.000000000000000000, -0.000000000000000000 ) ) ;
#106 = DIRECTION ( 'NONE',  ( -3.336006684570784088E-16, 1.000000000000000000, 0.000000000000000000 ) ) ;
#107 = ORIENTED_EDGE ( 'NONE', *, *, #14, .F. ) ;
#108 = FACE_OUTER_BOUND ( 'NONE', #805, .T. ) ;
#109 = EDGE_CURVE ( 'NONE', #623, #659, #285, .T. ) ;
#110 = CARTESIAN_POINT ( 'NONE',  ( 4.125000000000000888, 1.624999999999999556, 8.839999999999999858 ) ) ;
#111 = VERTEX_POINT ( 'NONE', #428 ) ;
#112 = VECTOR ( 'NONE', #583, 1000.000000000000000 ) ;
#113 = CARTESIAN_POINT ( 'NONE',  ( 2.925000000000001599, 1.624999999999999556, 8.839999999999999858 ) ) ;
#114 = PRESENTATION_LAYER_ASSIGNMENT (  '', '', ( #694 ) ) ;
#115 = CARTESIAN_POINT ( 'NONE',  ( 4.400000000000000355, -2.694222958124176020E-16, 0.8000000000000000444 ) ) ;
#116 = ORIENTED_EDGE ( 'NONE', *, *, #524, .F. ) ;
#117 = DIRECTION ( 'NONE',  ( 1.000000000000000000, 0.000000000000000000, 0.000000000000000000 ) ) ;
#118 = EDGE_CURVE ( 'NONE', #756, #751, #71, .T. ) ;
#119 = CARTESIAN_POINT ( 'NONE',  ( -4.124999999999999112, 2.824999999999999289, 8.839999999999999858 ) ) ;
#120 = VERTEX_POINT ( 'NONE', #42 ) ;
#121 = APPLICATION_PROTOCOL_DEFINITION ( 'draft international standard', 'automotive_design', 1998, #74 ) ;
#122 = DIRECTION ( 'NONE',  ( -1.000000000000000000, 0.000000000000000000, 0.000000000000000000 ) ) ;
#123 = PLANE ( 'NONE',  #407 ) ;
#124 = EDGE_CURVE ( 'NONE', #776, #392, #543, .T. ) ;
#125 = ORIENTED_EDGE ( 'NONE', *, *, #340, .F. ) ;
#126 =( NAMED_UNIT ( * ) PLANE_ANGLE_UNIT ( ) SI_UNIT ( $, .RADIAN. ) );
#127 = DIRECTION ( 'NONE',  ( 0.000000000000000000, 0.000000000000000000, -1.000000000000000000 ) ) ;
#128 = AXIS2_PLACEMENT_3D ( 'NONE', #396, #78, #143 ) ;
#129 = CARTESIAN_POINT ( 'NONE',  ( 2.925000000000001599, 2.824999999999999289, 1.800000000000000044 ) ) ;
#130 = VECTOR ( 'NONE', #507, 1000.000000000000000 ) ;
#131 = ORIENTED_EDGE ( 'NONE', *, *, #353, .T. ) ;
#132 = CARTESIAN_POINT ( 'NONE',  ( 4.125000000000000888, 1.624999999999999556, 8.839999999999999858 ) ) ;
#133 = CARTESIAN_POINT ( 'NONE',  ( -4.400000000000000355, -2.694222958124176020E-16, 0.000000000000000000 ) ) ;
#134 = ORIENTED_EDGE ( 'NONE', *, *, #772, .F. ) ;
#135 = ADVANCED_FACE ( 'NONE', ( #679 ), #485, .F. ) ;
#136 = VERTEX_POINT ( 'NONE', #102 ) ;
#137 = DIRECTION ( 'NONE',  ( -0.000000000000000000, 0.000000000000000000, 1.000000000000000000 ) ) ;
#138 = EDGE_LOOP ( 'NONE', ( #68, #52, #77, #263 ) ) ;
#139 = LINE ( 'NONE', #370, #668 ) ;
#140 =( NAMED_UNIT ( * ) PLANE_ANGLE_UNIT ( ) SI_UNIT ( $, .RADIAN. ) );
#141 = ADVANCED_FACE ( 'NONE', ( #351 ), #669, .F. ) ;
#142 = VECTOR ( 'NONE', #39, 1000.000000000000000 ) ;
#143 = DIRECTION ( 'NONE',  ( 1.000000000000000000, 0.000000000000000000, 0.000000000000000000 ) ) ;
#144 = AXIS2_PLACEMENT_3D ( 'NONE', #318, #309, #65 ) ;
#145 = VERTEX_POINT ( 'NONE', #47 ) ;
#146 = CARTESIAN_POINT ( 'NONE',  ( -4.400000000000000355, -2.694222958124176020E-16, 0.000000000000000000 ) ) ;
#147 = ORIENTED_EDGE ( 'NONE', *, *, #84, .T. ) ;
#148 = LINE ( 'NONE', #264, #376 ) ;
#149 = EDGE_CURVE ( 'NONE', #676, #93, #293, .T. ) ;
#150 = ORIENTED_EDGE ( 'NONE', *, *, #329, .F. ) ;
#151 = DIRECTION ( 'NONE',  ( 1.000000000000000000, 0.000000000000000000, 0.000000000000000000 ) ) ;
#152 = VERTEX_POINT ( 'NONE', #115 ) ;
#153 = DIRECTION ( 'NONE',  ( -1.000000000000000000, 0.000000000000000000, 0.000000000000000000 ) ) ;
#154 = VERTEX_POINT ( 'NONE', #803 ) ;
#155 = VERTEX_POINT ( 'NONE', #232 ) ;
#156 = AXIS2_PLACEMENT_3D ( 'NONE', #675, #607, #358 ) ;
#157 = VECTOR ( 'NONE', #311, 1000.000000000000000 ) ;
#158 = VECTOR ( 'NONE', #610, 1000.000000000000000 ) ;
#159 = LINE ( 'NONE', #598, #429 ) ;
#160 = ORIENTED_EDGE ( 'NONE', *, *, #635, .T. ) ;
#161 = DIRECTION ( 'NONE',  ( 1.000000000000000000, 0.000000000000000000, 0.000000000000000000 ) ) ;
#162 = EDGE_CURVE ( 'NONE', #75, #220, #296, .T. ) ;
#163 = CARTESIAN_POINT ( 'NONE',  ( -7.000000000000000000, 20.00000000000000000, 0.8000000000000000444 ) ) ;
#164 = CARTESIAN_POINT ( 'NONE',  ( -4.200000000000000178, 0.5249999999999994671, 1.800000000000000044 ) ) ;
#165 = DIRECTION ( 'NONE',  ( -0.000000000000000000, 0.000000000000000000, -1.000000000000000000 ) ) ;
#166 = VECTOR ( 'NONE', #355, 1000.000000000000000 ) ;
#167 = EDGE_LOOP ( 'NONE', ( #259, #564, #92, #733 ) ) ;
#168 = VECTOR ( 'NONE', #210, 1000.000000000000000 ) ;
#169 = DIRECTION ( 'NONE',  ( 1.000000000000000000, 9.680376540049145852E-18, 0.000000000000000000 ) ) ;
#170 = DIRECTION ( 'NONE',  ( 1.000000000000000000, -3.336006684570785074E-16, -0.000000000000000000 ) ) ;
#171 = EDGE_CURVE ( 'NONE', #185, #249, #449, .T. ) ;
#172 = VERTEX_POINT ( 'NONE', #702 ) ;
#173 = CARTESIAN_POINT ( 'NONE',  ( -4.400000000000001243, 5.000000000000000000, 0.8000000000000000444 ) ) ;
#174 = CARTESIAN_POINT ( 'NONE',  ( -4.200000000000000178, 3.024999999999999467, 1.800000000000000044 ) ) ;
#175 = VERTEX_POINT ( 'NONE', #73 ) ;
#176 = CARTESIAN_POINT ( 'NONE',  ( 4.400000000000001243, 5.000000000000000000, 0.000000000000000000 ) ) ;
#177 = CARTESIAN_POINT ( 'NONE',  ( -2.924999999999999822, 1.624999999999999556, 8.839999999999999858 ) ) ;
#178 = EDGE_LOOP ( 'NONE', ( #275, #359, #640, #744 ) ) ;
#179 = CARTESIAN_POINT ( 'NONE',  ( -2.924999999999999822, 0.4249999999999996003, 8.839999999999999858 ) ) ;
#180 = AXIS2_PLACEMENT_3D ( 'NONE', #422, #357, #614 ) ;
#181 = CARTESIAN_POINT ( 'NONE',  ( -4.200000000000000178, 3.024999999999999467, 0.8000000000000000444 ) ) ;
#182 = EDGE_LOOP ( 'NONE', ( #387, #59, #535, #434 ) ) ;
#183 = FACE_OUTER_BOUND ( 'NONE', #4, .T. ) ;
#184 = FACE_OUTER_BOUND ( 'NONE', #703, .T. ) ;
#185 = VERTEX_POINT ( 'NONE', #632 ) ;
#186 = CARTESIAN_POINT ( 'NONE',  ( 3.900000000000001688, 2.724999999999999645, 1.800000000000000044 ) ) ;
#187 = CARTESIAN_POINT ( 'NONE',  ( -6.999999999999999112, 5.000000000000000888, 0.8000000000000000444 ) ) ;
#188 = ORIENTED_EDGE ( 'NONE', *, *, #266, .T. ) ;
#189 = LINE ( 'NONE', #60, #130 ) ;
#190 = PLANE ( 'NONE',  #444 ) ;
#191 = VECTOR ( 'NONE', #199, 1000.000000000000000 ) ;
#192 = DIRECTION ( 'NONE',  ( 0.000000000000000000, -0.000000000000000000, 1.000000000000000000 ) ) ;
#193 = ORIENTED_EDGE ( 'NONE', *, *, #266, .F. ) ;
#194 = CARTESIAN_POINT ( 'NONE',  ( 7.000000000000000000, 5.000000000000000888, 0.8000000000000000444 ) ) ;
#195 = UNCERTAINTY_MEASURE_WITH_UNIT (LENGTH_MEASURE( 1.000000000000000082E-05 ), #10, 'distance_accuracy_value', 'NONE');
#196 = PLANE ( 'NONE',  #654 ) ;
#197 = ORIENTED_EDGE ( 'NONE', *, *, #340, .T. ) ;
#198 = DIRECTION ( 'NONE',  ( 0.000000000000000000, -0.000000000000000000, -1.000000000000000000 ) ) ;
#199 = DIRECTION ( 'NONE',  ( 5.782411586589357392E-17, -1.000000000000000000, -0.000000000000000000 ) ) ;
#200 = ORIENTED_EDGE ( 'NONE', *, *, #553, .F. ) ;
#201 = CARTESIAN_POINT ( 'NONE',  ( -4.400000000000001243, 5.000000000000000000, 0.000000000000000000 ) ) ;
#202 = EDGE_CURVE ( 'NONE', #64, #552, #777, .T. ) ;
#203 = LINE ( 'NONE', #327, #191 ) ;
#204 = VECTOR ( 'NONE', #12, 1000.000000000000000 ) ;
#205 = VECTOR ( 'NONE', #20, 1000.000000000000000 ) ;
#206 = LINE ( 'NONE', #187, #7 ) ;
#207 = FACE_OUTER_BOUND ( 'NONE', #167, .T. ) ;
#208 = EDGE_CURVE ( 'NONE', #600, #172, #379, .T. ) ;
#209 = ORIENTED_EDGE ( 'NONE', *, *, #731, .T. ) ;
#210 = DIRECTION ( 'NONE',  ( 1.000000000000000000, 9.680376540049145852E-18, 0.000000000000000000 ) ) ;
#211 = DIRECTION ( 'NONE',  ( -0.000000000000000000, 0.000000000000000000, 1.000000000000000000 ) ) ;
#212 = DIRECTION ( 'NONE',  ( -1.000000000000000000, 0.000000000000000000, 0.000000000000000000 ) ) ;
#213 = VERTEX_POINT ( 'NONE', #758 ) ;
#214 = VECTOR ( 'NONE', #672, 1000.000000000000000 ) ;
#215 = LINE ( 'NONE', #364, #643 ) ;
#216 = AXIS2_PLACEMENT_3D ( 'NONE', #253, #248, #505 ) ;
#217 = AXIS2_PLACEMENT_3D ( 'NONE', #468, #219, #34 ) ;
#218 = EDGE_CURVE ( 'NONE', #516, #600, #206, .T. ) ;
#219 = DIRECTION ( 'NONE',  ( 1.000000000000000000, 5.782411586589357392E-17, -0.000000000000000000 ) ) ;
#220 = VERTEX_POINT ( 'NONE', #67 ) ;
#221 = EDGE_CURVE ( 'NONE', #776, #586, #688, .T. ) ;
#222 = CARTESIAN_POINT ( 'NONE',  ( 4.200000000000001066, 3.024999999999999467, 1.800000000000000044 ) ) ;
#223 = CARTESIAN_POINT ( 'NONE',  ( 2.925000000000001599, 0.4249999999999996003, 8.839999999999999858 ) ) ;
#224 = FACE_OUTER_BOUND ( 'NONE', #499, .T. ) ;
#225 = EDGE_CURVE ( 'NONE', #751, #261, #563, .T. ) ;
#226 = CARTESIAN_POINT ( 'NONE',  ( -4.400000000000001243, 5.000000000000000000, 0.8000000000000000444 ) ) ;
#227 = ORIENTED_EDGE ( 'NONE', *, *, #124, .T. ) ;
#228 = CARTESIAN_POINT ( 'NONE',  ( 4.400000000000000355, -2.694222958124176020E-16, 0.000000000000000000 ) ) ;
#229 = CARTESIAN_POINT ( 'NONE',  ( -4.124999999999999112, 1.624999999999999556, 8.839999999999999858 ) ) ;
#230 = EDGE_LOOP ( 'NONE', ( #567, #513, #301, #638 ) ) ;
#231 = CARTESIAN_POINT ( 'NONE',  ( 4.200000000000001066, 2.724999999999999645, 1.800000000000000044 ) ) ;
#232 = CARTESIAN_POINT ( 'NONE',  ( -2.924999999999999822, 2.824999999999999289, 8.839999999999999858 ) ) ;
#233 = ORIENTED_EDGE ( 'NONE', *, *, #804, .F. ) ;
#234 = CARTESIAN_POINT ( 'NONE',  ( -3.899999999999999911, 3.024999999999999467, 1.800000000000000044 ) ) ;
#235 = CARTESIAN_POINT ( 'NONE',  ( 4.200000000000001066, 2.724999999999999645, 0.8000000000000000444 ) ) ;
#236 = ORIENTED_EDGE ( 'NONE', *, *, #731, .F. ) ;
#237 = VECTOR ( 'NONE', #807, 1000.000000000000000 ) ;
#238 = EDGE_CURVE ( 'NONE', #490, #213, #641, .T. ) ;
#239 = CIRCLE ( 'NONE', #508, 1.199999999999999734 ) ;
#240 = CIRCLE ( 'NONE', #394, 0.2999999999999999334 ) ;
#241 = CARTESIAN_POINT ( 'NONE',  ( -6.999999999999999112, 5.000000000000000888, 0.8000000000000000444 ) ) ;
#242 = ORIENTED_EDGE ( 'NONE', *, *, #416, .T. ) ;
#243 = CARTESIAN_POINT ( 'NONE',  ( -2.924999999999999822, 1.624999999999999556, 8.839999999999999858 ) ) ;
#244 = CARTESIAN_POINT ( 'NONE',  ( 2.925000000000001599, 1.624999999999999556, 1.799999999999999600 ) ) ;
#245 = DIRECTION ( 'NONE',  ( -1.000000000000000000, -0.000000000000000000, -0.000000000000000000 ) ) ;
#246 = VERTEX_POINT ( 'NONE', #235 ) ;
#247 = PRESENTATION_STYLE_ASSIGNMENT (( #371 ) ) ;
#248 = DIRECTION ( 'NONE',  ( 0.000000000000000000, -0.000000000000000000, -1.000000000000000000 ) ) ;
#249 = VERTEX_POINT ( 'NONE', #637 ) ;
#250 = DIRECTION ( 'NONE',  ( -1.000000000000000000, 0.000000000000000000, 0.000000000000000000 ) ) ;
#251 = ORIENTED_EDGE ( 'NONE', *, *, #353, .F. ) ;
#252 = CIRCLE ( 'NONE', #722, 0.2999999999999999334 ) ;
#253 = CARTESIAN_POINT ( 'NONE',  ( 2.925000000000001599, 1.624999999999999556, 1.799999999999999600 ) ) ;
#254 = CIRCLE ( 'NONE', #559, 1.199999999999999956 ) ;
#255 = ADVANCED_FACE ( 'NONE', ( #437 ), #196, .F. ) ;
#256 = VERTEX_POINT ( 'NONE', #129 ) ;
#257 =( NAMED_UNIT ( * ) SI_UNIT ( $, .STERADIAN. ) SOLID_ANGLE_UNIT ( ) );
#258 = UNCERTAINTY_MEASURE_WITH_UNIT (LENGTH_MEASURE( 1.000000000000000082E-05 ), #639, 'distance_accuracy_value', 'NONE');
#259 = ORIENTED_EDGE ( 'NONE', *, *, #382, .T. ) ;
#260 = LINE ( 'NONE', #775, #204 ) ;
#261 = VERTEX_POINT ( 'NONE', #58 ) ;
#262 = DIRECTION ( 'NONE',  ( -0.000000000000000000, -0.000000000000000000, 1.000000000000000000 ) ) ;
#263 = ORIENTED_EDGE ( 'NONE', *, *, #736, .T. ) ;
#264 = CARTESIAN_POINT ( 'NONE',  ( -4.200000000000000178, 2.724999999999999645, 1.800000000000000044 ) ) ;
#265 = DIRECTION ( 'NONE',  ( 1.000000000000000000, 1.734723475976807094E-16, -0.000000000000000000 ) ) ;
#266 = EDGE_CURVE ( 'NONE', #48, #256, #554, .T. ) ;
#267 = PLANE ( 'NONE',  #280 ) ;
#268 = VECTOR ( 'NONE', #761, 1000.000000000000000 ) ;
#269 = FACE_OUTER_BOUND ( 'NONE', #630, .T. ) ;
#270 = CARTESIAN_POINT ( 'NONE',  ( 4.400000000000001243, 5.000000000000000000, 0.8000000000000000444 ) ) ;
#271 = EDGE_LOOP ( 'NONE', ( #332, #409, #438, #16 ) ) ;
#272 = CARTESIAN_POINT ( 'NONE',  ( -2.924999999999999822, 1.624999999999999556, 8.839999999999999858 ) ) ;
#273 = ORIENTED_EDGE ( 'NONE', *, *, #413, .T. ) ;
#274 = EDGE_CURVE ( 'NONE', #145, #136, #755, .T. ) ;
#275 = ORIENTED_EDGE ( 'NONE', *, *, #284, .F. ) ;
#276 = LINE ( 'NONE', #655, #778 ) ;
#277 = AXIS2_PLACEMENT_3D ( 'NONE', #403, #525, #707 ) ;
#278 = ORIENTED_EDGE ( 'NONE', *, *, #14, .T. ) ;
#279 = ADVANCED_FACE ( 'NONE', ( #184 ), #123, .F. ) ;
#280 = AXIS2_PLACEMENT_3D ( 'NONE', #522, #716, #674 ) ;
#281 = DIRECTION ( 'NONE',  ( -0.000000000000000000, -0.000000000000000000, 1.000000000000000000 ) ) ;
#282 = DIRECTION ( 'NONE',  ( -0.000000000000000000, 0.000000000000000000, 1.000000000000000000 ) ) ;
#283 = DIRECTION ( 'NONE',  ( 1.000000000000000000, 0.000000000000000000, 0.000000000000000000 ) ) ;
#284 = EDGE_CURVE ( 'NONE', #213, #308, #252, .T. ) ;
#285 = LINE ( 'NONE', #36, #166 ) ;
#286 = VERTEX_POINT ( 'NONE', #53 ) ;
#287 = DIRECTION ( 'NONE',  ( -1.000000000000000000, 1.734723475976807094E-16, 0.000000000000000000 ) ) ;
#288 = CYLINDRICAL_SURFACE ( 'NONE', #390, 1.199999999999999734 ) ;
#289 = VECTOR ( 'NONE', #811, 1000.000000000000000 ) ;
#290 = EDGE_LOOP ( 'NONE', ( #324, #209, #545, #21, #774, #401 ) ) ;
#291 = DIRECTION ( 'NONE',  ( 0.000000000000000000, -0.000000000000000000, 1.000000000000000000 ) ) ;
#292 = AXIS2_PLACEMENT_3D ( 'NONE', #752, #381, #55 ) ;
#293 = LINE ( 'NONE', #548, #602 ) ;
#294 = ORIENTED_EDGE ( 'NONE', *, *, #713, .T. ) ;
#295 = CARTESIAN_POINT ( 'NONE',  ( 0.000000000000000000, 0.000000000000000000, 1.800000000000000044 ) ) ;
#296 = LINE ( 'NONE', #551, #237 ) ;
#297 = ADVANCED_FACE ( 'NONE', ( #441 ), #692, .F. ) ;
#298 = ORIENTED_EDGE ( 'NONE', *, *, #514, .F. ) ;
#299 = FACE_OUTER_BOUND ( 'NONE', #573, .T. ) ;
#300 = CARTESIAN_POINT ( 'NONE',  ( 7.000000000000000000, 5.000000000000000888, 0.8000000000000000444 ) ) ;
#301 = ORIENTED_EDGE ( 'NONE', *, *, #72, .F. ) ;
#302 = CIRCLE ( 'NONE', #693, 0.2999999999999999334 ) ;
#303 = CYLINDRICAL_SURFACE ( 'NONE', #9, 1.199999999999999734 ) ;
#304 = MECHANICAL_DESIGN_GEOMETRIC_PRESENTATION_REPRESENTATION (  '', ( #694 ), #709 ) ;
#305 = DIRECTION ( 'NONE',  ( -1.000000000000000000, -9.680376540049145852E-18, 0.000000000000000000 ) ) ;
#306 = VECTOR ( 'NONE', #281, 1000.000000000000000 ) ;
#307 = DIRECTION ( 'NONE',  ( 1.000000000000000000, 0.000000000000000000, 0.000000000000000000 ) ) ;
#308 = VERTEX_POINT ( 'NONE', #766 ) ;
#309 = DIRECTION ( 'NONE',  ( -1.000000000000000000, 1.156482317317871478E-16, 0.000000000000000000 ) ) ;
#310 = EDGE_CURVE ( 'NONE', #448, #220, #618, .T. ) ;
#311 = DIRECTION ( 'NONE',  ( -0.000000000000000000, -0.000000000000000000, -1.000000000000000000 ) ) ;
#312 = CARTESIAN_POINT ( 'NONE',  ( -2.924999999999999822, 1.624999999999999556, 8.839999999999999858 ) ) ;
#313 = ORIENTED_EDGE ( 'NONE', *, *, #700, .F. ) ;
#314 = DIRECTION ( 'NONE',  ( 0.000000000000000000, 0.000000000000000000, -1.000000000000000000 ) ) ;
#315 = PRODUCT_RELATED_PRODUCT_CATEGORY ( 'part', '', ( #616 ) ) ;
#316 = LINE ( 'NONE', #572, #320 ) ;
#317 = ORIENTED_EDGE ( 'NONE', *, *, #72, .T. ) ;
#318 = CARTESIAN_POINT ( 'NONE',  ( 7.000000000000001776, 20.00000000000000000, 0.8000000000000000444 ) ) ;
#319 = DIRECTION ( 'NONE',  ( -0.000000000000000000, 0.000000000000000000, 1.000000000000000000 ) ) ;
#320 = VECTOR ( 'NONE', #512, 1000.000000000000000 ) ;
#321 = AXIS2_PLACEMENT_3D ( 'NONE', #462, #330, #153 ) ;
#322 = CARTESIAN_POINT ( 'NONE',  ( -3.899999999999999911, 0.2249999999999995060, 1.800000000000000044 ) ) ;
#323 =( GEOMETRIC_REPRESENTATION_CONTEXT ( 3 ) GLOBAL_UNCERTAINTY_ASSIGNED_CONTEXT ( ( #195 ) ) GLOBAL_UNIT_ASSIGNED_CONTEXT ( ( #10, #126, #497 ) ) REPRESENTATION_CONTEXT ( 'NONE', 'WORKASPACE' ) );
#324 = ORIENTED_EDGE ( 'NONE', *, *, #367, .T. ) ;
#325 = CARTESIAN_POINT ( 'NONE',  ( 3.900000000000001688, 3.024999999999999467, 1.800000000000000044 ) ) ;
#326 = ORIENTED_EDGE ( 'NONE', *, *, #547, .T. ) ;
#327 = CARTESIAN_POINT ( 'NONE',  ( -6.999999999999999112, 5.000000000000000888, 0.000000000000000000 ) ) ;
#328 = ORIENTED_EDGE ( 'NONE', *, *, #571, .T. ) ;
#329 = EDGE_CURVE ( 'NONE', #596, #701, #445, .T. ) ;
#330 = DIRECTION ( 'NONE',  ( 0.000000000000000000, 0.000000000000000000, -1.000000000000000000 ) ) ;
#331 = FACE_OUTER_BOUND ( 'NONE', #695, .T. ) ;
#332 = ORIENTED_EDGE ( 'NONE', *, *, #118, .F. ) ;
#333 = CARTESIAN_POINT ( 'NONE',  ( -4.400000000000000355, -2.694222958124176020E-16, 0.8000000000000000444 ) ) ;
#334 = ORIENTED_EDGE ( 'NONE', *, *, #171, .T. ) ;
#335 = VECTOR ( 'NONE', #628, 1000.000000000000000 ) ;
#336 = VECTOR ( 'NONE', #27, 1000.000000000000000 ) ;
#337 = ORIENTED_EDGE ( 'NONE', *, *, #635, .F. ) ;
#338 = DIRECTION ( 'NONE',  ( 0.000000000000000000, 0.000000000000000000, -1.000000000000000000 ) ) ;
#339 = ORIENTED_EDGE ( 'NONE', *, *, #753, .F. ) ;
#340 = EDGE_CURVE ( 'NONE', #154, #246, #316, .T. ) ;
#341 = DIRECTION ( 'NONE',  ( 1.000000000000000000, 0.000000000000000000, 0.000000000000000000 ) ) ;
#342 = CARTESIAN_POINT ( 'NONE',  ( 7.000000000000001776, 20.00000000000000000, 0.000000000000000000 ) ) ;
#343 = PRODUCT_DEFINITION_CONTEXT ( 'detailed design', #74, 'design' ) ;
#344 = EDGE_CURVE ( 'NONE', #261, #120, #348, .T. ) ;
#345 = ORIENTED_EDGE ( 'NONE', *, *, #547, .F. ) ;
#346 = DIRECTION ( 'NONE',  ( 0.000000000000000000, -0.000000000000000000, -1.000000000000000000 ) ) ;
#347 = LINE ( 'NONE', #226, #747 ) ;
#348 = CIRCLE ( 'NONE', #128, 0.2999999999999999334 ) ;
#349 = EDGE_CURVE ( 'NONE', #111, #154, #645, .T. ) ;
#350 = DIRECTION ( 'NONE',  ( 1.000000000000000000, 0.000000000000000000, 0.000000000000000000 ) ) ;
#351 = FACE_OUTER_BOUND ( 'NONE', #230, .T. ) ;
#352 = EDGE_LOOP ( 'NONE', ( #236, #356, #80, #418 ) ) ;
#353 = EDGE_CURVE ( 'NONE', #399, #623, #260, .T. ) ;
#354 = DIRECTION ( 'NONE',  ( 3.097720492815727166E-16, 1.000000000000000000, -0.000000000000000000 ) ) ;
#355 = DIRECTION ( 'NONE',  ( -1.000000000000000000, -0.000000000000000000, -0.000000000000000000 ) ) ;
#356 = ORIENTED_EDGE ( 'NONE', *, *, #578, .F. ) ;
#357 = DIRECTION ( 'NONE',  ( 0.000000000000000000, -0.000000000000000000, -1.000000000000000000 ) ) ;
#358 = DIRECTION ( 'NONE',  ( -1.000000000000000000, 3.336006684570785567E-16, 0.000000000000000000 ) ) ;
#359 = ORIENTED_EDGE ( 'NONE', *, *, #736, .F. ) ;
#360 = AXIS2_PLACEMENT_3D ( 'NONE', #186, #319, #383 ) ;
#361 = CARTESIAN_POINT ( 'NONE',  ( 4.400000000000001243, 5.000000000000000000, 0.8000000000000000444 ) ) ;
#362 = VECTOR ( 'NONE', #105, 1000.000000000000000 ) ;
#363 = EDGE_CURVE ( 'NONE', #659, #172, #203, .T. ) ;
#364 = CARTESIAN_POINT ( 'NONE',  ( 4.400000000000001243, 5.000000000000000000, 0.8000000000000000444 ) ) ;
#365 = VERTEX_POINT ( 'NONE', #582 ) ;
#366 = LINE ( 'NONE', #791, #362 ) ;
#367 = EDGE_CURVE ( 'NONE', #552, #70, #460, .T. ) ;
#368 = DIRECTION ( 'NONE',  ( 0.000000000000000000, -0.000000000000000000, -1.000000000000000000 ) ) ;
#369 = ORIENTED_EDGE ( 'NONE', *, *, #225, .T. ) ;
#370 = CARTESIAN_POINT ( 'NONE',  ( 3.900000000000001688, 3.024999999999999467, 1.800000000000000044 ) ) ;
#371 = SURFACE_STYLE_USAGE ( .BOTH. , #391 ) ;
#372 = CARTESIAN_POINT ( 'NONE',  ( -4.400000000000000355, -2.694222958124176020E-16, 0.8000000000000000444 ) ) ;
#373 = ORIENTED_EDGE ( 'NONE', *, *, #713, .F. ) ;
#374 = EDGE_CURVE ( 'NONE', #308, #365, #148, .T. ) ;
#375 = VECTOR ( 'NONE', #577, 1000.000000000000000 ) ;
#376 = VECTOR ( 'NONE', #454, 1000.000000000000000 ) ;
#377 = LINE ( 'NONE', #815, #724 ) ;
#378 = VECTOR ( 'NONE', #666, 1000.000000000000000 ) ;
#379 = LINE ( 'NONE', #241, #335 ) ;
#380 = ORIENTED_EDGE ( 'NONE', *, *, #696, .T. ) ;
#381 = DIRECTION ( 'NONE',  ( 0.000000000000000000, 0.000000000000000000, 1.000000000000000000 ) ) ;
#382 = EDGE_CURVE ( 'NONE', #365, #120, #649, .T. ) ;
#383 = DIRECTION ( 'NONE',  ( 1.000000000000000000, 0.000000000000000000, 0.000000000000000000 ) ) ;
#384 = DIRECTION ( 'NONE',  ( 1.000000000000000000, 0.000000000000000000, 0.000000000000000000 ) ) ;
#385 = ORIENTED_EDGE ( 'NONE', *, *, #50, .T. ) ;
#386 = LINE ( 'NONE', #194, #157 ) ;
#387 = ORIENTED_EDGE ( 'NONE', *, *, #804, .T. ) ;
#388 = CARTESIAN_POINT ( 'NONE',  ( -4.400000000000001243, 5.000000000000000000, 0.8000000000000000444 ) ) ;
#389 = ORIENTED_EDGE ( 'NONE', *, *, #416, .F. ) ;
#390 = AXIS2_PLACEMENT_3D ( 'NONE', #177, #165, #604 ) ;
#391 = SURFACE_SIDE_STYLE ('',( #565 ) ) ;
#392 = VERTEX_POINT ( 'NONE', #82 ) ;
#393 = VECTOR ( 'NONE', #384, 1000.000000000000000 ) ;
#394 = AXIS2_PLACEMENT_3D ( 'NONE', #677, #624, #350 ) ;
#395 = ADVANCED_FACE ( 'NONE', ( #331 ), #515, .T. ) ;
#396 = CARTESIAN_POINT ( 'NONE',  ( -3.899999999999999911, 0.5249999999999994671, 0.7999999999999999334 ) ) ;
#397 = ORIENTED_EDGE ( 'NONE', *, *, #367, .F. ) ;
#398 = DIRECTION ( 'NONE',  ( 1.000000000000000000, 0.000000000000000000, -0.000000000000000000 ) ) ;
#399 = VERTEX_POINT ( 'NONE', #1 ) ;
#400 = DIRECTION ( 'NONE',  ( 0.000000000000000000, 0.000000000000000000, -1.000000000000000000 ) ) ;
#401 = ORIENTED_EDGE ( 'NONE', *, *, #202, .T. ) ;
#402 = PLANE ( 'NONE',  #544 ) ;
#403 = CARTESIAN_POINT ( 'NONE',  ( 0.000000000000000000, 0.000000000000000000, 0.000000000000000000 ) ) ;
#404 = ADVANCED_FACE ( 'NONE', ( #69, #644 ), #190, .T. ) ;
#405 = CARTESIAN_POINT ( 'NONE',  ( 3.899999999999999911, 0.2249999999999995892, 1.800000000000000044 ) ) ;
#406 = VERTEX_POINT ( 'NONE', #754 ) ;
#407 = AXIS2_PLACEMENT_3D ( 'NONE', #372, #684, #192 ) ;
#408 = VECTOR ( 'NONE', #491, 1000.000000000000000 ) ;
#409 = ORIENTED_EDGE ( 'NONE', *, *, #29, .F. ) ;
#410 = DIRECTION ( 'NONE',  ( -0.000000000000000000, 0.000000000000000000, -1.000000000000000000 ) ) ;
#411 = ORIENTED_EDGE ( 'NONE', *, *, #109, .F. ) ;
#412 = CARTESIAN_POINT ( 'NONE',  ( -2.924999999999999822, 0.4249999999999996003, 8.839999999999999858 ) ) ;
#413 = EDGE_CURVE ( 'NONE', #249, #399, #377, .T. ) ;
#414 = CARTESIAN_POINT ( 'NONE',  ( 7.000000000000000000, 5.000000000000000888, 0.8000000000000000444 ) ) ;
#415 = DIRECTION ( 'NONE',  ( 1.000000000000000000, 0.000000000000000000, 0.000000000000000000 ) ) ;
#416 = EDGE_CURVE ( 'NONE', #249, #93, #386, .T. ) ;
#417 = CARTESIAN_POINT ( 'NONE',  ( 3.900000000000000799, 0.5249999999999994671, 1.800000000000000044 ) ) ;
#418 = ORIENTED_EDGE ( 'NONE', *, *, #432, .T. ) ;
#419 = LINE ( 'NONE', #234, #725 ) ;
#420 = DIRECTION ( 'NONE',  ( -0.000000000000000000, -0.000000000000000000, -1.000000000000000000 ) ) ;
#421 = ORIENTED_EDGE ( 'NONE', *, *, #792, .F. ) ;
#422 = CARTESIAN_POINT ( 'NONE',  ( -2.924999999999999822, 1.624999999999999556, 1.799999999999999600 ) ) ;
#423 = DIRECTION ( 'NONE',  ( 0.000000000000000000, -1.000000000000000000, 0.000000000000000000 ) ) ;
#424 = ORIENTED_EDGE ( 'NONE', *, *, #590, .F. ) ;
#425 = DIRECTION ( 'NONE',  ( -1.734723475976807094E-16, -1.000000000000000000, 0.000000000000000000 ) ) ;
#426 = EDGE_CURVE ( 'NONE', #93, #623, #631, .T. ) ;
#427 = APPLICATION_CONTEXT ( 'automotive_design' ) ;
#428 = CARTESIAN_POINT ( 'NONE',  ( 4.200000000000000178, 0.5249999999999994671, 1.800000000000000044 ) ) ;
#429 = VECTOR ( 'NONE', #526, 1000.000000000000000 ) ;
#430 = ORIENTED_EDGE ( 'NONE', *, *, #61, .F. ) ;
#431 = LINE ( 'NONE', #682, #46 ) ;
#432 = EDGE_CURVE ( 'NONE', #448, #86, #15, .T. ) ;
#433 = DIRECTION ( 'NONE',  ( -1.000000000000000000, -0.000000000000000000, -0.000000000000000000 ) ) ;
#434 = ORIENTED_EDGE ( 'NONE', *, *, #221, .T. ) ;
#435 = DIRECTION ( 'NONE',  ( 1.156482317317871478E-16, 1.000000000000000000, -0.000000000000000000 ) ) ;
#436 = ADVANCED_FACE ( 'NONE', ( #183 ), #569, .T. ) ;
#437 = FACE_OUTER_BOUND ( 'NONE', #647, .T. ) ;
#438 = ORIENTED_EDGE ( 'NONE', *, *, #344, .F. ) ;
#439 = PRODUCT_CONTEXT ( 'NONE', #427, 'mechanical' ) ;
#440 = CARTESIAN_POINT ( 'NONE',  ( 7.000000000000001776, 20.00000000000000000, 0.000000000000000000 ) ) ;
#441 = FACE_OUTER_BOUND ( 'NONE', #519, .T. ) ;
#442 = ORIENTED_EDGE ( 'NONE', *, *, #329, .T. ) ;
#443 = PLANE ( 'NONE',  #144 ) ;
#444 = AXIS2_PLACEMENT_3D ( 'NONE', #509, #452, #764 ) ;
#445 = LINE ( 'NONE', #133, #393 ) ;
#446 = ORIENTED_EDGE ( 'NONE', *, *, #664, .F. ) ;
#447 = DIRECTION ( 'NONE',  ( -9.680376540049145852E-18, 1.000000000000000000, 0.000000000000000000 ) ) ;
#448 = VERTEX_POINT ( 'NONE', #562 ) ;
#449 = LINE ( 'NONE', #300, #708 ) ;
#450 = ORIENTED_EDGE ( 'NONE', *, *, #238, .T. ) ;
#451 = EDGE_CURVE ( 'NONE', #286, #490, #33, .T. ) ;
#452 = DIRECTION ( 'NONE',  ( -0.000000000000000000, 0.000000000000000000, 1.000000000000000000 ) ) ;
#453 = ORIENTED_EDGE ( 'NONE', *, *, #149, .T. ) ;
#454 = DIRECTION ( 'NONE',  ( 0.000000000000000000, 0.000000000000000000, -1.000000000000000000 ) ) ;
#455 = ORIENTED_EDGE ( 'NONE', *, *, #687, .T. ) ;
#456 = AXIS2_PLACEMENT_3D ( 'NONE', #717, #265, #461 ) ;
#457 = CARTESIAN_POINT ( 'NONE',  ( -4.200000000000000178, 0.2249999999999995060, 1.800000000000000044 ) ) ;
#458 = AXIS2_PLACEMENT_3D ( 'NONE', #66, #314, #122 ) ;
#459 = AXIS2_PLACEMENT_3D ( 'NONE', #745, #479, #117 ) ;
#460 = LINE ( 'NONE', #17, #657 ) ;
#461 = DIRECTION ( 'NONE',  ( -1.734723475976807094E-16, 1.000000000000000000, 0.000000000000000000 ) ) ;
#462 = CARTESIAN_POINT ( 'NONE',  ( 2.925000000000001599, 1.624999999999999556, 8.839999999999999858 ) ) ;
#463 = EDGE_CURVE ( 'NONE', #256, #448, #239, .T. ) ;
#464 = FACE_OUTER_BOUND ( 'NONE', #182, .T. ) ;
#465 = CARTESIAN_POINT ( 'NONE',  ( -6.999999999999999112, 5.000000000000000888, 0.8000000000000000444 ) ) ;
#466 = ORIENTED_EDGE ( 'NONE', *, *, #772, .T. ) ;
#467 = ORIENTED_EDGE ( 'NONE', *, *, #149, .F. ) ;
#468 = CARTESIAN_POINT ( 'NONE',  ( -6.999999999999999112, 5.000000000000000888, 0.8000000000000000444 ) ) ;
#469 = CIRCLE ( 'NONE', #788, 1.199999999999999956 ) ;
#470 = PRODUCT_DEFINITION_FORMATION_WITH_SPECIFIED_SOURCE ( 'ANY', '', #616, .NOT_KNOWN. ) ;
#471 = ORIENTED_EDGE ( 'NONE', *, *, #363, .F. ) ;
#472 = FACE_OUTER_BOUND ( 'NONE', #271, .T. ) ;
#473 = CARTESIAN_POINT ( 'NONE',  ( -2.924999999999999822, 0.4249999999999996003, 1.800000000000000044 ) ) ;
#474 = LINE ( 'NONE', #231, #306 ) ;
#475 = MANIFOLD_SOLID_BREP ( 'Filete2', #615 ) ;
#476 = ADVANCED_FACE ( 'NONE', ( #636 ), #504, .T. ) ;
#477 = DIRECTION ( 'NONE',  ( 0.000000000000000000, -0.000000000000000000, -1.000000000000000000 ) ) ;
#478 = ORIENTED_EDGE ( 'NONE', *, *, #571, .F. ) ;
#479 = DIRECTION ( 'NONE',  ( -0.000000000000000000, 0.000000000000000000, 1.000000000000000000 ) ) ;
#480 = CARTESIAN_POINT ( 'NONE',  ( 7.000000000000000000, 5.000000000000000888, 0.000000000000000000 ) ) ;
#481 = AXIS2_PLACEMENT_3D ( 'NONE', #770, #697, #250 ) ;
#482 = CIRCLE ( 'NONE', #680, 0.2999999999999999334 ) ;
#483 = ORIENTED_EDGE ( 'NONE', *, *, #349, .F. ) ;
#484 = DIRECTION ( 'NONE',  ( 1.000000000000000000, 0.000000000000000000, 0.000000000000000000 ) ) ;
#485 = PLANE ( 'NONE',  #555 ) ;
#486 = ADVANCED_FACE ( 'NONE', ( #56 ), #5, .F. ) ;
#487 = ORIENTED_EDGE ( 'NONE', *, *, #426, .F. ) ;
#488 = CARTESIAN_POINT ( 'NONE',  ( -4.124999999999999112, 0.4249999999999996003, 8.839999999999999858 ) ) ;
#489 = LINE ( 'NONE', #795, #214 ) ;
#490 = VERTEX_POINT ( 'NONE', #325 ) ;
#491 = DIRECTION ( 'NONE',  ( -0.000000000000000000, 0.000000000000000000, -1.000000000000000000 ) ) ;
#492 = DIRECTION ( 'NONE',  ( 5.782411586589357392E-17, -1.000000000000000000, -0.000000000000000000 ) ) ;
#493 = AXIS2_PLACEMENT_3D ( 'NONE', #414, #106, #665 ) ;
#494 = AXIS2_PLACEMENT_3D ( 'NONE', #769, #127, #686 ) ;
#495 = ORIENTED_EDGE ( 'NONE', *, *, #97, .F. ) ;
#496 = AXIS2_PLACEMENT_3D ( 'NONE', #488, #536, #291 ) ;
#497 =( NAMED_UNIT ( * ) SI_UNIT ( $, .STERADIAN. ) SOLID_ANGLE_UNIT ( ) );
#498 = DIRECTION ( 'NONE',  ( 1.000000000000000000, 0.000000000000000000, 0.000000000000000000 ) ) ;
#499 = EDGE_LOOP ( 'NONE', ( #613, #608, #450, #712, #147, #594, #549, #817 ) ) ;
#500 = DIRECTION ( 'NONE',  ( 0.000000000000000000, 0.000000000000000000, -1.000000000000000000 ) ) ;
#501 = FILL_AREA_STYLE ('',( #62 ) ) ;
#502 = CARTESIAN_POINT ( 'NONE',  ( 4.200000000000001066, 3.024999999999999467, 1.800000000000000044 ) ) ;
#503 = ORIENTED_EDGE ( 'NONE', *, *, #90, .F. ) ;
#504 = CYLINDRICAL_SURFACE ( 'NONE', #458, 0.2999999999999999334 ) ;
#505 = DIRECTION ( 'NONE',  ( 1.000000000000000000, 0.000000000000000000, 0.000000000000000000 ) ) ;
#506 = ORIENTED_EDGE ( 'NONE', *, *, #162, .F. ) ;
#507 = DIRECTION ( 'NONE',  ( 1.734723475976807094E-16, -1.000000000000000000, 0.000000000000000000 ) ) ;
#508 = AXIS2_PLACEMENT_3D ( 'NONE', #244, #198, #705 ) ;
#509 = CARTESIAN_POINT ( 'NONE',  ( 0.000000000000000000, 0.000000000000000000, 0.8000000000000000444 ) ) ;
#510 = VECTOR ( 'NONE', #169, 1000.000000000000000 ) ;
#511 = ORIENTED_EDGE ( 'NONE', *, *, #809, .T. ) ;
#512 = DIRECTION ( 'NONE',  ( 3.097720492815727166E-16, 1.000000000000000000, -0.000000000000000000 ) ) ;
#513 = ORIENTED_EDGE ( 'NONE', *, *, #221, .F. ) ;
#514 = EDGE_CURVE ( 'NONE', #406, #175, #469, .T. ) ;
#515 = CYLINDRICAL_SURFACE ( 'NONE', #481, 0.2999999999999999334 ) ;
#516 = VERTEX_POINT ( 'NONE', #723 ) ;
#517 = ADVANCED_FACE ( 'NONE', ( #585 ), #789, .F. ) ;
#518 = CYLINDRICAL_SURFACE ( 'NONE', #799, 1.199999999999999956 ) ;
#519 = EDGE_LOOP ( 'NONE', ( #116, #188, #278, #466 ) ) ;
#520 = DIRECTION ( 'NONE',  ( 0.000000000000000000, -1.000000000000000000, 0.000000000000000000 ) ) ;
#521 = CARTESIAN_POINT ( 'NONE',  ( -4.124999999999999112, 2.824999999999999289, 1.800000000000000044 ) ) ;
#522 = CARTESIAN_POINT ( 'NONE',  ( -7.000000000000000000, 20.00000000000000000, 0.8000000000000000444 ) ) ;
#523 = ORIENTED_EDGE ( 'NONE', *, *, #626, .T. ) ;
#524 = EDGE_CURVE ( 'NONE', #48, #155, #31, .T. ) ;
#525 = DIRECTION ( 'NONE',  ( -0.000000000000000000, 0.000000000000000000, 1.000000000000000000 ) ) ;
#526 = DIRECTION ( 'NONE',  ( 0.000000000000000000, 0.000000000000000000, -1.000000000000000000 ) ) ;
#527 = PRODUCT_DEFINITION ( 'UNKNOWN', '', #470, #343 ) ;
#528 = PLANE ( 'NONE',  #574 ) ;
#529 = DIRECTION ( 'NONE',  ( -0.000000000000000000, 0.000000000000000000, 1.000000000000000000 ) ) ;
#530 = EDGE_LOOP ( 'NONE', ( #455, #326, #424, #369 ) ) ;
#531 = ORIENTED_EDGE ( 'NONE', *, *, #746, .F. ) ;
#532 = LINE ( 'NONE', #81, #205 ) ;
#533 = AXIS2_PLACEMENT_3D ( 'NONE', #612, #282, #617 ) ;
#534 = AXIS2_PLACEMENT_3D ( 'NONE', #361, #287, #425 ) ;
#535 = ORIENTED_EDGE ( 'NONE', *, *, #124, .F. ) ;
#536 = DIRECTION ( 'NONE',  ( 0.000000000000000000, 1.000000000000000000, 0.000000000000000000 ) ) ;
#537 = CARTESIAN_POINT ( 'NONE',  ( -4.400000000000001243, 5.000000000000000000, 0.8000000000000000444 ) ) ;
#538 = DIRECTION ( 'NONE',  ( -0.000000000000000000, 0.000000000000000000, 1.000000000000000000 ) ) ;
#539 = PLANE ( 'NONE',  #493 ) ;
#540 = ORIENTED_EDGE ( 'NONE', *, *, #109, .T. ) ;
#541 = CARTESIAN_POINT ( 'NONE',  ( 3.899999999999999911, 0.2249999999999995892, 1.800000000000000044 ) ) ;
#542 = VECTOR ( 'NONE', #740, 1000.000000000000000 ) ;
#543 = LINE ( 'NONE', #537, #735 ) ;
#544 = AXIS2_PLACEMENT_3D ( 'NONE', #651, #398, #410 ) ;
#545 = ORIENTED_EDGE ( 'NONE', *, *, #721, .T. ) ;
#546 = FACE_BOUND ( 'NONE', #801, .T. ) ;
#547 = EDGE_CURVE ( 'NONE', #685, #738, #601, .T. ) ;
#548 = CARTESIAN_POINT ( 'NONE',  ( 7.000000000000000000, 5.000000000000000888, 0.000000000000000000 ) ) ;
#549 = ORIENTED_EDGE ( 'NONE', *, *, #590, .T. ) ;
#550 = PLANE ( 'NONE',  #750 ) ;
#551 = CARTESIAN_POINT ( 'NONE',  ( -4.124999999999999112, 0.4249999999999996003, 1.800000000000000044 ) ) ;
#552 = VERTEX_POINT ( 'NONE', #412 ) ;
#553 = EDGE_CURVE ( 'NONE', #64, #406, #159, .T. ) ;
#554 = LINE ( 'NONE', #625, #289 ) ;
#555 = AXIS2_PLACEMENT_3D ( 'NONE', #174, #423, #477 ) ;
#556 = VECTOR ( 'NONE', #520, 1000.000000000000000 ) ;
#557 = ORIENTED_EDGE ( 'NONE', *, *, #746, .T. ) ;
#558 = PRODUCT_DEFINITION_SHAPE ( 'NONE', 'NONE',  #527 ) ;
#559 = AXIS2_PLACEMENT_3D ( 'NONE', #272, #529, #161 ) ;
#560 = DIRECTION ( 'NONE',  ( 1.000000000000000000, 0.000000000000000000, 0.000000000000000000 ) ) ;
#561 = ADVANCED_FACE ( 'NONE', ( #472 ), #785, .T. ) ;
#562 = CARTESIAN_POINT ( 'NONE',  ( 4.125000000000000888, 1.624999999999999556, 1.800000000000000044 ) ) ;
#563 = LINE ( 'NONE', #322, #375 ) ;
#564 = ORIENTED_EDGE ( 'NONE', *, *, #29, .T. ) ;
#565 = SURFACE_STYLE_FILL_AREA ( #501 ) ;
#566 = CARTESIAN_POINT ( 'NONE',  ( -3.899999999999999911, 2.724999999999999645, 1.800000000000000044 ) ) ;
#567 = ORIENTED_EDGE ( 'NONE', *, *, #61, .T. ) ;
#568 = DIRECTION ( 'NONE',  ( 0.000000000000000000, 0.000000000000000000, -1.000000000000000000 ) ) ;
#569 = CYLINDRICAL_SURFACE ( 'NONE', #494, 0.2999999999999999334 ) ;
#570 = ORIENTED_EDGE ( 'NONE', *, *, #605, .F. ) ;
#571 = EDGE_CURVE ( 'NONE', #152, #185, #94, .T. ) ;
#572 = CARTESIAN_POINT ( 'NONE',  ( 4.200000000000001066, 3.024999999999999467, 0.8000000000000000444 ) ) ;
#573 = EDGE_LOOP ( 'NONE', ( #588, #251, #763, #242 ) ) ;
#574 = AXIS2_PLACEMENT_3D ( 'NONE', #784, #211, #341 ) ;
#575 = VECTOR ( 'NONE', #591, 1000.000000000000000 ) ;
#576 = EDGE_LOOP ( 'NONE', ( #759, #670, #397, #557 ) ) ;
#577 = DIRECTION ( 'NONE',  ( 0.000000000000000000, 0.000000000000000000, -1.000000000000000000 ) ) ;
#578 = EDGE_CURVE ( 'NONE', #220, #70, #276, .T. ) ;
#579 = ORIENTED_EDGE ( 'NONE', *, *, #45, .T. ) ;
#580 = CARTESIAN_POINT ( 'NONE',  ( -2.924999999999999822, 1.624999999999999556, 1.799999999999999600 ) ) ;
#581 = EDGE_LOOP ( 'NONE', ( #26, #511, #22, #579, #125, #681, #11, #592 ) ) ;
#582 = CARTESIAN_POINT ( 'NONE',  ( -4.200000000000000178, 2.724999999999999645, 0.8000000000000000444 ) ) ;
#583 = DIRECTION ( 'NONE',  ( -1.000000000000000000, -0.000000000000000000, -0.000000000000000000 ) ) ;
#584 = ADVANCED_FACE ( 'NONE', ( #91 ), #518, .T. ) ;
#585 = FACE_OUTER_BOUND ( 'NONE', #719, .T. ) ;
#586 = VERTEX_POINT ( 'NONE', #201 ) ;
#587 = CARTESIAN_POINT ( 'NONE',  ( -4.200000000000000178, 3.024999999999999467, 0.8000000000000000444 ) ) ;
#588 = ORIENTED_EDGE ( 'NONE', *, *, #426, .T. ) ;
#589 = VECTOR ( 'NONE', #653, 1000.000000000000000 ) ;
#590 = EDGE_CURVE ( 'NONE', #751, #738, #728, .T. ) ;
#591 = DIRECTION ( 'NONE',  ( -1.000000000000000000, -0.000000000000000000, -0.000000000000000000 ) ) ;
#592 = ORIENTED_EDGE ( 'NONE', *, *, #344, .T. ) ;
#593 = VECTOR ( 'NONE', #262, 1000.000000000000000 ) ;
#594 = ORIENTED_EDGE ( 'NONE', *, *, #118, .T. ) ;
#595 = DIRECTION ( 'NONE',  ( -0.000000000000000000, -0.000000000000000000, 1.000000000000000000 ) ) ;
#596 = VERTEX_POINT ( 'NONE', #146 ) ;
#597 = CARTESIAN_POINT ( 'NONE',  ( 2.925000000000001599, 2.824999999999999289, 8.839999999999999858 ) ) ;
#598 = CARTESIAN_POINT ( 'NONE',  ( -4.124999999999999112, 1.624999999999999556, 8.839999999999999858 ) ) ;
#599 = ADVANCED_FACE ( 'NONE', ( #207 ), #402, .F. ) ;
#600 = VERTEX_POINT ( 'NONE', #465 ) ;
#601 = LINE ( 'NONE', #405, #336 ) ;
#602 = VECTOR ( 'NONE', #51, 1000.000000000000000 ) ;
#603 = VECTOR ( 'NONE', #691, 1000.000000000000000 ) ;
#604 = DIRECTION ( 'NONE',  ( -1.000000000000000000, 0.000000000000000000, 0.000000000000000000 ) ) ;
#605 = EDGE_CURVE ( 'NONE', #155, #64, #254, .T. ) ;
#606 = PLANE ( 'NONE',  #496 ) ;
#607 = DIRECTION ( 'NONE',  ( 3.336006684570785567E-16, 1.000000000000000000, -0.000000000000000000 ) ) ;
#608 = ORIENTED_EDGE ( 'NONE', *, *, #451, .T. ) ;
#609 = ADVANCED_BREP_SHAPE_REPRESENTATION ( 'ModuloBLE', ( #475, #292 ), #323 ) ;
#610 = DIRECTION ( 'NONE',  ( -0.000000000000000000, -0.000000000000000000, -1.000000000000000000 ) ) ;
#611 = ADVANCED_FACE ( 'NONE', ( #718 ), #648, .T. ) ;
#612 = CARTESIAN_POINT ( 'NONE',  ( -3.899999999999999911, 0.5249999999999994671, 1.800000000000000044 ) ) ;
#613 = ORIENTED_EDGE ( 'NONE', *, *, #664, .T. ) ;
#614 = DIRECTION ( 'NONE',  ( 1.000000000000000000, 9.035018104045870941E-16, 0.000000000000000000 ) ) ;
#615 = CLOSED_SHELL ( 'NONE', ( #19, #279, #683, #79, #814, #646, #517, #141, #404, #2, #599, #486, #255, #135, #661, #395, #436, #561, #476, #727, #297, #37, #611, #584, #783, #103 ) ) ;
#616 = PRODUCT ( 'ModuloBLE', 'ModuloBLE', '', ( #439 ) ) ;
#617 = DIRECTION ( 'NONE',  ( 1.000000000000000000, 0.000000000000000000, 0.000000000000000000 ) ) ;
#618 = CIRCLE ( 'NONE', #216, 1.199999999999999734 ) ;
#619 = CIRCLE ( 'NONE', #710, 1.199999999999999734 ) ;
#620 = EDGE_LOOP ( 'NONE', ( #540, #337, #495, #131 ) ) ;
#621 = DIRECTION ( 'NONE',  ( -0.000000000000000000, 0.000000000000000000, 1.000000000000000000 ) ) ;
#622 = DIRECTION ( 'NONE',  ( -0.000000000000000000, 0.000000000000000000, 1.000000000000000000 ) ) ;
#623 = VERTEX_POINT ( 'NONE', #342 ) ;
#624 = DIRECTION ( 'NONE',  ( 0.000000000000000000, -0.000000000000000000, -1.000000000000000000 ) ) ;
#625 = CARTESIAN_POINT ( 'NONE',  ( 2.925000000000001599, 2.824999999999999289, 8.839999999999999858 ) ) ;
#626 = EDGE_CURVE ( 'NONE', #392, #596, #663, .T. ) ;
#627 = ORIENTED_EDGE ( 'NONE', *, *, #310, .T. ) ;
#628 = DIRECTION ( 'NONE',  ( -0.000000000000000000, -0.000000000000000000, -1.000000000000000000 ) ) ;
#629 = AXIS2_PLACEMENT_3D ( 'NONE', #312, #137, #307 ) ;
#630 = EDGE_LOOP ( 'NONE', ( #233, #430, #471, #411, #487, #467, #339, #150 ) ) ;
#631 = LINE ( 'NONE', #440, #603 ) ;
#632 = CARTESIAN_POINT ( 'NONE',  ( 4.400000000000001243, 5.000000000000000000, 0.8000000000000000444 ) ) ;
#633 = EDGE_LOOP ( 'NONE', ( #453, #389, #689, #385 ) ) ;
#634 = DIRECTION ( 'NONE',  ( 0.000000000000000000, -0.000000000000000000, -1.000000000000000000 ) ) ;
#635 = EDGE_CURVE ( 'NONE', #516, #659, #532, .T. ) ;
#636 = FACE_OUTER_BOUND ( 'NONE', #178, .T. ) ;
#637 = CARTESIAN_POINT ( 'NONE',  ( 7.000000000000000000, 5.000000000000000888, 0.8000000000000000444 ) ) ;
#638 = ORIENTED_EDGE ( 'NONE', *, *, #208, .T. ) ;
#639 =( LENGTH_UNIT ( ) NAMED_UNIT ( * ) SI_UNIT ( .MILLI., .METRE. ) );
#640 = ORIENTED_EDGE ( 'NONE', *, *, #809, .F. ) ;
#641 = LINE ( 'NONE', #816, #88 ) ;
#642 = EDGE_LOOP ( 'NONE', ( #673, #796, #43, #531 ) ) ;
#643 = VECTOR ( 'NONE', #420, 1000.000000000000000 ) ;
#644 = FACE_OUTER_BOUND ( 'NONE', #771, .T. ) ;
#645 = LINE ( 'NONE', #706, #57 ) ;
#646 = ADVANCED_FACE ( 'NONE', ( #779 ), #267, .F. ) ;
#647 = EDGE_LOOP ( 'NONE', ( #197, #294, #446, #699 ) ) ;
#648 = CYLINDRICAL_SURFACE ( 'NONE', #321, 1.199999999999999956 ) ;
#649 = LINE ( 'NONE', #587, #556 ) ;
#650 = PLANE ( 'NONE',  #277 ) ;
#651 = CARTESIAN_POINT ( 'NONE',  ( -4.200000000000000178, 3.024999999999999467, 1.800000000000000044 ) ) ;
#652 = ORIENTED_EDGE ( 'NONE', *, *, #50, .F. ) ;
#653 = DIRECTION ( 'NONE',  ( -0.000000000000000000, -0.000000000000000000, 1.000000000000000000 ) ) ;
#654 = AXIS2_PLACEMENT_3D ( 'NONE', #502, #3, #749 ) ;
#655 = CARTESIAN_POINT ( 'NONE',  ( 2.925000000000001599, 0.4249999999999996003, 8.839999999999999858 ) ) ;
#656 = ORIENTED_EDGE ( 'NONE', *, *, #45, .F. ) ;
#657 = VECTOR ( 'NONE', #714, 1000.000000000000000 ) ;
#658 = VECTOR ( 'NONE', #354, 1000.000000000000000 ) ;
#659 = VERTEX_POINT ( 'NONE', #742 ) ;
#660 = DIRECTION ( 'NONE',  ( 0.000000000000000000, 0.000000000000000000, -1.000000000000000000 ) ) ;
#661 = ADVANCED_FACE ( 'NONE', ( #546, #224 ), #550, .T. ) ;
#662 = CARTESIAN_POINT ( 'NONE',  ( -4.200000000000000178, 0.5249999999999994671, 1.800000000000000044 ) ) ;
#663 = LINE ( 'NONE', #333, #812 ) ;
#664 = EDGE_CURVE ( 'NONE', #111, #286, #38, .T. ) ;
#665 = DIRECTION ( 'NONE',  ( -1.000000000000000000, -3.336006684570784088E-16, 0.000000000000000000 ) ) ;
#666 = DIRECTION ( 'NONE',  ( -0.000000000000000000, -0.000000000000000000, 1.000000000000000000 ) ) ;
#667 = AXIS2_PLACEMENT_3D ( 'NONE', #24, #660, #212 ) ;
#668 = VECTOR ( 'NONE', #568, 1000.000000000000000 ) ;
#669 = PLANE ( 'NONE',  #156 ) ;
#670 = ORIENTED_EDGE ( 'NONE', *, *, #578, .T. ) ;
#671 = CARTESIAN_POINT ( 'NONE',  ( -3.899999999999999911, 0.2249999999999995060, 1.800000000000000044 ) ) ;
#672 = DIRECTION ( 'NONE',  ( 1.000000000000000000, -3.336006684570785074E-16, -0.000000000000000000 ) ) ;
#673 = ORIENTED_EDGE ( 'NONE', *, *, #202, .F. ) ;
#674 = DIRECTION ( 'NONE',  ( 0.000000000000000000, -0.000000000000000000, -1.000000000000000000 ) ) ;
#675 = CARTESIAN_POINT ( 'NONE',  ( -4.400000000000001243, 5.000000000000000000, 0.8000000000000000444 ) ) ;
#676 = VERTEX_POINT ( 'NONE', #176 ) ;
#677 = CARTESIAN_POINT ( 'NONE',  ( 3.900000000000000799, 0.5249999999999994671, 0.7999999999999999334 ) ) ;
#678 = COLOUR_RGB ( '',0.7921568627450980005, 0.8196078431372548767, 0.9333333333333333481 ) ;
#679 = FACE_OUTER_BOUND ( 'NONE', #138, .T. ) ;
#680 = AXIS2_PLACEMENT_3D ( 'NONE', #760, #634, #560 ) ;
#681 = ORIENTED_EDGE ( 'NONE', *, *, #700, .T. ) ;
#682 = CARTESIAN_POINT ( 'NONE',  ( -4.400000000000000355, -2.694222958124176020E-16, 0.8000000000000000444 ) ) ;
#683 = ADVANCED_FACE ( 'NONE', ( #108 ), #44, .F. ) ;
#684 = DIRECTION ( 'NONE',  ( 0.000000000000000000, 1.000000000000000000, 0.000000000000000000 ) ) ;
#685 = VERTEX_POINT ( 'NONE', #101 ) ;
#686 = DIRECTION ( 'NONE',  ( -1.000000000000000000, 0.000000000000000000, 0.000000000000000000 ) ) ;
#687 = EDGE_CURVE ( 'NONE', #261, #685, #802, .T. ) ;
#688 = LINE ( 'NONE', #388, #268 ) ;
#689 = ORIENTED_EDGE ( 'NONE', *, *, #171, .F. ) ;
#690 = SHAPE_DEFINITION_REPRESENTATION ( #558, #609 ) ;
#691 = DIRECTION ( 'NONE',  ( 1.156482317317871478E-16, 1.000000000000000000, -0.000000000000000000 ) ) ;
#692 = PLANE ( 'NONE',  #748 ) ;
#693 = AXIS2_PLACEMENT_3D ( 'NONE', #95, #726, #32 ) ;
#694 = STYLED_ITEM ( 'NONE', ( #247 ), #475 ) ;
#695 = EDGE_LOOP ( 'NONE', ( #54, #373, #656, #421 ) ) ;
#696 = EDGE_CURVE ( 'NONE', #152, #701, #794, .T. ) ;
#697 = DIRECTION ( 'NONE',  ( 0.000000000000000000, 0.000000000000000000, -1.000000000000000000 ) ) ;
#698 = DIRECTION ( 'NONE',  ( -0.000000000000000000, 0.000000000000000000, 1.000000000000000000 ) ) ;
#699 = ORIENTED_EDGE ( 'NONE', *, *, #349, .T. ) ;
#700 = EDGE_CURVE ( 'NONE', #154, #685, #240, .T. ) ;
#701 = VERTEX_POINT ( 'NONE', #228 ) ;
#702 = CARTESIAN_POINT ( 'NONE',  ( -6.999999999999999112, 5.000000000000000888, 0.000000000000000000 ) ) ;
#703 = EDGE_LOOP ( 'NONE', ( #442, #765, #808, #523 ) ) ;
#704 = DIRECTION ( 'NONE',  ( -1.000000000000000000, 0.000000000000000000, 0.000000000000000000 ) ) ;
#705 = DIRECTION ( 'NONE',  ( 1.000000000000000000, 0.000000000000000000, 0.000000000000000000 ) ) ;
#706 = CARTESIAN_POINT ( 'NONE',  ( 4.200000000000000178, 0.5249999999999994671, 1.800000000000000044 ) ) ;
#707 = DIRECTION ( 'NONE',  ( 1.000000000000000000, 0.000000000000000000, 0.000000000000000000 ) ) ;
#708 = VECTOR ( 'NONE', #6, 1000.000000000000000 ) ;
#709 =( GEOMETRIC_REPRESENTATION_CONTEXT ( 3 ) GLOBAL_UNCERTAINTY_ASSIGNED_CONTEXT ( ( #258 ) ) GLOBAL_UNIT_ASSIGNED_CONTEXT ( ( #639, #140, #257 ) ) REPRESENTATION_CONTEXT ( 'NONE', 'WORKASPACE' ) );
#710 = AXIS2_PLACEMENT_3D ( 'NONE', #113, #621, #283 ) ;
#711 = DIRECTION ( 'NONE',  ( 1.734723475976807094E-16, 1.000000000000000000, -0.000000000000000000 ) ) ;
#712 = ORIENTED_EDGE ( 'NONE', *, *, #284, .T. ) ;
#713 = EDGE_CURVE ( 'NONE', #246, #286, #474, .T. ) ;
#714 = DIRECTION ( 'NONE',  ( 1.000000000000000000, 0.000000000000000000, 0.000000000000000000 ) ) ;
#715 = LINE ( 'NONE', #662, #589 ) ;
#716 = DIRECTION ( 'NONE',  ( 0.000000000000000000, -1.000000000000000000, 0.000000000000000000 ) ) ;
#717 = CARTESIAN_POINT ( 'NONE',  ( -4.400000000000001243, 5.000000000000000000, 0.8000000000000000444 ) ) ;
#718 = FACE_OUTER_BOUND ( 'NONE', #787, .T. ) ;
#719 = EDGE_LOOP ( 'NONE', ( #28, #786, #8, #160 ) ) ;
#720 = ORIENTED_EDGE ( 'NONE', *, *, #218, .T. ) ;
#721 = EDGE_CURVE ( 'NONE', #86, #48, #35, .T. ) ;
#722 = AXIS2_PLACEMENT_3D ( 'NONE', #566, #698, #498 ) ;
#723 = CARTESIAN_POINT ( 'NONE',  ( -7.000000000000000000, 20.00000000000000000, 0.8000000000000000444 ) ) ;
#724 = VECTOR ( 'NONE', #435, 1000.000000000000000 ) ;
#725 = VECTOR ( 'NONE', #41, 1000.000000000000000 ) ;
#726 = DIRECTION ( 'NONE',  ( 0.000000000000000000, -0.000000000000000000, -1.000000000000000000 ) ) ;
#727 = ADVANCED_FACE ( 'NONE', ( #734 ), #606, .F. ) ;
#728 = LINE ( 'NONE', #457, #168 ) ;
#729 = FACE_OUTER_BOUND ( 'NONE', #633, .T. ) ;
#730 = CARTESIAN_POINT ( 'NONE',  ( -4.200000000000000178, 0.2249999999999995060, 0.8000000000000000444 ) ) ;
#731 = EDGE_CURVE ( 'NONE', #70, #86, #619, .T. ) ;
#732 = LINE ( 'NONE', #743, #142 ) ;
#733 = ORIENTED_EDGE ( 'NONE', *, *, #374, .T. ) ;
#734 = FACE_OUTER_BOUND ( 'NONE', #576, .T. ) ;
#735 = VECTOR ( 'NONE', #800, 1000.000000000000000 ) ;
#736 = EDGE_CURVE ( 'NONE', #136, #213, #419, .T. ) ;
#737 = LINE ( 'NONE', #163, #542 ) ;
#738 = VERTEX_POINT ( 'NONE', #541 ) ;
#739 = CARTESIAN_POINT ( 'NONE',  ( -2.924999999999999822, 2.824999999999999289, 8.839999999999999858 ) ) ;
#740 = DIRECTION ( 'NONE',  ( -1.000000000000000000, -0.000000000000000000, -0.000000000000000000 ) ) ;
#741 = ORIENTED_EDGE ( 'NONE', *, *, #780, .T. ) ;
#742 = CARTESIAN_POINT ( 'NONE',  ( -7.000000000000000000, 20.00000000000000000, 0.000000000000000000 ) ) ;
#743 = CARTESIAN_POINT ( 'NONE',  ( -4.200000000000000178, 3.024999999999999467, 1.800000000000000044 ) ) ;
#744 = ORIENTED_EDGE ( 'NONE', *, *, #374, .F. ) ;
#745 = CARTESIAN_POINT ( 'NONE',  ( 2.925000000000001599, 1.624999999999999556, 8.839999999999999858 ) ) ;
#746 = EDGE_CURVE ( 'NONE', #552, #75, #49, .T. ) ;
#747 = VECTOR ( 'NONE', #170, 1000.000000000000000 ) ;
#748 = AXIS2_PLACEMENT_3D ( 'NONE', #119, #63, #368 ) ;
#749 = DIRECTION ( 'NONE',  ( -3.097720492815727166E-16, -1.000000000000000000, 0.000000000000000000 ) ) ;
#750 = AXIS2_PLACEMENT_3D ( 'NONE', #295, #538, #484 ) ;
#751 = VERTEX_POINT ( 'NONE', #671 ) ;
#752 = CARTESIAN_POINT ( 'NONE',  ( 0.000000000000000000, 0.000000000000000000, 0.000000000000000000 ) ) ;
#753 = EDGE_CURVE ( 'NONE', #701, #676, #366, .T. ) ;
#754 = CARTESIAN_POINT ( 'NONE',  ( -4.124999999999999112, 1.624999999999999556, 1.800000000000000044 ) ) ;
#755 = LINE ( 'NONE', #181, #762 ) ;
#756 = VERTEX_POINT ( 'NONE', #164 ) ;
#757 = EDGE_CURVE ( 'NONE', #392, #152, #431, .T. ) ;
#758 = CARTESIAN_POINT ( 'NONE',  ( -3.899999999999999911, 3.024999999999999467, 1.800000000000000044 ) ) ;
#759 = ORIENTED_EDGE ( 'NONE', *, *, #162, .T. ) ;
#760 = CARTESIAN_POINT ( 'NONE',  ( -3.899999999999999911, 2.724999999999999645, 0.7999999999999999334 ) ) ;
#761 = DIRECTION ( 'NONE',  ( -0.000000000000000000, -0.000000000000000000, -1.000000000000000000 ) ) ;
#762 = VECTOR ( 'NONE', #433, 1000.000000000000000 ) ;
#763 = ORIENTED_EDGE ( 'NONE', *, *, #413, .F. ) ;
#764 = DIRECTION ( 'NONE',  ( 1.000000000000000000, 0.000000000000000000, 0.000000000000000000 ) ) ;
#765 = ORIENTED_EDGE ( 'NONE', *, *, #696, .F. ) ;
#766 = CARTESIAN_POINT ( 'NONE',  ( -4.200000000000000178, 2.724999999999999645, 1.800000000000000044 ) ) ;
#767 = ORIENTED_EDGE ( 'NONE', *, *, #463, .T. ) ;
#768 = APPLICATION_PROTOCOL_DEFINITION ( 'draft international standard', 'automotive_design', 1998, #427 ) ;
#769 = CARTESIAN_POINT ( 'NONE',  ( 3.900000000000000799, 0.5249999999999994671, 1.800000000000000044 ) ) ;
#770 = CARTESIAN_POINT ( 'NONE',  ( 3.900000000000001688, 2.724999999999999645, 1.800000000000000044 ) ) ;
#771 = EDGE_LOOP ( 'NONE', ( #227, #13, #328, #334, #273, #25, #720, #317 ) ) ;
#772 = EDGE_CURVE ( 'NONE', #175, #155, #797, .T. ) ;
#773 = DIRECTION ( 'NONE',  ( -1.000000000000000000, 0.000000000000000000, 0.000000000000000000 ) ) ;
#774 = ORIENTED_EDGE ( 'NONE', *, *, #605, .T. ) ;
#775 = CARTESIAN_POINT ( 'NONE',  ( 7.000000000000001776, 20.00000000000000000, 0.8000000000000000444 ) ) ;
#776 = VERTEX_POINT ( 'NONE', #173 ) ;
#777 = CIRCLE ( 'NONE', #629, 1.199999999999999956 ) ;
#778 = VECTOR ( 'NONE', #595, 1000.000000000000000 ) ;
#779 = FACE_OUTER_BOUND ( 'NONE', #620, .T. ) ;
#780 = EDGE_CURVE ( 'NONE', #75, #406, #23, .T. ) ;
#781 = LINE ( 'NONE', #521, #112 ) ;
#782 = CARTESIAN_POINT ( 'NONE',  ( 2.925000000000001599, 1.624999999999999556, 8.839999999999999858 ) ) ;
#783 = ADVANCED_FACE ( 'NONE', ( #810 ), #303, .T. ) ;
#784 = CARTESIAN_POINT ( 'NONE',  ( 0.000000000000000000, 0.000000000000000000, 8.839999999999999858 ) ) ;
#785 = CYLINDRICAL_SURFACE ( 'NONE', #667, 0.2999999999999999334 ) ;
#786 = ORIENTED_EDGE ( 'NONE', *, *, #208, .F. ) ;
#787 = EDGE_LOOP ( 'NONE', ( #193, #104, #813, #40 ) ) ;
#788 = AXIS2_PLACEMENT_3D ( 'NONE', #580, #346, #151 ) ;
#789 = PLANE ( 'NONE',  #217 ) ;
#790 = ORIENTED_EDGE ( 'NONE', *, *, #753, .T. ) ;
#791 = CARTESIAN_POINT ( 'NONE',  ( 4.400000000000001243, 5.000000000000000000, 0.000000000000000000 ) ) ;
#792 = EDGE_CURVE ( 'NONE', #490, #145, #139, .T. ) ;
#793 = DIRECTION ( 'NONE',  ( 1.000000000000000000, 0.000000000000000000, 0.000000000000000000 ) ) ;
#794 = LINE ( 'NONE', #806, #158 ) ;
#795 = CARTESIAN_POINT ( 'NONE',  ( -4.400000000000001243, 5.000000000000000000, 0.000000000000000000 ) ) ;
#796 = ORIENTED_EDGE ( 'NONE', *, *, #553, .T. ) ;
#797 = LINE ( 'NONE', #739, #378 ) ;
#798 = CIRCLE ( 'NONE', #99, 0.2999999999999999334 ) ;
#799 = AXIS2_PLACEMENT_3D ( 'NONE', #782, #338, #773 ) ;
#800 = DIRECTION ( 'NONE',  ( 1.734723475976807094E-16, -1.000000000000000000, 0.000000000000000000 ) ) ;
#801 = EDGE_LOOP ( 'NONE', ( #741, #30, #107, #767, #627, #506 ) ) ;
#802 = LINE ( 'NONE', #730, #510 ) ;
#803 = CARTESIAN_POINT ( 'NONE',  ( 4.200000000000000178, 0.5249999999999994671, 0.8000000000000000444 ) ) ;
#804 = EDGE_CURVE ( 'NONE', #586, #596, #189, .T. ) ;
#805 = EDGE_LOOP ( 'NONE', ( #790, #652, #478, #380 ) ) ;
#806 = CARTESIAN_POINT ( 'NONE',  ( 4.400000000000000355, -2.694222958124176020E-16, 0.8000000000000000444 ) ) ;
#807 = DIRECTION ( 'NONE',  ( 1.000000000000000000, 0.000000000000000000, 0.000000000000000000 ) ) ;
#808 = ORIENTED_EDGE ( 'NONE', *, *, #757, .F. ) ;
#809 = EDGE_CURVE ( 'NONE', #365, #136, #482, .T. ) ;
#810 = FACE_OUTER_BOUND ( 'NONE', #83, .T. ) ;
#811 = DIRECTION ( 'NONE',  ( 0.000000000000000000, 0.000000000000000000, -1.000000000000000000 ) ) ;
#812 = VECTOR ( 'NONE', #96, 1000.000000000000000 ) ;
#813 = ORIENTED_EDGE ( 'NONE', *, *, #432, .F. ) ;
#814 = ADVANCED_FACE ( 'NONE', ( #299 ), #443, .F. ) ;
#815 = CARTESIAN_POINT ( 'NONE',  ( 7.000000000000001776, 20.00000000000000000, 0.8000000000000000444 ) ) ;
#816 = CARTESIAN_POINT ( 'NONE',  ( -4.200000000000000178, 3.024999999999999467, 1.800000000000000044 ) ) ;
#817 = ORIENTED_EDGE ( 'NONE', *, *, #90, .T. ) ;
ENDSEC;
END-ISO-10303-21;
