ISO-10303-21;
HEADER;
FILE_DESCRIPTION (( 'STEP AP214' ),
    '1' );
FILE_NAME ('PowerBoard.STEP',
    '2025-11-07T19:55:46',
    ( '' ),
    ( '' ),
    'SwSTEP 2.0',
    'SolidWorks 2025',
    '' );
FILE_SCHEMA (( 'AUTOMOTIVE_DESIGN' ));
ENDSEC;

DATA;
#1 = ORIENTED_EDGE ( 'NONE', *, *, #303, .F. ) ;
#2 = EDGE_LOOP ( 'NONE', ( #236, #200, #223, #322 ) ) ;
#3 = VERTEX_POINT ( 'NONE', #80 ) ;
#4 = CLOSED_SHELL ( 'NONE', ( #78, #327, #258, #24, #231, #146, #152, #53, #57, #229 ) ) ;
#5 = AXIS2_PLACEMENT_3D ( 'NONE', #46, #45, #153 ) ;
#6 = ORIENTED_EDGE ( 'NONE', *, *, #117, .T. ) ;
#7 = ORIENTED_EDGE ( 'NONE', *, *, #173, .T. ) ;
#8 = CARTESIAN_POINT ( 'NONE',  ( 16.00000000000000000, 0.8000000000000000444, -1.000000000000000000 ) ) ;
#9 = DIRECTION ( 'NONE',  ( 0.000000000000000000, 1.000000000000000000, 0.000000000000000000 ) ) ;
#10 = AXIS2_PLACEMENT_3D ( 'NONE', #209, #318, #139 ) ;
#11 = CARTESIAN_POINT ( 'NONE',  ( 16.00000000000000000, 0.000000000000000000, -43.99999999999998579 ) ) ;
#12 = DIRECTION ( 'NONE',  ( -1.000000000000000000, 0.000000000000000000, 0.000000000000000000 ) ) ;
#13 = LINE ( 'NONE', #192, #163 ) ;
#14 = CARTESIAN_POINT ( 'NONE',  ( 16.00000000000000000, 0.8000000000000000444, 0.000000000000000000 ) ) ;
#15 = CARTESIAN_POINT ( 'NONE',  ( 15.00000000000000178, 0.000000000000000000, 0.000000000000000000 ) ) ;
#16 = FACE_OUTER_BOUND ( 'NONE', #302, .T. ) ;
#17 = EDGE_CURVE ( 'NONE', #85, #233, #86, .T. ) ;
#18 = VECTOR ( 'NONE', #317, 1000.000000000000000 ) ;
#19 = AXIS2_PLACEMENT_3D ( 'NONE', #64, #266, #98 ) ;
#20 = EDGE_LOOP ( 'NONE', ( #79, #252, #269, #296 ) ) ;
#21 = PRESENTATION_LAYER_ASSIGNMENT (  '', '', ( #184 ) ) ;
#22 = PRODUCT_DEFINITION_CONTEXT ( 'detailed design', #300, 'design' ) ;
#23 = EDGE_LOOP ( 'NONE', ( #155, #308, #1, #307 ) ) ;
#24 = ADVANCED_FACE ( 'NONE', ( #272 ), #26, .F. ) ;
#25 = DIRECTION ( 'NONE',  ( 0.000000000000000000, -1.000000000000000000, 0.000000000000000000 ) ) ;
#26 = PLANE ( 'NONE',  #239 ) ;
#27 = EDGE_CURVE ( 'NONE', #176, #58, #253, .T. ) ;
#28 = ORIENTED_EDGE ( 'NONE', *, *, #205, .F. ) ;
#29 = ORIENTED_EDGE ( 'NONE', *, *, #41, .T. ) ;
#30 = CARTESIAN_POINT ( 'NONE',  ( 0.9999999999999956701, 0.8000000000000000444, -45.00000000000000000 ) ) ;
#31 =( NAMED_UNIT ( * ) SI_UNIT ( $, .STERADIAN. ) SOLID_ANGLE_UNIT ( ) );
#32 = DIRECTION ( 'NONE',  ( 0.000000000000000000, 1.000000000000000000, 0.000000000000000000 ) ) ;
#33 = DIRECTION ( 'NONE',  ( 0.000000000000000000, 1.000000000000000000, 0.000000000000000000 ) ) ;
#34 = VECTOR ( 'NONE', #191, 1000.000000000000000 ) ;
#35 = FACE_OUTER_BOUND ( 'NONE', #59, .T. ) ;
#36 = CARTESIAN_POINT ( 'NONE',  ( 0.000000000000000000, 0.8000000000000000444, 0.000000000000000000 ) ) ;
#37 = CIRCLE ( 'NONE', #115, 1.000000000000000000 ) ;
#38 = FACE_OUTER_BOUND ( 'NONE', #122, .T. ) ;
#39 = EDGE_CURVE ( 'NONE', #151, #208, #52, .T. ) ;
#40 = DIRECTION ( 'NONE',  ( 0.000000000000000000, 0.000000000000000000, 1.000000000000000000 ) ) ;
#41 = EDGE_CURVE ( 'NONE', #176, #161, #232, .T. ) ;
#42 = PLANE ( 'NONE',  #178 ) ;
#43 = VECTOR ( 'NONE', #165, 1000.000000000000000 ) ;
#44 = ORIENTED_EDGE ( 'NONE', *, *, #134, .F. ) ;
#45 = DIRECTION ( 'NONE',  ( 0.000000000000000000, 0.000000000000000000, -1.000000000000000000 ) ) ;
#46 = CARTESIAN_POINT ( 'NONE',  ( 0.000000000000000000, 0.8000000000000000444, 0.000000000000000000 ) ) ;
#47 = ORIENTED_EDGE ( 'NONE', *, *, #309, .F. ) ;
#48 = CARTESIAN_POINT ( 'NONE',  ( 0.000000000000000000, 0.000000000000000000, 0.000000000000000000 ) ) ;
#49 = ORIENTED_EDGE ( 'NONE', *, *, #251, .F. ) ;
#50 = PRODUCT_DEFINITION_FORMATION_WITH_SPECIFIED_SOURCE ( 'ANY', '', #235, .NOT_KNOWN. ) ;
#51 = VERTEX_POINT ( 'NONE', #182 ) ;
#52 = LINE ( 'NONE', #156, #306 ) ;
#53 = ADVANCED_FACE ( 'NONE', ( #35 ), #289, .T. ) ;
#54 = DIRECTION ( 'NONE',  ( 1.000000000000000000, 0.000000000000000000, -0.000000000000000000 ) ) ;
#55 = VECTOR ( 'NONE', #199, 1000.000000000000000 ) ;
#56 = DIRECTION ( 'NONE',  ( 0.000000000000000000, -0.000000000000000000, 1.000000000000000000 ) ) ;
#57 = ADVANCED_FACE ( 'NONE', ( #215 ), #213, .T. ) ;
#58 = VERTEX_POINT ( 'NONE', #15 ) ;
#59 = EDGE_LOOP ( 'NONE', ( #111, #186, #28, #323 ) ) ;
#60 = DIRECTION ( 'NONE',  ( 0.000000000000000000, 0.000000000000000000, 1.000000000000000000 ) ) ;
#61 = CARTESIAN_POINT ( 'NONE',  ( 0.9999999999999963363, 0.8000000000000000444, -44.00000000000000000 ) ) ;
#62 = CARTESIAN_POINT ( 'NONE',  ( 0.000000000000000000, 0.000000000000000000, 0.000000000000000000 ) ) ;
#63 = LINE ( 'NONE', #187, #43 ) ;
#64 = CARTESIAN_POINT ( 'NONE',  ( 15.00000000000000178, 0.000000000000000000, -1.000000000000000000 ) ) ;
#65 = ADVANCED_BREP_SHAPE_REPRESENTATION ( 'PowerBoard', ( #100, #126 ), #145 ) ;
#66 = DIRECTION ( 'NONE',  ( 0.000000000000000000, 0.000000000000000000, -1.000000000000000000 ) ) ;
#67 = CARTESIAN_POINT ( 'NONE',  ( -3.392348130799088816E-15, 0.000000000000000000, -44.00000000000000000 ) ) ;
#68 = VECTOR ( 'NONE', #92, 1000.000000000000000 ) ;
#69 = DIRECTION ( 'NONE',  ( -0.000000000000000000, 1.000000000000000000, -0.000000000000000000 ) ) ;
#70 = EDGE_CURVE ( 'NONE', #208, #51, #314, .T. ) ;
#71 = LINE ( 'NONE', #243, #225 ) ;
#72 = FACE_OUTER_BOUND ( 'NONE', #310, .T. ) ;
#73 = SHAPE_DEFINITION_REPRESENTATION ( #81, #65 ) ;
#74 = ORIENTED_EDGE ( 'NONE', *, *, #297, .T. ) ;
#75 = LINE ( 'NONE', #326, #55 ) ;
#76 = AXIS2_PLACEMENT_3D ( 'NONE', #137, #316, #189 ) ;
#77 = VECTOR ( 'NONE', #286, 1000.000000000000000 ) ;
#78 = ADVANCED_FACE ( 'NONE', ( #118 ), #282, .F. ) ;
#79 = ORIENTED_EDGE ( 'NONE', *, *, #114, .T. ) ;
#80 = CARTESIAN_POINT ( 'NONE',  ( 16.00000000000000000, 0.8000000000000000444, -0.9999999999999995559 ) ) ;
#81 = PRODUCT_DEFINITION_SHAPE ( 'NONE', 'NONE',  #281 ) ;
#82 = DIRECTION ( 'NONE',  ( -0.000000000000000000, -1.000000000000000000, -0.000000000000000000 ) ) ;
#83 = DIRECTION ( 'NONE',  ( 0.000000000000000000, 1.000000000000000000, 0.000000000000000000 ) ) ;
#84 = CIRCLE ( 'NONE', #245, 1.000000000000000000 ) ;
#85 = VERTEX_POINT ( 'NONE', #265 ) ;
#86 = LINE ( 'NONE', #87, #177 ) ;
#87 = CARTESIAN_POINT ( 'NONE',  ( -3.392348130799088816E-15, 0.8000000000000000444, -44.00000000000000000 ) ) ;
#88 = DIRECTION ( 'NONE',  ( 0.000000000000000000, -1.000000000000000000, 0.000000000000000000 ) ) ;
#89 = CARTESIAN_POINT ( 'NONE',  ( 15.00000000000000178, 0.8000000000000000444, -44.00000000000000000 ) ) ;
#90 = PRODUCT_RELATED_PRODUCT_CATEGORY ( 'part', '', ( #235 ) ) ;
#91 = CARTESIAN_POINT ( 'NONE',  ( -7.709882115452564448E-17, 0.8000000000000000444, -1.000000000000014655 ) ) ;
#92 = DIRECTION ( 'NONE',  ( 7.709882115452475701E-17, 0.000000000000000000, 1.000000000000000000 ) ) ;
#93 = SURFACE_STYLE_USAGE ( .BOTH. , #164 ) ;
#94 = CARTESIAN_POINT ( 'NONE',  ( 0.9999999999999997780, 0.8000000000000000444, 0.000000000000000000 ) ) ;
#95 = EDGE_CURVE ( 'NONE', #220, #176, #63, .T. ) ;
#96 = AXIS2_PLACEMENT_3D ( 'NONE', #167, #32, #60 ) ;
#97 = AXIS2_PLACEMENT_3D ( 'NONE', #194, #168, #261 ) ;
#98 = DIRECTION ( 'NONE',  ( -1.734723475976807094E-15, 0.000000000000000000, 1.000000000000000000 ) ) ;
#99 = DIRECTION ( 'NONE',  ( 0.000000000000000000, 0.000000000000000000, -1.000000000000000000 ) ) ;
#100 = MANIFOLD_SOLID_BREP ( 'Filete1', #4 ) ;
#101 = ORIENTED_EDGE ( 'NONE', *, *, #320, .T. ) ;
#102 = VERTEX_POINT ( 'NONE', #91 ) ;
#103 = EDGE_CURVE ( 'NONE', #3, #275, #279, .T. ) ;
#104 = AXIS2_PLACEMENT_3D ( 'NONE', #89, #33, #136 ) ;
#105 = ORIENTED_EDGE ( 'NONE', *, *, #70, .F. ) ;
#106 = DIRECTION ( 'NONE',  ( 0.000000000000000000, -0.000000000000000000, 1.000000000000000000 ) ) ;
#107 = DIRECTION ( 'NONE',  ( 0.000000000000000000, 0.000000000000000000, 1.000000000000000000 ) ) ;
#108 = DIRECTION ( 'NONE',  ( -0.000000000000000000, 1.000000000000000000, -0.000000000000000000 ) ) ;
#109 = ORIENTED_EDGE ( 'NONE', *, *, #27, .T. ) ;
#110 = EDGE_LOOP ( 'NONE', ( #105, #226, #129, #304, #301, #29, #207, #255 ) ) ;
#111 = ORIENTED_EDGE ( 'NONE', *, *, #117, .F. ) ;
#112 = DIRECTION ( 'NONE',  ( -0.000000000000000000, 1.000000000000000000, -0.000000000000000000 ) ) ;
#113 = CARTESIAN_POINT ( 'NONE',  ( 16.00000000000000000, 0.000000000000000000, -0.9999999999999995559 ) ) ;
#114 = EDGE_CURVE ( 'NONE', #275, #160, #260, .T. ) ;
#115 = AXIS2_PLACEMENT_3D ( 'NONE', #210, #141, #219 ) ;
#116 = CARTESIAN_POINT ( 'NONE',  ( 0.000000000000000000, 0.8000000000000000444, 0.000000000000000000 ) ) ;
#117 = EDGE_CURVE ( 'NONE', #201, #85, #287, .T. ) ;
#118 = FACE_OUTER_BOUND ( 'NONE', #2, .T. ) ;
#119 = LINE ( 'NONE', #14, #18 ) ;
#120 = CARTESIAN_POINT ( 'NONE',  ( 15.00000000000000178, 0.8000000000000000444, -45.00000000000000000 ) ) ;
#121 = DIRECTION ( 'NONE',  ( -1.000000000000000000, 0.000000000000000000, 0.000000000000000000 ) ) ;
#122 = EDGE_LOOP ( 'NONE', ( #204, #277, #49, #256 ) ) ;
#123 = ORIENTED_EDGE ( 'NONE', *, *, #196, .T. ) ;
#124 = ORIENTED_EDGE ( 'NONE', *, *, #262, .T. ) ;
#125 = VECTOR ( 'NONE', #278, 1000.000000000000000 ) ;
#126 = AXIS2_PLACEMENT_3D ( 'NONE', #48, #150, #321 ) ;
#127 = CARTESIAN_POINT ( 'NONE',  ( 0.9999999999999997780, 0.000000000000000000, -1.000000000000000000 ) ) ;
#128 = CARTESIAN_POINT ( 'NONE',  ( 0.000000000000000000, 0.000000000000000000, 0.000000000000000000 ) ) ;
#129 = ORIENTED_EDGE ( 'NONE', *, *, #114, .F. ) ;
#130 = VECTOR ( 'NONE', #112, 1000.000000000000000 ) ;
#131 = EDGE_CURVE ( 'NONE', #51, #201, #257, .T. ) ;
#132 = ORIENTED_EDGE ( 'NONE', *, *, #41, .F. ) ;
#133 =( NAMED_UNIT ( * ) PLANE_ANGLE_UNIT ( ) SI_UNIT ( $, .RADIAN. ) );
#134 = EDGE_CURVE ( 'NONE', #161, #102, #305, .T. ) ;
#135 = FILL_AREA_STYLE ('',( #211 ) ) ;
#136 = DIRECTION ( 'NONE',  ( 0.000000000000000000, 0.000000000000000000, 1.000000000000000000 ) ) ;
#137 = CARTESIAN_POINT ( 'NONE',  ( 15.00000000000000178, 0.8000000000000000444, -1.000000000000000000 ) ) ;
#138 = CARTESIAN_POINT ( 'NONE',  ( 16.00000000000000000, 0.8000000000000000444, -43.99999999999998579 ) ) ;
#139 = DIRECTION ( 'NONE',  ( -7.709882115452475701E-17, 0.000000000000000000, -1.000000000000000000 ) ) ;
#140 = LINE ( 'NONE', #36, #77 ) ;
#141 = DIRECTION ( 'NONE',  ( 0.000000000000000000, 1.000000000000000000, 0.000000000000000000 ) ) ;
#142 = MECHANICAL_DESIGN_GEOMETRIC_PRESENTATION_REPRESENTATION (  '', ( #184 ), #324 ) ;
#143 = AXIS2_PLACEMENT_3D ( 'NONE', #116, #9, #241 ) ;
#144 = CARTESIAN_POINT ( 'NONE',  ( -3.469446951953613794E-15, 0.8000000000000000444, -45.00000000000000000 ) ) ;
#145 =( GEOMETRIC_REPRESENTATION_CONTEXT ( 3 ) GLOBAL_UNCERTAINTY_ASSIGNED_CONTEXT ( ( #250 ) ) GLOBAL_UNIT_ASSIGNED_CONTEXT ( ( #148, #246, #249 ) ) REPRESENTATION_CONTEXT ( 'NONE', 'WORKASPACE' ) );
#146 = ADVANCED_FACE ( 'NONE', ( #188 ), #280, .F. ) ;
#147 = VERTEX_POINT ( 'NONE', #203 ) ;
#148 =( LENGTH_UNIT ( ) NAMED_UNIT ( * ) SI_UNIT ( .MILLI., .METRE. ) );
#149 = EDGE_CURVE ( 'NONE', #58, #147, #183, .T. ) ;
#150 = DIRECTION ( 'NONE',  ( 0.000000000000000000, 0.000000000000000000, 1.000000000000000000 ) ) ;
#151 = VERTEX_POINT ( 'NONE', #120 ) ;
#152 = ADVANCED_FACE ( 'NONE', ( #38 ), #264, .T. ) ;
#153 = DIRECTION ( 'NONE',  ( -1.000000000000000000, 0.000000000000000000, -0.000000000000000000 ) ) ;
#154 = CIRCLE ( 'NONE', #104, 1.000000000000000888 ) ;
#155 = ORIENTED_EDGE ( 'NONE', *, *, #196, .F. ) ;
#156 = CARTESIAN_POINT ( 'NONE',  ( 15.00000000000000178, 0.8000000000000000444, -45.00000000000000000 ) ) ;
#157 = ORIENTED_EDGE ( 'NONE', *, *, #149, .T. ) ;
#158 = AXIS2_PLACEMENT_3D ( 'NONE', #127, #82, #107 ) ;
#159 = AXIS2_PLACEMENT_3D ( 'NONE', #313, #195, #214 ) ;
#160 = VERTEX_POINT ( 'NONE', #11 ) ;
#161 = VERTEX_POINT ( 'NONE', #190 ) ;
#162 = ORIENTED_EDGE ( 'NONE', *, *, #131, .T. ) ;
#163 = VECTOR ( 'NONE', #170, 1000.000000000000000 ) ;
#164 = SURFACE_SIDE_STYLE ('',( #240 ) ) ;
#165 = DIRECTION ( 'NONE',  ( 0.000000000000000000, -1.000000000000000000, 0.000000000000000000 ) ) ;
#166 = LINE ( 'NONE', #144, #68 ) ;
#167 = CARTESIAN_POINT ( 'NONE',  ( 0.9999999999999963363, 0.8000000000000000444, -44.00000000000000000 ) ) ;
#168 = DIRECTION ( 'NONE',  ( -0.000000000000000000, -1.000000000000000000, -0.000000000000000000 ) ) ;
#169 = AXIS2_PLACEMENT_3D ( 'NONE', #285, #259, #315 ) ;
#170 = DIRECTION ( 'NONE',  ( 7.709882115452475701E-17, 0.000000000000000000, 1.000000000000000000 ) ) ;
#171 = APPLICATION_CONTEXT ( 'automotive_design' ) ;
#172 = DIRECTION ( 'NONE',  ( 0.000000000000000000, 1.000000000000000000, 0.000000000000000000 ) ) ;
#173 = EDGE_CURVE ( 'NONE', #220, #147, #140, .T. ) ;
#174 = CYLINDRICAL_SURFACE ( 'NONE', #234, 1.000000000000000000 ) ;
#175 = EDGE_CURVE ( 'NONE', #151, #201, #71, .T. ) ;
#176 = VERTEX_POINT ( 'NONE', #290 ) ;
#177 = VECTOR ( 'NONE', #181, 1000.000000000000000 ) ;
#178 = AXIS2_PLACEMENT_3D ( 'NONE', #212, #121, #40 ) ;
#179 = ORIENTED_EDGE ( 'NONE', *, *, #173, .F. ) ;
#180 = ORIENTED_EDGE ( 'NONE', *, *, #70, .T. ) ;
#181 = DIRECTION ( 'NONE',  ( 0.000000000000000000, -1.000000000000000000, 0.000000000000000000 ) ) ;
#182 = CARTESIAN_POINT ( 'NONE',  ( 0.9999999999999956701, 0.000000000000000000, -45.00000000000000000 ) ) ;
#183 = LINE ( 'NONE', #276, #248 ) ;
#184 = STYLED_ITEM ( 'NONE', ( #237 ), #100 ) ;
#185 = EDGE_LOOP ( 'NONE', ( #202, #254, #180, #162 ) ) ;
#186 = ORIENTED_EDGE ( 'NONE', *, *, #131, .F. ) ;
#187 = CARTESIAN_POINT ( 'NONE',  ( 0.9999999999999997780, 0.8000000000000000444, 0.000000000000000000 ) ) ;
#188 = FACE_OUTER_BOUND ( 'NONE', #110, .T. ) ;
#189 = DIRECTION ( 'NONE',  ( 0.000000000000000000, 0.000000000000000000, -1.000000000000000000 ) ) ;
#190 = CARTESIAN_POINT ( 'NONE',  ( -7.709882115452564448E-17, 0.000000000000000000, -1.000000000000014655 ) ) ;
#191 = DIRECTION ( 'NONE',  ( 0.000000000000000000, -1.000000000000000000, 0.000000000000000000 ) ) ;
#192 = CARTESIAN_POINT ( 'NONE',  ( -3.469446951953613794E-15, 0.000000000000000000, -45.00000000000000000 ) ) ;
#193 =( LENGTH_UNIT ( ) NAMED_UNIT ( * ) SI_UNIT ( .MILLI., .METRE. ) );
#194 = CARTESIAN_POINT ( 'NONE',  ( 15.00000000000000178, 0.000000000000000000, -44.00000000000000000 ) ) ;
#195 = DIRECTION ( 'NONE',  ( 0.000000000000000000, -1.000000000000000000, 0.000000000000000000 ) ) ;
#196 = EDGE_CURVE ( 'NONE', #147, #3, #84, .T. ) ;
#197 = DIRECTION ( 'NONE',  ( -1.000000000000000000, 0.000000000000000000, 0.000000000000000000 ) ) ;
#198 = COLOUR_RGB ( '',0.7921568627450980005, 0.8196078431372548767, 0.9333333333333333481 ) ;
#199 = DIRECTION ( 'NONE',  ( -0.000000000000000000, 1.000000000000000000, -0.000000000000000000 ) ) ;
#200 = ORIENTED_EDGE ( 'NONE', *, *, #17, .T. ) ;
#201 = VERTEX_POINT ( 'NONE', #216 ) ;
#202 = ORIENTED_EDGE ( 'NONE', *, *, #175, .F. ) ;
#203 = CARTESIAN_POINT ( 'NONE',  ( 15.00000000000000178, 0.8000000000000000444, 0.000000000000000000 ) ) ;
#204 = ORIENTED_EDGE ( 'NONE', *, *, #320, .F. ) ;
#205 = EDGE_CURVE ( 'NONE', #233, #51, #222, .T. ) ;
#206 = ORIENTED_EDGE ( 'NONE', *, *, #95, .F. ) ;
#207 = ORIENTED_EDGE ( 'NONE', *, *, #292, .F. ) ;
#208 = VERTEX_POINT ( 'NONE', #283 ) ;
#209 = CARTESIAN_POINT ( 'NONE',  ( -3.469446951953613794E-15, 0.8000000000000000444, -45.00000000000000000 ) ) ;
#210 = CARTESIAN_POINT ( 'NONE',  ( 0.9999999999999997780, 0.8000000000000000444, -1.000000000000000000 ) ) ;
#211 = FILL_AREA_STYLE_COLOUR ( '', #198 ) ;
#212 = CARTESIAN_POINT ( 'NONE',  ( 16.00000000000000000, 0.8000000000000000444, 0.000000000000000000 ) ) ;
#213 = CYLINDRICAL_SURFACE ( 'NONE', #76, 1.000000000000000000 ) ;
#214 = DIRECTION ( 'NONE',  ( 0.000000000000000000, 0.000000000000000000, -1.000000000000000000 ) ) ;
#215 = FACE_OUTER_BOUND ( 'NONE', #23, .T. ) ;
#216 = CARTESIAN_POINT ( 'NONE',  ( 0.9999999999999956701, 0.8000000000000000444, -45.00000000000000000 ) ) ;
#217 = VECTOR ( 'NONE', #108, 1000.000000000000000 ) ;
#218 = CARTESIAN_POINT ( 'NONE',  ( 16.00000000000000000, 0.000000000000000000, -45.00000000000000000 ) ) ;
#219 = DIRECTION ( 'NONE',  ( 0.000000000000000000, 0.000000000000000000, 1.000000000000000000 ) ) ;
#220 = VERTEX_POINT ( 'NONE', #94 ) ;
#221 = VERTEX_POINT ( 'NONE', #138 ) ;
#222 = CIRCLE ( 'NONE', #169, 1.000000000000000888 ) ;
#223 = ORIENTED_EDGE ( 'NONE', *, *, #292, .T. ) ;
#224 = PRODUCT_CONTEXT ( 'NONE', #171, 'mechanical' ) ;
#225 = VECTOR ( 'NONE', #197, 1000.000000000000000 ) ;
#226 = ORIENTED_EDGE ( 'NONE', *, *, #251, .T. ) ;
#227 = ORIENTED_EDGE ( 'NONE', *, *, #95, .T. ) ;
#228 = UNCERTAINTY_MEASURE_WITH_UNIT (LENGTH_MEASURE( 1.000000000000000082E-05 ), #193, 'distance_accuracy_value', 'NONE');
#229 = ADVANCED_FACE ( 'NONE', ( #16 ), #174, .T. ) ;
#230 = EDGE_LOOP ( 'NONE', ( #109, #157, #179, #227 ) ) ;
#231 = ADVANCED_FACE ( 'NONE', ( #72 ), #319, .T. ) ;
#232 = CIRCLE ( 'NONE', #158, 1.000000000000000000 ) ;
#233 = VERTEX_POINT ( 'NONE', #67 ) ;
#234 = AXIS2_PLACEMENT_3D ( 'NONE', #242, #267, #99 ) ;
#235 = PRODUCT ( 'PowerBoard', 'PowerBoard', '', ( #224 ) ) ;
#236 = ORIENTED_EDGE ( 'NONE', *, *, #262, .F. ) ;
#237 = PRESENTATION_STYLE_ASSIGNMENT (( #93 ) ) ;
#238 = FACE_OUTER_BOUND ( 'NONE', #20, .T. ) ;
#239 = AXIS2_PLACEMENT_3D ( 'NONE', #273, #56, #54 ) ;
#240 = SURFACE_STYLE_FILL_AREA ( #135 ) ;
#241 = DIRECTION ( 'NONE',  ( 0.000000000000000000, -0.000000000000000000, 1.000000000000000000 ) ) ;
#242 = CARTESIAN_POINT ( 'NONE',  ( 0.9999999999999997780, 0.8000000000000000444, -1.000000000000000000 ) ) ;
#243 = CARTESIAN_POINT ( 'NONE',  ( 16.00000000000000000, 0.8000000000000000444, -45.00000000000000000 ) ) ;
#244 = VECTOR ( 'NONE', #12, 1000.000000000000000 ) ;
#245 = AXIS2_PLACEMENT_3D ( 'NONE', #291, #172, #312 ) ;
#246 =( NAMED_UNIT ( * ) PLANE_ANGLE_UNIT ( ) SI_UNIT ( $, .RADIAN. ) );
#247 = VECTOR ( 'NONE', #66, 1000.000000000000000 ) ;
#248 = VECTOR ( 'NONE', #69, 1000.000000000000000 ) ;
#249 =( NAMED_UNIT ( * ) SI_UNIT ( $, .STERADIAN. ) SOLID_ANGLE_UNIT ( ) );
#250 = UNCERTAINTY_MEASURE_WITH_UNIT (LENGTH_MEASURE( 1.000000000000000082E-05 ), #148, 'distance_accuracy_value', 'NONE');
#251 = EDGE_CURVE ( 'NONE', #208, #160, #299, .T. ) ;
#252 = ORIENTED_EDGE ( 'NONE', *, *, #325, .T. ) ;
#253 = LINE ( 'NONE', #128, #125 ) ;
#254 = ORIENTED_EDGE ( 'NONE', *, *, #39, .T. ) ;
#255 = ORIENTED_EDGE ( 'NONE', *, *, #205, .T. ) ;
#256 = ORIENTED_EDGE ( 'NONE', *, *, #39, .F. ) ;
#257 = LINE ( 'NONE', #30, #130 ) ;
#258 = ADVANCED_FACE ( 'NONE', ( #238 ), #42, .F. ) ;
#259 = DIRECTION ( 'NONE',  ( -0.000000000000000000, -1.000000000000000000, -0.000000000000000000 ) ) ;
#260 = LINE ( 'NONE', #284, #247 ) ;
#261 = DIRECTION ( 'NONE',  ( -1.734723475976805517E-15, 0.000000000000000000, 1.000000000000000000 ) ) ;
#262 = EDGE_CURVE ( 'NONE', #85, #102, #166, .T. ) ;
#263 = DIRECTION ( 'NONE',  ( 0.000000000000000000, 0.000000000000000000, -1.000000000000000000 ) ) ;
#264 = CYLINDRICAL_SURFACE ( 'NONE', #159, 1.000000000000000888 ) ;
#265 = CARTESIAN_POINT ( 'NONE',  ( -3.392348130799088816E-15, 0.8000000000000000444, -44.00000000000000000 ) ) ;
#266 = DIRECTION ( 'NONE',  ( -0.000000000000000000, -1.000000000000000000, -0.000000000000000000 ) ) ;
#267 = DIRECTION ( 'NONE',  ( 0.000000000000000000, -1.000000000000000000, 0.000000000000000000 ) ) ;
#268 = FACE_OUTER_BOUND ( 'NONE', #230, .T. ) ;
#269 = ORIENTED_EDGE ( 'NONE', *, *, #297, .F. ) ;
#270 = ORIENTED_EDGE ( 'NONE', *, *, #175, .T. ) ;
#271 = PLANE ( 'NONE',  #5 ) ;
#272 = FACE_OUTER_BOUND ( 'NONE', #185, .T. ) ;
#273 = CARTESIAN_POINT ( 'NONE',  ( 16.00000000000000000, 0.8000000000000000444, -45.00000000000000000 ) ) ;
#274 = AXIS2_PLACEMENT_3D ( 'NONE', #61, #88, #263 ) ;
#275 = VERTEX_POINT ( 'NONE', #113 ) ;
#276 = CARTESIAN_POINT ( 'NONE',  ( 15.00000000000000178, 0.8000000000000000444, 0.000000000000000000 ) ) ;
#277 = ORIENTED_EDGE ( 'NONE', *, *, #325, .F. ) ;
#278 = DIRECTION ( 'NONE',  ( 1.000000000000000000, 0.000000000000000000, 0.000000000000000000 ) ) ;
#279 = LINE ( 'NONE', #8, #34 ) ;
#280 = PLANE ( 'NONE',  #294 ) ;
#281 = PRODUCT_DEFINITION ( 'UNKNOWN', '', #50, #22 ) ;
#282 = PLANE ( 'NONE',  #10 ) ;
#283 = CARTESIAN_POINT ( 'NONE',  ( 15.00000000000000178, 0.000000000000000000, -45.00000000000000000 ) ) ;
#284 = CARTESIAN_POINT ( 'NONE',  ( 16.00000000000000000, 0.000000000000000000, 0.000000000000000000 ) ) ;
#285 = CARTESIAN_POINT ( 'NONE',  ( 0.9999999999999963363, 0.000000000000000000, -44.00000000000000000 ) ) ;
#286 = DIRECTION ( 'NONE',  ( 1.000000000000000000, 0.000000000000000000, 0.000000000000000000 ) ) ;
#287 = CIRCLE ( 'NONE', #96, 1.000000000000000888 ) ;
#288 = CIRCLE ( 'NONE', #19, 1.000000000000000000 ) ;
#289 = CYLINDRICAL_SURFACE ( 'NONE', #274, 1.000000000000000888 ) ;
#290 = CARTESIAN_POINT ( 'NONE',  ( 0.9999999999999997780, 0.000000000000000000, 0.000000000000000000 ) ) ;
#291 = CARTESIAN_POINT ( 'NONE',  ( 15.00000000000000178, 0.8000000000000000444, -1.000000000000000000 ) ) ;
#292 = EDGE_CURVE ( 'NONE', #233, #161, #13, .T. ) ;
#293 = APPLICATION_PROTOCOL_DEFINITION ( 'draft international standard', 'automotive_design', 1998, #300 ) ;
#294 = AXIS2_PLACEMENT_3D ( 'NONE', #62, #83, #106 ) ;
#295 = APPLICATION_PROTOCOL_DEFINITION ( 'draft international standard', 'automotive_design', 1998, #171 ) ;
#296 = ORIENTED_EDGE ( 'NONE', *, *, #103, .T. ) ;
#297 = EDGE_CURVE ( 'NONE', #3, #221, #119, .T. ) ;
#298 = ORIENTED_EDGE ( 'NONE', *, *, #309, .T. ) ;
#299 = CIRCLE ( 'NONE', #97, 1.000000000000000888 ) ;
#300 = APPLICATION_CONTEXT ( 'automotive_design' ) ;
#301 = ORIENTED_EDGE ( 'NONE', *, *, #27, .F. ) ;
#302 = EDGE_LOOP ( 'NONE', ( #47, #44, #132, #206 ) ) ;
#303 = EDGE_CURVE ( 'NONE', #275, #58, #288, .T. ) ;
#304 = ORIENTED_EDGE ( 'NONE', *, *, #303, .T. ) ;
#305 = LINE ( 'NONE', #311, #217 ) ;
#306 = VECTOR ( 'NONE', #25, 1000.000000000000000 ) ;
#307 = ORIENTED_EDGE ( 'NONE', *, *, #103, .F. ) ;
#308 = ORIENTED_EDGE ( 'NONE', *, *, #149, .F. ) ;
#309 = EDGE_CURVE ( 'NONE', #102, #220, #37, .T. ) ;
#310 = EDGE_LOOP ( 'NONE', ( #74, #101, #270, #6, #124, #298, #7, #123 ) ) ;
#311 = CARTESIAN_POINT ( 'NONE',  ( -7.709882115452486795E-17, 0.8000000000000000444, -1.000000000000000888 ) ) ;
#312 = DIRECTION ( 'NONE',  ( 0.000000000000000000, 0.000000000000000000, 1.000000000000000000 ) ) ;
#313 = CARTESIAN_POINT ( 'NONE',  ( 15.00000000000000178, 0.8000000000000000444, -44.00000000000000000 ) ) ;
#314 = LINE ( 'NONE', #218, #244 ) ;
#315 = DIRECTION ( 'NONE',  ( 0.000000000000000000, 0.000000000000000000, 1.000000000000000000 ) ) ;
#316 = DIRECTION ( 'NONE',  ( 0.000000000000000000, -1.000000000000000000, 0.000000000000000000 ) ) ;
#317 = DIRECTION ( 'NONE',  ( 0.000000000000000000, 0.000000000000000000, -1.000000000000000000 ) ) ;
#318 = DIRECTION ( 'NONE',  ( 1.000000000000000000, 0.000000000000000000, -7.709882115452475701E-17 ) ) ;
#319 = PLANE ( 'NONE',  #143 ) ;
#320 = EDGE_CURVE ( 'NONE', #221, #151, #154, .T. ) ;
#321 = DIRECTION ( 'NONE',  ( 1.000000000000000000, 0.000000000000000000, 0.000000000000000000 ) ) ;
#322 = ORIENTED_EDGE ( 'NONE', *, *, #134, .T. ) ;
#323 = ORIENTED_EDGE ( 'NONE', *, *, #17, .F. ) ;
#324 =( GEOMETRIC_REPRESENTATION_CONTEXT ( 3 ) GLOBAL_UNCERTAINTY_ASSIGNED_CONTEXT ( ( #228 ) ) GLOBAL_UNIT_ASSIGNED_CONTEXT ( ( #193, #133, #31 ) ) REPRESENTATION_CONTEXT ( 'NONE', 'WORKASPACE' ) );
#325 = EDGE_CURVE ( 'NONE', #160, #221, #75, .T. ) ;
#326 = CARTESIAN_POINT ( 'NONE',  ( 16.00000000000000000, 0.8000000000000000444, -44.00000000000000000 ) ) ;
#327 = ADVANCED_FACE ( 'NONE', ( #268 ), #271, .F. ) ;
ENDSEC;
END-ISO-10303-21;
